0
SECTION
2
HEADER
9
$INSUNITS
70
4
9
$ACADVER
1
AC1014
9
$HANDSEED
5
FFFF
0
ENDSEC
0
SECTION
2
TABLES
0
TABLE
2
VPORT
5
8
100
AcDbSymbolTable
0
ENDTAB
0
TABLE
2
LTYPE
5
5
100
AcDbSymbolTable
0
LTYPE
5
14
100
AcDbSymbolTableRecord
100
AcDbLinetypeTableRecord
2
BYBLOCK
70
0
0
LTYPE
5
15
100
AcDbSymbolTableRecord
100
AcDbLinetypeTableRecord
2
BYLAYER
70
0
0
LTYPE
5
16
100
AcDbSymbolTableRecord
100
AcDbLinetypeTableRecord
2
DASHED
70
0
3
Dashed __ __ __ __ __ __ __ __ __ __ __ __ __ _
72
65
73
2
40
0.75
49
0.5
74
0
49
-0.25
74
0
0
ENDTAB
0
TABLE
2
LAYER
5
2
100
AcDbSymbolTable
70
2
0
LAYER
5
50
100
AcDbSymbolTableRecord
100
AcDbLayerTableRecord
2
0
70
0
62
7
6
CONTINUOUS
0
ENDTAB
0
TABLE
2
STYLE
5
3
100
AcDbSymbolTable
70
1
0
STYLE
5
11
100
AcDbSymbolTableRecord
100
AcDbTextStyleTableRecord
2
STANDARD
70
0
0
ENDTAB
0
TABLE
2
VIEW
5
6
100
AcDbSymbolTable
70
0
0
ENDTAB
0
TABLE
2
UCS
5
7
100
AcDbSymbolTable
70
0
0
ENDTAB
0
TABLE
2
APPID
5
9
100
AcDbSymbolTable
70
2
0
APPID
5
12
100
AcDbSymbolTableRecord
100
AcDbRegAppTableRecord
2
ACAD
70
0
0
ENDTAB
0
TABLE
2
DIMSTYLE
5
A
100
AcDbSymbolTable
70
1
0
ENDTAB
0
TABLE
2
BLOCK_RECORD
5
1
100
AcDbSymbolTable
70
1
0
BLOCK_RECORD
5
1F
100
AcDbSymbolTableRecord
100
AcDbBlockTableRecord
2
*MODEL_SPACE
0
BLOCK_RECORD
5
1B
100
AcDbSymbolTableRecord
100
AcDbBlockTableRecord
2
*PAPER_SPACE
0
ENDTAB
0
ENDSEC
0
SECTION
2
BLOCKS
0
BLOCK
5
20
100
AcDbEntity
100
AcDbBlockBegin
2
*MODEL_SPACE
0
ENDBLK
5
21
100
AcDbEntity
100
AcDbBlockEnd
0
BLOCK
5
1C
100
AcDbEntity
100
AcDbBlockBegin
2
*PAPER_SPACE
0
ENDBLK
5
1D
100
AcDbEntity
100
AcDbBlockEnd
0
ENDSEC
0
SECTION
2
ENTITIES
0
POINT
5
100
100
AcDbEntity
8
0
100
AcDbPoint
10
0
20
0
30
0
0
POINT
5
101
100
AcDbEntity
8
0
100
AcDbPoint
10
0
20
0
30
0
0
POINT
5
102
100
AcDbEntity
8
0
100
AcDbPoint
10
0
20
0
30
0
0
POINT
5
103
100
AcDbEntity
8
0
100
AcDbPoint
10
0
20
0
30
0
0
POINT
5
104
100
AcDbEntity
8
0
100
AcDbPoint
10
0
20
0
30
0
0
POINT
5
105
100
AcDbEntity
8
0
100
AcDbPoint
10
0
20
0
30
0
0
POINT
5
106
100
AcDbEntity
8
0
100
AcDbPoint
10
0
20
0
30
0
0
LINE
5
107
100
AcDbEntity
8
0
100
AcDbLine
10
25
20
-25
30
0
11
50
21
-25
31
0
6
DASHED
0
SPLINE
5
108
100
AcDbEntity
8
0
100
AcDbSpline
70
4
71
5
72
16
73
10
74
0
42
0.000000001
43
0.0000000001
44
0.0000000001
40
0
40
0
40
0
40
0
40
0
40
0
40
0.20000000000000001
40
0.40000000000000002
40
0.60000000000000009
40
0.80000000000000004
40
0.98953201023612203
40
0.98953201023612203
40
0.98953201023612203
40
0.98953201023612203
40
0.98953201023612203
40
0.98953201023612203
41
1
41
1
41
1
41
1
41
1
41
1
41
1
41
1
41
1
41
1
10
50
20
-25
30
0
10
49.99999964836104
20
-24.764018915727508
30
0
10
49.798516058785999
20
-24.217595530903246
30
0
10
48.892438637323998
20
-23.174811888557507
30
0
10
46.688989056677251
20
-21.429242678322634
30
0
10
43.191239984965307
20
-19.087054271029107
30
0
10
40.49123719455973
20
-17.42928165648453
30
0
10
38.847958964303814
20
-16.489650856622994
30
0
10
37.975196817823672
20
-16.029703139260704
30
0
10
37.601609044093408
20
-15.84439510816917
30
0
0
SPLINE
5
109
100
AcDbEntity
8
0
100
AcDbSpline
70
4
71
5
72
16
73
10
74
0
42
0.000000001
43
0.0000000001
44
0.0000000001
40
0
40
0
40
0
40
0
40
0
40
0
40
0.20000000000000001
40
0.40000000000000002
40
0.60000000000000009
40
0.80000000000000004
40
0.98953201023612325
40
0.98953201023612325
40
0.98953201023612325
40
0.98953201023612325
40
0.98953201023612325
40
0.98953201023612325
41
1
41
1
41
1
41
1
41
1
41
1
41
1
41
1
41
1
41
1
10
32.725424859373689
20
-1.2235870926211634
30
0
10
32.949856098631024
20
-1.2965095924409109
30
0
10
33.407273766157836
20
-1.6569859852673785
30
0
10
34.11902662284556
20
-2.8409546881577619
30
0
10
35.098258228215421
20
-5.4759703209799016
30
0
10
36.244947870144706
20
-9.5263033898785636
30
0
10
36.98723657064788
20
-12.606438548412559
30
0
10
37.37307766613236
20
-14.459650902978758
30
0
10
37.540815604575329
20
-15.431828690753356
30
0
10
37.601609044093401
20
-15.844395108169167
30
0
0
SPLINE
5
110
100
AcDbEntity
8
0
100
AcDbSpline
70
4
71
5
72
16
73
10
74
0
42
0.000000001
43
0.0000000001
44
0.0000000001
40
0
40
0
40
0
40
0
40
0
40
0
40
0.20000000000000001
40
0.40000000000000002
40
0.60000000000000009
40
0.80000000000000004
40
0.98953201023612258
40
0.98953201023612258
40
0.98953201023612258
40
0.98953201023612258
40
0.98953201023612258
40
0.98953201023612258
41
1
41
1
41
1
41
1
41
1
41
1
41
1
41
1
41
1
41
1
10
32.725424859373675
20
-48.776412907378841
30
0
10
32.94985609863101
20
-48.703490407559102
30
0
10
33.407273766157822
20
-48.343014014732617
30
0
10
34.119026622845546
20
-47.159045311842235
30
0
10
35.098258228215407
20
-44.524029679020103
30
0
10
36.244947870144706
20
-40.473696610121451
30
0
10
36.987236570647866
20
-37.393561451587445
30
0
10
37.373077666132353
20
-35.540349097021263
30
0
10
37.540815604575315
20
-34.568171309246658
30
0
10
37.601609044093387
20
-34.155604891830848
30
0
0
SPLINE
5
111
100
AcDbEntity
8
0
100
AcDbSpline
70
4
71
5
72
16
73
10
74
0
42
0.000000001
43
0.0000000001
44
0.0000000001
40
0
40
0
40
0
40
0
40
0
40
0
40
0.20000000000000001
40
0.40000000000000002
40
0.60000000000000009
40
0.80000000000000004
40
0.9895320102361248
40
0.9895320102361248
40
0.9895320102361248
40
0.9895320102361248
40
0.9895320102361248
40
0.9895320102361248
41
1
41
1
41
1
41
1
41
1
41
1
41
1
41
1
41
1
41
1
10
50
20
-25
30
0
10
49.99999964836104
20
-25.235981084272492
30
0
10
49.798516058785999
20
-25.782404469096754
30
0
10
48.892438637323998
20
-26.825188111442493
30
0
10
46.688989056677251
20
-28.570757321677366
30
0
10
43.191239984965307
20
-30.912945728970904
30
0
10
40.491237194559709
20
-32.570718343515473
30
0
10
38.847958964303785
20
-33.51034914337702
30
0
10
37.975196817823644
20
-33.97029686073931
30
0
10
37.601609044093379
20
-34.155604891830848
30
0
0
SPLINE
5
112
100
AcDbEntity
8
0
100
AcDbSpline
70
4
71
5
72
16
73
10
74
0
42
0.000000001
43
0.0000000001
44
0.0000000001
40
0
40
0
40
0
40
0
40
0
40
0
40
0.20000000000000001
40
0.40000000000000002
40
0.60000000000000009
40
0.80000000000000004
40
0.98953201023612258
40
0.98953201023612258
40
0.98953201023612258
40
0.98953201023612258
40
0.98953201023612258
40
0.98953201023612258
41
1
41
1
41
1
41
1
41
1
41
1
41
1
41
1
41
1
41
1
10
4.7745751406263093
20
-39.694631307311823
30
0
10
4.9132816262635526
20
-39.885543808151105
30
0
10
5.3974648814248738
20
-40.209180530066661
30
0
10
6.7434297599097182
20
-40.520231272410008
30
0
10
9.5520777555331637
20
-40.637271260673486
30
0
10
13.75852000050485
20
-40.476216165629978
30
0
10
16.917282437286389
20
-40.230360562256998
30
0
10
18.799023578808207
20
-40.024643138625422
30
0
10
19.775453472448937
20
-39.883751940035324
30
0
10
20.186613658094387
20
-39.814079902547107
30
0
0
SPLINE
5
113
100
AcDbEntity
8
0
100
AcDbSpline
70
4
71
5
72
16
73
10
74
0
42
0.000000001
43
0.0000000001
44
0.0000000001
40
0
40
0
40
0
40
0
40
0
40
0
40
0.20000000000000001
40
0.40000000000000002
40
0.60000000000000009
40
0.80000000000000004
40
0.98953201023612269
40
0.98953201023612269
40
0.98953201023612269
40
0.98953201023612269
40
0.98953201023612269
40
0.98953201023612269
41
1
41
1
41
1
41
1
41
1
41
1
41
1
41
1
41
1
41
1
10
32.725424859373675
20
-48.776412907378841
30
0
10
32.500993402791508
20
-48.84933473834154
30
0
10
31.919052028731983
20
-48.826566569584244
30
0
10
30.647312529141885
20
-48.287073600575937
30
0
10
28.30627419043563
20
-46.730879069394256
30
0
10
24.99785673806997
20
-44.128098044258969
30
0
10
22.586874543376592
20
-42.0725227071323
30
0
10
21.185431648621183
20
-40.800034123756802
30
0
10
20.478297039559159
20
-40.112119658360029
30
0
10
20.186613658094387
20
-39.8140799025471
30
0
0
SPLINE
5
114
100
AcDbEntity
8
0
100
AcDbSpline
70
4
71
5
72
16
73
10
74
0
42
0.000000001
43
0.0000000001
44
0.0000000001
40
0
40
0
40
0
40
0
40
0
40
0
40
0.20000000000000001
40
0.40000000000000002
40
0.60000000000000009
40
0.80000000000000004
40
0.98953201023612203
40
0.98953201023612203
40
0.98953201023612203
40
0.98953201023612203
40
0.98953201023612203
40
0.98953201023612203
41
1
41
1
41
1
41
1
41
1
41
1
41
1
41
1
41
1
41
1
10
4.7745751406263182
20
-10.305368692688175
30
0
10
4.6358692239528532
20
-10.496281606903839
30
0
10
4.4776932648992984
20
-11.056776493881717
30
0
10
4.5977924507788304
20
-12.432985127766178
30
0
10
5.3544007691385209
20
-15.140335451378046
30
0
10
6.8074354063151441
20
-19.091130997478455
30
0
10
8.0173692541294024
20
-22.019319036803338
30
0
10
8.794508142134438
20
-23.745391031487149
30
0
10
9.2302370655928829
20
-24.630493269817354
30
0
10
9.4235545956244096
20
-25.000000000000004
30
0
0
SPLINE
5
115
100
AcDbEntity
8
0
100
AcDbSpline
70
4
71
5
72
16
73
10
74
0
42
0.000000001
43
0.0000000001
44
0.0000000001
40
0
40
0
40
0
40
0
40
0
40
0
40
0.20000000000000001
40
0.40000000000000002
40
0.60000000000000009
40
0.80000000000000004
40
0.98953201023612447
40
0.98953201023612447
40
0.98953201023612447
40
0.98953201023612447
40
0.98953201023612447
40
0.98953201023612447
41
1
41
1
41
1
41
1
41
1
41
1
41
1
41
1
41
1
41
1
10
4.7745751406263093
20
-39.694631307311823
30
0
10
4.6358692239528398
20
-39.503718393096165
30
0
10
4.4776932648992762
20
-38.943223506118287
30
0
10
4.597792450778817
20
-37.56701487223382
30
0
10
5.3544007691385076
20
-34.859664548621964
30
0
10
6.8074354063151343
20
-30.908869002521534
30
0
10
8.0173692541294077
20
-27.980680963196647
30
0
10
8.7945081421344433
20
-26.254608968512834
30
0
10
9.2302370655928883
20
-25.369506730182621
30
0
10
9.4235545956244184
20
-24.999999999999982
30
0
0
SPLINE
5
116
100
AcDbEntity
8
0
100
AcDbSpline
70
4
71
5
72
16
73
10
74
0
42
0.000000001
43
0.0000000001
44
0.0000000001
40
0
40
0
40
0
40
0
40
0
40
0
40
0.20000000000000001
40
0.40000000000000002
40
0.60000000000000009
40
0.80000000000000004
40
0.98953201023612314
40
0.98953201023612314
40
0.98953201023612314
40
0.98953201023612314
40
0.98953201023612314
40
0.98953201023612314
41
1
41
1
41
1
41
1
41
1
41
1
41
1
41
1
41
1
41
1
10
4.7745751406263182
20
-10.305368692688175
30
0
10
4.9132816262635703
20
-10.114456191848902
30
0
10
5.3974648814248871
20
-9.7908194699333428
30
0
10
6.7434297599097315
20
-9.47976872758999
30
0
10
9.5520777555331762
20
-9.3627287393265224
30
0
10
13.758520000504863
20
-9.523783834370029
30
0
10
16.917282437286403
20
-9.7696394377430185
30
0
10
18.799023578808214
20
-9.9753568613745998
30
0
10
19.775453472448952
20
-10.11624805996469
30
0
10
20.186613658094398
20
-10.185920097452909
30
0
0
SPLINE
5
117
100
AcDbEntity
8
0
100
AcDbSpline
70
4
71
5
72
16
73
10
74
0
42
0.000000001
43
0.0000000001
44
0.0000000001
40
0
40
0
40
0
40
0
40
0
40
0
40
0.20000000000000001
40
0.40000000000000002
40
0.60000000000000009
40
0.80000000000000004
40
0.98953201023612325
40
0.98953201023612325
40
0.98953201023612325
40
0.98953201023612325
40
0.98953201023612325
40
0.98953201023612325
41
1
41
1
41
1
41
1
41
1
41
1
41
1
41
1
41
1
41
1
10
32.725424859373689
20
-1.2235870926211634
30
0
10
32.500993402791522
20
-1.1506652616584567
30
0
10
31.919052028731997
20
-1.173433430415769
30
0
10
30.647312529141896
20
-1.7129263994240684
30
0
10
28.306274190435644
20
-3.2691209306057489
30
0
10
24.997856738069977
20
-5.8719019557410279
30
0
10
22.586874543376595
20
-7.927477292867696
30
0
10
21.185431648621183
20
-9.1999658762432102
30
0
10
20.478297039559177
20
-9.8878803416399847
30
0
10
20.186613658094391
20
-10.185920097452907
30
0
0
SPLINE
5
118
100
AcDbEntity
8
0
100
AcDbSpline
70
0
71
3
72
20
73
16
74
0
42
0.000000001
43
0.0000000001
44
0.0000000001
40
0
40
0
40
0
40
0
40
0.083390273313018126
40
0.083390273313018126
40
0.083390273313018126
40
0.22165524634615544
40
0.22165524634615544
40
0.22165524634615544
40
0.48725796174357361
40
0.48725796174357361
40
0.48725796174357361
40
0.80237402955054693
40
0.80237402955054693
40
0.80237402955054693
40
0.89562595814411583
40
0.89562595814411583
40
0.89562595814411583
40
0.89562595814411583
10
2.7520348443602183
20
-41.164097451862247
30
0
10
3.197174804152549
20
-41.776778124701906
30
0
10
3.7278609312486424
20
-42.096049954502199
30
0
10
4.190878116050972
20
-42.310630145039205
30
0
10
4.9585822621960265
20
-42.666414136137043
30
0
10
5.6593532560863284
20
-42.789113302636743
30
0
10
6.4337309395059039
20
-42.888423488396363
30
0
10
7.9212863987624438
20
-43.079195268303749
30
0
10
9.6756103574188632
20
-43.086537506844124
30
0
10
11.522070625319119
20
-43.03392024054876
30
0
10
13.712745890486964
20
-42.971494124050153
30
0
10
15.976904101005758
20
-42.813306341163234
30
0
10
17.81126367353912
20
-42.632273866580377
30
0
10
18.354103551756925
20
-42.578701138568107
30
0
10
18.860870603892725
20
-42.5226100252126
30
0
10
19.325539244087469
20
-42.464194450818901
30
0
0
SPLINE
5
119
100
AcDbEntity
8
0
100
AcDbSpline
70
0
71
3
72
20
73
16
74
0
42
0.000000001
43
0.0000000001
44
0.0000000001
40
0
40
0
40
0
40
0
40
0.083390273312997559
40
0.083390273312997559
40
0.083390273312997559
40
0.22165524634610287
40
0.22165524634610287
40
0.22165524634610287
40
0.48725796174337233
40
0.48725796174337233
40
0.48725796174337233
40
0.80237402955026615
40
0.80237402955026615
40
0.80237402955026615
40
0.89562595814411949
40
0.89562595814411949
40
0.89562595814411949
40
0.89562595814411949
10
33.497963802351173
20
-51.154055349291248
30
0
10
32.777713346144274
20
-51.388077722171502
30
0
10
32.160715977615865
20
-51.334444579201943
30
0
10
31.660000134991336
20
-51.235888927217879
30
0
10
30.829789851138738
20
-51.07247904711484
30
0
10
30.190733447379507
20
-50.759841902565732
30
0
10
29.50587567883661
20
-50.385017748541514
30
0
10
28.190285193440467
20
-49.664992199616123
30
0
10
26.766691637716487
20
-48.639766444731301
30
0
10
25.303801554692189
20
-47.511876067685776
30
0
10
23.568201186650711
20
-46.173725665118482
30
0
10
21.829439162261561
20
-44.714910255460993
30
0
10
20.451819313033155
20
-43.49024240285295
30
0
10
20.044141885779759
20
-43.127827880682091
30
0
10
19.667128257626295
20
-42.784579017149724
30
0
10
19.325539244087434
20
-42.464194450818781
30
0
0
SPLINE
5
120
100
AcDbEntity
8
0
100
AcDbSpline
70
0
71
3
72
20
73
16
74
0
42
0.000000001
43
0.0000000001
44
0.0000000001
40
0
40
0
40
0
40
0
40
0.08339027331302884
40
0.08339027331302884
40
0.08339027331302884
40
0.2216552463458997
40
0.2216552463458997
40
0.2216552463458997
40
0.48725796174273794
40
0.48725796174273794
40
0.48725796174273794
40
0.80237402955000348
40
0.80237402955000348
40
0.80237402955000348
40
0.89562595814411672
40
0.89562595814411672
40
0.89562595814411672
40
0.89562595814411672
10
33.497970888269123
20
-51.154053046936944
30
0
10
34.218220647032702
20
-50.920028527545576
30
0
10
34.685857233185104
20
-50.51397644949715
30
0
10
35.033015300454984
20
-50.139929864266179
30
0
10
35.608619611392214
20
-49.519743133064793
30
0
10
35.941863599512288
20
-48.891186440540267
30
0
10
36.275609063054318
20
-48.18539803376639
30
0
10
36.916723724444843
20
-46.829600442931998
30
0
10
37.465822525115605
20
-45.163408086850005
30
0
10
37.986368133354318
20
-43.391060387504794
30
0
10
38.603953254566065
20
-41.288313670587897
30
0
10
39.153171097857971
20
-39.086088537333382
30
0
10
39.547847264953006
20
-37.285566801464249
30
0
10
39.664643320475811
20
-36.752740514586002
30
0
10
39.767897132912744
20
-36.25344330014515
30
0
10
39.855931126806276
20
-35.793465756743402
30
0
0
SPLINE
5
121
100
AcDbEntity
8
0
100
AcDbSpline
70
0
71
3
72
20
73
16
74
0
42
0.000000001
43
0.0000000001
44
0.0000000001
40
0
40
0
40
0
40
0
40
0.083390273312997754
40
0.083390273312997754
40
0.083390273312997754
40
0.22165524634597458
40
0.22165524634597458
40
0.22165524634597458
40
0.48725796174322833
40
0.48725796174322833
40
0.48725796174322833
40
0.80237402955035697
40
0.80237402955035697
40
0.80237402955035697
40
0.89562595814411616
40
0.89562595814411616
40
0.89562595814411616
40
0.89562595814411616
10
52.499999999997222
20
-25.000003725287549
30
0
10
52.499998871509604
20
-25.757319505311649
30
0
10
52.258328049039122
20
-26.327545320548221
30
0
10
52.009866349278184
20
-26.773299014133748
30
0
10
51.597905231364216
20
-27.512379484485759
30
0
10
51.103090348679679
20
-28.023548050822239
30
0
10
50.534978705321372
20
-28.559059460834106
30
0
10
49.443653897491885
20
-29.587760233743822
30
0
10
48.028691660834049
20
-30.624865980140513
30
0
10
46.503946271521386
20
-31.667619831925265
30
0
10
44.694959602207298
20
-32.904762656213371
30
0
10
42.770236686069147
20
-34.107624856555979
30
0
10
41.17980039934821
20
-35.039376012222199
30
0
10
40.709144453193787
20
-35.315108039598606
30
0
10
40.266191766610618
20
-35.567599575254278
30
0
10
39.855931126806325
20
-35.793465756743331
30
0
0
SPLINE
5
122
100
AcDbEntity
8
0
100
AcDbSpline
70
0
71
3
72
20
73
16
74
0
42
0.000000001
43
0.0000000001
44
0.0000000001
40
0
40
0
40
0
40
0
40
0.08339027331303478
40
0.08339027331303478
40
0.08339027331303478
40
0.22165524634614422
40
0.22165524634614422
40
0.22165524634614422
40
0.48725796174359159
40
0.48725796174359159
40
0.48725796174359159
40
0.80237402955083348
40
0.80237402955083348
40
0.80237402955083348
40
0.89562595814411616
40
0.89562595814411616
40
0.89562595814411616
40
0.89562595814411616
10
52.499999999997222
20
-24.999996274712451
30
0
10
52.499998871509604
20
-24.24268049468801
30
0
10
52.258328049038909
20
-23.672454679451253
30
0
10
52.009866349277836
20
-23.226700985865651
30
0
10
51.597905231363441
20
-22.487620515513139
30
0
10
51.103090348678336
20
-21.976451949176287
30
0
10
50.534978705319283
20
-21.440940539163925
30
0
10
49.443653897488616
20
-20.412239766253503
30
0
10
48.028691660829203
20
-19.375134019855956
30
0
10
46.503946271515133
20
-18.332380168070465
30
0
10
44.694959602200051
20
-17.095237343781935
30
0
10
42.770236686061487
20
-15.892375143439279
30
0
10
41.179800399340976
20
-14.960623987773563
30
0
10
40.709144453189253
20
-14.684891960398815
30
0
10
40.266191766608515
20
-14.432400424744543
30
0
10
39.855931126806311
20
-14.206534243256648
30
0
0
SPLINE
5
123
100
AcDbEntity
8
0
100
AcDbSpline
70
0
71
3
72
20
73
16
74
0
42
0.000000001
43
0.0000000001
44
0.0000000001
40
0
40
0
40
0
40
0
40
0.083390273312971483
40
0.083390273312971483
40
0.083390273312971483
40
0.22165524634596367
40
0.22165524634596367
40
0.22165524634596367
40
0.48725796174316088
40
0.48725796174316088
40
0.48725796174316088
40
0.80237402955032888
40
0.80237402955032888
40
0.80237402955032888
40
0.89562595814411661
40
0.89562595814411661
40
0.89562595814411661
40
0.89562595814411661
10
33.497970888269172
20
1.1540530469369252
30
0
10
34.21822064703219
20
0.92002852754572773
30
0
10
34.685857233184528
20
0.51397644949757759
30
0
10
35.033015300454259
20
0.13992986426693388
30
0
10
35.608619611392157
20
-0.48025686693488145
30
0
10
35.941863599512573
20
-1.1088135594601451
30
0
10
36.275609063054816
20
-1.8146019662346462
30
0
10
36.916723724446058
20
-3.1703995570708909
30
0
10
37.465822525117495
20
-4.8365919131556794
30
0
10
37.986368133356805
20
-6.6089396125036597
30
0
10
38.603953254568232
20
-8.7116863294203561
30
0
10
39.153171097859591
20
-10.913911462673427
30
0
10
39.547847264954228
20
-12.714433198541322
30
0
10
39.664643320476543
20
-13.247259485417501
30
0
10
39.76789713291307
20
-13.746556699856509
30
0
10
39.855931126806283
20
-14.206534243256641
30
0
0
SPLINE
5
124
100
AcDbEntity
8
0
100
AcDbSpline
70
0
71
3
72
20
73
16
74
0
42
0.000000001
43
0.0000000001
44
0.0000000001
40
0
40
0
40
0
40
0
40
0.083390273312976687
40
0.083390273312976687
40
0.083390273312976687
40
0.2216552463459659
40
0.2216552463459659
40
0.2216552463459659
40
0.48725796174309871
40
0.48725796174309871
40
0.48725796174309871
40
0.80237402955068715
40
0.80237402955068715
40
0.80237402955068715
40
0.8956259581441175
40
0.8956259581441175
40
0.8956259581441175
40
0.8956259581441175
10
33.497963802351222
20
1.1540553492912331
30
0
10
32.777713346144452
20
1.3880777221714591
30
0
10
32.160715977616235
20
1.3344445792019597
30
0
10
31.660000134991723
20
1.2358889272179412
30
0
10
30.829789851139651
20
1.0724790471150729
30
0
10
30.190733447380936
20
0.75984190256636341
30
0
10
29.505875678838652
20
0.38501774854262205
30
0
10
28.190285193443259
20
-0.33500780038209221
30
0
10
26.76669163772031
20
-1.360233555265939
30
0
10
25.303801554696722
20
-2.4881239323107236
30
0
10
23.568201186651372
20
-3.8262743348807704
30
0
10
21.829439162258147
20
-5.2850897445417955
30
0
10
20.451819313027638
20
-6.5097575971519657
30
0
10
20.044141885776362
20
-6.8721721193210037
30
0
10
19.667128257624892
20
-7.2154209828516249
30
0
10
19.325539244087565
20
-7.5358055491810916
30
0
0
SPLINE
5
125
100
AcDbEntity
8
0
100
AcDbSpline
70
0
71
3
72
20
73
16
74
0
42
0.000000001
43
0.0000000001
44
0.0000000001
40
0
40
0
40
0
40
0
40
0.083390273312996296
40
0.083390273312996296
40
0.083390273312996296
40
0.22165524634601075
40
0.22165524634601075
40
0.22165524634601075
40
0.4872579617432205
40
0.4872579617432205
40
0.4872579617432205
40
0.802374029550464
40
0.802374029550464
40
0.802374029550464
40
0.89562595814412049
40
0.89562595814412049
40
0.89562595814412049
40
0.89562595814412049
10
2.7520348443603044
20
-8.8359025481376499
30
0
10
3.1971748041524872
20
-8.2232218752982575
30
0
10
3.7278609312481041
20
-7.9039500454981617
30
0
10
4.1908781160504676
20
-7.6893698549610487
30
0
10
4.9585822621950966
20
-7.3335858638632629
30
0
10
5.6593532560847626
20
-7.2108866973635974
30
0
10
6.4337309395035067
20
-7.1115765116039515
30
0
10
7.9212863987586024
20
-6.9208047316965065
30
0
10
9.6756103574128733
20
-6.9134624931559561
30
0
10
11.522070625311713
20
-6.9660797594510493
30
0
10
13.712745890481477
20
-7.0285058759494445
30
0
10
15.976904101002471
20
-7.1866936588365142
30
0
10
17.811263673537653
20
-7.3677261334194988
30
0
10
18.35410355175604
20
-7.4212988614318061
30
0
10
18.860870603892373
20
-7.4773899747873784
30
0
10
19.325539244087558
20
-7.5358055491811404
30
0
0
SPLINE
5
126
100
AcDbEntity
8
0
100
AcDbSpline
70
0
71
3
72
20
73
16
74
0
42
0.000000001
43
0.0000000001
44
0.0000000001
40
0
40
0
40
0
40
0
40
0.083390273312976007
40
0.083390273312976007
40
0.083390273312976007
40
0.22165524634596334
40
0.22165524634596334
40
0.22165524634596334
40
0.48725796174312341
40
0.48725796174312341
40
0.48725796174312341
40
0.80237402955043313
40
0.80237402955043313
40
0.80237402955043313
40
0.89562595814411916
40
0.89562595814411916
40
0.89562595814411916
40
0.89562595814411916
10
2.7520304650221208
20
-8.8359085757795501
30
0
10
2.3068923311613379
20
-9.4485905752356114
30
0
10
2.1672378089120272
20
-10.051963495750645
30
0
10
2.1062400992254
20
-10.55862793204566
30
0
10
2.0051030439091044
20
-11.398701262398962
30
0
10
2.1049593483424771
20
-12.103090210212251
30
0
10
2.2498056132823003
20
-12.870255687215282
30
0
10
2.528050785861006
20
-14.343956722128508
30
0
10
3.0631838189159266
20
-16.014686831184747
30
0
10
3.6838134151141846
20
-17.754515271566913
30
0
10
4.4201400660913555
20
-19.818680526702757
30
0
10
5.2702489528091423
20
-21.923140233527896
30
0
10
6.0092693491302533
20
-23.611777747036452
30
0
10
6.2279667887960546
20
-24.111494267130279
30
0
10
6.4379122389586083
20
-24.576125267048077
30
0
10
6.6370592582123873
20
-25
30
0
0
SPLINE
5
127
100
AcDbEntity
8
0
100
AcDbSpline
70
0
71
3
72
20
73
16
74
0
42
0.000000001
43
0.0000000001
44
0.0000000001
40
0
40
0
40
0
40
0
40
0.083390273312976854
40
0.083390273312976854
40
0.083390273312976854
40
0.22165524634597397
40
0.22165524634597397
40
0.22165524634597397
40
0.48725796174305103
40
0.48725796174305103
40
0.48725796174305103
40
0.80237402955020598
40
0.80237402955020598
40
0.80237402955020598
40
0.89562595814411627
40
0.89562595814411627
40
0.89562595814411627
40
0.89562595814411627
10
2.7520304650221346
20
-41.164091424220487
30
0
10
2.3068923311613387
20
-40.551409424764422
30
0
10
2.1672378089120095
20
-39.948036504249337
30
0
10
2.1062400992253822
20
-39.441372067954326
30
0
10
2.0051030439090805
20
-38.60129873760097
30
0
10
2.1049593483424704
20
-37.896909789787664
30
0
10
2.2498056132823172
20
-37.129744312784553
30
0
10
2.5280507858609602
20
-35.656043277871746
30
0
10
3.0631838189156562
20
-33.985313168816077
30
0
10
3.6838134151136668
20
-32.245484728434505
30
0
10
4.4201400660904131
20
-30.181319473299734
30
0
10
5.2702489528077656
20
-28.076859766475486
30
0
10
6.0092693491286493
20
-26.388222252967203
30
0
10
6.2279667887950172
20
-25.888505732872005
30
0
10
6.4379122389581225
20
-25.423874732952932
30
0
10
6.6370592582123926
20
-24.999999999999993
30
0
0
SPLINE
5
128
100
AcDbEntity
8
0
100
AcDbSpline
70
4
71
5
72
16
73
10
74
0
42
0.000000001
43
0.0000000001
44
0.0000000001
40
0
40
0
40
0
40
0
40
0
40
0
40
0.20000000000000001
40
0.40000000000000002
40
0.60000000000000009
40
0.80000000000000004
40
0.98953201023612269
40
0.98953201023612269
40
0.98953201023612269
40
0.98953201023612269
40
0.98953201023612269
40
0.98953201023612269
41
1
41
1
41
1
41
1
41
1
41
1
41
1
41
1
41
1
41
1
10
32.725424859373675
20
-48.776412907378841
30
0
10
32.500993402791508
20
-48.84933473834154
30
0
10
31.919052028731983
20
-48.826566569584244
30
0
10
30.647312529141885
20
-48.287073600575937
30
0
10
28.30627419043563
20
-46.730879069394256
30
0
10
24.99785673806997
20
-44.128098044258969
30
0
10
22.586874543376592
20
-42.0725227071323
30
0
10
21.185431648621183
20
-40.800034123756802
30
0
10
20.478297039559159
20
-40.112119658360029
30
0
10
20.186613658094387
20
-39.8140799025471
30
0
0
LINE
5
129
100
AcDbEntity
8
0
100
AcDbLine
10
25
20
-25
30
0
11
50
21
-25
31
0
6
DASHED
0
SPLINE
5
130
100
AcDbEntity
8
0
100
AcDbSpline
70
0
71
3
72
20
73
16
74
0
42
0.000000001
43
0.0000000001
44
0.0000000001
40
0
40
0
40
0
40
0
40
0.083390273312997754
40
0.083390273312997754
40
0.083390273312997754
40
0.22165524634597458
40
0.22165524634597458
40
0.22165524634597458
40
0.48725796174322833
40
0.48725796174322833
40
0.48725796174322833
40
0.80237402955035697
40
0.80237402955035697
40
0.80237402955035697
40
0.89562595814411616
40
0.89562595814411616
40
0.89562595814411616
40
0.89562595814411616
10
52.499999999997222
20
-25.000003725287549
30
0
10
52.499998871509604
20
-25.757319505311649
30
0
10
52.258328049039122
20
-26.327545320548221
30
0
10
52.009866349278184
20
-26.773299014133748
30
0
10
51.597905231364216
20
-27.512379484485759
30
0
10
51.103090348679679
20
-28.023548050822239
30
0
10
50.534978705321372
20
-28.559059460834106
30
0
10
49.443653897491885
20
-29.587760233743822
30
0
10
48.028691660834049
20
-30.624865980140513
30
0
10
46.503946271521386
20
-31.667619831925265
30
0
10
44.694959602207298
20
-32.904762656213371
30
0
10
42.770236686069147
20
-34.107624856555979
30
0
10
41.17980039934821
20
-35.039376012222199
30
0
10
40.709144453193787
20
-35.315108039598606
30
0
10
40.266191766610618
20
-35.567599575254278
30
0
10
39.855931126806325
20
-35.793465756743331
30
0
0
SPLINE
5
131
100
AcDbEntity
8
0
100
AcDbSpline
70
0
71
3
72
20
73
16
74
0
42
0.000000001
43
0.0000000001
44
0.0000000001
40
0
40
0
40
0
40
0
40
0.08339027331303478
40
0.08339027331303478
40
0.08339027331303478
40
0.22165524634614422
40
0.22165524634614422
40
0.22165524634614422
40
0.48725796174359159
40
0.48725796174359159
40
0.48725796174359159
40
0.80237402955083348
40
0.80237402955083348
40
0.80237402955083348
40
0.89562595814411616
40
0.89562595814411616
40
0.89562595814411616
40
0.89562595814411616
10
52.499999999997222
20
-24.999996274712451
30
0
10
52.499998871509604
20
-24.24268049468801
30
0
10
52.258328049038909
20
-23.672454679451253
30
0
10
52.009866349277836
20
-23.226700985865651
30
0
10
51.597905231363441
20
-22.487620515513139
30
0
10
51.103090348678336
20
-21.976451949176287
30
0
10
50.534978705319283
20
-21.440940539163925
30
0
10
49.443653897488616
20
-20.412239766253503
30
0
10
48.028691660829203
20
-19.375134019855956
30
0
10
46.503946271515133
20
-18.332380168070465
30
0
10
44.694959602200051
20
-17.095237343781935
30
0
10
42.770236686061487
20
-15.892375143439279
30
0
10
41.179800399340976
20
-14.960623987773563
30
0
10
40.709144453189253
20
-14.684891960398815
30
0
10
40.266191766608515
20
-14.432400424744543
30
0
10
39.855931126806311
20
-14.206534243256648
30
0
0
SPLINE
5
132
100
AcDbEntity
8
0
100
AcDbSpline
70
0
71
3
72
20
73
16
74
0
42
0.000000001
43
0.0000000001
44
0.0000000001
40
0
40
0
40
0
40
0
40
0.083390273312971483
40
0.083390273312971483
40
0.083390273312971483
40
0.22165524634596367
40
0.22165524634596367
40
0.22165524634596367
40
0.48725796174316088
40
0.48725796174316088
40
0.48725796174316088
40
0.80237402955032888
40
0.80237402955032888
40
0.80237402955032888
40
0.89562595814411661
40
0.89562595814411661
40
0.89562595814411661
40
0.89562595814411661
10
33.497970888269172
20
1.1540530469369252
30
0
10
34.21822064703219
20
0.92002852754572773
30
0
10
34.685857233184528
20
0.51397644949757759
30
0
10
35.033015300454259
20
0.13992986426693388
30
0
10
35.608619611392157
20
-0.48025686693488145
30
0
10
35.941863599512573
20
-1.1088135594601451
30
0
10
36.275609063054816
20
-1.8146019662346462
30
0
10
36.916723724446058
20
-3.1703995570708909
30
0
10
37.465822525117495
20
-4.8365919131556794
30
0
10
37.986368133356805
20
-6.6089396125036597
30
0
10
38.603953254568232
20
-8.7116863294203561
30
0
10
39.153171097859591
20
-10.913911462673427
30
0
10
39.547847264954228
20
-12.714433198541322
30
0
10
39.664643320476543
20
-13.247259485417501
30
0
10
39.76789713291307
20
-13.746556699856509
30
0
10
39.855931126806283
20
-14.206534243256641
30
0
0
SPLINE
5
133
100
AcDbEntity
8
0
100
AcDbSpline
70
4
71
5
72
16
73
10
74
0
42
0.000000001
43
0.0000000001
44
0.0000000001
40
0
40
0
40
0
40
0
40
0
40
0
40
0.20000000000000001
40
0.40000000000000002
40
0.60000000000000009
40
0.80000000000000004
40
0.9895320102361248
40
0.9895320102361248
40
0.9895320102361248
40
0.9895320102361248
40
0.9895320102361248
40
0.9895320102361248
41
1
41
1
41
1
41
1
41
1
41
1
41
1
41
1
41
1
41
1
10
50
20
-25
30
0
10
49.99999964836104
20
-25.235981084272492
30
0
10
49.798516058785999
20
-25.782404469096754
30
0
10
48.892438637323998
20
-26.825188111442493
30
0
10
46.688989056677251
20
-28.570757321677366
30
0
10
43.191239984965307
20
-30.912945728970904
30
0
10
40.491237194559709
20
-32.570718343515473
30
0
10
38.847958964303785
20
-33.51034914337702
30
0
10
37.975196817823644
20
-33.97029686073931
30
0
10
37.601609044093379
20
-34.155604891830848
30
0
0
SPLINE
5
134
100
AcDbEntity
8
0
100
AcDbSpline
70
4
71
5
72
16
73
10
74
0
42
0.000000001
43
0.0000000001
44
0.0000000001
40
0
40
0
40
0
40
0
40
0
40
0
40
0.20000000000000001
40
0.40000000000000002
40
0.60000000000000009
40
0.80000000000000004
40
0.98953201023612314
40
0.98953201023612314
40
0.98953201023612314
40
0.98953201023612314
40
0.98953201023612314
40
0.98953201023612314
41
1
41
1
41
1
41
1
41
1
41
1
41
1
41
1
41
1
41
1
10
4.7745751406263182
20
-10.305368692688175
30
0
10
4.9132816262635703
20
-10.114456191848902
30
0
10
5.3974648814248871
20
-9.7908194699333428
30
0
10
6.7434297599097315
20
-9.47976872758999
30
0
10
9.5520777555331762
20
-9.3627287393265224
30
0
10
13.758520000504863
20
-9.523783834370029
30
0
10
16.917282437286403
20
-9.7696394377430185
30
0
10
18.799023578808214
20
-9.9753568613745998
30
0
10
19.775453472448952
20
-10.11624805996469
30
0
10
20.186613658094398
20
-10.185920097452909
30
0
0
SPLINE
5
135
100
AcDbEntity
8
0
100
AcDbSpline
70
0
71
3
72
20
73
16
74
0
42
0.000000001
43
0.0000000001
44
0.0000000001
40
0
40
0
40
0
40
0
40
0.083390273312976687
40
0.083390273312976687
40
0.083390273312976687
40
0.2216552463459659
40
0.2216552463459659
40
0.2216552463459659
40
0.48725796174309871
40
0.48725796174309871
40
0.48725796174309871
40
0.80237402955068715
40
0.80237402955068715
40
0.80237402955068715
40
0.8956259581441175
40
0.8956259581441175
40
0.8956259581441175
40
0.8956259581441175
10
33.497963802351222
20
1.1540553492912331
30
0
10
32.777713346144452
20
1.3880777221714591
30
0
10
32.160715977616235
20
1.3344445792019597
30
0
10
31.660000134991723
20
1.2358889272179412
30
0
10
30.829789851139651
20
1.0724790471150729
30
0
10
30.190733447380936
20
0.75984190256636341
30
0
10
29.505875678838652
20
0.38501774854262205
30
0
10
28.190285193443259
20
-0.33500780038209221
30
0
10
26.76669163772031
20
-1.360233555265939
30
0
10
25.303801554696722
20
-2.4881239323107236
30
0
10
23.568201186651372
20
-3.8262743348807704
30
0
10
21.829439162258147
20
-5.2850897445417955
30
0
10
20.451819313027638
20
-6.5097575971519657
30
0
10
20.044141885776362
20
-6.8721721193210037
30
0
10
19.667128257624892
20
-7.2154209828516249
30
0
10
19.325539244087565
20
-7.5358055491810916
30
0
0
SPLINE
5
136
100
AcDbEntity
8
0
100
AcDbSpline
70
0
71
3
72
20
73
16
74
0
42
0.000000001
43
0.0000000001
44
0.0000000001
40
0
40
0
40
0
40
0
40
0.083390273312976007
40
0.083390273312976007
40
0.083390273312976007
40
0.22165524634596334
40
0.22165524634596334
40
0.22165524634596334
40
0.48725796174312341
40
0.48725796174312341
40
0.48725796174312341
40
0.80237402955043313
40
0.80237402955043313
40
0.80237402955043313
40
0.89562595814411916
40
0.89562595814411916
40
0.89562595814411916
40
0.89562595814411916
10
2.7520304650221208
20
-8.8359085757795501
30
0
10
2.3068923311613379
20
-9.4485905752356114
30
0
10
2.1672378089120272
20
-10.051963495750645
30
0
10
2.1062400992254
20
-10.55862793204566
30
0
10
2.0051030439091044
20
-11.398701262398962
30
0
10
2.1049593483424771
20
-12.103090210212251
30
0
10
2.2498056132823003
20
-12.870255687215282
30
0
10
2.528050785861006
20
-14.343956722128508
30
0
10
3.0631838189159266
20
-16.014686831184747
30
0
10
3.6838134151141846
20
-17.754515271566913
30
0
10
4.4201400660913555
20
-19.818680526702757
30
0
10
5.2702489528091423
20
-21.923140233527896
30
0
10
6.0092693491302533
20
-23.611777747036452
30
0
10
6.2279667887960546
20
-24.111494267130279
30
0
10
6.4379122389586083
20
-24.576125267048077
30
0
10
6.6370592582123873
20
-25
30
0
0
SPLINE
5
137
100
AcDbEntity
8
0
100
AcDbSpline
70
4
71
5
72
16
73
10
74
0
42
0.000000001
43
0.0000000001
44
0.0000000001
40
0
40
0
40
0
40
0
40
0
40
0
40
0.20000000000000001
40
0.40000000000000002
40
0.60000000000000009
40
0.80000000000000004
40
0.98953201023612325
40
0.98953201023612325
40
0.98953201023612325
40
0.98953201023612325
40
0.98953201023612325
40
0.98953201023612325
41
1
41
1
41
1
41
1
41
1
41
1
41
1
41
1
41
1
41
1
10
32.725424859373689
20
-1.2235870926211634
30
0
10
32.949856098631024
20
-1.2965095924409109
30
0
10
33.407273766157836
20
-1.6569859852673785
30
0
10
34.11902662284556
20
-2.8409546881577619
30
0
10
35.098258228215421
20
-5.4759703209799016
30
0
10
36.244947870144706
20
-9.5263033898785636
30
0
10
36.98723657064788
20
-12.606438548412559
30
0
10
37.37307766613236
20
-14.459650902978758
30
0
10
37.540815604575329
20
-15.431828690753356
30
0
10
37.601609044093401
20
-15.844395108169167
30
0
0
SPLINE
5
138
100
AcDbEntity
8
0
100
AcDbSpline
70
4
71
5
72
16
73
10
74
0
42
0.000000001
43
0.0000000001
44
0.0000000001
40
0
40
0
40
0
40
0
40
0
40
0
40
0.20000000000000001
40
0.40000000000000002
40
0.60000000000000009
40
0.80000000000000004
40
0.98953201023612203
40
0.98953201023612203
40
0.98953201023612203
40
0.98953201023612203
40
0.98953201023612203
40
0.98953201023612203
41
1
41
1
41
1
41
1
41
1
41
1
41
1
41
1
41
1
41
1
10
4.7745751406263182
20
-10.305368692688175
30
0
10
4.6358692239528532
20
-10.496281606903839
30
0
10
4.4776932648992984
20
-11.056776493881717
30
0
10
4.5977924507788304
20
-12.432985127766178
30
0
10
5.3544007691385209
20
-15.140335451378046
30
0
10
6.8074354063151441
20
-19.091130997478455
30
0
10
8.0173692541294024
20
-22.019319036803338
30
0
10
8.794508142134438
20
-23.745391031487149
30
0
10
9.2302370655928829
20
-24.630493269817354
30
0
10
9.4235545956244096
20
-25.000000000000004
30
0
0
SPLINE
5
139
100
AcDbEntity
8
0
100
AcDbSpline
70
4
71
5
72
16
73
10
74
0
42
0.000000001
43
0.0000000001
44
0.0000000001
40
0
40
0
40
0
40
0
40
0
40
0
40
0.20000000000000001
40
0.40000000000000002
40
0.60000000000000009
40
0.80000000000000004
40
0.98953201023612447
40
0.98953201023612447
40
0.98953201023612447
40
0.98953201023612447
40
0.98953201023612447
40
0.98953201023612447
41
1
41
1
41
1
41
1
41
1
41
1
41
1
41
1
41
1
41
1
10
4.7745751406263093
20
-39.694631307311823
30
0
10
4.6358692239528398
20
-39.503718393096165
30
0
10
4.4776932648992762
20
-38.943223506118287
30
0
10
4.597792450778817
20
-37.56701487223382
30
0
10
5.3544007691385076
20
-34.859664548621964
30
0
10
6.8074354063151343
20
-30.908869002521534
30
0
10
8.0173692541294077
20
-27.980680963196647
30
0
10
8.7945081421344433
20
-26.254608968512834
30
0
10
9.2302370655928883
20
-25.369506730182621
30
0
10
9.4235545956244184
20
-24.999999999999982
30
0
0
SPLINE
5
140
100
AcDbEntity
8
0
100
AcDbSpline
70
4
71
5
72
16
73
10
74
0
42
0.000000001
43
0.0000000001
44
0.0000000001
40
0
40
0
40
0
40
0
40
0
40
0
40
0.20000000000000001
40
0.40000000000000002
40
0.60000000000000009
40
0.80000000000000004
40
0.98953201023612258
40
0.98953201023612258
40
0.98953201023612258
40
0.98953201023612258
40
0.98953201023612258
40
0.98953201023612258
41
1
41
1
41
1
41
1
41
1
41
1
41
1
41
1
41
1
41
1
10
32.725424859373675
20
-48.776412907378841
30
0
10
32.94985609863101
20
-48.703490407559102
30
0
10
33.407273766157822
20
-48.343014014732617
30
0
10
34.119026622845546
20
-47.159045311842235
30
0
10
35.098258228215407
20
-44.524029679020103
30
0
10
36.244947870144706
20
-40.473696610121451
30
0
10
36.987236570647866
20
-37.393561451587445
30
0
10
37.373077666132353
20
-35.540349097021263
30
0
10
37.540815604575315
20
-34.568171309246658
30
0
10
37.601609044093387
20
-34.155604891830848
30
0
0
SPLINE
5
141
100
AcDbEntity
8
0
100
AcDbSpline
70
0
71
3
72
20
73
16
74
0
42
0.000000001
43
0.0000000001
44
0.0000000001
40
0
40
0
40
0
40
0
40
0.083390273312997559
40
0.083390273312997559
40
0.083390273312997559
40
0.22165524634610287
40
0.22165524634610287
40
0.22165524634610287
40
0.48725796174337233
40
0.48725796174337233
40
0.48725796174337233
40
0.80237402955026615
40
0.80237402955026615
40
0.80237402955026615
40
0.89562595814411949
40
0.89562595814411949
40
0.89562595814411949
40
0.89562595814411949
10
33.497963802351173
20
-51.154055349291248
30
0
10
32.777713346144274
20
-51.388077722171502
30
0
10
32.160715977615865
20
-51.334444579201943
30
0
10
31.660000134991336
20
-51.235888927217879
30
0
10
30.829789851138738
20
-51.07247904711484
30
0
10
30.190733447379507
20
-50.759841902565732
30
0
10
29.50587567883661
20
-50.385017748541514
30
0
10
28.190285193440467
20
-49.664992199616123
30
0
10
26.766691637716487
20
-48.639766444731301
30
0
10
25.303801554692189
20
-47.511876067685776
30
0
10
23.568201186650711
20
-46.173725665118482
30
0
10
21.829439162261561
20
-44.714910255460993
30
0
10
20.451819313033155
20
-43.49024240285295
30
0
10
20.044141885779759
20
-43.127827880682091
30
0
10
19.667128257626295
20
-42.784579017149724
30
0
10
19.325539244087434
20
-42.464194450818781
30
0
0
SPLINE
5
142
100
AcDbEntity
8
0
100
AcDbSpline
70
0
71
3
72
20
73
16
74
0
42
0.000000001
43
0.0000000001
44
0.0000000001
40
0
40
0
40
0
40
0
40
0.083390273313018126
40
0.083390273313018126
40
0.083390273313018126
40
0.22165524634615544
40
0.22165524634615544
40
0.22165524634615544
40
0.48725796174357361
40
0.48725796174357361
40
0.48725796174357361
40
0.80237402955054693
40
0.80237402955054693
40
0.80237402955054693
40
0.89562595814411583
40
0.89562595814411583
40
0.89562595814411583
40
0.89562595814411583
10
2.7520348443602183
20
-41.164097451862247
30
0
10
3.197174804152549
20
-41.776778124701906
30
0
10
3.7278609312486424
20
-42.096049954502199
30
0
10
4.190878116050972
20
-42.310630145039205
30
0
10
4.9585822621960265
20
-42.666414136137043
30
0
10
5.6593532560863284
20
-42.789113302636743
30
0
10
6.4337309395059039
20
-42.888423488396363
30
0
10
7.9212863987624438
20
-43.079195268303749
30
0
10
9.6756103574188632
20
-43.086537506844124
30
0
10
11.522070625319119
20
-43.03392024054876
30
0
10
13.712745890486964
20
-42.971494124050153
30
0
10
15.976904101005758
20
-42.813306341163234
30
0
10
17.81126367353912
20
-42.632273866580377
30
0
10
18.354103551756925
20
-42.578701138568107
30
0
10
18.860870603892725
20
-42.5226100252126
30
0
10
19.325539244087469
20
-42.464194450818901
30
0
0
SPLINE
5
143
100
AcDbEntity
8
0
100
AcDbSpline
70
4
71
5
72
16
73
10
74
0
42
0.000000001
43
0.0000000001
44
0.0000000001
40
0
40
0
40
0
40
0
40
0
40
0
40
0.20000000000000001
40
0.40000000000000002
40
0.60000000000000009
40
0.80000000000000004
40
0.98953201023612258
40
0.98953201023612258
40
0.98953201023612258
40
0.98953201023612258
40
0.98953201023612258
40
0.98953201023612258
41
1
41
1
41
1
41
1
41
1
41
1
41
1
41
1
41
1
41
1
10
4.7745751406263093
20
-39.694631307311823
30
0
10
4.9132816262635526
20
-39.885543808151105
30
0
10
5.3974648814248738
20
-40.209180530066661
30
0
10
6.7434297599097182
20
-40.520231272410008
30
0
10
9.5520777555331637
20
-40.637271260673486
30
0
10
13.75852000050485
20
-40.476216165629978
30
0
10
16.917282437286389
20
-40.230360562256998
30
0
10
18.799023578808207
20
-40.024643138625422
30
0
10
19.775453472448937
20
-39.883751940035324
30
0
10
20.186613658094387
20
-39.814079902547107
30
0
0
SPLINE
5
144
100
AcDbEntity
8
0
100
AcDbSpline
70
0
71
3
72
20
73
16
74
0
42
0.000000001
43
0.0000000001
44
0.0000000001
40
0
40
0
40
0
40
0
40
0.083390273312996296
40
0.083390273312996296
40
0.083390273312996296
40
0.22165524634601075
40
0.22165524634601075
40
0.22165524634601075
40
0.4872579617432205
40
0.4872579617432205
40
0.4872579617432205
40
0.802374029550464
40
0.802374029550464
40
0.802374029550464
40
0.89562595814412049
40
0.89562595814412049
40
0.89562595814412049
40
0.89562595814412049
10
2.7520348443603044
20
-8.8359025481376499
30
0
10
3.1971748041524872
20
-8.2232218752982575
30
0
10
3.7278609312481041
20
-7.9039500454981617
30
0
10
4.1908781160504676
20
-7.6893698549610487
30
0
10
4.9585822621950966
20
-7.3335858638632629
30
0
10
5.6593532560847626
20
-7.2108866973635974
30
0
10
6.4337309395035067
20
-7.1115765116039515
30
0
10
7.9212863987586024
20
-6.9208047316965065
30
0
10
9.6756103574128733
20
-6.9134624931559561
30
0
10
11.522070625311713
20
-6.9660797594510493
30
0
10
13.712745890481477
20
-7.0285058759494445
30
0
10
15.976904101002471
20
-7.1866936588365142
30
0
10
17.811263673537653
20
-7.3677261334194988
30
0
10
18.35410355175604
20
-7.4212988614318061
30
0
10
18.860870603892373
20
-7.4773899747873784
30
0
10
19.325539244087558
20
-7.5358055491811404
30
0
0
SPLINE
5
145
100
AcDbEntity
8
0
100
AcDbSpline
70
4
71
5
72
16
73
10
74
0
42
0.000000001
43
0.0000000001
44
0.0000000001
40
0
40
0
40
0
40
0
40
0
40
0
40
0.20000000000000001
40
0.40000000000000002
40
0.60000000000000009
40
0.80000000000000004
40
0.98953201023612325
40
0.98953201023612325
40
0.98953201023612325
40
0.98953201023612325
40
0.98953201023612325
40
0.98953201023612325
41
1
41
1
41
1
41
1
41
1
41
1
41
1
41
1
41
1
41
1
10
32.725424859373689
20
-1.2235870926211634
30
0
10
32.500993402791522
20
-1.1506652616584567
30
0
10
31.919052028731997
20
-1.173433430415769
30
0
10
30.647312529141896
20
-1.7129263994240684
30
0
10
28.306274190435644
20
-3.2691209306057489
30
0
10
24.997856738069977
20
-5.8719019557410279
30
0
10
22.586874543376595
20
-7.927477292867696
30
0
10
21.185431648621183
20
-9.1999658762432102
30
0
10
20.478297039559177
20
-9.8878803416399847
30
0
10
20.186613658094391
20
-10.185920097452907
30
0
0
SPLINE
5
146
100
AcDbEntity
8
0
100
AcDbSpline
70
0
71
3
72
20
73
16
74
0
42
0.000000001
43
0.0000000001
44
0.0000000001
40
0
40
0
40
0
40
0
40
0.083390273312976854
40
0.083390273312976854
40
0.083390273312976854
40
0.22165524634597397
40
0.22165524634597397
40
0.22165524634597397
40
0.48725796174305103
40
0.48725796174305103
40
0.48725796174305103
40
0.80237402955020598
40
0.80237402955020598
40
0.80237402955020598
40
0.89562595814411627
40
0.89562595814411627
40
0.89562595814411627
40
0.89562595814411627
10
2.7520304650221346
20
-41.164091424220487
30
0
10
2.3068923311613387
20
-40.551409424764422
30
0
10
2.1672378089120095
20
-39.948036504249337
30
0
10
2.1062400992253822
20
-39.441372067954326
30
0
10
2.0051030439090805
20
-38.60129873760097
30
0
10
2.1049593483424704
20
-37.896909789787664
30
0
10
2.2498056132823172
20
-37.129744312784553
30
0
10
2.5280507858609602
20
-35.656043277871746
30
0
10
3.0631838189156562
20
-33.985313168816077
30
0
10
3.6838134151136668
20
-32.245484728434505
30
0
10
4.4201400660904131
20
-30.181319473299734
30
0
10
5.2702489528077656
20
-28.076859766475486
30
0
10
6.0092693491286493
20
-26.388222252967203
30
0
10
6.2279667887950172
20
-25.888505732872005
30
0
10
6.4379122389581225
20
-25.423874732952932
30
0
10
6.6370592582123926
20
-24.999999999999993
30
0
0
SPLINE
5
147
100
AcDbEntity
8
0
100
AcDbSpline
70
4
71
5
72
16
73
10
74
0
42
0.000000001
43
0.0000000001
44
0.0000000001
40
0
40
0
40
0
40
0
40
0
40
0
40
0.20000000000000001
40
0.40000000000000002
40
0.60000000000000009
40
0.80000000000000004
40
0.98953201023612203
40
0.98953201023612203
40
0.98953201023612203
40
0.98953201023612203
40
0.98953201023612203
40
0.98953201023612203
41
1
41
1
41
1
41
1
41
1
41
1
41
1
41
1
41
1
41
1
10
50
20
-25
30
0
10
49.99999964836104
20
-24.764018915727508
30
0
10
49.798516058785999
20
-24.217595530903246
30
0
10
48.892438637323998
20
-23.174811888557507
30
0
10
46.688989056677251
20
-21.429242678322634
30
0
10
43.191239984965307
20
-19.087054271029107
30
0
10
40.49123719455973
20
-17.42928165648453
30
0
10
38.847958964303814
20
-16.489650856622994
30
0
10
37.975196817823672
20
-16.029703139260704
30
0
10
37.601609044093408
20
-15.84439510816917
30
0
0
SPLINE
5
148
100
AcDbEntity
8
0
100
AcDbSpline
70
0
71
3
72
20
73
16
74
0
42
0.000000001
43
0.0000000001
44
0.0000000001
40
0
40
0
40
0
40
0
40
0.08339027331302884
40
0.08339027331302884
40
0.08339027331302884
40
0.2216552463458997
40
0.2216552463458997
40
0.2216552463458997
40
0.48725796174273794
40
0.48725796174273794
40
0.48725796174273794
40
0.80237402955000348
40
0.80237402955000348
40
0.80237402955000348
40
0.89562595814411672
40
0.89562595814411672
40
0.89562595814411672
40
0.89562595814411672
10
33.497970888269123
20
-51.154053046936944
30
0
10
34.218220647032702
20
-50.920028527545576
30
0
10
34.685857233185104
20
-50.51397644949715
30
0
10
35.033015300454984
20
-50.139929864266179
30
0
10
35.608619611392214
20
-49.519743133064793
30
0
10
35.941863599512288
20
-48.891186440540267
30
0
10
36.275609063054318
20
-48.18539803376639
30
0
10
36.916723724444843
20
-46.829600442931998
30
0
10
37.465822525115605
20
-45.163408086850005
30
0
10
37.986368133354318
20
-43.391060387504794
30
0
10
38.603953254566065
20
-41.288313670587897
30
0
10
39.153171097857971
20
-39.086088537333382
30
0
10
39.547847264953006
20
-37.285566801464249
30
0
10
39.664643320475811
20
-36.752740514586002
30
0
10
39.767897132912744
20
-36.25344330014515
30
0
10
39.855931126806276
20
-35.793465756743402
30
0
0
SPLINE
5
149
100
AcDbEntity
8
0
100
AcDbSpline
70
4
71
5
72
16
73
10
74
0
42
0.000000001
43
0.0000000001
44
0.0000000001
40
0
40
0
40
0
40
0
40
0
40
0
40
0.20000000000000001
40
0.40000000000000002
40
0.60000000000000009
40
0.80000000000000004
40
0.98953201023612203
40
0.98953201023612203
40
0.98953201023612203
40
0.98953201023612203
40
0.98953201023612203
40
0.98953201023612203
41
1
41
1
41
1
41
1
41
1
41
1
41
1
41
1
41
1
41
1
10
4.7745751406263182
20
-10.305368692688175
30
0
10
4.6358692239528532
20
-10.496281606903839
30
0
10
4.4776932648992984
20
-11.056776493881717
30
0
10
4.5977924507788304
20
-12.432985127766178
30
0
10
5.3544007691385209
20
-15.140335451378046
30
0
10
6.8074354063151441
20
-19.091130997478455
30
0
10
8.0173692541294024
20
-22.019319036803338
30
0
10
8.794508142134438
20
-23.745391031487149
30
0
10
9.2302370655928829
20
-24.630493269817354
30
0
10
9.4235545956244096
20
-25.000000000000004
30
0
0
SPLINE
5
150
100
AcDbEntity
8
0
100
AcDbSpline
70
0
71
3
72
20
73
16
74
0
42
0.000000001
43
0.0000000001
44
0.0000000001
40
0
40
0
40
0
40
0
40
0.08339027331303478
40
0.08339027331303478
40
0.08339027331303478
40
0.22165524634614422
40
0.22165524634614422
40
0.22165524634614422
40
0.48725796174359159
40
0.48725796174359159
40
0.48725796174359159
40
0.80237402955083348
40
0.80237402955083348
40
0.80237402955083348
40
0.89562595814411616
40
0.89562595814411616
40
0.89562595814411616
40
0.89562595814411616
10
52.499999999997222
20
-24.999996274712451
30
0
10
52.499998871509604
20
-24.24268049468801
30
0
10
52.258328049038909
20
-23.672454679451253
30
0
10
52.009866349277836
20
-23.226700985865651
30
0
10
51.597905231363441
20
-22.487620515513139
30
0
10
51.103090348678336
20
-21.976451949176287
30
0
10
50.534978705319283
20
-21.440940539163925
30
0
10
49.443653897488616
20
-20.412239766253503
30
0
10
48.028691660829203
20
-19.375134019855956
30
0
10
46.503946271515133
20
-18.332380168070465
30
0
10
44.694959602200051
20
-17.095237343781935
30
0
10
42.770236686061487
20
-15.892375143439279
30
0
10
41.179800399340976
20
-14.960623987773563
30
0
10
40.709144453189253
20
-14.684891960398815
30
0
10
40.266191766608515
20
-14.432400424744543
30
0
10
39.855931126806311
20
-14.206534243256648
30
0
0
SPLINE
5
151
100
AcDbEntity
8
0
100
AcDbSpline
70
4
71
5
72
16
73
10
74
0
42
0.000000001
43
0.0000000001
44
0.0000000001
40
0
40
0
40
0
40
0
40
0
40
0
40
0.20000000000000001
40
0.40000000000000002
40
0.60000000000000009
40
0.80000000000000004
40
0.98953201023612325
40
0.98953201023612325
40
0.98953201023612325
40
0.98953201023612325
40
0.98953201023612325
40
0.98953201023612325
41
1
41
1
41
1
41
1
41
1
41
1
41
1
41
1
41
1
41
1
10
32.725424859373689
20
-1.2235870926211634
30
0
10
32.500993402791522
20
-1.1506652616584567
30
0
10
31.919052028731997
20
-1.173433430415769
30
0
10
30.647312529141896
20
-1.7129263994240684
30
0
10
28.306274190435644
20
-3.2691209306057489
30
0
10
24.997856738069977
20
-5.8719019557410279
30
0
10
22.586874543376595
20
-7.927477292867696
30
0
10
21.185431648621183
20
-9.1999658762432102
30
0
10
20.478297039559177
20
-9.8878803416399847
30
0
10
20.186613658094391
20
-10.185920097452907
30
0
0
SPLINE
5
152
100
AcDbEntity
8
0
100
AcDbSpline
70
0
71
3
72
20
73
16
74
0
42
0.000000001
43
0.0000000001
44
0.0000000001
40
0
40
0
40
0
40
0
40
0.083390273312997754
40
0.083390273312997754
40
0.083390273312997754
40
0.22165524634597458
40
0.22165524634597458
40
0.22165524634597458
40
0.48725796174322833
40
0.48725796174322833
40
0.48725796174322833
40
0.80237402955035697
40
0.80237402955035697
40
0.80237402955035697
40
0.89562595814411616
40
0.89562595814411616
40
0.89562595814411616
40
0.89562595814411616
10
52.499999999997222
20
-25.000003725287549
30
0
10
52.499998871509604
20
-25.757319505311649
30
0
10
52.258328049039122
20
-26.327545320548221
30
0
10
52.009866349278184
20
-26.773299014133748
30
0
10
51.597905231364216
20
-27.512379484485759
30
0
10
51.103090348679679
20
-28.023548050822239
30
0
10
50.534978705321372
20
-28.559059460834106
30
0
10
49.443653897491885
20
-29.587760233743822
30
0
10
48.028691660834049
20
-30.624865980140513
30
0
10
46.503946271521386
20
-31.667619831925265
30
0
10
44.694959602207298
20
-32.904762656213371
30
0
10
42.770236686069147
20
-34.107624856555979
30
0
10
41.17980039934821
20
-35.039376012222199
30
0
10
40.709144453193787
20
-35.315108039598606
30
0
10
40.266191766610618
20
-35.567599575254278
30
0
10
39.855931126806325
20
-35.793465756743331
30
0
0
SPLINE
5
153
100
AcDbEntity
8
0
100
AcDbSpline
70
0
71
3
72
20
73
16
74
0
42
0.000000001
43
0.0000000001
44
0.0000000001
40
0
40
0
40
0
40
0
40
0.083390273312971483
40
0.083390273312971483
40
0.083390273312971483
40
0.22165524634596367
40
0.22165524634596367
40
0.22165524634596367
40
0.48725796174316088
40
0.48725796174316088
40
0.48725796174316088
40
0.80237402955032888
40
0.80237402955032888
40
0.80237402955032888
40
0.89562595814411661
40
0.89562595814411661
40
0.89562595814411661
40
0.89562595814411661
10
33.497970888269172
20
1.1540530469369252
30
0
10
34.21822064703219
20
0.92002852754572773
30
0
10
34.685857233184528
20
0.51397644949757759
30
0
10
35.033015300454259
20
0.13992986426693388
30
0
10
35.608619611392157
20
-0.48025686693488145
30
0
10
35.941863599512573
20
-1.1088135594601451
30
0
10
36.275609063054816
20
-1.8146019662346462
30
0
10
36.916723724446058
20
-3.1703995570708909
30
0
10
37.465822525117495
20
-4.8365919131556794
30
0
10
37.986368133356805
20
-6.6089396125036597
30
0
10
38.603953254568232
20
-8.7116863294203561
30
0
10
39.153171097859591
20
-10.913911462673427
30
0
10
39.547847264954228
20
-12.714433198541322
30
0
10
39.664643320476543
20
-13.247259485417501
30
0
10
39.76789713291307
20
-13.746556699856509
30
0
10
39.855931126806283
20
-14.206534243256641
30
0
0
SPLINE
5
154
100
AcDbEntity
8
0
100
AcDbSpline
70
4
71
5
72
16
73
10
74
0
42
0.000000001
43
0.0000000001
44
0.0000000001
40
0
40
0
40
0
40
0
40
0
40
0
40
0.20000000000000001
40
0.40000000000000002
40
0.60000000000000009
40
0.80000000000000004
40
0.98953201023612203
40
0.98953201023612203
40
0.98953201023612203
40
0.98953201023612203
40
0.98953201023612203
40
0.98953201023612203
41
1
41
1
41
1
41
1
41
1
41
1
41
1
41
1
41
1
41
1
10
4.7745751406263182
20
-10.305368692688175
30
0
10
4.6358692239528532
20
-10.496281606903839
30
0
10
4.4776932648992984
20
-11.056776493881717
30
0
10
4.5977924507788304
20
-12.432985127766178
30
0
10
5.3544007691385209
20
-15.140335451378046
30
0
10
6.8074354063151441
20
-19.091130997478455
30
0
10
8.0173692541294024
20
-22.019319036803338
30
0
10
8.794508142134438
20
-23.745391031487149
30
0
10
9.2302370655928829
20
-24.630493269817354
30
0
10
9.4235545956244096
20
-25.000000000000004
30
0
0
SPLINE
5
155
100
AcDbEntity
8
0
100
AcDbSpline
70
0
71
3
72
20
73
16
74
0
42
0.000000001
43
0.0000000001
44
0.0000000001
40
0
40
0
40
0
40
0
40
0.083390273312997559
40
0.083390273312997559
40
0.083390273312997559
40
0.22165524634610287
40
0.22165524634610287
40
0.22165524634610287
40
0.48725796174337233
40
0.48725796174337233
40
0.48725796174337233
40
0.80237402955026615
40
0.80237402955026615
40
0.80237402955026615
40
0.89562595814411949
40
0.89562595814411949
40
0.89562595814411949
40
0.89562595814411949
10
33.497963802351173
20
-51.154055349291248
30
0
10
32.777713346144274
20
-51.388077722171502
30
0
10
32.160715977615865
20
-51.334444579201943
30
0
10
31.660000134991336
20
-51.235888927217879
30
0
10
30.829789851138738
20
-51.07247904711484
30
0
10
30.190733447379507
20
-50.759841902565732
30
0
10
29.50587567883661
20
-50.385017748541514
30
0
10
28.190285193440467
20
-49.664992199616123
30
0
10
26.766691637716487
20
-48.639766444731301
30
0
10
25.303801554692189
20
-47.511876067685776
30
0
10
23.568201186650711
20
-46.173725665118482
30
0
10
21.829439162261561
20
-44.714910255460993
30
0
10
20.451819313033155
20
-43.49024240285295
30
0
10
20.044141885779759
20
-43.127827880682091
30
0
10
19.667128257626295
20
-42.784579017149724
30
0
10
19.325539244087434
20
-42.464194450818781
30
0
0
SPLINE
5
156
100
AcDbEntity
8
0
100
AcDbSpline
70
0
71
3
72
20
73
16
74
0
42
0.000000001
43
0.0000000001
44
0.0000000001
40
0
40
0
40
0
40
0
40
0.083390273312996296
40
0.083390273312996296
40
0.083390273312996296
40
0.22165524634601075
40
0.22165524634601075
40
0.22165524634601075
40
0.4872579617432205
40
0.4872579617432205
40
0.4872579617432205
40
0.802374029550464
40
0.802374029550464
40
0.802374029550464
40
0.89562595814412049
40
0.89562595814412049
40
0.89562595814412049
40
0.89562595814412049
10
2.7520348443603044
20
-8.8359025481376499
30
0
10
3.1971748041524872
20
-8.2232218752982575
30
0
10
3.7278609312481041
20
-7.9039500454981617
30
0
10
4.1908781160504676
20
-7.6893698549610487
30
0
10
4.9585822621950966
20
-7.3335858638632629
30
0
10
5.6593532560847626
20
-7.2108866973635974
30
0
10
6.4337309395035067
20
-7.1115765116039515
30
0
10
7.9212863987586024
20
-6.9208047316965065
30
0
10
9.6756103574128733
20
-6.9134624931559561
30
0
10
11.522070625311713
20
-6.9660797594510493
30
0
10
13.712745890481477
20
-7.0285058759494445
30
0
10
15.976904101002471
20
-7.1866936588365142
30
0
10
17.811263673537653
20
-7.3677261334194988
30
0
10
18.35410355175604
20
-7.4212988614318061
30
0
10
18.860870603892373
20
-7.4773899747873784
30
0
10
19.325539244087558
20
-7.5358055491811404
30
0
0
SPLINE
5
157
100
AcDbEntity
8
0
100
AcDbSpline
70
4
71
5
72
16
73
10
74
0
42
0.000000001
43
0.0000000001
44
0.0000000001
40
0
40
0
40
0
40
0
40
0
40
0
40
0.20000000000000001
40
0.40000000000000002
40
0.60000000000000009
40
0.80000000000000004
40
0.98953201023612258
40
0.98953201023612258
40
0.98953201023612258
40
0.98953201023612258
40
0.98953201023612258
40
0.98953201023612258
41
1
41
1
41
1
41
1
41
1
41
1
41
1
41
1
41
1
41
1
10
32.725424859373675
20
-48.776412907378841
30
0
10
32.94985609863101
20
-48.703490407559102
30
0
10
33.407273766157822
20
-48.343014014732617
30
0
10
34.119026622845546
20
-47.159045311842235
30
0
10
35.098258228215407
20
-44.524029679020103
30
0
10
36.244947870144706
20
-40.473696610121451
30
0
10
36.987236570647866
20
-37.393561451587445
30
0
10
37.373077666132353
20
-35.540349097021263
30
0
10
37.540815604575315
20
-34.568171309246658
30
0
10
37.601609044093387
20
-34.155604891830848
30
0
0
SPLINE
5
158
100
AcDbEntity
8
0
100
AcDbSpline
70
0
71
3
72
20
73
16
74
0
42
0.000000001
43
0.0000000001
44
0.0000000001
40
0
40
0
40
0
40
0
40
0.083390273312976854
40
0.083390273312976854
40
0.083390273312976854
40
0.22165524634597397
40
0.22165524634597397
40
0.22165524634597397
40
0.48725796174305103
40
0.48725796174305103
40
0.48725796174305103
40
0.80237402955020598
40
0.80237402955020598
40
0.80237402955020598
40
0.89562595814411627
40
0.89562595814411627
40
0.89562595814411627
40
0.89562595814411627
10
2.7520304650221346
20
-41.164091424220487
30
0
10
2.3068923311613387
20
-40.551409424764422
30
0
10
2.1672378089120095
20
-39.948036504249337
30
0
10
2.1062400992253822
20
-39.441372067954326
30
0
10
2.0051030439090805
20
-38.60129873760097
30
0
10
2.1049593483424704
20
-37.896909789787664
30
0
10
2.2498056132823172
20
-37.129744312784553
30
0
10
2.5280507858609602
20
-35.656043277871746
30
0
10
3.0631838189156562
20
-33.985313168816077
30
0
10
3.6838134151136668
20
-32.245484728434505
30
0
10
4.4201400660904131
20
-30.181319473299734
30
0
10
5.2702489528077656
20
-28.076859766475486
30
0
10
6.0092693491286493
20
-26.388222252967203
30
0
10
6.2279667887950172
20
-25.888505732872005
30
0
10
6.4379122389581225
20
-25.423874732952932
30
0
10
6.6370592582123926
20
-24.999999999999993
30
0
0
SPLINE
5
159
100
AcDbEntity
8
0
100
AcDbSpline
70
0
71
3
72
20
73
16
74
0
42
0.000000001
43
0.0000000001
44
0.0000000001
40
0
40
0
40
0
40
0
40
0.083390273313018126
40
0.083390273313018126
40
0.083390273313018126
40
0.22165524634615544
40
0.22165524634615544
40
0.22165524634615544
40
0.48725796174357361
40
0.48725796174357361
40
0.48725796174357361
40
0.80237402955054693
40
0.80237402955054693
40
0.80237402955054693
40
0.89562595814411583
40
0.89562595814411583
40
0.89562595814411583
40
0.89562595814411583
10
2.7520348443602183
20
-41.164097451862247
30
0
10
3.197174804152549
20
-41.776778124701906
30
0
10
3.7278609312486424
20
-42.096049954502199
30
0
10
4.190878116050972
20
-42.310630145039205
30
0
10
4.9585822621960265
20
-42.666414136137043
30
0
10
5.6593532560863284
20
-42.789113302636743
30
0
10
6.4337309395059039
20
-42.888423488396363
30
0
10
7.9212863987624438
20
-43.079195268303749
30
0
10
9.6756103574188632
20
-43.086537506844124
30
0
10
11.522070625319119
20
-43.03392024054876
30
0
10
13.712745890486964
20
-42.971494124050153
30
0
10
15.976904101005758
20
-42.813306341163234
30
0
10
17.81126367353912
20
-42.632273866580377
30
0
10
18.354103551756925
20
-42.578701138568107
30
0
10
18.860870603892725
20
-42.5226100252126
30
0
10
19.325539244087469
20
-42.464194450818901
30
0
0
SPLINE
5
160
100
AcDbEntity
8
0
100
AcDbSpline
70
4
71
5
72
16
73
10
74
0
42
0.000000001
43
0.0000000001
44
0.0000000001
40
0
40
0
40
0
40
0
40
0
40
0
40
0.20000000000000001
40
0.40000000000000002
40
0.60000000000000009
40
0.80000000000000004
40
0.9895320102361248
40
0.9895320102361248
40
0.9895320102361248
40
0.9895320102361248
40
0.9895320102361248
40
0.9895320102361248
41
1
41
1
41
1
41
1
41
1
41
1
41
1
41
1
41
1
41
1
10
50
20
-25
30
0
10
49.99999964836104
20
-25.235981084272492
30
0
10
49.798516058785999
20
-25.782404469096754
30
0
10
48.892438637323998
20
-26.825188111442493
30
0
10
46.688989056677251
20
-28.570757321677366
30
0
10
43.191239984965307
20
-30.912945728970904
30
0
10
40.491237194559709
20
-32.570718343515473
30
0
10
38.847958964303785
20
-33.51034914337702
30
0
10
37.975196817823644
20
-33.97029686073931
30
0
10
37.601609044093379
20
-34.155604891830848
30
0
0
SPLINE
5
161
100
AcDbEntity
8
0
100
AcDbSpline
70
0
71
3
72
20
73
16
74
0
42
0.000000001
43
0.0000000001
44
0.0000000001
40
0
40
0
40
0
40
0
40
0.083390273312997754
40
0.083390273312997754
40
0.083390273312997754
40
0.22165524634597458
40
0.22165524634597458
40
0.22165524634597458
40
0.48725796174322833
40
0.48725796174322833
40
0.48725796174322833
40
0.80237402955035697
40
0.80237402955035697
40
0.80237402955035697
40
0.89562595814411616
40
0.89562595814411616
40
0.89562595814411616
40
0.89562595814411616
10
52.499999999997222
20
-25.000003725287549
30
0
10
52.499998871509604
20
-25.757319505311649
30
0
10
52.258328049039122
20
-26.327545320548221
30
0
10
52.009866349278184
20
-26.773299014133748
30
0
10
51.597905231364216
20
-27.512379484485759
30
0
10
51.103090348679679
20
-28.023548050822239
30
0
10
50.534978705321372
20
-28.559059460834106
30
0
10
49.443653897491885
20
-29.587760233743822
30
0
10
48.028691660834049
20
-30.624865980140513
30
0
10
46.503946271521386
20
-31.667619831925265
30
0
10
44.694959602207298
20
-32.904762656213371
30
0
10
42.770236686069147
20
-34.107624856555979
30
0
10
41.17980039934821
20
-35.039376012222199
30
0
10
40.709144453193787
20
-35.315108039598606
30
0
10
40.266191766610618
20
-35.567599575254278
30
0
10
39.855931126806325
20
-35.793465756743331
30
0
0
SPLINE
5
162
100
AcDbEntity
8
0
100
AcDbSpline
70
4
71
5
72
16
73
10
74
0
42
0.000000001
43
0.0000000001
44
0.0000000001
40
0
40
0
40
0
40
0
40
0
40
0
40
0.20000000000000001
40
0.40000000000000002
40
0.60000000000000009
40
0.80000000000000004
40
0.98953201023612258
40
0.98953201023612258
40
0.98953201023612258
40
0.98953201023612258
40
0.98953201023612258
40
0.98953201023612258
41
1
41
1
41
1
41
1
41
1
41
1
41
1
41
1
41
1
41
1
10
32.725424859373675
20
-48.776412907378841
30
0
10
32.94985609863101
20
-48.703490407559102
30
0
10
33.407273766157822
20
-48.343014014732617
30
0
10
34.119026622845546
20
-47.159045311842235
30
0
10
35.098258228215407
20
-44.524029679020103
30
0
10
36.244947870144706
20
-40.473696610121451
30
0
10
36.987236570647866
20
-37.393561451587445
30
0
10
37.373077666132353
20
-35.540349097021263
30
0
10
37.540815604575315
20
-34.568171309246658
30
0
10
37.601609044093387
20
-34.155604891830848
30
0
0
SPLINE
5
163
100
AcDbEntity
8
0
100
AcDbSpline
70
4
71
5
72
16
73
10
74
0
42
0.000000001
43
0.0000000001
44
0.0000000001
40
0
40
0
40
0
40
0
40
0
40
0
40
0.20000000000000001
40
0.40000000000000002
40
0.60000000000000009
40
0.80000000000000004
40
0.98953201023612447
40
0.98953201023612447
40
0.98953201023612447
40
0.98953201023612447
40
0.98953201023612447
40
0.98953201023612447
41
1
41
1
41
1
41
1
41
1
41
1
41
1
41
1
41
1
41
1
10
4.7745751406263093
20
-39.694631307311823
30
0
10
4.6358692239528398
20
-39.503718393096165
30
0
10
4.4776932648992762
20
-38.943223506118287
30
0
10
4.597792450778817
20
-37.56701487223382
30
0
10
5.3544007691385076
20
-34.859664548621964
30
0
10
6.8074354063151343
20
-30.908869002521534
30
0
10
8.0173692541294077
20
-27.980680963196647
30
0
10
8.7945081421344433
20
-26.254608968512834
30
0
10
9.2302370655928883
20
-25.369506730182621
30
0
10
9.4235545956244184
20
-24.999999999999982
30
0
0
SPLINE
5
164
100
AcDbEntity
8
0
100
AcDbSpline
70
0
71
3
72
20
73
16
74
0
42
0.000000001
43
0.0000000001
44
0.0000000001
40
0
40
0
40
0
40
0
40
0.083390273312996296
40
0.083390273312996296
40
0.083390273312996296
40
0.22165524634601075
40
0.22165524634601075
40
0.22165524634601075
40
0.4872579617432205
40
0.4872579617432205
40
0.4872579617432205
40
0.802374029550464
40
0.802374029550464
40
0.802374029550464
40
0.89562595814412049
40
0.89562595814412049
40
0.89562595814412049
40
0.89562595814412049
10
2.7520348443603044
20
-8.8359025481376499
30
0
10
3.1971748041524872
20
-8.2232218752982575
30
0
10
3.7278609312481041
20
-7.9039500454981617
30
0
10
4.1908781160504676
20
-7.6893698549610487
30
0
10
4.9585822621950966
20
-7.3335858638632629
30
0
10
5.6593532560847626
20
-7.2108866973635974
30
0
10
6.4337309395035067
20
-7.1115765116039515
30
0
10
7.9212863987586024
20
-6.9208047316965065
30
0
10
9.6756103574128733
20
-6.9134624931559561
30
0
10
11.522070625311713
20
-6.9660797594510493
30
0
10
13.712745890481477
20
-7.0285058759494445
30
0
10
15.976904101002471
20
-7.1866936588365142
30
0
10
17.811263673537653
20
-7.3677261334194988
30
0
10
18.35410355175604
20
-7.4212988614318061
30
0
10
18.860870603892373
20
-7.4773899747873784
30
0
10
19.325539244087558
20
-7.5358055491811404
30
0
0
SPLINE
5
165
100
AcDbEntity
8
0
100
AcDbSpline
70
0
71
3
72
20
73
16
74
0
42
0.000000001
43
0.0000000001
44
0.0000000001
40
0
40
0
40
0
40
0
40
0.08339027331302884
40
0.08339027331302884
40
0.08339027331302884
40
0.2216552463458997
40
0.2216552463458997
40
0.2216552463458997
40
0.48725796174273794
40
0.48725796174273794
40
0.48725796174273794
40
0.80237402955000348
40
0.80237402955000348
40
0.80237402955000348
40
0.89562595814411672
40
0.89562595814411672
40
0.89562595814411672
40
0.89562595814411672
10
33.497970888269123
20
-51.154053046936944
30
0
10
34.218220647032702
20
-50.920028527545576
30
0
10
34.685857233185104
20
-50.51397644949715
30
0
10
35.033015300454984
20
-50.139929864266179
30
0
10
35.608619611392214
20
-49.519743133064793
30
0
10
35.941863599512288
20
-48.891186440540267
30
0
10
36.275609063054318
20
-48.18539803376639
30
0
10
36.916723724444843
20
-46.829600442931998
30
0
10
37.465822525115605
20
-45.163408086850005
30
0
10
37.986368133354318
20
-43.391060387504794
30
0
10
38.603953254566065
20
-41.288313670587897
30
0
10
39.153171097857971
20
-39.086088537333382
30
0
10
39.547847264953006
20
-37.285566801464249
30
0
10
39.664643320475811
20
-36.752740514586002
30
0
10
39.767897132912744
20
-36.25344330014515
30
0
10
39.855931126806276
20
-35.793465756743402
30
0
0
SPLINE
5
166
100
AcDbEntity
8
0
100
AcDbSpline
70
4
71
5
72
16
73
10
74
0
42
0.000000001
43
0.0000000001
44
0.0000000001
40
0
40
0
40
0
40
0
40
0
40
0
40
0.20000000000000001
40
0.40000000000000002
40
0.60000000000000009
40
0.80000000000000004
40
0.98953201023612258
40
0.98953201023612258
40
0.98953201023612258
40
0.98953201023612258
40
0.98953201023612258
40
0.98953201023612258
41
1
41
1
41
1
41
1
41
1
41
1
41
1
41
1
41
1
41
1
10
4.7745751406263093
20
-39.694631307311823
30
0
10
4.9132816262635526
20
-39.885543808151105
30
0
10
5.3974648814248738
20
-40.209180530066661
30
0
10
6.7434297599097182
20
-40.520231272410008
30
0
10
9.5520777555331637
20
-40.637271260673486
30
0
10
13.75852000050485
20
-40.476216165629978
30
0
10
16.917282437286389
20
-40.230360562256998
30
0
10
18.799023578808207
20
-40.024643138625422
30
0
10
19.775453472448937
20
-39.883751940035324
30
0
10
20.186613658094387
20
-39.814079902547107
30
0
0
SPLINE
5
167
100
AcDbEntity
8
0
100
AcDbSpline
70
0
71
3
72
20
73
16
74
0
42
0.000000001
43
0.0000000001
44
0.0000000001
40
0
40
0
40
0
40
0
40
0.08339027331302884
40
0.08339027331302884
40
0.08339027331302884
40
0.2216552463458997
40
0.2216552463458997
40
0.2216552463458997
40
0.48725796174273794
40
0.48725796174273794
40
0.48725796174273794
40
0.80237402955000348
40
0.80237402955000348
40
0.80237402955000348
40
0.89562595814411672
40
0.89562595814411672
40
0.89562595814411672
40
0.89562595814411672
10
33.497970888269123
20
-51.154053046936944
30
0
10
34.218220647032702
20
-50.920028527545576
30
0
10
34.685857233185104
20
-50.51397644949715
30
0
10
35.033015300454984
20
-50.139929864266179
30
0
10
35.608619611392214
20
-49.519743133064793
30
0
10
35.941863599512288
20
-48.891186440540267
30
0
10
36.275609063054318
20
-48.18539803376639
30
0
10
36.916723724444843
20
-46.829600442931998
30
0
10
37.465822525115605
20
-45.163408086850005
30
0
10
37.986368133354318
20
-43.391060387504794
30
0
10
38.603953254566065
20
-41.288313670587897
30
0
10
39.153171097857971
20
-39.086088537333382
30
0
10
39.547847264953006
20
-37.285566801464249
30
0
10
39.664643320475811
20
-36.752740514586002
30
0
10
39.767897132912744
20
-36.25344330014515
30
0
10
39.855931126806276
20
-35.793465756743402
30
0
0
SPLINE
5
168
100
AcDbEntity
8
0
100
AcDbSpline
70
0
71
3
72
20
73
16
74
0
42
0.000000001
43
0.0000000001
44
0.0000000001
40
0
40
0
40
0
40
0
40
0.083390273312976687
40
0.083390273312976687
40
0.083390273312976687
40
0.2216552463459659
40
0.2216552463459659
40
0.2216552463459659
40
0.48725796174309871
40
0.48725796174309871
40
0.48725796174309871
40
0.80237402955068715
40
0.80237402955068715
40
0.80237402955068715
40
0.8956259581441175
40
0.8956259581441175
40
0.8956259581441175
40
0.8956259581441175
10
33.497963802351222
20
1.1540553492912331
30
0
10
32.777713346144452
20
1.3880777221714591
30
0
10
32.160715977616235
20
1.3344445792019597
30
0
10
31.660000134991723
20
1.2358889272179412
30
0
10
30.829789851139651
20
1.0724790471150729
30
0
10
30.190733447380936
20
0.75984190256636341
30
0
10
29.505875678838652
20
0.38501774854262205
30
0
10
28.190285193443259
20
-0.33500780038209221
30
0
10
26.76669163772031
20
-1.360233555265939
30
0
10
25.303801554696722
20
-2.4881239323107236
30
0
10
23.568201186651372
20
-3.8262743348807704
30
0
10
21.829439162258147
20
-5.2850897445417955
30
0
10
20.451819313027638
20
-6.5097575971519657
30
0
10
20.044141885776362
20
-6.8721721193210037
30
0
10
19.667128257624892
20
-7.2154209828516249
30
0
10
19.325539244087565
20
-7.5358055491810916
30
0
0
SPLINE
5
169
100
AcDbEntity
8
0
100
AcDbSpline
70
4
71
5
72
16
73
10
74
0
42
0.000000001
43
0.0000000001
44
0.0000000001
40
0
40
0
40
0
40
0
40
0
40
0
40
0.20000000000000001
40
0.40000000000000002
40
0.60000000000000009
40
0.80000000000000004
40
0.98953201023612325
40
0.98953201023612325
40
0.98953201023612325
40
0.98953201023612325
40
0.98953201023612325
40
0.98953201023612325
41
1
41
1
41
1
41
1
41
1
41
1
41
1
41
1
41
1
41
1
10
32.725424859373689
20
-1.2235870926211634
30
0
10
32.949856098631024
20
-1.2965095924409109
30
0
10
33.407273766157836
20
-1.6569859852673785
30
0
10
34.11902662284556
20
-2.8409546881577619
30
0
10
35.098258228215421
20
-5.4759703209799016
30
0
10
36.244947870144706
20
-9.5263033898785636
30
0
10
36.98723657064788
20
-12.606438548412559
30
0
10
37.37307766613236
20
-14.459650902978758
30
0
10
37.540815604575329
20
-15.431828690753356
30
0
10
37.601609044093401
20
-15.844395108169167
30
0
0
SPLINE
5
170
100
AcDbEntity
8
0
100
AcDbSpline
70
0
71
3
72
20
73
16
74
0
42
0.000000001
43
0.0000000001
44
0.0000000001
40
0
40
0
40
0
40
0
40
0.083390273312971483
40
0.083390273312971483
40
0.083390273312971483
40
0.22165524634596367
40
0.22165524634596367
40
0.22165524634596367
40
0.48725796174316088
40
0.48725796174316088
40
0.48725796174316088
40
0.80237402955032888
40
0.80237402955032888
40
0.80237402955032888
40
0.89562595814411661
40
0.89562595814411661
40
0.89562595814411661
40
0.89562595814411661
10
33.497970888269172
20
1.1540530469369252
30
0
10
34.21822064703219
20
0.92002852754572773
30
0
10
34.685857233184528
20
0.51397644949757759
30
0
10
35.033015300454259
20
0.13992986426693388
30
0
10
35.608619611392157
20
-0.48025686693488145
30
0
10
35.941863599512573
20
-1.1088135594601451
30
0
10
36.275609063054816
20
-1.8146019662346462
30
0
10
36.916723724446058
20
-3.1703995570708909
30
0
10
37.465822525117495
20
-4.8365919131556794
30
0
10
37.986368133356805
20
-6.6089396125036597
30
0
10
38.603953254568232
20
-8.7116863294203561
30
0
10
39.153171097859591
20
-10.913911462673427
30
0
10
39.547847264954228
20
-12.714433198541322
30
0
10
39.664643320476543
20
-13.247259485417501
30
0
10
39.76789713291307
20
-13.746556699856509
30
0
10
39.855931126806283
20
-14.206534243256641
30
0
0
SPLINE
5
171
100
AcDbEntity
8
0
100
AcDbSpline
70
4
71
5
72
16
73
10
74
0
42
0.000000001
43
0.0000000001
44
0.0000000001
40
0
40
0
40
0
40
0
40
0
40
0
40
0.20000000000000001
40
0.40000000000000002
40
0.60000000000000009
40
0.80000000000000004
40
0.98953201023612325
40
0.98953201023612325
40
0.98953201023612325
40
0.98953201023612325
40
0.98953201023612325
40
0.98953201023612325
41
1
41
1
41
1
41
1
41
1
41
1
41
1
41
1
41
1
41
1
10
32.725424859373689
20
-1.2235870926211634
30
0
10
32.949856098631024
20
-1.2965095924409109
30
0
10
33.407273766157836
20
-1.6569859852673785
30
0
10
34.11902662284556
20
-2.8409546881577619
30
0
10
35.098258228215421
20
-5.4759703209799016
30
0
10
36.244947870144706
20
-9.5263033898785636
30
0
10
36.98723657064788
20
-12.606438548412559
30
0
10
37.37307766613236
20
-14.459650902978758
30
0
10
37.540815604575329
20
-15.431828690753356
30
0
10
37.601609044093401
20
-15.844395108169167
30
0
0
SPLINE
5
172
100
AcDbEntity
8
0
100
AcDbSpline
70
4
71
5
72
16
73
10
74
0
42
0.000000001
43
0.0000000001
44
0.0000000001
40
0
40
0
40
0
40
0
40
0
40
0
40
0.20000000000000001
40
0.40000000000000002
40
0.60000000000000009
40
0.80000000000000004
40
0.98953201023612325
40
0.98953201023612325
40
0.98953201023612325
40
0.98953201023612325
40
0.98953201023612325
40
0.98953201023612325
41
1
41
1
41
1
41
1
41
1
41
1
41
1
41
1
41
1
41
1
10
32.725424859373689
20
-1.2235870926211634
30
0
10
32.500993402791522
20
-1.1506652616584567
30
0
10
31.919052028731997
20
-1.173433430415769
30
0
10
30.647312529141896
20
-1.7129263994240684
30
0
10
28.306274190435644
20
-3.2691209306057489
30
0
10
24.997856738069977
20
-5.8719019557410279
30
0
10
22.586874543376595
20
-7.927477292867696
30
0
10
21.185431648621183
20
-9.1999658762432102
30
0
10
20.478297039559177
20
-9.8878803416399847
30
0
10
20.186613658094391
20
-10.185920097452907
30
0
0
SPLINE
5
173
100
AcDbEntity
8
0
100
AcDbSpline
70
4
71
5
72
16
73
10
74
0
42
0.000000001
43
0.0000000001
44
0.0000000001
40
0
40
0
40
0
40
0
40
0
40
0
40
0.20000000000000001
40
0.40000000000000002
40
0.60000000000000009
40
0.80000000000000004
40
0.98953201023612447
40
0.98953201023612447
40
0.98953201023612447
40
0.98953201023612447
40
0.98953201023612447
40
0.98953201023612447
41
1
41
1
41
1
41
1
41
1
41
1
41
1
41
1
41
1
41
1
10
4.7745751406263093
20
-39.694631307311823
30
0
10
4.6358692239528398
20
-39.503718393096165
30
0
10
4.4776932648992762
20
-38.943223506118287
30
0
10
4.597792450778817
20
-37.56701487223382
30
0
10
5.3544007691385076
20
-34.859664548621964
30
0
10
6.8074354063151343
20
-30.908869002521534
30
0
10
8.0173692541294077
20
-27.980680963196647
30
0
10
8.7945081421344433
20
-26.254608968512834
30
0
10
9.2302370655928883
20
-25.369506730182621
30
0
10
9.4235545956244184
20
-24.999999999999982
30
0
0
SPLINE
5
174
100
AcDbEntity
8
0
100
AcDbSpline
70
0
71
3
72
20
73
16
74
0
42
0.000000001
43
0.0000000001
44
0.0000000001
40
0
40
0
40
0
40
0
40
0.083390273312976007
40
0.083390273312976007
40
0.083390273312976007
40
0.22165524634596334
40
0.22165524634596334
40
0.22165524634596334
40
0.48725796174312341
40
0.48725796174312341
40
0.48725796174312341
40
0.80237402955043313
40
0.80237402955043313
40
0.80237402955043313
40
0.89562595814411916
40
0.89562595814411916
40
0.89562595814411916
40
0.89562595814411916
10
2.7520304650221208
20
-8.8359085757795501
30
0
10
2.3068923311613379
20
-9.4485905752356114
30
0
10
2.1672378089120272
20
-10.051963495750645
30
0
10
2.1062400992254
20
-10.55862793204566
30
0
10
2.0051030439091044
20
-11.398701262398962
30
0
10
2.1049593483424771
20
-12.103090210212251
30
0
10
2.2498056132823003
20
-12.870255687215282
30
0
10
2.528050785861006
20
-14.343956722128508
30
0
10
3.0631838189159266
20
-16.014686831184747
30
0
10
3.6838134151141846
20
-17.754515271566913
30
0
10
4.4201400660913555
20
-19.818680526702757
30
0
10
5.2702489528091423
20
-21.923140233527896
30
0
10
6.0092693491302533
20
-23.611777747036452
30
0
10
6.2279667887960546
20
-24.111494267130279
30
0
10
6.4379122389586083
20
-24.576125267048077
30
0
10
6.6370592582123873
20
-25
30
0
0
SPLINE
5
175
100
AcDbEntity
8
0
100
AcDbSpline
70
4
71
5
72
16
73
10
74
0
42
0.000000001
43
0.0000000001
44
0.0000000001
40
0
40
0
40
0
40
0
40
0
40
0
40
0.20000000000000001
40
0.40000000000000002
40
0.60000000000000009
40
0.80000000000000004
40
0.98953201023612269
40
0.98953201023612269
40
0.98953201023612269
40
0.98953201023612269
40
0.98953201023612269
40
0.98953201023612269
41
1
41
1
41
1
41
1
41
1
41
1
41
1
41
1
41
1
41
1
10
32.725424859373675
20
-48.776412907378841
30
0
10
32.500993402791508
20
-48.84933473834154
30
0
10
31.919052028731983
20
-48.826566569584244
30
0
10
30.647312529141885
20
-48.287073600575937
30
0
10
28.30627419043563
20
-46.730879069394256
30
0
10
24.99785673806997
20
-44.128098044258969
30
0
10
22.586874543376592
20
-42.0725227071323
30
0
10
21.185431648621183
20
-40.800034123756802
30
0
10
20.478297039559159
20
-40.112119658360029
30
0
10
20.186613658094387
20
-39.8140799025471
30
0
0
SPLINE
5
176
100
AcDbEntity
8
0
100
AcDbSpline
70
0
71
3
72
20
73
16
74
0
42
0.000000001
43
0.0000000001
44
0.0000000001
40
0
40
0
40
0
40
0
40
0.083390273312976007
40
0.083390273312976007
40
0.083390273312976007
40
0.22165524634596334
40
0.22165524634596334
40
0.22165524634596334
40
0.48725796174312341
40
0.48725796174312341
40
0.48725796174312341
40
0.80237402955043313
40
0.80237402955043313
40
0.80237402955043313
40
0.89562595814411916
40
0.89562595814411916
40
0.89562595814411916
40
0.89562595814411916
10
2.7520304650221208
20
-8.8359085757795501
30
0
10
2.3068923311613379
20
-9.4485905752356114
30
0
10
2.1672378089120272
20
-10.051963495750645
30
0
10
2.1062400992254
20
-10.55862793204566
30
0
10
2.0051030439091044
20
-11.398701262398962
30
0
10
2.1049593483424771
20
-12.103090210212251
30
0
10
2.2498056132823003
20
-12.870255687215282
30
0
10
2.528050785861006
20
-14.343956722128508
30
0
10
3.0631838189159266
20
-16.014686831184747
30
0
10
3.6838134151141846
20
-17.754515271566913
30
0
10
4.4201400660913555
20
-19.818680526702757
30
0
10
5.2702489528091423
20
-21.923140233527896
30
0
10
6.0092693491302533
20
-23.611777747036452
30
0
10
6.2279667887960546
20
-24.111494267130279
30
0
10
6.4379122389586083
20
-24.576125267048077
30
0
10
6.6370592582123873
20
-25
30
0
0
LINE
5
177
100
AcDbEntity
8
0
100
AcDbLine
10
25
20
-25
30
0
11
50
21
-25
31
0
6
DASHED
0
SPLINE
5
178
100
AcDbEntity
8
0
100
AcDbSpline
70
0
71
3
72
20
73
16
74
0
42
0.000000001
43
0.0000000001
44
0.0000000001
40
0
40
0
40
0
40
0
40
0.083390273313018126
40
0.083390273313018126
40
0.083390273313018126
40
0.22165524634615544
40
0.22165524634615544
40
0.22165524634615544
40
0.48725796174357361
40
0.48725796174357361
40
0.48725796174357361
40
0.80237402955054693
40
0.80237402955054693
40
0.80237402955054693
40
0.89562595814411583
40
0.89562595814411583
40
0.89562595814411583
40
0.89562595814411583
10
2.7520348443602183
20
-41.164097451862247
30
0
10
3.197174804152549
20
-41.776778124701906
30
0
10
3.7278609312486424
20
-42.096049954502199
30
0
10
4.190878116050972
20
-42.310630145039205
30
0
10
4.9585822621960265
20
-42.666414136137043
30
0
10
5.6593532560863284
20
-42.789113302636743
30
0
10
6.4337309395059039
20
-42.888423488396363
30
0
10
7.9212863987624438
20
-43.079195268303749
30
0
10
9.6756103574188632
20
-43.086537506844124
30
0
10
11.522070625319119
20
-43.03392024054876
30
0
10
13.712745890486964
20
-42.971494124050153
30
0
10
15.976904101005758
20
-42.813306341163234
30
0
10
17.81126367353912
20
-42.632273866580377
30
0
10
18.354103551756925
20
-42.578701138568107
30
0
10
18.860870603892725
20
-42.5226100252126
30
0
10
19.325539244087469
20
-42.464194450818901
30
0
0
SPLINE
5
179
100
AcDbEntity
8
0
100
AcDbSpline
70
4
71
5
72
16
73
10
74
0
42
0.000000001
43
0.0000000001
44
0.0000000001
40
0
40
0
40
0
40
0
40
0
40
0
40
0.20000000000000001
40
0.40000000000000002
40
0.60000000000000009
40
0.80000000000000004
40
0.98953201023612314
40
0.98953201023612314
40
0.98953201023612314
40
0.98953201023612314
40
0.98953201023612314
40
0.98953201023612314
41
1
41
1
41
1
41
1
41
1
41
1
41
1
41
1
41
1
41
1
10
4.7745751406263182
20
-10.305368692688175
30
0
10
4.9132816262635703
20
-10.114456191848902
30
0
10
5.3974648814248871
20
-9.7908194699333428
30
0
10
6.7434297599097315
20
-9.47976872758999
30
0
10
9.5520777555331762
20
-9.3627287393265224
30
0
10
13.758520000504863
20
-9.523783834370029
30
0
10
16.917282437286403
20
-9.7696394377430185
30
0
10
18.799023578808214
20
-9.9753568613745998
30
0
10
19.775453472448952
20
-10.11624805996469
30
0
10
20.186613658094398
20
-10.185920097452909
30
0
0
SPLINE
5
180
100
AcDbEntity
8
0
100
AcDbSpline
70
0
71
3
72
20
73
16
74
0
42
0.000000001
43
0.0000000001
44
0.0000000001
40
0
40
0
40
0
40
0
40
0.083390273312997559
40
0.083390273312997559
40
0.083390273312997559
40
0.22165524634610287
40
0.22165524634610287
40
0.22165524634610287
40
0.48725796174337233
40
0.48725796174337233
40
0.48725796174337233
40
0.80237402955026615
40
0.80237402955026615
40
0.80237402955026615
40
0.89562595814411949
40
0.89562595814411949
40
0.89562595814411949
40
0.89562595814411949
10
33.497963802351173
20
-51.154055349291248
30
0
10
32.777713346144274
20
-51.388077722171502
30
0
10
32.160715977615865
20
-51.334444579201943
30
0
10
31.660000134991336
20
-51.235888927217879
30
0
10
30.829789851138738
20
-51.07247904711484
30
0
10
30.190733447379507
20
-50.759841902565732
30
0
10
29.50587567883661
20
-50.385017748541514
30
0
10
28.190285193440467
20
-49.664992199616123
30
0
10
26.766691637716487
20
-48.639766444731301
30
0
10
25.303801554692189
20
-47.511876067685776
30
0
10
23.568201186650711
20
-46.173725665118482
30
0
10
21.829439162261561
20
-44.714910255460993
30
0
10
20.451819313033155
20
-43.49024240285295
30
0
10
20.044141885779759
20
-43.127827880682091
30
0
10
19.667128257626295
20
-42.784579017149724
30
0
10
19.325539244087434
20
-42.464194450818781
30
0
0
SPLINE
5
181
100
AcDbEntity
8
0
100
AcDbSpline
70
4
71
5
72
16
73
10
74
0
42
0.000000001
43
0.0000000001
44
0.0000000001
40
0
40
0
40
0
40
0
40
0
40
0
40
0.20000000000000001
40
0.40000000000000002
40
0.60000000000000009
40
0.80000000000000004
40
0.98953201023612269
40
0.98953201023612269
40
0.98953201023612269
40
0.98953201023612269
40
0.98953201023612269
40
0.98953201023612269
41
1
41
1
41
1
41
1
41
1
41
1
41
1
41
1
41
1
41
1
10
32.725424859373675
20
-48.776412907378841
30
0
10
32.500993402791508
20
-48.84933473834154
30
0
10
31.919052028731983
20
-48.826566569584244
30
0
10
30.647312529141885
20
-48.287073600575937
30
0
10
28.30627419043563
20
-46.730879069394256
30
0
10
24.99785673806997
20
-44.128098044258969
30
0
10
22.586874543376592
20
-42.0725227071323
30
0
10
21.185431648621183
20
-40.800034123756802
30
0
10
20.478297039559159
20
-40.112119658360029
30
0
10
20.186613658094387
20
-39.8140799025471
30
0
0
SPLINE
5
182
100
AcDbEntity
8
0
100
AcDbSpline
70
0
71
3
72
20
73
16
74
0
42
0.000000001
43
0.0000000001
44
0.0000000001
40
0
40
0
40
0
40
0
40
0.083390273312976854
40
0.083390273312976854
40
0.083390273312976854
40
0.22165524634597397
40
0.22165524634597397
40
0.22165524634597397
40
0.48725796174305103
40
0.48725796174305103
40
0.48725796174305103
40
0.80237402955020598
40
0.80237402955020598
40
0.80237402955020598
40
0.89562595814411627
40
0.89562595814411627
40
0.89562595814411627
40
0.89562595814411627
10
2.7520304650221346
20
-41.164091424220487
30
0
10
2.3068923311613387
20
-40.551409424764422
30
0
10
2.1672378089120095
20
-39.948036504249337
30
0
10
2.1062400992253822
20
-39.441372067954326
30
0
10
2.0051030439090805
20
-38.60129873760097
30
0
10
2.1049593483424704
20
-37.896909789787664
30
0
10
2.2498056132823172
20
-37.129744312784553
30
0
10
2.5280507858609602
20
-35.656043277871746
30
0
10
3.0631838189156562
20
-33.985313168816077
30
0
10
3.6838134151136668
20
-32.245484728434505
30
0
10
4.4201400660904131
20
-30.181319473299734
30
0
10
5.2702489528077656
20
-28.076859766475486
30
0
10
6.0092693491286493
20
-26.388222252967203
30
0
10
6.2279667887950172
20
-25.888505732872005
30
0
10
6.4379122389581225
20
-25.423874732952932
30
0
10
6.6370592582123926
20
-24.999999999999993
30
0
0
SPLINE
5
183
100
AcDbEntity
8
0
100
AcDbSpline
70
4
71
5
72
16
73
10
74
0
42
0.000000001
43
0.0000000001
44
0.0000000001
40
0
40
0
40
0
40
0
40
0
40
0
40
0.20000000000000001
40
0.40000000000000002
40
0.60000000000000009
40
0.80000000000000004
40
0.98953201023612203
40
0.98953201023612203
40
0.98953201023612203
40
0.98953201023612203
40
0.98953201023612203
40
0.98953201023612203
41
1
41
1
41
1
41
1
41
1
41
1
41
1
41
1
41
1
41
1
10
50
20
-25
30
0
10
49.99999964836104
20
-24.764018915727508
30
0
10
49.798516058785999
20
-24.217595530903246
30
0
10
48.892438637323998
20
-23.174811888557507
30
0
10
46.688989056677251
20
-21.429242678322634
30
0
10
43.191239984965307
20
-19.087054271029107
30
0
10
40.49123719455973
20
-17.42928165648453
30
0
10
38.847958964303814
20
-16.489650856622994
30
0
10
37.975196817823672
20
-16.029703139260704
30
0
10
37.601609044093408
20
-15.84439510816917
30
0
0
SPLINE
5
184
100
AcDbEntity
8
0
100
AcDbSpline
70
4
71
5
72
16
73
10
74
0
42
0.000000001
43
0.0000000001
44
0.0000000001
40
0
40
0
40
0
40
0
40
0
40
0
40
0.20000000000000001
40
0.40000000000000002
40
0.60000000000000009
40
0.80000000000000004
40
0.98953201023612203
40
0.98953201023612203
40
0.98953201023612203
40
0.98953201023612203
40
0.98953201023612203
40
0.98953201023612203
41
1
41
1
41
1
41
1
41
1
41
1
41
1
41
1
41
1
41
1
10
50
20
-25
30
0
10
49.99999964836104
20
-24.764018915727508
30
0
10
49.798516058785999
20
-24.217595530903246
30
0
10
48.892438637323998
20
-23.174811888557507
30
0
10
46.688989056677251
20
-21.429242678322634
30
0
10
43.191239984965307
20
-19.087054271029107
30
0
10
40.49123719455973
20
-17.42928165648453
30
0
10
38.847958964303814
20
-16.489650856622994
30
0
10
37.975196817823672
20
-16.029703139260704
30
0
10
37.601609044093408
20
-15.84439510816917
30
0
0
SPLINE
5
185
100
AcDbEntity
8
0
100
AcDbSpline
70
4
71
5
72
16
73
10
74
0
42
0.000000001
43
0.0000000001
44
0.0000000001
40
0
40
0
40
0
40
0
40
0
40
0
40
0.20000000000000001
40
0.40000000000000002
40
0.60000000000000009
40
0.80000000000000004
40
0.98953201023612258
40
0.98953201023612258
40
0.98953201023612258
40
0.98953201023612258
40
0.98953201023612258
40
0.98953201023612258
41
1
41
1
41
1
41
1
41
1
41
1
41
1
41
1
41
1
41
1
10
4.7745751406263093
20
-39.694631307311823
30
0
10
4.9132816262635526
20
-39.885543808151105
30
0
10
5.3974648814248738
20
-40.209180530066661
30
0
10
6.7434297599097182
20
-40.520231272410008
30
0
10
9.5520777555331637
20
-40.637271260673486
30
0
10
13.75852000050485
20
-40.476216165629978
30
0
10
16.917282437286389
20
-40.230360562256998
30
0
10
18.799023578808207
20
-40.024643138625422
30
0
10
19.775453472448937
20
-39.883751940035324
30
0
10
20.186613658094387
20
-39.814079902547107
30
0
0
SPLINE
5
186
100
AcDbEntity
8
0
100
AcDbSpline
70
4
71
5
72
16
73
10
74
0
42
0.000000001
43
0.0000000001
44
0.0000000001
40
0
40
0
40
0
40
0
40
0
40
0
40
0.20000000000000001
40
0.40000000000000002
40
0.60000000000000009
40
0.80000000000000004
40
0.9895320102361248
40
0.9895320102361248
40
0.9895320102361248
40
0.9895320102361248
40
0.9895320102361248
40
0.9895320102361248
41
1
41
1
41
1
41
1
41
1
41
1
41
1
41
1
41
1
41
1
10
50
20
-25
30
0
10
49.99999964836104
20
-25.235981084272492
30
0
10
49.798516058785999
20
-25.782404469096754
30
0
10
48.892438637323998
20
-26.825188111442493
30
0
10
46.688989056677251
20
-28.570757321677366
30
0
10
43.191239984965307
20
-30.912945728970904
30
0
10
40.491237194559709
20
-32.570718343515473
30
0
10
38.847958964303785
20
-33.51034914337702
30
0
10
37.975196817823644
20
-33.97029686073931
30
0
10
37.601609044093379
20
-34.155604891830848
30
0
0
SPLINE
5
187
100
AcDbEntity
8
0
100
AcDbSpline
70
4
71
5
72
16
73
10
74
0
42
0.000000001
43
0.0000000001
44
0.0000000001
40
0
40
0
40
0
40
0
40
0
40
0
40
0.20000000000000001
40
0.40000000000000002
40
0.60000000000000009
40
0.80000000000000004
40
0.98953201023612314
40
0.98953201023612314
40
0.98953201023612314
40
0.98953201023612314
40
0.98953201023612314
40
0.98953201023612314
41
1
41
1
41
1
41
1
41
1
41
1
41
1
41
1
41
1
41
1
10
4.7745751406263182
20
-10.305368692688175
30
0
10
4.9132816262635703
20
-10.114456191848902
30
0
10
5.3974648814248871
20
-9.7908194699333428
30
0
10
6.7434297599097315
20
-9.47976872758999
30
0
10
9.5520777555331762
20
-9.3627287393265224
30
0
10
13.758520000504863
20
-9.523783834370029
30
0
10
16.917282437286403
20
-9.7696394377430185
30
0
10
18.799023578808214
20
-9.9753568613745998
30
0
10
19.775453472448952
20
-10.11624805996469
30
0
10
20.186613658094398
20
-10.185920097452909
30
0
0
SPLINE
5
188
100
AcDbEntity
8
0
100
AcDbSpline
70
0
71
3
72
20
73
16
74
0
42
0.000000001
43
0.0000000001
44
0.0000000001
40
0
40
0
40
0
40
0
40
0.083390273312976687
40
0.083390273312976687
40
0.083390273312976687
40
0.2216552463459659
40
0.2216552463459659
40
0.2216552463459659
40
0.48725796174309871
40
0.48725796174309871
40
0.48725796174309871
40
0.80237402955068715
40
0.80237402955068715
40
0.80237402955068715
40
0.8956259581441175
40
0.8956259581441175
40
0.8956259581441175
40
0.8956259581441175
10
33.497963802351222
20
1.1540553492912331
30
0
10
32.777713346144452
20
1.3880777221714591
30
0
10
32.160715977616235
20
1.3344445792019597
30
0
10
31.660000134991723
20
1.2358889272179412
30
0
10
30.829789851139651
20
1.0724790471150729
30
0
10
30.190733447380936
20
0.75984190256636341
30
0
10
29.505875678838652
20
0.38501774854262205
30
0
10
28.190285193443259
20
-0.33500780038209221
30
0
10
26.76669163772031
20
-1.360233555265939
30
0
10
25.303801554696722
20
-2.4881239323107236
30
0
10
23.568201186651372
20
-3.8262743348807704
30
0
10
21.829439162258147
20
-5.2850897445417955
30
0
10
20.451819313027638
20
-6.5097575971519657
30
0
10
20.044141885776362
20
-6.8721721193210037
30
0
10
19.667128257624892
20
-7.2154209828516249
30
0
10
19.325539244087565
20
-7.5358055491810916
30
0
0
SPLINE
5
189
100
AcDbEntity
8
0
100
AcDbSpline
70
0
71
3
72
20
73
16
74
0
42
0.000000001
43
0.0000000001
44
0.0000000001
40
0
40
0
40
0
40
0
40
0.08339027331303478
40
0.08339027331303478
40
0.08339027331303478
40
0.22165524634614422
40
0.22165524634614422
40
0.22165524634614422
40
0.48725796174359159
40
0.48725796174359159
40
0.48725796174359159
40
0.80237402955083348
40
0.80237402955083348
40
0.80237402955083348
40
0.89562595814411616
40
0.89562595814411616
40
0.89562595814411616
40
0.89562595814411616
10
52.499999999997222
20
-24.999996274712451
30
0
10
52.499998871509604
20
-24.24268049468801
30
0
10
52.258328049038909
20
-23.672454679451253
30
0
10
52.009866349277836
20
-23.226700985865651
30
0
10
51.597905231363441
20
-22.487620515513139
30
0
10
51.103090348678336
20
-21.976451949176287
30
0
10
50.534978705319283
20
-21.440940539163925
30
0
10
49.443653897488616
20
-20.412239766253503
30
0
10
48.028691660829203
20
-19.375134019855956
30
0
10
46.503946271515133
20
-18.332380168070465
30
0
10
44.694959602200051
20
-17.095237343781935
30
0
10
42.770236686061487
20
-15.892375143439279
30
0
10
41.179800399340976
20
-14.960623987773563
30
0
10
40.709144453189253
20
-14.684891960398815
30
0
10
40.266191766608515
20
-14.432400424744543
30
0
10
39.855931126806311
20
-14.206534243256648
30
0
0
LINE
5
190
100
AcDbEntity
8
0
100
AcDbLine
10
25
20
-25
30
0
11
50
21
-25
31
0
6
DASHED
0
SPLINE
5
191
100
AcDbEntity
8
0
100
AcDbSpline
70
0
71
3
72
20
73
16
74
0
42
0.000000001
43
0.0000000001
44
0.0000000001
40
0
40
0
40
0
40
0
40
0.083390273312976854
40
0.083390273312976854
40
0.083390273312976854
40
0.22165524634597397
40
0.22165524634597397
40
0.22165524634597397
40
0.48725796174305103
40
0.48725796174305103
40
0.48725796174305103
40
0.80237402955020598
40
0.80237402955020598
40
0.80237402955020598
40
0.89562595814411627
40
0.89562595814411627
40
0.89562595814411627
40
0.89562595814411627
10
2.7520304650221346
20
-41.164091424220487
30
0
10
2.3068923311613387
20
-40.551409424764422
30
0
10
2.1672378089120095
20
-39.948036504249337
30
0
10
2.1062400992253822
20
-39.441372067954326
30
0
10
2.0051030439090805
20
-38.60129873760097
30
0
10
2.1049593483424704
20
-37.896909789787664
30
0
10
2.2498056132823172
20
-37.129744312784553
30
0
10
2.5280507858609602
20
-35.656043277871746
30
0
10
3.0631838189156562
20
-33.985313168816077
30
0
10
3.6838134151136668
20
-32.245484728434505
30
0
10
4.4201400660904131
20
-30.181319473299734
30
0
10
5.2702489528077656
20
-28.076859766475486
30
0
10
6.0092693491286493
20
-26.388222252967203
30
0
10
6.2279667887950172
20
-25.888505732872005
30
0
10
6.4379122389581225
20
-25.423874732952932
30
0
10
6.6370592582123926
20
-24.999999999999993
30
0
0
SPLINE
5
192
100
AcDbEntity
8
0
100
AcDbSpline
70
4
71
5
72
16
73
10
74
0
42
0.000000001
43
0.0000000001
44
0.0000000001
40
0
40
0
40
0
40
0
40
0
40
0
40
0.20000000000000001
40
0.40000000000000002
40
0.60000000000000009
40
0.80000000000000004
40
0.98953201023612325
40
0.98953201023612325
40
0.98953201023612325
40
0.98953201023612325
40
0.98953201023612325
40
0.98953201023612325
41
1
41
1
41
1
41
1
41
1
41
1
41
1
41
1
41
1
41
1
10
32.725424859373689
20
-1.2235870926211634
30
0
10
32.500993402791522
20
-1.1506652616584567
30
0
10
31.919052028731997
20
-1.173433430415769
30
0
10
30.647312529141896
20
-1.7129263994240684
30
0
10
28.306274190435644
20
-3.2691209306057489
30
0
10
24.997856738069977
20
-5.8719019557410279
30
0
10
22.586874543376595
20
-7.927477292867696
30
0
10
21.185431648621183
20
-9.1999658762432102
30
0
10
20.478297039559177
20
-9.8878803416399847
30
0
10
20.186613658094391
20
-10.185920097452907
30
0
0
SPLINE
5
193
100
AcDbEntity
8
0
100
AcDbSpline
70
4
71
5
72
16
73
10
74
0
42
0.000000001
43
0.0000000001
44
0.0000000001
40
0
40
0
40
0
40
0
40
0
40
0
40
0.20000000000000001
40
0.40000000000000002
40
0.60000000000000009
40
0.80000000000000004
40
0.98953201023612258
40
0.98953201023612258
40
0.98953201023612258
40
0.98953201023612258
40
0.98953201023612258
40
0.98953201023612258
41
1
41
1
41
1
41
1
41
1
41
1
41
1
41
1
41
1
41
1
10
32.725424859373675
20
-48.776412907378841
30
0
10
32.94985609863101
20
-48.703490407559102
30
0
10
33.407273766157822
20
-48.343014014732617
30
0
10
34.119026622845546
20
-47.159045311842235
30
0
10
35.098258228215407
20
-44.524029679020103
30
0
10
36.244947870144706
20
-40.473696610121451
30
0
10
36.987236570647866
20
-37.393561451587445
30
0
10
37.373077666132353
20
-35.540349097021263
30
0
10
37.540815604575315
20
-34.568171309246658
30
0
10
37.601609044093387
20
-34.155604891830848
30
0
0
SPLINE
5
194
100
AcDbEntity
8
0
100
AcDbSpline
70
4
71
5
72
16
73
10
74
0
42
0.000000001
43
0.0000000001
44
0.0000000001
40
0
40
0
40
0
40
0
40
0
40
0
40
0.20000000000000001
40
0.40000000000000002
40
0.60000000000000009
40
0.80000000000000004
40
0.9895320102361248
40
0.9895320102361248
40
0.9895320102361248
40
0.9895320102361248
40
0.9895320102361248
40
0.9895320102361248
41
1
41
1
41
1
41
1
41
1
41
1
41
1
41
1
41
1
41
1
10
50
20
-25
30
0
10
49.99999964836104
20
-25.235981084272492
30
0
10
49.798516058785999
20
-25.782404469096754
30
0
10
48.892438637323998
20
-26.825188111442493
30
0
10
46.688989056677251
20
-28.570757321677366
30
0
10
43.191239984965307
20
-30.912945728970904
30
0
10
40.491237194559709
20
-32.570718343515473
30
0
10
38.847958964303785
20
-33.51034914337702
30
0
10
37.975196817823644
20
-33.97029686073931
30
0
10
37.601609044093379
20
-34.155604891830848
30
0
0
SPLINE
5
195
100
AcDbEntity
8
0
100
AcDbSpline
70
0
71
3
72
20
73
16
74
0
42
0.000000001
43
0.0000000001
44
0.0000000001
40
0
40
0
40
0
40
0
40
0.083390273312976687
40
0.083390273312976687
40
0.083390273312976687
40
0.2216552463459659
40
0.2216552463459659
40
0.2216552463459659
40
0.48725796174309871
40
0.48725796174309871
40
0.48725796174309871
40
0.80237402955068715
40
0.80237402955068715
40
0.80237402955068715
40
0.8956259581441175
40
0.8956259581441175
40
0.8956259581441175
40
0.8956259581441175
10
33.497963802351222
20
1.1540553492912331
30
0
10
32.777713346144452
20
1.3880777221714591
30
0
10
32.160715977616235
20
1.3344445792019597
30
0
10
31.660000134991723
20
1.2358889272179412
30
0
10
30.829789851139651
20
1.0724790471150729
30
0
10
30.190733447380936
20
0.75984190256636341
30
0
10
29.505875678838652
20
0.38501774854262205
30
0
10
28.190285193443259
20
-0.33500780038209221
30
0
10
26.76669163772031
20
-1.360233555265939
30
0
10
25.303801554696722
20
-2.4881239323107236
30
0
10
23.568201186651372
20
-3.8262743348807704
30
0
10
21.829439162258147
20
-5.2850897445417955
30
0
10
20.451819313027638
20
-6.5097575971519657
30
0
10
20.044141885776362
20
-6.8721721193210037
30
0
10
19.667128257624892
20
-7.2154209828516249
30
0
10
19.325539244087565
20
-7.5358055491810916
30
0
0
SPLINE
5
196
100
AcDbEntity
8
0
100
AcDbSpline
70
4
71
5
72
16
73
10
74
0
42
0.000000001
43
0.0000000001
44
0.0000000001
40
0
40
0
40
0
40
0
40
0
40
0
40
0.20000000000000001
40
0.40000000000000002
40
0.60000000000000009
40
0.80000000000000004
40
0.98953201023612203
40
0.98953201023612203
40
0.98953201023612203
40
0.98953201023612203
40
0.98953201023612203
40
0.98953201023612203
41
1
41
1
41
1
41
1
41
1
41
1
41
1
41
1
41
1
41
1
10
50
20
-25
30
0
10
49.99999964836104
20
-24.764018915727508
30
0
10
49.798516058785999
20
-24.217595530903246
30
0
10
48.892438637323998
20
-23.174811888557507
30
0
10
46.688989056677251
20
-21.429242678322634
30
0
10
43.191239984965307
20
-19.087054271029107
30
0
10
40.49123719455973
20
-17.42928165648453
30
0
10
38.847958964303814
20
-16.489650856622994
30
0
10
37.975196817823672
20
-16.029703139260704
30
0
10
37.601609044093408
20
-15.84439510816917
30
0
0
SPLINE
5
197
100
AcDbEntity
8
0
100
AcDbSpline
70
0
71
3
72
20
73
16
74
0
42
0.000000001
43
0.0000000001
44
0.0000000001
40
0
40
0
40
0
40
0
40
0.083390273312976007
40
0.083390273312976007
40
0.083390273312976007
40
0.22165524634596334
40
0.22165524634596334
40
0.22165524634596334
40
0.48725796174312341
40
0.48725796174312341
40
0.48725796174312341
40
0.80237402955043313
40
0.80237402955043313
40
0.80237402955043313
40
0.89562595814411916
40
0.89562595814411916
40
0.89562595814411916
40
0.89562595814411916
10
2.7520304650221208
20
-8.8359085757795501
30
0
10
2.3068923311613379
20
-9.4485905752356114
30
0
10
2.1672378089120272
20
-10.051963495750645
30
0
10
2.1062400992254
20
-10.55862793204566
30
0
10
2.0051030439091044
20
-11.398701262398962
30
0
10
2.1049593483424771
20
-12.103090210212251
30
0
10
2.2498056132823003
20
-12.870255687215282
30
0
10
2.528050785861006
20
-14.343956722128508
30
0
10
3.0631838189159266
20
-16.014686831184747
30
0
10
3.6838134151141846
20
-17.754515271566913
30
0
10
4.4201400660913555
20
-19.818680526702757
30
0
10
5.2702489528091423
20
-21.923140233527896
30
0
10
6.0092693491302533
20
-23.611777747036452
30
0
10
6.2279667887960546
20
-24.111494267130279
30
0
10
6.4379122389586083
20
-24.576125267048077
30
0
10
6.6370592582123873
20
-25
30
0
0
SPLINE
5
198
100
AcDbEntity
8
0
100
AcDbSpline
70
0
71
3
72
20
73
16
74
0
42
0.000000001
43
0.0000000001
44
0.0000000001
40
0
40
0
40
0
40
0
40
0.083390273312996296
40
0.083390273312996296
40
0.083390273312996296
40
0.22165524634601075
40
0.22165524634601075
40
0.22165524634601075
40
0.4872579617432205
40
0.4872579617432205
40
0.4872579617432205
40
0.802374029550464
40
0.802374029550464
40
0.802374029550464
40
0.89562595814412049
40
0.89562595814412049
40
0.89562595814412049
40
0.89562595814412049
10
2.7520348443603044
20
-8.8359025481376499
30
0
10
3.1971748041524872
20
-8.2232218752982575
30
0
10
3.7278609312481041
20
-7.9039500454981617
30
0
10
4.1908781160504676
20
-7.6893698549610487
30
0
10
4.9585822621950966
20
-7.3335858638632629
30
0
10
5.6593532560847626
20
-7.2108866973635974
30
0
10
6.4337309395035067
20
-7.1115765116039515
30
0
10
7.9212863987586024
20
-6.9208047316965065
30
0
10
9.6756103574128733
20
-6.9134624931559561
30
0
10
11.522070625311713
20
-6.9660797594510493
30
0
10
13.712745890481477
20
-7.0285058759494445
30
0
10
15.976904101002471
20
-7.1866936588365142
30
0
10
17.811263673537653
20
-7.3677261334194988
30
0
10
18.35410355175604
20
-7.4212988614318061
30
0
10
18.860870603892373
20
-7.4773899747873784
30
0
10
19.325539244087558
20
-7.5358055491811404
30
0
0
SPLINE
5
199
100
AcDbEntity
8
0
100
AcDbSpline
70
4
71
5
72
16
73
10
74
0
42
0.000000001
43
0.0000000001
44
0.0000000001
40
0
40
0
40
0
40
0
40
0
40
0
40
0.20000000000000001
40
0.40000000000000002
40
0.60000000000000009
40
0.80000000000000004
40
0.98953201023612258
40
0.98953201023612258
40
0.98953201023612258
40
0.98953201023612258
40
0.98953201023612258
40
0.98953201023612258
41
1
41
1
41
1
41
1
41
1
41
1
41
1
41
1
41
1
41
1
10
32.725424859373675
20
-48.776412907378841
30
0
10
32.94985609863101
20
-48.703490407559102
30
0
10
33.407273766157822
20
-48.343014014732617
30
0
10
34.119026622845546
20
-47.159045311842235
30
0
10
35.098258228215407
20
-44.524029679020103
30
0
10
36.244947870144706
20
-40.473696610121451
30
0
10
36.987236570647866
20
-37.393561451587445
30
0
10
37.373077666132353
20
-35.540349097021263
30
0
10
37.540815604575315
20
-34.568171309246658
30
0
10
37.601609044093387
20
-34.155604891830848
30
0
0
SPLINE
5
200
100
AcDbEntity
8
0
100
AcDbSpline
70
4
71
5
72
16
73
10
74
0
42
0.000000001
43
0.0000000001
44
0.0000000001
40
0
40
0
40
0
40
0
40
0
40
0
40
0.20000000000000001
40
0.40000000000000002
40
0.60000000000000009
40
0.80000000000000004
40
0.98953201023612258
40
0.98953201023612258
40
0.98953201023612258
40
0.98953201023612258
40
0.98953201023612258
40
0.98953201023612258
41
1
41
1
41
1
41
1
41
1
41
1
41
1
41
1
41
1
41
1
10
4.7745751406263093
20
-39.694631307311823
30
0
10
4.9132816262635526
20
-39.885543808151105
30
0
10
5.3974648814248738
20
-40.209180530066661
30
0
10
6.7434297599097182
20
-40.520231272410008
30
0
10
9.5520777555331637
20
-40.637271260673486
30
0
10
13.75852000050485
20
-40.476216165629978
30
0
10
16.917282437286389
20
-40.230360562256998
30
0
10
18.799023578808207
20
-40.024643138625422
30
0
10
19.775453472448937
20
-39.883751940035324
30
0
10
20.186613658094387
20
-39.814079902547107
30
0
0
SPLINE
5
201
100
AcDbEntity
8
0
100
AcDbSpline
70
0
71
3
72
20
73
16
74
0
42
0.000000001
43
0.0000000001
44
0.0000000001
40
0
40
0
40
0
40
0
40
0.083390273312996296
40
0.083390273312996296
40
0.083390273312996296
40
0.22165524634601075
40
0.22165524634601075
40
0.22165524634601075
40
0.4872579617432205
40
0.4872579617432205
40
0.4872579617432205
40
0.802374029550464
40
0.802374029550464
40
0.802374029550464
40
0.89562595814412049
40
0.89562595814412049
40
0.89562595814412049
40
0.89562595814412049
10
2.7520348443603044
20
-8.8359025481376499
30
0
10
3.1971748041524872
20
-8.2232218752982575
30
0
10
3.7278609312481041
20
-7.9039500454981617
30
0
10
4.1908781160504676
20
-7.6893698549610487
30
0
10
4.9585822621950966
20
-7.3335858638632629
30
0
10
5.6593532560847626
20
-7.2108866973635974
30
0
10
6.4337309395035067
20
-7.1115765116039515
30
0
10
7.9212863987586024
20
-6.9208047316965065
30
0
10
9.6756103574128733
20
-6.9134624931559561
30
0
10
11.522070625311713
20
-6.9660797594510493
30
0
10
13.712745890481477
20
-7.0285058759494445
30
0
10
15.976904101002471
20
-7.1866936588365142
30
0
10
17.811263673537653
20
-7.3677261334194988
30
0
10
18.35410355175604
20
-7.4212988614318061
30
0
10
18.860870603892373
20
-7.4773899747873784
30
0
10
19.325539244087558
20
-7.5358055491811404
30
0
0
SPLINE
5
202
100
AcDbEntity
8
0
100
AcDbSpline
70
0
71
3
72
20
73
16
74
0
42
0.000000001
43
0.0000000001
44
0.0000000001
40
0
40
0
40
0
40
0
40
0.083390273312997754
40
0.083390273312997754
40
0.083390273312997754
40
0.22165524634597458
40
0.22165524634597458
40
0.22165524634597458
40
0.48725796174322833
40
0.48725796174322833
40
0.48725796174322833
40
0.80237402955035697
40
0.80237402955035697
40
0.80237402955035697
40
0.89562595814411616
40
0.89562595814411616
40
0.89562595814411616
40
0.89562595814411616
10
52.499999999997222
20
-25.000003725287549
30
0
10
52.499998871509604
20
-25.757319505311649
30
0
10
52.258328049039122
20
-26.327545320548221
30
0
10
52.009866349278184
20
-26.773299014133748
30
0
10
51.597905231364216
20
-27.512379484485759
30
0
10
51.103090348679679
20
-28.023548050822239
30
0
10
50.534978705321372
20
-28.559059460834106
30
0
10
49.443653897491885
20
-29.587760233743822
30
0
10
48.028691660834049
20
-30.624865980140513
30
0
10
46.503946271521386
20
-31.667619831925265
30
0
10
44.694959602207298
20
-32.904762656213371
30
0
10
42.770236686069147
20
-34.107624856555979
30
0
10
41.17980039934821
20
-35.039376012222199
30
0
10
40.709144453193787
20
-35.315108039598606
30
0
10
40.266191766610618
20
-35.567599575254278
30
0
10
39.855931126806325
20
-35.793465756743331
30
0
0
SPLINE
5
203
100
AcDbEntity
8
0
100
AcDbSpline
70
0
71
3
72
20
73
16
74
0
42
0.000000001
43
0.0000000001
44
0.0000000001
40
0
40
0
40
0
40
0
40
0.083390273313018126
40
0.083390273313018126
40
0.083390273313018126
40
0.22165524634615544
40
0.22165524634615544
40
0.22165524634615544
40
0.48725796174357361
40
0.48725796174357361
40
0.48725796174357361
40
0.80237402955054693
40
0.80237402955054693
40
0.80237402955054693
40
0.89562595814411583
40
0.89562595814411583
40
0.89562595814411583
40
0.89562595814411583
10
2.7520348443602183
20
-41.164097451862247
30
0
10
3.197174804152549
20
-41.776778124701906
30
0
10
3.7278609312486424
20
-42.096049954502199
30
0
10
4.190878116050972
20
-42.310630145039205
30
0
10
4.9585822621960265
20
-42.666414136137043
30
0
10
5.6593532560863284
20
-42.789113302636743
30
0
10
6.4337309395059039
20
-42.888423488396363
30
0
10
7.9212863987624438
20
-43.079195268303749
30
0
10
9.6756103574188632
20
-43.086537506844124
30
0
10
11.522070625319119
20
-43.03392024054876
30
0
10
13.712745890486964
20
-42.971494124050153
30
0
10
15.976904101005758
20
-42.813306341163234
30
0
10
17.81126367353912
20
-42.632273866580377
30
0
10
18.354103551756925
20
-42.578701138568107
30
0
10
18.860870603892725
20
-42.5226100252126
30
0
10
19.325539244087469
20
-42.464194450818901
30
0
0
SPLINE
5
204
100
AcDbEntity
8
0
100
AcDbSpline
70
0
71
3
72
20
73
16
74
0
42
0.000000001
43
0.0000000001
44
0.0000000001
40
0
40
0
40
0
40
0
40
0.083390273312976687
40
0.083390273312976687
40
0.083390273312976687
40
0.2216552463459659
40
0.2216552463459659
40
0.2216552463459659
40
0.48725796174309871
40
0.48725796174309871
40
0.48725796174309871
40
0.80237402955068715
40
0.80237402955068715
40
0.80237402955068715
40
0.8956259581441175
40
0.8956259581441175
40
0.8956259581441175
40
0.8956259581441175
10
33.497963802351222
20
1.1540553492912331
30
0
10
32.777713346144452
20
1.3880777221714591
30
0
10
32.160715977616235
20
1.3344445792019597
30
0
10
31.660000134991723
20
1.2358889272179412
30
0
10
30.829789851139651
20
1.0724790471150729
30
0
10
30.190733447380936
20
0.75984190256636341
30
0
10
29.505875678838652
20
0.38501774854262205
30
0
10
28.190285193443259
20
-0.33500780038209221
30
0
10
26.76669163772031
20
-1.360233555265939
30
0
10
25.303801554696722
20
-2.4881239323107236
30
0
10
23.568201186651372
20
-3.8262743348807704
30
0
10
21.829439162258147
20
-5.2850897445417955
30
0
10
20.451819313027638
20
-6.5097575971519657
30
0
10
20.044141885776362
20
-6.8721721193210037
30
0
10
19.667128257624892
20
-7.2154209828516249
30
0
10
19.325539244087565
20
-7.5358055491810916
30
0
0
SPLINE
5
205
100
AcDbEntity
8
0
100
AcDbSpline
70
4
71
5
72
16
73
10
74
0
42
0.000000001
43
0.0000000001
44
0.0000000001
40
0
40
0
40
0
40
0
40
0
40
0
40
0.20000000000000001
40
0.40000000000000002
40
0.60000000000000009
40
0.80000000000000004
40
0.98953201023612325
40
0.98953201023612325
40
0.98953201023612325
40
0.98953201023612325
40
0.98953201023612325
40
0.98953201023612325
41
1
41
1
41
1
41
1
41
1
41
1
41
1
41
1
41
1
41
1
10
32.725424859373689
20
-1.2235870926211634
30
0
10
32.949856098631024
20
-1.2965095924409109
30
0
10
33.407273766157836
20
-1.6569859852673785
30
0
10
34.11902662284556
20
-2.8409546881577619
30
0
10
35.098258228215421
20
-5.4759703209799016
30
0
10
36.244947870144706
20
-9.5263033898785636
30
0
10
36.98723657064788
20
-12.606438548412559
30
0
10
37.37307766613236
20
-14.459650902978758
30
0
10
37.540815604575329
20
-15.431828690753356
30
0
10
37.601609044093401
20
-15.844395108169167
30
0
0
SPLINE
5
206
100
AcDbEntity
8
0
100
AcDbSpline
70
0
71
3
72
20
73
16
74
0
42
0.000000001
43
0.0000000001
44
0.0000000001
40
0
40
0
40
0
40
0
40
0.083390273312971483
40
0.083390273312971483
40
0.083390273312971483
40
0.22165524634596367
40
0.22165524634596367
40
0.22165524634596367
40
0.48725796174316088
40
0.48725796174316088
40
0.48725796174316088
40
0.80237402955032888
40
0.80237402955032888
40
0.80237402955032888
40
0.89562595814411661
40
0.89562595814411661
40
0.89562595814411661
40
0.89562595814411661
10
33.497970888269172
20
1.1540530469369252
30
0
10
34.21822064703219
20
0.92002852754572773
30
0
10
34.685857233184528
20
0.51397644949757759
30
0
10
35.033015300454259
20
0.13992986426693388
30
0
10
35.608619611392157
20
-0.48025686693488145
30
0
10
35.941863599512573
20
-1.1088135594601451
30
0
10
36.275609063054816
20
-1.8146019662346462
30
0
10
36.916723724446058
20
-3.1703995570708909
30
0
10
37.465822525117495
20
-4.8365919131556794
30
0
10
37.986368133356805
20
-6.6089396125036597
30
0
10
38.603953254568232
20
-8.7116863294203561
30
0
10
39.153171097859591
20
-10.913911462673427
30
0
10
39.547847264954228
20
-12.714433198541322
30
0
10
39.664643320476543
20
-13.247259485417501
30
0
10
39.76789713291307
20
-13.746556699856509
30
0
10
39.855931126806283
20
-14.206534243256641
30
0
0
SPLINE
5
207
100
AcDbEntity
8
0
100
AcDbSpline
70
4
71
5
72
16
73
10
74
0
42
0.000000001
43
0.0000000001
44
0.0000000001
40
0
40
0
40
0
40
0
40
0
40
0
40
0.20000000000000001
40
0.40000000000000002
40
0.60000000000000009
40
0.80000000000000004
40
0.98953201023612258
40
0.98953201023612258
40
0.98953201023612258
40
0.98953201023612258
40
0.98953201023612258
40
0.98953201023612258
41
1
41
1
41
1
41
1
41
1
41
1
41
1
41
1
41
1
41
1
10
32.725424859373675
20
-48.776412907378841
30
0
10
32.94985609863101
20
-48.703490407559102
30
0
10
33.407273766157822
20
-48.343014014732617
30
0
10
34.119026622845546
20
-47.159045311842235
30
0
10
35.098258228215407
20
-44.524029679020103
30
0
10
36.244947870144706
20
-40.473696610121451
30
0
10
36.987236570647866
20
-37.393561451587445
30
0
10
37.373077666132353
20
-35.540349097021263
30
0
10
37.540815604575315
20
-34.568171309246658
30
0
10
37.601609044093387
20
-34.155604891830848
30
0
0
SPLINE
5
208
100
AcDbEntity
8
0
100
AcDbSpline
70
0
71
3
72
20
73
16
74
0
42
0.000000001
43
0.0000000001
44
0.0000000001
40
0
40
0
40
0
40
0
40
0.08339027331302884
40
0.08339027331302884
40
0.08339027331302884
40
0.2216552463458997
40
0.2216552463458997
40
0.2216552463458997
40
0.48725796174273794
40
0.48725796174273794
40
0.48725796174273794
40
0.80237402955000348
40
0.80237402955000348
40
0.80237402955000348
40
0.89562595814411672
40
0.89562595814411672
40
0.89562595814411672
40
0.89562595814411672
10
33.497970888269123
20
-51.154053046936944
30
0
10
34.218220647032702
20
-50.920028527545576
30
0
10
34.685857233185104
20
-50.51397644949715
30
0
10
35.033015300454984
20
-50.139929864266179
30
0
10
35.608619611392214
20
-49.519743133064793
30
0
10
35.941863599512288
20
-48.891186440540267
30
0
10
36.275609063054318
20
-48.18539803376639
30
0
10
36.916723724444843
20
-46.829600442931998
30
0
10
37.465822525115605
20
-45.163408086850005
30
0
10
37.986368133354318
20
-43.391060387504794
30
0
10
38.603953254566065
20
-41.288313670587897
30
0
10
39.153171097857971
20
-39.086088537333382
30
0
10
39.547847264953006
20
-37.285566801464249
30
0
10
39.664643320475811
20
-36.752740514586002
30
0
10
39.767897132912744
20
-36.25344330014515
30
0
10
39.855931126806276
20
-35.793465756743402
30
0
0
SPLINE
5
209
100
AcDbEntity
8
0
100
AcDbSpline
70
0
71
3
72
20
73
16
74
0
42
0.000000001
43
0.0000000001
44
0.0000000001
40
0
40
0
40
0
40
0
40
0.08339027331302884
40
0.08339027331302884
40
0.08339027331302884
40
0.2216552463458997
40
0.2216552463458997
40
0.2216552463458997
40
0.48725796174273794
40
0.48725796174273794
40
0.48725796174273794
40
0.80237402955000348
40
0.80237402955000348
40
0.80237402955000348
40
0.89562595814411672
40
0.89562595814411672
40
0.89562595814411672
40
0.89562595814411672
10
33.497970888269123
20
-51.154053046936944
30
0
10
34.218220647032702
20
-50.920028527545576
30
0
10
34.685857233185104
20
-50.51397644949715
30
0
10
35.033015300454984
20
-50.139929864266179
30
0
10
35.608619611392214
20
-49.519743133064793
30
0
10
35.941863599512288
20
-48.891186440540267
30
0
10
36.275609063054318
20
-48.18539803376639
30
0
10
36.916723724444843
20
-46.829600442931998
30
0
10
37.465822525115605
20
-45.163408086850005
30
0
10
37.986368133354318
20
-43.391060387504794
30
0
10
38.603953254566065
20
-41.288313670587897
30
0
10
39.153171097857971
20
-39.086088537333382
30
0
10
39.547847264953006
20
-37.285566801464249
30
0
10
39.664643320475811
20
-36.752740514586002
30
0
10
39.767897132912744
20
-36.25344330014515
30
0
10
39.855931126806276
20
-35.793465756743402
30
0
0
SPLINE
5
210
100
AcDbEntity
8
0
100
AcDbSpline
70
0
71
3
72
20
73
16
74
0
42
0.000000001
43
0.0000000001
44
0.0000000001
40
0
40
0
40
0
40
0
40
0.083390273312976007
40
0.083390273312976007
40
0.083390273312976007
40
0.22165524634596334
40
0.22165524634596334
40
0.22165524634596334
40
0.48725796174312341
40
0.48725796174312341
40
0.48725796174312341
40
0.80237402955043313
40
0.80237402955043313
40
0.80237402955043313
40
0.89562595814411916
40
0.89562595814411916
40
0.89562595814411916
40
0.89562595814411916
10
2.7520304650221208
20
-8.8359085757795501
30
0
10
2.3068923311613379
20
-9.4485905752356114
30
0
10
2.1672378089120272
20
-10.051963495750645
30
0
10
2.1062400992254
20
-10.55862793204566
30
0
10
2.0051030439091044
20
-11.398701262398962
30
0
10
2.1049593483424771
20
-12.103090210212251
30
0
10
2.2498056132823003
20
-12.870255687215282
30
0
10
2.528050785861006
20
-14.343956722128508
30
0
10
3.0631838189159266
20
-16.014686831184747
30
0
10
3.6838134151141846
20
-17.754515271566913
30
0
10
4.4201400660913555
20
-19.818680526702757
30
0
10
5.2702489528091423
20
-21.923140233527896
30
0
10
6.0092693491302533
20
-23.611777747036452
30
0
10
6.2279667887960546
20
-24.111494267130279
30
0
10
6.4379122389586083
20
-24.576125267048077
30
0
10
6.6370592582123873
20
-25
30
0
0
LINE
5
211
100
AcDbEntity
8
0
100
AcDbLine
10
25
20
-25
30
0
11
50
21
-25
31
0
6
DASHED
0
SPLINE
5
212
100
AcDbEntity
8
0
100
AcDbSpline
70
0
71
3
72
20
73
16
74
0
42
0.000000001
43
0.0000000001
44
0.0000000001
40
0
40
0
40
0
40
0
40
0.08339027331303478
40
0.08339027331303478
40
0.08339027331303478
40
0.22165524634614422
40
0.22165524634614422
40
0.22165524634614422
40
0.48725796174359159
40
0.48725796174359159
40
0.48725796174359159
40
0.80237402955083348
40
0.80237402955083348
40
0.80237402955083348
40
0.89562595814411616
40
0.89562595814411616
40
0.89562595814411616
40
0.89562595814411616
10
52.499999999997222
20
-24.999996274712451
30
0
10
52.499998871509604
20
-24.24268049468801
30
0
10
52.258328049038909
20
-23.672454679451253
30
0
10
52.009866349277836
20
-23.226700985865651
30
0
10
51.597905231363441
20
-22.487620515513139
30
0
10
51.103090348678336
20
-21.976451949176287
30
0
10
50.534978705319283
20
-21.440940539163925
30
0
10
49.443653897488616
20
-20.412239766253503
30
0
10
48.028691660829203
20
-19.375134019855956
30
0
10
46.503946271515133
20
-18.332380168070465
30
0
10
44.694959602200051
20
-17.095237343781935
30
0
10
42.770236686061487
20
-15.892375143439279
30
0
10
41.179800399340976
20
-14.960623987773563
30
0
10
40.709144453189253
20
-14.684891960398815
30
0
10
40.266191766608515
20
-14.432400424744543
30
0
10
39.855931126806311
20
-14.206534243256648
30
0
0
SPLINE
5
213
100
AcDbEntity
8
0
100
AcDbSpline
70
4
71
5
72
16
73
10
74
0
42
0.000000001
43
0.0000000001
44
0.0000000001
40
0
40
0
40
0
40
0
40
0
40
0
40
0.20000000000000001
40
0.40000000000000002
40
0.60000000000000009
40
0.80000000000000004
40
0.98953201023612269
40
0.98953201023612269
40
0.98953201023612269
40
0.98953201023612269
40
0.98953201023612269
40
0.98953201023612269
41
1
41
1
41
1
41
1
41
1
41
1
41
1
41
1
41
1
41
1
10
32.725424859373675
20
-48.776412907378841
30
0
10
32.500993402791508
20
-48.84933473834154
30
0
10
31.919052028731983
20
-48.826566569584244
30
0
10
30.647312529141885
20
-48.287073600575937
30
0
10
28.30627419043563
20
-46.730879069394256
30
0
10
24.99785673806997
20
-44.128098044258969
30
0
10
22.586874543376592
20
-42.0725227071323
30
0
10
21.185431648621183
20
-40.800034123756802
30
0
10
20.478297039559159
20
-40.112119658360029
30
0
10
20.186613658094387
20
-39.8140799025471
30
0
0
SPLINE
5
214
100
AcDbEntity
8
0
100
AcDbSpline
70
4
71
5
72
16
73
10
74
0
42
0.000000001
43
0.0000000001
44
0.0000000001
40
0
40
0
40
0
40
0
40
0
40
0
40
0.20000000000000001
40
0.40000000000000002
40
0.60000000000000009
40
0.80000000000000004
40
0.98953201023612269
40
0.98953201023612269
40
0.98953201023612269
40
0.98953201023612269
40
0.98953201023612269
40
0.98953201023612269
41
1
41
1
41
1
41
1
41
1
41
1
41
1
41
1
41
1
41
1
10
32.725424859373675
20
-48.776412907378841
30
0
10
32.500993402791508
20
-48.84933473834154
30
0
10
31.919052028731983
20
-48.826566569584244
30
0
10
30.647312529141885
20
-48.287073600575937
30
0
10
28.30627419043563
20
-46.730879069394256
30
0
10
24.99785673806997
20
-44.128098044258969
30
0
10
22.586874543376592
20
-42.0725227071323
30
0
10
21.185431648621183
20
-40.800034123756802
30
0
10
20.478297039559159
20
-40.112119658360029
30
0
10
20.186613658094387
20
-39.8140799025471
30
0
0
SPLINE
5
215
100
AcDbEntity
8
0
100
AcDbSpline
70
4
71
5
72
16
73
10
74
0
42
0.000000001
43
0.0000000001
44
0.0000000001
40
0
40
0
40
0
40
0
40
0
40
0
40
0.20000000000000001
40
0.40000000000000002
40
0.60000000000000009
40
0.80000000000000004
40
0.98953201023612203
40
0.98953201023612203
40
0.98953201023612203
40
0.98953201023612203
40
0.98953201023612203
40
0.98953201023612203
41
1
41
1
41
1
41
1
41
1
41
1
41
1
41
1
41
1
41
1
10
50
20
-25
30
0
10
49.99999964836104
20
-24.764018915727508
30
0
10
49.798516058785999
20
-24.217595530903246
30
0
10
48.892438637323998
20
-23.174811888557507
30
0
10
46.688989056677251
20
-21.429242678322634
30
0
10
43.191239984965307
20
-19.087054271029107
30
0
10
40.49123719455973
20
-17.42928165648453
30
0
10
38.847958964303814
20
-16.489650856622994
30
0
10
37.975196817823672
20
-16.029703139260704
30
0
10
37.601609044093408
20
-15.84439510816917
30
0
0
SPLINE
5
216
100
AcDbEntity
8
0
100
AcDbSpline
70
0
71
3
72
20
73
16
74
0
42
0.000000001
43
0.0000000001
44
0.0000000001
40
0
40
0
40
0
40
0
40
0.083390273312997559
40
0.083390273312997559
40
0.083390273312997559
40
0.22165524634610287
40
0.22165524634610287
40
0.22165524634610287
40
0.48725796174337233
40
0.48725796174337233
40
0.48725796174337233
40
0.80237402955026615
40
0.80237402955026615
40
0.80237402955026615
40
0.89562595814411949
40
0.89562595814411949
40
0.89562595814411949
40
0.89562595814411949
10
33.497963802351173
20
-51.154055349291248
30
0
10
32.777713346144274
20
-51.388077722171502
30
0
10
32.160715977615865
20
-51.334444579201943
30
0
10
31.660000134991336
20
-51.235888927217879
30
0
10
30.829789851138738
20
-51.07247904711484
30
0
10
30.190733447379507
20
-50.759841902565732
30
0
10
29.50587567883661
20
-50.385017748541514
30
0
10
28.190285193440467
20
-49.664992199616123
30
0
10
26.766691637716487
20
-48.639766444731301
30
0
10
25.303801554692189
20
-47.511876067685776
30
0
10
23.568201186650711
20
-46.173725665118482
30
0
10
21.829439162261561
20
-44.714910255460993
30
0
10
20.451819313033155
20
-43.49024240285295
30
0
10
20.044141885779759
20
-43.127827880682091
30
0
10
19.667128257626295
20
-42.784579017149724
30
0
10
19.325539244087434
20
-42.464194450818781
30
0
0
SPLINE
5
217
100
AcDbEntity
8
0
100
AcDbSpline
70
4
71
5
72
16
73
10
74
0
42
0.000000001
43
0.0000000001
44
0.0000000001
40
0
40
0
40
0
40
0
40
0
40
0
40
0.20000000000000001
40
0.40000000000000002
40
0.60000000000000009
40
0.80000000000000004
40
0.98953201023612447
40
0.98953201023612447
40
0.98953201023612447
40
0.98953201023612447
40
0.98953201023612447
40
0.98953201023612447
41
1
41
1
41
1
41
1
41
1
41
1
41
1
41
1
41
1
41
1
10
4.7745751406263093
20
-39.694631307311823
30
0
10
4.6358692239528398
20
-39.503718393096165
30
0
10
4.4776932648992762
20
-38.943223506118287
30
0
10
4.597792450778817
20
-37.56701487223382
30
0
10
5.3544007691385076
20
-34.859664548621964
30
0
10
6.8074354063151343
20
-30.908869002521534
30
0
10
8.0173692541294077
20
-27.980680963196647
30
0
10
8.7945081421344433
20
-26.254608968512834
30
0
10
9.2302370655928883
20
-25.369506730182621
30
0
10
9.4235545956244184
20
-24.999999999999982
30
0
0
SPLINE
5
218
100
AcDbEntity
8
0
100
AcDbSpline
70
4
71
5
72
16
73
10
74
0
42
0.000000001
43
0.0000000001
44
0.0000000001
40
0
40
0
40
0
40
0
40
0
40
0
40
0.20000000000000001
40
0.40000000000000002
40
0.60000000000000009
40
0.80000000000000004
40
0.98953201023612325
40
0.98953201023612325
40
0.98953201023612325
40
0.98953201023612325
40
0.98953201023612325
40
0.98953201023612325
41
1
41
1
41
1
41
1
41
1
41
1
41
1
41
1
41
1
41
1
10
32.725424859373689
20
-1.2235870926211634
30
0
10
32.949856098631024
20
-1.2965095924409109
30
0
10
33.407273766157836
20
-1.6569859852673785
30
0
10
34.11902662284556
20
-2.8409546881577619
30
0
10
35.098258228215421
20
-5.4759703209799016
30
0
10
36.244947870144706
20
-9.5263033898785636
30
0
10
36.98723657064788
20
-12.606438548412559
30
0
10
37.37307766613236
20
-14.459650902978758
30
0
10
37.540815604575329
20
-15.431828690753356
30
0
10
37.601609044093401
20
-15.844395108169167
30
0
0
SPLINE
5
219
100
AcDbEntity
8
0
100
AcDbSpline
70
0
71
3
72
20
73
16
74
0
42
0.000000001
43
0.0000000001
44
0.0000000001
40
0
40
0
40
0
40
0
40
0.083390273312996296
40
0.083390273312996296
40
0.083390273312996296
40
0.22165524634601075
40
0.22165524634601075
40
0.22165524634601075
40
0.4872579617432205
40
0.4872579617432205
40
0.4872579617432205
40
0.802374029550464
40
0.802374029550464
40
0.802374029550464
40
0.89562595814412049
40
0.89562595814412049
40
0.89562595814412049
40
0.89562595814412049
10
2.7520348443603044
20
-8.8359025481376499
30
0
10
3.1971748041524872
20
-8.2232218752982575
30
0
10
3.7278609312481041
20
-7.9039500454981617
30
0
10
4.1908781160504676
20
-7.6893698549610487
30
0
10
4.9585822621950966
20
-7.3335858638632629
30
0
10
5.6593532560847626
20
-7.2108866973635974
30
0
10
6.4337309395035067
20
-7.1115765116039515
30
0
10
7.9212863987586024
20
-6.9208047316965065
30
0
10
9.6756103574128733
20
-6.9134624931559561
30
0
10
11.522070625311713
20
-6.9660797594510493
30
0
10
13.712745890481477
20
-7.0285058759494445
30
0
10
15.976904101002471
20
-7.1866936588365142
30
0
10
17.811263673537653
20
-7.3677261334194988
30
0
10
18.35410355175604
20
-7.4212988614318061
30
0
10
18.860870603892373
20
-7.4773899747873784
30
0
10
19.325539244087558
20
-7.5358055491811404
30
0
0
LINE
5
220
100
AcDbEntity
8
0
100
AcDbLine
10
25
20
-25
30
0
11
50
21
-25
31
0
6
DASHED
0
SPLINE
5
221
100
AcDbEntity
8
0
100
AcDbSpline
70
4
71
5
72
16
73
10
74
0
42
0.000000001
43
0.0000000001
44
0.0000000001
40
0
40
0
40
0
40
0
40
0
40
0
40
0.20000000000000001
40
0.40000000000000002
40
0.60000000000000009
40
0.80000000000000004
40
0.98953201023612447
40
0.98953201023612447
40
0.98953201023612447
40
0.98953201023612447
40
0.98953201023612447
40
0.98953201023612447
41
1
41
1
41
1
41
1
41
1
41
1
41
1
41
1
41
1
41
1
10
4.7745751406263093
20
-39.694631307311823
30
0
10
4.6358692239528398
20
-39.503718393096165
30
0
10
4.4776932648992762
20
-38.943223506118287
30
0
10
4.597792450778817
20
-37.56701487223382
30
0
10
5.3544007691385076
20
-34.859664548621964
30
0
10
6.8074354063151343
20
-30.908869002521534
30
0
10
8.0173692541294077
20
-27.980680963196647
30
0
10
8.7945081421344433
20
-26.254608968512834
30
0
10
9.2302370655928883
20
-25.369506730182621
30
0
10
9.4235545956244184
20
-24.999999999999982
30
0
0
SPLINE
5
222
100
AcDbEntity
8
0
100
AcDbSpline
70
0
71
3
72
20
73
16
74
0
42
0.000000001
43
0.0000000001
44
0.0000000001
40
0
40
0
40
0
40
0
40
0.083390273312976007
40
0.083390273312976007
40
0.083390273312976007
40
0.22165524634596334
40
0.22165524634596334
40
0.22165524634596334
40
0.48725796174312341
40
0.48725796174312341
40
0.48725796174312341
40
0.80237402955043313
40
0.80237402955043313
40
0.80237402955043313
40
0.89562595814411916
40
0.89562595814411916
40
0.89562595814411916
40
0.89562595814411916
10
2.7520304650221208
20
-8.8359085757795501
30
0
10
2.3068923311613379
20
-9.4485905752356114
30
0
10
2.1672378089120272
20
-10.051963495750645
30
0
10
2.1062400992254
20
-10.55862793204566
30
0
10
2.0051030439091044
20
-11.398701262398962
30
0
10
2.1049593483424771
20
-12.103090210212251
30
0
10
2.2498056132823003
20
-12.870255687215282
30
0
10
2.528050785861006
20
-14.343956722128508
30
0
10
3.0631838189159266
20
-16.014686831184747
30
0
10
3.6838134151141846
20
-17.754515271566913
30
0
10
4.4201400660913555
20
-19.818680526702757
30
0
10
5.2702489528091423
20
-21.923140233527896
30
0
10
6.0092693491302533
20
-23.611777747036452
30
0
10
6.2279667887960546
20
-24.111494267130279
30
0
10
6.4379122389586083
20
-24.576125267048077
30
0
10
6.6370592582123873
20
-25
30
0
0
SPLINE
5
223
100
AcDbEntity
8
0
100
AcDbSpline
70
4
71
5
72
16
73
10
74
0
42
0.000000001
43
0.0000000001
44
0.0000000001
40
0
40
0
40
0
40
0
40
0
40
0
40
0.20000000000000001
40
0.40000000000000002
40
0.60000000000000009
40
0.80000000000000004
40
0.98953201023612447
40
0.98953201023612447
40
0.98953201023612447
40
0.98953201023612447
40
0.98953201023612447
40
0.98953201023612447
41
1
41
1
41
1
41
1
41
1
41
1
41
1
41
1
41
1
41
1
10
4.7745751406263093
20
-39.694631307311823
30
0
10
4.6358692239528398
20
-39.503718393096165
30
0
10
4.4776932648992762
20
-38.943223506118287
30
0
10
4.597792450778817
20
-37.56701487223382
30
0
10
5.3544007691385076
20
-34.859664548621964
30
0
10
6.8074354063151343
20
-30.908869002521534
30
0
10
8.0173692541294077
20
-27.980680963196647
30
0
10
8.7945081421344433
20
-26.254608968512834
30
0
10
9.2302370655928883
20
-25.369506730182621
30
0
10
9.4235545956244184
20
-24.999999999999982
30
0
0
SPLINE
5
224
100
AcDbEntity
8
0
100
AcDbSpline
70
0
71
3
72
20
73
16
74
0
42
0.000000001
43
0.0000000001
44
0.0000000001
40
0
40
0
40
0
40
0
40
0.083390273313018126
40
0.083390273313018126
40
0.083390273313018126
40
0.22165524634615544
40
0.22165524634615544
40
0.22165524634615544
40
0.48725796174357361
40
0.48725796174357361
40
0.48725796174357361
40
0.80237402955054693
40
0.80237402955054693
40
0.80237402955054693
40
0.89562595814411583
40
0.89562595814411583
40
0.89562595814411583
40
0.89562595814411583
10
2.7520348443602183
20
-41.164097451862247
30
0
10
3.197174804152549
20
-41.776778124701906
30
0
10
3.7278609312486424
20
-42.096049954502199
30
0
10
4.190878116050972
20
-42.310630145039205
30
0
10
4.9585822621960265
20
-42.666414136137043
30
0
10
5.6593532560863284
20
-42.789113302636743
30
0
10
6.4337309395059039
20
-42.888423488396363
30
0
10
7.9212863987624438
20
-43.079195268303749
30
0
10
9.6756103574188632
20
-43.086537506844124
30
0
10
11.522070625319119
20
-43.03392024054876
30
0
10
13.712745890486964
20
-42.971494124050153
30
0
10
15.976904101005758
20
-42.813306341163234
30
0
10
17.81126367353912
20
-42.632273866580377
30
0
10
18.354103551756925
20
-42.578701138568107
30
0
10
18.860870603892725
20
-42.5226100252126
30
0
10
19.325539244087469
20
-42.464194450818901
30
0
0
SPLINE
5
225
100
AcDbEntity
8
0
100
AcDbSpline
70
4
71
5
72
16
73
10
74
0
42
0.000000001
43
0.0000000001
44
0.0000000001
40
0
40
0
40
0
40
0
40
0
40
0
40
0.20000000000000001
40
0.40000000000000002
40
0.60000000000000009
40
0.80000000000000004
40
0.9895320102361248
40
0.9895320102361248
40
0.9895320102361248
40
0.9895320102361248
40
0.9895320102361248
40
0.9895320102361248
41
1
41
1
41
1
41
1
41
1
41
1
41
1
41
1
41
1
41
1
10
50
20
-25
30
0
10
49.99999964836104
20
-25.235981084272492
30
0
10
49.798516058785999
20
-25.782404469096754
30
0
10
48.892438637323998
20
-26.825188111442493
30
0
10
46.688989056677251
20
-28.570757321677366
30
0
10
43.191239984965307
20
-30.912945728970904
30
0
10
40.491237194559709
20
-32.570718343515473
30
0
10
38.847958964303785
20
-33.51034914337702
30
0
10
37.975196817823644
20
-33.97029686073931
30
0
10
37.601609044093379
20
-34.155604891830848
30
0
0
SPLINE
5
226
100
AcDbEntity
8
0
100
AcDbSpline
70
0
71
3
72
20
73
16
74
0
42
0.000000001
43
0.0000000001
44
0.0000000001
40
0
40
0
40
0
40
0
40
0.083390273312997754
40
0.083390273312997754
40
0.083390273312997754
40
0.22165524634597458
40
0.22165524634597458
40
0.22165524634597458
40
0.48725796174322833
40
0.48725796174322833
40
0.48725796174322833
40
0.80237402955035697
40
0.80237402955035697
40
0.80237402955035697
40
0.89562595814411616
40
0.89562595814411616
40
0.89562595814411616
40
0.89562595814411616
10
52.499999999997222
20
-25.000003725287549
30
0
10
52.499998871509604
20
-25.757319505311649
30
0
10
52.258328049039122
20
-26.327545320548221
30
0
10
52.009866349278184
20
-26.773299014133748
30
0
10
51.597905231364216
20
-27.512379484485759
30
0
10
51.103090348679679
20
-28.023548050822239
30
0
10
50.534978705321372
20
-28.559059460834106
30
0
10
49.443653897491885
20
-29.587760233743822
30
0
10
48.028691660834049
20
-30.624865980140513
30
0
10
46.503946271521386
20
-31.667619831925265
30
0
10
44.694959602207298
20
-32.904762656213371
30
0
10
42.770236686069147
20
-34.107624856555979
30
0
10
41.17980039934821
20
-35.039376012222199
30
0
10
40.709144453193787
20
-35.315108039598606
30
0
10
40.266191766610618
20
-35.567599575254278
30
0
10
39.855931126806325
20
-35.793465756743331
30
0
0
SPLINE
5
227
100
AcDbEntity
8
0
100
AcDbSpline
70
4
71
5
72
16
73
10
74
0
42
0.000000001
43
0.0000000001
44
0.0000000001
40
0
40
0
40
0
40
0
40
0
40
0
40
0.20000000000000001
40
0.40000000000000002
40
0.60000000000000009
40
0.80000000000000004
40
0.98953201023612314
40
0.98953201023612314
40
0.98953201023612314
40
0.98953201023612314
40
0.98953201023612314
40
0.98953201023612314
41
1
41
1
41
1
41
1
41
1
41
1
41
1
41
1
41
1
41
1
10
4.7745751406263182
20
-10.305368692688175
30
0
10
4.9132816262635703
20
-10.114456191848902
30
0
10
5.3974648814248871
20
-9.7908194699333428
30
0
10
6.7434297599097315
20
-9.47976872758999
30
0
10
9.5520777555331762
20
-9.3627287393265224
30
0
10
13.758520000504863
20
-9.523783834370029
30
0
10
16.917282437286403
20
-9.7696394377430185
30
0
10
18.799023578808214
20
-9.9753568613745998
30
0
10
19.775453472448952
20
-10.11624805996469
30
0
10
20.186613658094398
20
-10.185920097452909
30
0
0
SPLINE
5
228
100
AcDbEntity
8
0
100
AcDbSpline
70
0
71
3
72
20
73
16
74
0
42
0.000000001
43
0.0000000001
44
0.0000000001
40
0
40
0
40
0
40
0
40
0.083390273312976854
40
0.083390273312976854
40
0.083390273312976854
40
0.22165524634597397
40
0.22165524634597397
40
0.22165524634597397
40
0.48725796174305103
40
0.48725796174305103
40
0.48725796174305103
40
0.80237402955020598
40
0.80237402955020598
40
0.80237402955020598
40
0.89562595814411627
40
0.89562595814411627
40
0.89562595814411627
40
0.89562595814411627
10
2.7520304650221346
20
-41.164091424220487
30
0
10
2.3068923311613387
20
-40.551409424764422
30
0
10
2.1672378089120095
20
-39.948036504249337
30
0
10
2.1062400992253822
20
-39.441372067954326
30
0
10
2.0051030439090805
20
-38.60129873760097
30
0
10
2.1049593483424704
20
-37.896909789787664
30
0
10
2.2498056132823172
20
-37.129744312784553
30
0
10
2.5280507858609602
20
-35.656043277871746
30
0
10
3.0631838189156562
20
-33.985313168816077
30
0
10
3.6838134151136668
20
-32.245484728434505
30
0
10
4.4201400660904131
20
-30.181319473299734
30
0
10
5.2702489528077656
20
-28.076859766475486
30
0
10
6.0092693491286493
20
-26.388222252967203
30
0
10
6.2279667887950172
20
-25.888505732872005
30
0
10
6.4379122389581225
20
-25.423874732952932
30
0
10
6.6370592582123926
20
-24.999999999999993
30
0
0
LINE
5
229
100
AcDbEntity
8
0
100
AcDbLine
10
25
20
-25
30
0
11
50
21
-25
31
0
6
DASHED
0
SPLINE
5
230
100
AcDbEntity
8
0
100
AcDbSpline
70
4
71
5
72
16
73
10
74
0
42
0.000000001
43
0.0000000001
44
0.0000000001
40
0
40
0
40
0
40
0
40
0
40
0
40
0.20000000000000001
40
0.40000000000000002
40
0.60000000000000009
40
0.80000000000000004
40
0.98953201023612314
40
0.98953201023612314
40
0.98953201023612314
40
0.98953201023612314
40
0.98953201023612314
40
0.98953201023612314
41
1
41
1
41
1
41
1
41
1
41
1
41
1
41
1
41
1
41
1
10
4.7745751406263182
20
-10.305368692688175
30
0
10
4.9132816262635703
20
-10.114456191848902
30
0
10
5.3974648814248871
20
-9.7908194699333428
30
0
10
6.7434297599097315
20
-9.47976872758999
30
0
10
9.5520777555331762
20
-9.3627287393265224
30
0
10
13.758520000504863
20
-9.523783834370029
30
0
10
16.917282437286403
20
-9.7696394377430185
30
0
10
18.799023578808214
20
-9.9753568613745998
30
0
10
19.775453472448952
20
-10.11624805996469
30
0
10
20.186613658094398
20
-10.185920097452909
30
0
0
SPLINE
5
231
100
AcDbEntity
8
0
100
AcDbSpline
70
4
71
5
72
16
73
10
74
0
42
0.000000001
43
0.0000000001
44
0.0000000001
40
0
40
0
40
0
40
0
40
0
40
0
40
0.20000000000000001
40
0.40000000000000002
40
0.60000000000000009
40
0.80000000000000004
40
0.98953201023612258
40
0.98953201023612258
40
0.98953201023612258
40
0.98953201023612258
40
0.98953201023612258
40
0.98953201023612258
41
1
41
1
41
1
41
1
41
1
41
1
41
1
41
1
41
1
41
1
10
4.7745751406263093
20
-39.694631307311823
30
0
10
4.9132816262635526
20
-39.885543808151105
30
0
10
5.3974648814248738
20
-40.209180530066661
30
0
10
6.7434297599097182
20
-40.520231272410008
30
0
10
9.5520777555331637
20
-40.637271260673486
30
0
10
13.75852000050485
20
-40.476216165629978
30
0
10
16.917282437286389
20
-40.230360562256998
30
0
10
18.799023578808207
20
-40.024643138625422
30
0
10
19.775453472448937
20
-39.883751940035324
30
0
10
20.186613658094387
20
-39.814079902547107
30
0
0
SPLINE
5
232
100
AcDbEntity
8
0
100
AcDbSpline
70
4
71
5
72
16
73
10
74
0
42
0.000000001
43
0.0000000001
44
0.0000000001
40
0
40
0
40
0
40
0
40
0
40
0
40
0.20000000000000001
40
0.40000000000000002
40
0.60000000000000009
40
0.80000000000000004
40
0.98953201023612203
40
0.98953201023612203
40
0.98953201023612203
40
0.98953201023612203
40
0.98953201023612203
40
0.98953201023612203
41
1
41
1
41
1
41
1
41
1
41
1
41
1
41
1
41
1
41
1
10
4.7745751406263182
20
-10.305368692688175
30
0
10
4.6358692239528532
20
-10.496281606903839
30
0
10
4.4776932648992984
20
-11.056776493881717
30
0
10
4.5977924507788304
20
-12.432985127766178
30
0
10
5.3544007691385209
20
-15.140335451378046
30
0
10
6.8074354063151441
20
-19.091130997478455
30
0
10
8.0173692541294024
20
-22.019319036803338
30
0
10
8.794508142134438
20
-23.745391031487149
30
0
10
9.2302370655928829
20
-24.630493269817354
30
0
10
9.4235545956244096
20
-25.000000000000004
30
0
0
SPLINE
5
233
100
AcDbEntity
8
0
100
AcDbSpline
70
0
71
3
72
20
73
16
74
0
42
0.000000001
43
0.0000000001
44
0.0000000001
40
0
40
0
40
0
40
0
40
0.083390273312971483
40
0.083390273312971483
40
0.083390273312971483
40
0.22165524634596367
40
0.22165524634596367
40
0.22165524634596367
40
0.48725796174316088
40
0.48725796174316088
40
0.48725796174316088
40
0.80237402955032888
40
0.80237402955032888
40
0.80237402955032888
40
0.89562595814411661
40
0.89562595814411661
40
0.89562595814411661
40
0.89562595814411661
10
33.497970888269172
20
1.1540530469369252
30
0
10
34.21822064703219
20
0.92002852754572773
30
0
10
34.685857233184528
20
0.51397644949757759
30
0
10
35.033015300454259
20
0.13992986426693388
30
0
10
35.608619611392157
20
-0.48025686693488145
30
0
10
35.941863599512573
20
-1.1088135594601451
30
0
10
36.275609063054816
20
-1.8146019662346462
30
0
10
36.916723724446058
20
-3.1703995570708909
30
0
10
37.465822525117495
20
-4.8365919131556794
30
0
10
37.986368133356805
20
-6.6089396125036597
30
0
10
38.603953254568232
20
-8.7116863294203561
30
0
10
39.153171097859591
20
-10.913911462673427
30
0
10
39.547847264954228
20
-12.714433198541322
30
0
10
39.664643320476543
20
-13.247259485417501
30
0
10
39.76789713291307
20
-13.746556699856509
30
0
10
39.855931126806283
20
-14.206534243256641
30
0
0
SPLINE
5
234
100
AcDbEntity
8
0
100
AcDbSpline
70
0
71
3
72
20
73
16
74
0
42
0.000000001
43
0.0000000001
44
0.0000000001
40
0
40
0
40
0
40
0
40
0.083390273312976854
40
0.083390273312976854
40
0.083390273312976854
40
0.22165524634597397
40
0.22165524634597397
40
0.22165524634597397
40
0.48725796174305103
40
0.48725796174305103
40
0.48725796174305103
40
0.80237402955020598
40
0.80237402955020598
40
0.80237402955020598
40
0.89562595814411627
40
0.89562595814411627
40
0.89562595814411627
40
0.89562595814411627
10
2.7520304650221346
20
-41.164091424220487
30
0
10
2.3068923311613387
20
-40.551409424764422
30
0
10
2.1672378089120095
20
-39.948036504249337
30
0
10
2.1062400992253822
20
-39.441372067954326
30
0
10
2.0051030439090805
20
-38.60129873760097
30
0
10
2.1049593483424704
20
-37.896909789787664
30
0
10
2.2498056132823172
20
-37.129744312784553
30
0
10
2.5280507858609602
20
-35.656043277871746
30
0
10
3.0631838189156562
20
-33.985313168816077
30
0
10
3.6838134151136668
20
-32.245484728434505
30
0
10
4.4201400660904131
20
-30.181319473299734
30
0
10
5.2702489528077656
20
-28.076859766475486
30
0
10
6.0092693491286493
20
-26.388222252967203
30
0
10
6.2279667887950172
20
-25.888505732872005
30
0
10
6.4379122389581225
20
-25.423874732952932
30
0
10
6.6370592582123926
20
-24.999999999999993
30
0
0
SPLINE
5
235
100
AcDbEntity
8
0
100
AcDbSpline
70
4
71
5
72
16
73
10
74
0
42
0.000000001
43
0.0000000001
44
0.0000000001
40
0
40
0
40
0
40
0
40
0
40
0
40
0.20000000000000001
40
0.40000000000000002
40
0.60000000000000009
40
0.80000000000000004
40
0.98953201023612325
40
0.98953201023612325
40
0.98953201023612325
40
0.98953201023612325
40
0.98953201023612325
40
0.98953201023612325
41
1
41
1
41
1
41
1
41
1
41
1
41
1
41
1
41
1
41
1
10
32.725424859373689
20
-1.2235870926211634
30
0
10
32.500993402791522
20
-1.1506652616584567
30
0
10
31.919052028731997
20
-1.173433430415769
30
0
10
30.647312529141896
20
-1.7129263994240684
30
0
10
28.306274190435644
20
-3.2691209306057489
30
0
10
24.997856738069977
20
-5.8719019557410279
30
0
10
22.586874543376595
20
-7.927477292867696
30
0
10
21.185431648621183
20
-9.1999658762432102
30
0
10
20.478297039559177
20
-9.8878803416399847
30
0
10
20.186613658094391
20
-10.185920097452907
30
0
0
SPLINE
5
236
100
AcDbEntity
8
0
100
AcDbSpline
70
0
71
3
72
20
73
16
74
0
42
0.000000001
43
0.0000000001
44
0.0000000001
40
0
40
0
40
0
40
0
40
0.083390273313018126
40
0.083390273313018126
40
0.083390273313018126
40
0.22165524634615544
40
0.22165524634615544
40
0.22165524634615544
40
0.48725796174357361
40
0.48725796174357361
40
0.48725796174357361
40
0.80237402955054693
40
0.80237402955054693
40
0.80237402955054693
40
0.89562595814411583
40
0.89562595814411583
40
0.89562595814411583
40
0.89562595814411583
10
2.7520348443602183
20
-41.164097451862247
30
0
10
3.197174804152549
20
-41.776778124701906
30
0
10
3.7278609312486424
20
-42.096049954502199
30
0
10
4.190878116050972
20
-42.310630145039205
30
0
10
4.9585822621960265
20
-42.666414136137043
30
0
10
5.6593532560863284
20
-42.789113302636743
30
0
10
6.4337309395059039
20
-42.888423488396363
30
0
10
7.9212863987624438
20
-43.079195268303749
30
0
10
9.6756103574188632
20
-43.086537506844124
30
0
10
11.522070625319119
20
-43.03392024054876
30
0
10
13.712745890486964
20
-42.971494124050153
30
0
10
15.976904101005758
20
-42.813306341163234
30
0
10
17.81126367353912
20
-42.632273866580377
30
0
10
18.354103551756925
20
-42.578701138568107
30
0
10
18.860870603892725
20
-42.5226100252126
30
0
10
19.325539244087469
20
-42.464194450818901
30
0
0
SPLINE
5
237
100
AcDbEntity
8
0
100
AcDbSpline
70
4
71
5
72
16
73
10
74
0
42
0.000000001
43
0.0000000001
44
0.0000000001
40
0
40
0
40
0
40
0
40
0
40
0
40
0.20000000000000001
40
0.40000000000000002
40
0.60000000000000009
40
0.80000000000000004
40
0.9895320102361248
40
0.9895320102361248
40
0.9895320102361248
40
0.9895320102361248
40
0.9895320102361248
40
0.9895320102361248
41
1
41
1
41
1
41
1
41
1
41
1
41
1
41
1
41
1
41
1
10
50
20
-25
30
0
10
49.99999964836104
20
-25.235981084272492
30
0
10
49.798516058785999
20
-25.782404469096754
30
0
10
48.892438637323998
20
-26.825188111442493
30
0
10
46.688989056677251
20
-28.570757321677366
30
0
10
43.191239984965307
20
-30.912945728970904
30
0
10
40.491237194559709
20
-32.570718343515473
30
0
10
38.847958964303785
20
-33.51034914337702
30
0
10
37.975196817823644
20
-33.97029686073931
30
0
10
37.601609044093379
20
-34.155604891830848
30
0
0
SPLINE
5
238
100
AcDbEntity
8
0
100
AcDbSpline
70
0
71
3
72
20
73
16
74
0
42
0.000000001
43
0.0000000001
44
0.0000000001
40
0
40
0
40
0
40
0
40
0.083390273312976007
40
0.083390273312976007
40
0.083390273312976007
40
0.22165524634596334
40
0.22165524634596334
40
0.22165524634596334
40
0.48725796174312341
40
0.48725796174312341
40
0.48725796174312341
40
0.80237402955043313
40
0.80237402955043313
40
0.80237402955043313
40
0.89562595814411916
40
0.89562595814411916
40
0.89562595814411916
40
0.89562595814411916
10
2.7520304650221208
20
-8.8359085757795501
30
0
10
2.3068923311613379
20
-9.4485905752356114
30
0
10
2.1672378089120272
20
-10.051963495750645
30
0
10
2.1062400992254
20
-10.55862793204566
30
0
10
2.0051030439091044
20
-11.398701262398962
30
0
10
2.1049593483424771
20
-12.103090210212251
30
0
10
2.2498056132823003
20
-12.870255687215282
30
0
10
2.528050785861006
20
-14.343956722128508
30
0
10
3.0631838189159266
20
-16.014686831184747
30
0
10
3.6838134151141846
20
-17.754515271566913
30
0
10
4.4201400660913555
20
-19.818680526702757
30
0
10
5.2702489528091423
20
-21.923140233527896
30
0
10
6.0092693491302533
20
-23.611777747036452
30
0
10
6.2279667887960546
20
-24.111494267130279
30
0
10
6.4379122389586083
20
-24.576125267048077
30
0
10
6.6370592582123873
20
-25
30
0
0
SPLINE
5
239
100
AcDbEntity
8
0
100
AcDbSpline
70
4
71
5
72
16
73
10
74
0
42
0.000000001
43
0.0000000001
44
0.0000000001
40
0
40
0
40
0
40
0
40
0
40
0
40
0.20000000000000001
40
0.40000000000000002
40
0.60000000000000009
40
0.80000000000000004
40
0.98953201023612269
40
0.98953201023612269
40
0.98953201023612269
40
0.98953201023612269
40
0.98953201023612269
40
0.98953201023612269
41
1
41
1
41
1
41
1
41
1
41
1
41
1
41
1
41
1
41
1
10
32.725424859373675
20
-48.776412907378841
30
0
10
32.500993402791508
20
-48.84933473834154
30
0
10
31.919052028731983
20
-48.826566569584244
30
0
10
30.647312529141885
20
-48.287073600575937
30
0
10
28.30627419043563
20
-46.730879069394256
30
0
10
24.99785673806997
20
-44.128098044258969
30
0
10
22.586874543376592
20
-42.0725227071323
30
0
10
21.185431648621183
20
-40.800034123756802
30
0
10
20.478297039559159
20
-40.112119658360029
30
0
10
20.186613658094387
20
-39.8140799025471
30
0
0
LINE
5
240
100
AcDbEntity
8
0
100
AcDbLine
10
25
20
-25
30
0
11
50
21
-25
31
0
6
DASHED
0
SPLINE
5
241
100
AcDbEntity
8
0
100
AcDbSpline
70
0
71
3
72
20
73
16
74
0
42
0.000000001
43
0.0000000001
44
0.0000000001
40
0
40
0
40
0
40
0
40
0.08339027331303478
40
0.08339027331303478
40
0.08339027331303478
40
0.22165524634614422
40
0.22165524634614422
40
0.22165524634614422
40
0.48725796174359159
40
0.48725796174359159
40
0.48725796174359159
40
0.80237402955083348
40
0.80237402955083348
40
0.80237402955083348
40
0.89562595814411616
40
0.89562595814411616
40
0.89562595814411616
40
0.89562595814411616
10
52.499999999997222
20
-24.999996274712451
30
0
10
52.499998871509604
20
-24.24268049468801
30
0
10
52.258328049038909
20
-23.672454679451253
30
0
10
52.009866349277836
20
-23.226700985865651
30
0
10
51.597905231363441
20
-22.487620515513139
30
0
10
51.103090348678336
20
-21.976451949176287
30
0
10
50.534978705319283
20
-21.440940539163925
30
0
10
49.443653897488616
20
-20.412239766253503
30
0
10
48.028691660829203
20
-19.375134019855956
30
0
10
46.503946271515133
20
-18.332380168070465
30
0
10
44.694959602200051
20
-17.095237343781935
30
0
10
42.770236686061487
20
-15.892375143439279
30
0
10
41.179800399340976
20
-14.960623987773563
30
0
10
40.709144453189253
20
-14.684891960398815
30
0
10
40.266191766608515
20
-14.432400424744543
30
0
10
39.855931126806311
20
-14.206534243256648
30
0
0
SPLINE
5
242
100
AcDbEntity
8
0
100
AcDbSpline
70
4
71
5
72
16
73
10
74
0
42
0.000000001
43
0.0000000001
44
0.0000000001
40
0
40
0
40
0
40
0
40
0
40
0
40
0.20000000000000001
40
0.40000000000000002
40
0.60000000000000009
40
0.80000000000000004
40
0.98953201023612325
40
0.98953201023612325
40
0.98953201023612325
40
0.98953201023612325
40
0.98953201023612325
40
0.98953201023612325
41
1
41
1
41
1
41
1
41
1
41
1
41
1
41
1
41
1
41
1
10
32.725424859373689
20
-1.2235870926211634
30
0
10
32.949856098631024
20
-1.2965095924409109
30
0
10
33.407273766157836
20
-1.6569859852673785
30
0
10
34.11902662284556
20
-2.8409546881577619
30
0
10
35.098258228215421
20
-5.4759703209799016
30
0
10
36.244947870144706
20
-9.5263033898785636
30
0
10
36.98723657064788
20
-12.606438548412559
30
0
10
37.37307766613236
20
-14.459650902978758
30
0
10
37.540815604575329
20
-15.431828690753356
30
0
10
37.601609044093401
20
-15.844395108169167
30
0
0
SPLINE
5
243
100
AcDbEntity
8
0
100
AcDbSpline
70
0
71
3
72
20
73
16
74
0
42
0.000000001
43
0.0000000001
44
0.0000000001
40
0
40
0
40
0
40
0
40
0.08339027331303478
40
0.08339027331303478
40
0.08339027331303478
40
0.22165524634614422
40
0.22165524634614422
40
0.22165524634614422
40
0.48725796174359159
40
0.48725796174359159
40
0.48725796174359159
40
0.80237402955083348
40
0.80237402955083348
40
0.80237402955083348
40
0.89562595814411616
40
0.89562595814411616
40
0.89562595814411616
40
0.89562595814411616
10
52.499999999997222
20
-24.999996274712451
30
0
10
52.499998871509604
20
-24.24268049468801
30
0
10
52.258328049038909
20
-23.672454679451253
30
0
10
52.009866349277836
20
-23.226700985865651
30
0
10
51.597905231363441
20
-22.487620515513139
30
0
10
51.103090348678336
20
-21.976451949176287
30
0
10
50.534978705319283
20
-21.440940539163925
30
0
10
49.443653897488616
20
-20.412239766253503
30
0
10
48.028691660829203
20
-19.375134019855956
30
0
10
46.503946271515133
20
-18.332380168070465
30
0
10
44.694959602200051
20
-17.095237343781935
30
0
10
42.770236686061487
20
-15.892375143439279
30
0
10
41.179800399340976
20
-14.960623987773563
30
0
10
40.709144453189253
20
-14.684891960398815
30
0
10
40.266191766608515
20
-14.432400424744543
30
0
10
39.855931126806311
20
-14.206534243256648
30
0
0
SPLINE
5
244
100
AcDbEntity
8
0
100
AcDbSpline
70
0
71
3
72
20
73
16
74
0
42
0.000000001
43
0.0000000001
44
0.0000000001
40
0
40
0
40
0
40
0
40
0.083390273312976687
40
0.083390273312976687
40
0.083390273312976687
40
0.2216552463459659
40
0.2216552463459659
40
0.2216552463459659
40
0.48725796174309871
40
0.48725796174309871
40
0.48725796174309871
40
0.80237402955068715
40
0.80237402955068715
40
0.80237402955068715
40
0.8956259581441175
40
0.8956259581441175
40
0.8956259581441175
40
0.8956259581441175
10
33.497963802351222
20
1.1540553492912331
30
0
10
32.777713346144452
20
1.3880777221714591
30
0
10
32.160715977616235
20
1.3344445792019597
30
0
10
31.660000134991723
20
1.2358889272179412
30
0
10
30.829789851139651
20
1.0724790471150729
30
0
10
30.190733447380936
20
0.75984190256636341
30
0
10
29.505875678838652
20
0.38501774854262205
30
0
10
28.190285193443259
20
-0.33500780038209221
30
0
10
26.76669163772031
20
-1.360233555265939
30
0
10
25.303801554696722
20
-2.4881239323107236
30
0
10
23.568201186651372
20
-3.8262743348807704
30
0
10
21.829439162258147
20
-5.2850897445417955
30
0
10
20.451819313027638
20
-6.5097575971519657
30
0
10
20.044141885776362
20
-6.8721721193210037
30
0
10
19.667128257624892
20
-7.2154209828516249
30
0
10
19.325539244087565
20
-7.5358055491810916
30
0
0
SPLINE
5
245
100
AcDbEntity
8
0
100
AcDbSpline
70
0
71
3
72
20
73
16
74
0
42
0.000000001
43
0.0000000001
44
0.0000000001
40
0
40
0
40
0
40
0
40
0.083390273312976854
40
0.083390273312976854
40
0.083390273312976854
40
0.22165524634597397
40
0.22165524634597397
40
0.22165524634597397
40
0.48725796174305103
40
0.48725796174305103
40
0.48725796174305103
40
0.80237402955020598
40
0.80237402955020598
40
0.80237402955020598
40
0.89562595814411627
40
0.89562595814411627
40
0.89562595814411627
40
0.89562595814411627
10
2.7520304650221346
20
-41.164091424220487
30
0
10
2.3068923311613387
20
-40.551409424764422
30
0
10
2.1672378089120095
20
-39.948036504249337
30
0
10
2.1062400992253822
20
-39.441372067954326
30
0
10
2.0051030439090805
20
-38.60129873760097
30
0
10
2.1049593483424704
20
-37.896909789787664
30
0
10
2.2498056132823172
20
-37.129744312784553
30
0
10
2.5280507858609602
20
-35.656043277871746
30
0
10
3.0631838189156562
20
-33.985313168816077
30
0
10
3.6838134151136668
20
-32.245484728434505
30
0
10
4.4201400660904131
20
-30.181319473299734
30
0
10
5.2702489528077656
20
-28.076859766475486
30
0
10
6.0092693491286493
20
-26.388222252967203
30
0
10
6.2279667887950172
20
-25.888505732872005
30
0
10
6.4379122389581225
20
-25.423874732952932
30
0
10
6.6370592582123926
20
-24.999999999999993
30
0
0
SPLINE
5
246
100
AcDbEntity
8
0
100
AcDbSpline
70
4
71
5
72
16
73
10
74
0
42
0.000000001
43
0.0000000001
44
0.0000000001
40
0
40
0
40
0
40
0
40
0
40
0
40
0.20000000000000001
40
0.40000000000000002
40
0.60000000000000009
40
0.80000000000000004
40
0.9895320102361248
40
0.9895320102361248
40
0.9895320102361248
40
0.9895320102361248
40
0.9895320102361248
40
0.9895320102361248
41
1
41
1
41
1
41
1
41
1
41
1
41
1
41
1
41
1
41
1
10
50
20
-25
30
0
10
49.99999964836104
20
-25.235981084272492
30
0
10
49.798516058785999
20
-25.782404469096754
30
0
10
48.892438637323998
20
-26.825188111442493
30
0
10
46.688989056677251
20
-28.570757321677366
30
0
10
43.191239984965307
20
-30.912945728970904
30
0
10
40.491237194559709
20
-32.570718343515473
30
0
10
38.847958964303785
20
-33.51034914337702
30
0
10
37.975196817823644
20
-33.97029686073931
30
0
10
37.601609044093379
20
-34.155604891830848
30
0
0
SPLINE
5
247
100
AcDbEntity
8
0
100
AcDbSpline
70
0
71
3
72
20
73
16
74
0
42
0.000000001
43
0.0000000001
44
0.0000000001
40
0
40
0
40
0
40
0
40
0.083390273312996296
40
0.083390273312996296
40
0.083390273312996296
40
0.22165524634601075
40
0.22165524634601075
40
0.22165524634601075
40
0.4872579617432205
40
0.4872579617432205
40
0.4872579617432205
40
0.802374029550464
40
0.802374029550464
40
0.802374029550464
40
0.89562595814412049
40
0.89562595814412049
40
0.89562595814412049
40
0.89562595814412049
10
2.7520348443603044
20
-8.8359025481376499
30
0
10
3.1971748041524872
20
-8.2232218752982575
30
0
10
3.7278609312481041
20
-7.9039500454981617
30
0
10
4.1908781160504676
20
-7.6893698549610487
30
0
10
4.9585822621950966
20
-7.3335858638632629
30
0
10
5.6593532560847626
20
-7.2108866973635974
30
0
10
6.4337309395035067
20
-7.1115765116039515
30
0
10
7.9212863987586024
20
-6.9208047316965065
30
0
10
9.6756103574128733
20
-6.9134624931559561
30
0
10
11.522070625311713
20
-6.9660797594510493
30
0
10
13.712745890481477
20
-7.0285058759494445
30
0
10
15.976904101002471
20
-7.1866936588365142
30
0
10
17.811263673537653
20
-7.3677261334194988
30
0
10
18.35410355175604
20
-7.4212988614318061
30
0
10
18.860870603892373
20
-7.4773899747873784
30
0
10
19.325539244087558
20
-7.5358055491811404
30
0
0
SPLINE
5
248
100
AcDbEntity
8
0
100
AcDbSpline
70
4
71
5
72
16
73
10
74
0
42
0.000000001
43
0.0000000001
44
0.0000000001
40
0
40
0
40
0
40
0
40
0
40
0
40
0.20000000000000001
40
0.40000000000000002
40
0.60000000000000009
40
0.80000000000000004
40
0.98953201023612314
40
0.98953201023612314
40
0.98953201023612314
40
0.98953201023612314
40
0.98953201023612314
40
0.98953201023612314
41
1
41
1
41
1
41
1
41
1
41
1
41
1
41
1
41
1
41
1
10
4.7745751406263182
20
-10.305368692688175
30
0
10
4.9132816262635703
20
-10.114456191848902
30
0
10
5.3974648814248871
20
-9.7908194699333428
30
0
10
6.7434297599097315
20
-9.47976872758999
30
0
10
9.5520777555331762
20
-9.3627287393265224
30
0
10
13.758520000504863
20
-9.523783834370029
30
0
10
16.917282437286403
20
-9.7696394377430185
30
0
10
18.799023578808214
20
-9.9753568613745998
30
0
10
19.775453472448952
20
-10.11624805996469
30
0
10
20.186613658094398
20
-10.185920097452909
30
0
0
SPLINE
5
249
100
AcDbEntity
8
0
100
AcDbSpline
70
4
71
5
72
16
73
10
74
0
42
0.000000001
43
0.0000000001
44
0.0000000001
40
0
40
0
40
0
40
0
40
0
40
0
40
0.20000000000000001
40
0.40000000000000002
40
0.60000000000000009
40
0.80000000000000004
40
0.98953201023612203
40
0.98953201023612203
40
0.98953201023612203
40
0.98953201023612203
40
0.98953201023612203
40
0.98953201023612203
41
1
41
1
41
1
41
1
41
1
41
1
41
1
41
1
41
1
41
1
10
50
20
-25
30
0
10
49.99999964836104
20
-24.764018915727508
30
0
10
49.798516058785999
20
-24.217595530903246
30
0
10
48.892438637323998
20
-23.174811888557507
30
0
10
46.688989056677251
20
-21.429242678322634
30
0
10
43.191239984965307
20
-19.087054271029107
30
0
10
40.49123719455973
20
-17.42928165648453
30
0
10
38.847958964303814
20
-16.489650856622994
30
0
10
37.975196817823672
20
-16.029703139260704
30
0
10
37.601609044093408
20
-15.84439510816917
30
0
0
SPLINE
5
250
100
AcDbEntity
8
0
100
AcDbSpline
70
0
71
3
72
20
73
16
74
0
42
0.000000001
43
0.0000000001
44
0.0000000001
40
0
40
0
40
0
40
0
40
0.083390273312997754
40
0.083390273312997754
40
0.083390273312997754
40
0.22165524634597458
40
0.22165524634597458
40
0.22165524634597458
40
0.48725796174322833
40
0.48725796174322833
40
0.48725796174322833
40
0.80237402955035697
40
0.80237402955035697
40
0.80237402955035697
40
0.89562595814411616
40
0.89562595814411616
40
0.89562595814411616
40
0.89562595814411616
10
52.499999999997222
20
-25.000003725287549
30
0
10
52.499998871509604
20
-25.757319505311649
30
0
10
52.258328049039122
20
-26.327545320548221
30
0
10
52.009866349278184
20
-26.773299014133748
30
0
10
51.597905231364216
20
-27.512379484485759
30
0
10
51.103090348679679
20
-28.023548050822239
30
0
10
50.534978705321372
20
-28.559059460834106
30
0
10
49.443653897491885
20
-29.587760233743822
30
0
10
48.028691660834049
20
-30.624865980140513
30
0
10
46.503946271521386
20
-31.667619831925265
30
0
10
44.694959602207298
20
-32.904762656213371
30
0
10
42.770236686069147
20
-34.107624856555979
30
0
10
41.17980039934821
20
-35.039376012222199
30
0
10
40.709144453193787
20
-35.315108039598606
30
0
10
40.266191766610618
20
-35.567599575254278
30
0
10
39.855931126806325
20
-35.793465756743331
30
0
0
SPLINE
5
251
100
AcDbEntity
8
0
100
AcDbSpline
70
4
71
5
72
16
73
10
74
0
42
0.000000001
43
0.0000000001
44
0.0000000001
40
0
40
0
40
0
40
0
40
0
40
0
40
0.20000000000000001
40
0.40000000000000002
40
0.60000000000000009
40
0.80000000000000004
40
0.98953201023612203
40
0.98953201023612203
40
0.98953201023612203
40
0.98953201023612203
40
0.98953201023612203
40
0.98953201023612203
41
1
41
1
41
1
41
1
41
1
41
1
41
1
41
1
41
1
41
1
10
50
20
-25
30
0
10
49.99999964836104
20
-24.764018915727508
30
0
10
49.798516058785999
20
-24.217595530903246
30
0
10
48.892438637323998
20
-23.174811888557507
30
0
10
46.688989056677251
20
-21.429242678322634
30
0
10
43.191239984965307
20
-19.087054271029107
30
0
10
40.49123719455973
20
-17.42928165648453
30
0
10
38.847958964303814
20
-16.489650856622994
30
0
10
37.975196817823672
20
-16.029703139260704
30
0
10
37.601609044093408
20
-15.84439510816917
30
0
0
SPLINE
5
252
100
AcDbEntity
8
0
100
AcDbSpline
70
0
71
3
72
20
73
16
74
0
42
0.000000001
43
0.0000000001
44
0.0000000001
40
0
40
0
40
0
40
0
40
0.083390273312971483
40
0.083390273312971483
40
0.083390273312971483
40
0.22165524634596367
40
0.22165524634596367
40
0.22165524634596367
40
0.48725796174316088
40
0.48725796174316088
40
0.48725796174316088
40
0.80237402955032888
40
0.80237402955032888
40
0.80237402955032888
40
0.89562595814411661
40
0.89562595814411661
40
0.89562595814411661
40
0.89562595814411661
10
33.497970888269172
20
1.1540530469369252
30
0
10
34.21822064703219
20
0.92002852754572773
30
0
10
34.685857233184528
20
0.51397644949757759
30
0
10
35.033015300454259
20
0.13992986426693388
30
0
10
35.608619611392157
20
-0.48025686693488145
30
0
10
35.941863599512573
20
-1.1088135594601451
30
0
10
36.275609063054816
20
-1.8146019662346462
30
0
10
36.916723724446058
20
-3.1703995570708909
30
0
10
37.465822525117495
20
-4.8365919131556794
30
0
10
37.986368133356805
20
-6.6089396125036597
30
0
10
38.603953254568232
20
-8.7116863294203561
30
0
10
39.153171097859591
20
-10.913911462673427
30
0
10
39.547847264954228
20
-12.714433198541322
30
0
10
39.664643320476543
20
-13.247259485417501
30
0
10
39.76789713291307
20
-13.746556699856509
30
0
10
39.855931126806283
20
-14.206534243256641
30
0
0
SPLINE
5
253
100
AcDbEntity
8
0
100
AcDbSpline
70
4
71
5
72
16
73
10
74
0
42
0.000000001
43
0.0000000001
44
0.0000000001
40
0
40
0
40
0
40
0
40
0
40
0
40
0.20000000000000001
40
0.40000000000000002
40
0.60000000000000009
40
0.80000000000000004
40
0.98953201023612203
40
0.98953201023612203
40
0.98953201023612203
40
0.98953201023612203
40
0.98953201023612203
40
0.98953201023612203
41
1
41
1
41
1
41
1
41
1
41
1
41
1
41
1
41
1
41
1
10
4.7745751406263182
20
-10.305368692688175
30
0
10
4.6358692239528532
20
-10.496281606903839
30
0
10
4.4776932648992984
20
-11.056776493881717
30
0
10
4.5977924507788304
20
-12.432985127766178
30
0
10
5.3544007691385209
20
-15.140335451378046
30
0
10
6.8074354063151441
20
-19.091130997478455
30
0
10
8.0173692541294024
20
-22.019319036803338
30
0
10
8.794508142134438
20
-23.745391031487149
30
0
10
9.2302370655928829
20
-24.630493269817354
30
0
10
9.4235545956244096
20
-25.000000000000004
30
0
0
SPLINE
5
254
100
AcDbEntity
8
0
100
AcDbSpline
70
0
71
3
72
20
73
16
74
0
42
0.000000001
43
0.0000000001
44
0.0000000001
40
0
40
0
40
0
40
0
40
0.083390273312971483
40
0.083390273312971483
40
0.083390273312971483
40
0.22165524634596367
40
0.22165524634596367
40
0.22165524634596367
40
0.48725796174316088
40
0.48725796174316088
40
0.48725796174316088
40
0.80237402955032888
40
0.80237402955032888
40
0.80237402955032888
40
0.89562595814411661
40
0.89562595814411661
40
0.89562595814411661
40
0.89562595814411661
10
33.497970888269172
20
1.1540530469369252
30
0
10
34.21822064703219
20
0.92002852754572773
30
0
10
34.685857233184528
20
0.51397644949757759
30
0
10
35.033015300454259
20
0.13992986426693388
30
0
10
35.608619611392157
20
-0.48025686693488145
30
0
10
35.941863599512573
20
-1.1088135594601451
30
0
10
36.275609063054816
20
-1.8146019662346462
30
0
10
36.916723724446058
20
-3.1703995570708909
30
0
10
37.465822525117495
20
-4.8365919131556794
30
0
10
37.986368133356805
20
-6.6089396125036597
30
0
10
38.603953254568232
20
-8.7116863294203561
30
0
10
39.153171097859591
20
-10.913911462673427
30
0
10
39.547847264954228
20
-12.714433198541322
30
0
10
39.664643320476543
20
-13.247259485417501
30
0
10
39.76789713291307
20
-13.746556699856509
30
0
10
39.855931126806283
20
-14.206534243256641
30
0
0
SPLINE
5
255
100
AcDbEntity
8
0
100
AcDbSpline
70
0
71
3
72
20
73
16
74
0
42
0.000000001
43
0.0000000001
44
0.0000000001
40
0
40
0
40
0
40
0
40
0.083390273312997559
40
0.083390273312997559
40
0.083390273312997559
40
0.22165524634610287
40
0.22165524634610287
40
0.22165524634610287
40
0.48725796174337233
40
0.48725796174337233
40
0.48725796174337233
40
0.80237402955026615
40
0.80237402955026615
40
0.80237402955026615
40
0.89562595814411949
40
0.89562595814411949
40
0.89562595814411949
40
0.89562595814411949
10
33.497963802351173
20
-51.154055349291248
30
0
10
32.777713346144274
20
-51.388077722171502
30
0
10
32.160715977615865
20
-51.334444579201943
30
0
10
31.660000134991336
20
-51.235888927217879
30
0
10
30.829789851138738
20
-51.07247904711484
30
0
10
30.190733447379507
20
-50.759841902565732
30
0
10
29.50587567883661
20
-50.385017748541514
30
0
10
28.190285193440467
20
-49.664992199616123
30
0
10
26.766691637716487
20
-48.639766444731301
30
0
10
25.303801554692189
20
-47.511876067685776
30
0
10
23.568201186650711
20
-46.173725665118482
30
0
10
21.829439162261561
20
-44.714910255460993
30
0
10
20.451819313033155
20
-43.49024240285295
30
0
10
20.044141885779759
20
-43.127827880682091
30
0
10
19.667128257626295
20
-42.784579017149724
30
0
10
19.325539244087434
20
-42.464194450818781
30
0
0
SPLINE
5
256
100
AcDbEntity
8
0
100
AcDbSpline
70
4
71
5
72
16
73
10
74
0
42
0.000000001
43
0.0000000001
44
0.0000000001
40
0
40
0
40
0
40
0
40
0
40
0
40
0.20000000000000001
40
0.40000000000000002
40
0.60000000000000009
40
0.80000000000000004
40
0.98953201023612203
40
0.98953201023612203
40
0.98953201023612203
40
0.98953201023612203
40
0.98953201023612203
40
0.98953201023612203
41
1
41
1
41
1
41
1
41
1
41
1
41
1
41
1
41
1
41
1
10
4.7745751406263182
20
-10.305368692688175
30
0
10
4.6358692239528532
20
-10.496281606903839
30
0
10
4.4776932648992984
20
-11.056776493881717
30
0
10
4.5977924507788304
20
-12.432985127766178
30
0
10
5.3544007691385209
20
-15.140335451378046
30
0
10
6.8074354063151441
20
-19.091130997478455
30
0
10
8.0173692541294024
20
-22.019319036803338
30
0
10
8.794508142134438
20
-23.745391031487149
30
0
10
9.2302370655928829
20
-24.630493269817354
30
0
10
9.4235545956244096
20
-25.000000000000004
30
0
0
SPLINE
5
257
100
AcDbEntity
8
0
100
AcDbSpline
70
0
71
3
72
20
73
16
74
0
42
0.000000001
43
0.0000000001
44
0.0000000001
40
0
40
0
40
0
40
0
40
0.083390273312997754
40
0.083390273312997754
40
0.083390273312997754
40
0.22165524634597458
40
0.22165524634597458
40
0.22165524634597458
40
0.48725796174322833
40
0.48725796174322833
40
0.48725796174322833
40
0.80237402955035697
40
0.80237402955035697
40
0.80237402955035697
40
0.89562595814411616
40
0.89562595814411616
40
0.89562595814411616
40
0.89562595814411616
10
52.499999999997222
20
-25.000003725287549
30
0
10
52.499998871509604
20
-25.757319505311649
30
0
10
52.258328049039122
20
-26.327545320548221
30
0
10
52.009866349278184
20
-26.773299014133748
30
0
10
51.597905231364216
20
-27.512379484485759
30
0
10
51.103090348679679
20
-28.023548050822239
30
0
10
50.534978705321372
20
-28.559059460834106
30
0
10
49.443653897491885
20
-29.587760233743822
30
0
10
48.028691660834049
20
-30.624865980140513
30
0
10
46.503946271521386
20
-31.667619831925265
30
0
10
44.694959602207298
20
-32.904762656213371
30
0
10
42.770236686069147
20
-34.107624856555979
30
0
10
41.17980039934821
20
-35.039376012222199
30
0
10
40.709144453193787
20
-35.315108039598606
30
0
10
40.266191766610618
20
-35.567599575254278
30
0
10
39.855931126806325
20
-35.793465756743331
30
0
0
SPLINE
5
258
100
AcDbEntity
8
0
100
AcDbSpline
70
0
71
3
72
20
73
16
74
0
42
0.000000001
43
0.0000000001
44
0.0000000001
40
0
40
0
40
0
40
0
40
0.08339027331303478
40
0.08339027331303478
40
0.08339027331303478
40
0.22165524634614422
40
0.22165524634614422
40
0.22165524634614422
40
0.48725796174359159
40
0.48725796174359159
40
0.48725796174359159
40
0.80237402955083348
40
0.80237402955083348
40
0.80237402955083348
40
0.89562595814411616
40
0.89562595814411616
40
0.89562595814411616
40
0.89562595814411616
10
52.499999999997222
20
-24.999996274712451
30
0
10
52.499998871509604
20
-24.24268049468801
30
0
10
52.258328049038909
20
-23.672454679451253
30
0
10
52.009866349277836
20
-23.226700985865651
30
0
10
51.597905231363441
20
-22.487620515513139
30
0
10
51.103090348678336
20
-21.976451949176287
30
0
10
50.534978705319283
20
-21.440940539163925
30
0
10
49.443653897488616
20
-20.412239766253503
30
0
10
48.028691660829203
20
-19.375134019855956
30
0
10
46.503946271515133
20
-18.332380168070465
30
0
10
44.694959602200051
20
-17.095237343781935
30
0
10
42.770236686061487
20
-15.892375143439279
30
0
10
41.179800399340976
20
-14.960623987773563
30
0
10
40.709144453189253
20
-14.684891960398815
30
0
10
40.266191766608515
20
-14.432400424744543
30
0
10
39.855931126806311
20
-14.206534243256648
30
0
0
SPLINE
5
259
100
AcDbEntity
8
0
100
AcDbSpline
70
4
71
5
72
16
73
10
74
0
42
0.000000001
43
0.0000000001
44
0.0000000001
40
0
40
0
40
0
40
0
40
0
40
0
40
0.20000000000000001
40
0.40000000000000002
40
0.60000000000000009
40
0.80000000000000004
40
0.98953201023612325
40
0.98953201023612325
40
0.98953201023612325
40
0.98953201023612325
40
0.98953201023612325
40
0.98953201023612325
41
1
41
1
41
1
41
1
41
1
41
1
41
1
41
1
41
1
41
1
10
32.725424859373689
20
-1.2235870926211634
30
0
10
32.500993402791522
20
-1.1506652616584567
30
0
10
31.919052028731997
20
-1.173433430415769
30
0
10
30.647312529141896
20
-1.7129263994240684
30
0
10
28.306274190435644
20
-3.2691209306057489
30
0
10
24.997856738069977
20
-5.8719019557410279
30
0
10
22.586874543376595
20
-7.927477292867696
30
0
10
21.185431648621183
20
-9.1999658762432102
30
0
10
20.478297039559177
20
-9.8878803416399847
30
0
10
20.186613658094391
20
-10.185920097452907
30
0
0
SPLINE
5
260
100
AcDbEntity
8
0
100
AcDbSpline
70
0
71
3
72
20
73
16
74
0
42
0.000000001
43
0.0000000001
44
0.0000000001
40
0
40
0
40
0
40
0
40
0.08339027331302884
40
0.08339027331302884
40
0.08339027331302884
40
0.2216552463458997
40
0.2216552463458997
40
0.2216552463458997
40
0.48725796174273794
40
0.48725796174273794
40
0.48725796174273794
40
0.80237402955000348
40
0.80237402955000348
40
0.80237402955000348
40
0.89562595814411672
40
0.89562595814411672
40
0.89562595814411672
40
0.89562595814411672
10
33.497970888269123
20
-51.154053046936944
30
0
10
34.218220647032702
20
-50.920028527545576
30
0
10
34.685857233185104
20
-50.51397644949715
30
0
10
35.033015300454984
20
-50.139929864266179
30
0
10
35.608619611392214
20
-49.519743133064793
30
0
10
35.941863599512288
20
-48.891186440540267
30
0
10
36.275609063054318
20
-48.18539803376639
30
0
10
36.916723724444843
20
-46.829600442931998
30
0
10
37.465822525115605
20
-45.163408086850005
30
0
10
37.986368133354318
20
-43.391060387504794
30
0
10
38.603953254566065
20
-41.288313670587897
30
0
10
39.153171097857971
20
-39.086088537333382
30
0
10
39.547847264953006
20
-37.285566801464249
30
0
10
39.664643320475811
20
-36.752740514586002
30
0
10
39.767897132912744
20
-36.25344330014515
30
0
10
39.855931126806276
20
-35.793465756743402
30
0
0
SPLINE
5
261
100
AcDbEntity
8
0
100
AcDbSpline
70
4
71
5
72
16
73
10
74
0
42
0.000000001
43
0.0000000001
44
0.0000000001
40
0
40
0
40
0
40
0
40
0
40
0
40
0.20000000000000001
40
0.40000000000000002
40
0.60000000000000009
40
0.80000000000000004
40
0.98953201023612325
40
0.98953201023612325
40
0.98953201023612325
40
0.98953201023612325
40
0.98953201023612325
40
0.98953201023612325
41
1
41
1
41
1
41
1
41
1
41
1
41
1
41
1
41
1
41
1
10
32.725424859373689
20
-1.2235870926211634
30
0
10
32.500993402791522
20
-1.1506652616584567
30
0
10
31.919052028731997
20
-1.173433430415769
30
0
10
30.647312529141896
20
-1.7129263994240684
30
0
10
28.306274190435644
20
-3.2691209306057489
30
0
10
24.997856738069977
20
-5.8719019557410279
30
0
10
22.586874543376595
20
-7.927477292867696
30
0
10
21.185431648621183
20
-9.1999658762432102
30
0
10
20.478297039559177
20
-9.8878803416399847
30
0
10
20.186613658094391
20
-10.185920097452907
30
0
0
SPLINE
5
262
100
AcDbEntity
8
0
100
AcDbSpline
70
4
71
5
72
16
73
10
74
0
42
0.000000001
43
0.0000000001
44
0.0000000001
40
0
40
0
40
0
40
0
40
0
40
0
40
0.20000000000000001
40
0.40000000000000002
40
0.60000000000000009
40
0.80000000000000004
40
0.98953201023612325
40
0.98953201023612325
40
0.98953201023612325
40
0.98953201023612325
40
0.98953201023612325
40
0.98953201023612325
41
1
41
1
41
1
41
1
41
1
41
1
41
1
41
1
41
1
41
1
10
32.725424859373689
20
-1.2235870926211634
30
0
10
32.949856098631024
20
-1.2965095924409109
30
0
10
33.407273766157836
20
-1.6569859852673785
30
0
10
34.11902662284556
20
-2.8409546881577619
30
0
10
35.098258228215421
20
-5.4759703209799016
30
0
10
36.244947870144706
20
-9.5263033898785636
30
0
10
36.98723657064788
20
-12.606438548412559
30
0
10
37.37307766613236
20
-14.459650902978758
30
0
10
37.540815604575329
20
-15.431828690753356
30
0
10
37.601609044093401
20
-15.844395108169167
30
0
0
SPLINE
5
263
100
AcDbEntity
8
0
100
AcDbSpline
70
4
71
5
72
16
73
10
74
0
42
0.000000001
43
0.0000000001
44
0.0000000001
40
0
40
0
40
0
40
0
40
0
40
0
40
0.20000000000000001
40
0.40000000000000002
40
0.60000000000000009
40
0.80000000000000004
40
0.98953201023612258
40
0.98953201023612258
40
0.98953201023612258
40
0.98953201023612258
40
0.98953201023612258
40
0.98953201023612258
41
1
41
1
41
1
41
1
41
1
41
1
41
1
41
1
41
1
41
1
10
4.7745751406263093
20
-39.694631307311823
30
0
10
4.9132816262635526
20
-39.885543808151105
30
0
10
5.3974648814248738
20
-40.209180530066661
30
0
10
6.7434297599097182
20
-40.520231272410008
30
0
10
9.5520777555331637
20
-40.637271260673486
30
0
10
13.75852000050485
20
-40.476216165629978
30
0
10
16.917282437286389
20
-40.230360562256998
30
0
10
18.799023578808207
20
-40.024643138625422
30
0
10
19.775453472448937
20
-39.883751940035324
30
0
10
20.186613658094387
20
-39.814079902547107
30
0
0
SPLINE
5
264
100
AcDbEntity
8
0
100
AcDbSpline
70
4
71
5
72
16
73
10
74
0
42
0.000000001
43
0.0000000001
44
0.0000000001
40
0
40
0
40
0
40
0
40
0
40
0
40
0.20000000000000001
40
0.40000000000000002
40
0.60000000000000009
40
0.80000000000000004
40
0.98953201023612314
40
0.98953201023612314
40
0.98953201023612314
40
0.98953201023612314
40
0.98953201023612314
40
0.98953201023612314
41
1
41
1
41
1
41
1
41
1
41
1
41
1
41
1
41
1
41
1
10
4.7745751406263182
20
-10.305368692688175
30
0
10
4.9132816262635703
20
-10.114456191848902
30
0
10
5.3974648814248871
20
-9.7908194699333428
30
0
10
6.7434297599097315
20
-9.47976872758999
30
0
10
9.5520777555331762
20
-9.3627287393265224
30
0
10
13.758520000504863
20
-9.523783834370029
30
0
10
16.917282437286403
20
-9.7696394377430185
30
0
10
18.799023578808214
20
-9.9753568613745998
30
0
10
19.775453472448952
20
-10.11624805996469
30
0
10
20.186613658094398
20
-10.185920097452909
30
0
0
SPLINE
5
265
100
AcDbEntity
8
0
100
AcDbSpline
70
4
71
5
72
16
73
10
74
0
42
0.000000001
43
0.0000000001
44
0.0000000001
40
0
40
0
40
0
40
0
40
0
40
0
40
0.20000000000000001
40
0.40000000000000002
40
0.60000000000000009
40
0.80000000000000004
40
0.98953201023612269
40
0.98953201023612269
40
0.98953201023612269
40
0.98953201023612269
40
0.98953201023612269
40
0.98953201023612269
41
1
41
1
41
1
41
1
41
1
41
1
41
1
41
1
41
1
41
1
10
32.725424859373675
20
-48.776412907378841
30
0
10
32.500993402791508
20
-48.84933473834154
30
0
10
31.919052028731983
20
-48.826566569584244
30
0
10
30.647312529141885
20
-48.287073600575937
30
0
10
28.30627419043563
20
-46.730879069394256
30
0
10
24.99785673806997
20
-44.128098044258969
30
0
10
22.586874543376592
20
-42.0725227071323
30
0
10
21.185431648621183
20
-40.800034123756802
30
0
10
20.478297039559159
20
-40.112119658360029
30
0
10
20.186613658094387
20
-39.8140799025471
30
0
0
SPLINE
5
266
100
AcDbEntity
8
0
100
AcDbSpline
70
0
71
3
72
20
73
16
74
0
42
0.000000001
43
0.0000000001
44
0.0000000001
40
0
40
0
40
0
40
0
40
0.083390273312976687
40
0.083390273312976687
40
0.083390273312976687
40
0.2216552463459659
40
0.2216552463459659
40
0.2216552463459659
40
0.48725796174309871
40
0.48725796174309871
40
0.48725796174309871
40
0.80237402955068715
40
0.80237402955068715
40
0.80237402955068715
40
0.8956259581441175
40
0.8956259581441175
40
0.8956259581441175
40
0.8956259581441175
10
33.497963802351222
20
1.1540553492912331
30
0
10
32.777713346144452
20
1.3880777221714591
30
0
10
32.160715977616235
20
1.3344445792019597
30
0
10
31.660000134991723
20
1.2358889272179412
30
0
10
30.829789851139651
20
1.0724790471150729
30
0
10
30.190733447380936
20
0.75984190256636341
30
0
10
29.505875678838652
20
0.38501774854262205
30
0
10
28.190285193443259
20
-0.33500780038209221
30
0
10
26.76669163772031
20
-1.360233555265939
30
0
10
25.303801554696722
20
-2.4881239323107236
30
0
10
23.568201186651372
20
-3.8262743348807704
30
0
10
21.829439162258147
20
-5.2850897445417955
30
0
10
20.451819313027638
20
-6.5097575971519657
30
0
10
20.044141885776362
20
-6.8721721193210037
30
0
10
19.667128257624892
20
-7.2154209828516249
30
0
10
19.325539244087565
20
-7.5358055491810916
30
0
0
SPLINE
5
267
100
AcDbEntity
8
0
100
AcDbSpline
70
4
71
5
72
16
73
10
74
0
42
0.000000001
43
0.0000000001
44
0.0000000001
40
0
40
0
40
0
40
0
40
0
40
0
40
0.20000000000000001
40
0.40000000000000002
40
0.60000000000000009
40
0.80000000000000004
40
0.98953201023612447
40
0.98953201023612447
40
0.98953201023612447
40
0.98953201023612447
40
0.98953201023612447
40
0.98953201023612447
41
1
41
1
41
1
41
1
41
1
41
1
41
1
41
1
41
1
41
1
10
4.7745751406263093
20
-39.694631307311823
30
0
10
4.6358692239528398
20
-39.503718393096165
30
0
10
4.4776932648992762
20
-38.943223506118287
30
0
10
4.597792450778817
20
-37.56701487223382
30
0
10
5.3544007691385076
20
-34.859664548621964
30
0
10
6.8074354063151343
20
-30.908869002521534
30
0
10
8.0173692541294077
20
-27.980680963196647
30
0
10
8.7945081421344433
20
-26.254608968512834
30
0
10
9.2302370655928883
20
-25.369506730182621
30
0
10
9.4235545956244184
20
-24.999999999999982
30
0
0
SPLINE
5
268
100
AcDbEntity
8
0
100
AcDbSpline
70
0
71
3
72
20
73
16
74
0
42
0.000000001
43
0.0000000001
44
0.0000000001
40
0
40
0
40
0
40
0
40
0.083390273313018126
40
0.083390273313018126
40
0.083390273313018126
40
0.22165524634615544
40
0.22165524634615544
40
0.22165524634615544
40
0.48725796174357361
40
0.48725796174357361
40
0.48725796174357361
40
0.80237402955054693
40
0.80237402955054693
40
0.80237402955054693
40
0.89562595814411583
40
0.89562595814411583
40
0.89562595814411583
40
0.89562595814411583
10
2.7520348443602183
20
-41.164097451862247
30
0
10
3.197174804152549
20
-41.776778124701906
30
0
10
3.7278609312486424
20
-42.096049954502199
30
0
10
4.190878116050972
20
-42.310630145039205
30
0
10
4.9585822621960265
20
-42.666414136137043
30
0
10
5.6593532560863284
20
-42.789113302636743
30
0
10
6.4337309395059039
20
-42.888423488396363
30
0
10
7.9212863987624438
20
-43.079195268303749
30
0
10
9.6756103574188632
20
-43.086537506844124
30
0
10
11.522070625319119
20
-43.03392024054876
30
0
10
13.712745890486964
20
-42.971494124050153
30
0
10
15.976904101005758
20
-42.813306341163234
30
0
10
17.81126367353912
20
-42.632273866580377
30
0
10
18.354103551756925
20
-42.578701138568107
30
0
10
18.860870603892725
20
-42.5226100252126
30
0
10
19.325539244087469
20
-42.464194450818901
30
0
0
SPLINE
5
269
100
AcDbEntity
8
0
100
AcDbSpline
70
4
71
5
72
16
73
10
74
0
42
0.000000001
43
0.0000000001
44
0.0000000001
40
0
40
0
40
0
40
0
40
0
40
0
40
0.20000000000000001
40
0.40000000000000002
40
0.60000000000000009
40
0.80000000000000004
40
0.98953201023612258
40
0.98953201023612258
40
0.98953201023612258
40
0.98953201023612258
40
0.98953201023612258
40
0.98953201023612258
41
1
41
1
41
1
41
1
41
1
41
1
41
1
41
1
41
1
41
1
10
4.7745751406263093
20
-39.694631307311823
30
0
10
4.9132816262635526
20
-39.885543808151105
30
0
10
5.3974648814248738
20
-40.209180530066661
30
0
10
6.7434297599097182
20
-40.520231272410008
30
0
10
9.5520777555331637
20
-40.637271260673486
30
0
10
13.75852000050485
20
-40.476216165629978
30
0
10
16.917282437286389
20
-40.230360562256998
30
0
10
18.799023578808207
20
-40.024643138625422
30
0
10
19.775453472448937
20
-39.883751940035324
30
0
10
20.186613658094387
20
-39.814079902547107
30
0
0
SPLINE
5
270
100
AcDbEntity
8
0
100
AcDbSpline
70
4
71
5
72
16
73
10
74
0
42
0.000000001
43
0.0000000001
44
0.0000000001
40
0
40
0
40
0
40
0
40
0
40
0
40
0.20000000000000001
40
0.40000000000000002
40
0.60000000000000009
40
0.80000000000000004
40
0.98953201023612203
40
0.98953201023612203
40
0.98953201023612203
40
0.98953201023612203
40
0.98953201023612203
40
0.98953201023612203
41
1
41
1
41
1
41
1
41
1
41
1
41
1
41
1
41
1
41
1
10
4.7745751406263182
20
-10.305368692688175
30
0
10
4.6358692239528532
20
-10.496281606903839
30
0
10
4.4776932648992984
20
-11.056776493881717
30
0
10
4.5977924507788304
20
-12.432985127766178
30
0
10
5.3544007691385209
20
-15.140335451378046
30
0
10
6.8074354063151441
20
-19.091130997478455
30
0
10
8.0173692541294024
20
-22.019319036803338
30
0
10
8.794508142134438
20
-23.745391031487149
30
0
10
9.2302370655928829
20
-24.630493269817354
30
0
10
9.4235545956244096
20
-25.000000000000004
30
0
0
SPLINE
5
271
100
AcDbEntity
8
0
100
AcDbSpline
70
0
71
3
72
20
73
16
74
0
42
0.000000001
43
0.0000000001
44
0.0000000001
40
0
40
0
40
0
40
0
40
0.083390273312997559
40
0.083390273312997559
40
0.083390273312997559
40
0.22165524634610287
40
0.22165524634610287
40
0.22165524634610287
40
0.48725796174337233
40
0.48725796174337233
40
0.48725796174337233
40
0.80237402955026615
40
0.80237402955026615
40
0.80237402955026615
40
0.89562595814411949
40
0.89562595814411949
40
0.89562595814411949
40
0.89562595814411949
10
33.497963802351173
20
-51.154055349291248
30
0
10
32.777713346144274
20
-51.388077722171502
30
0
10
32.160715977615865
20
-51.334444579201943
30
0
10
31.660000134991336
20
-51.235888927217879
30
0
10
30.829789851138738
20
-51.07247904711484
30
0
10
30.190733447379507
20
-50.759841902565732
30
0
10
29.50587567883661
20
-50.385017748541514
30
0
10
28.190285193440467
20
-49.664992199616123
30
0
10
26.766691637716487
20
-48.639766444731301
30
0
10
25.303801554692189
20
-47.511876067685776
30
0
10
23.568201186650711
20
-46.173725665118482
30
0
10
21.829439162261561
20
-44.714910255460993
30
0
10
20.451819313033155
20
-43.49024240285295
30
0
10
20.044141885779759
20
-43.127827880682091
30
0
10
19.667128257626295
20
-42.784579017149724
30
0
10
19.325539244087434
20
-42.464194450818781
30
0
0
SPLINE
5
272
100
AcDbEntity
8
0
100
AcDbSpline
70
4
71
5
72
16
73
10
74
0
42
0.000000001
43
0.0000000001
44
0.0000000001
40
0
40
0
40
0
40
0
40
0
40
0
40
0.20000000000000001
40
0.40000000000000002
40
0.60000000000000009
40
0.80000000000000004
40
0.98953201023612258
40
0.98953201023612258
40
0.98953201023612258
40
0.98953201023612258
40
0.98953201023612258
40
0.98953201023612258
41
1
41
1
41
1
41
1
41
1
41
1
41
1
41
1
41
1
41
1
10
32.725424859373675
20
-48.776412907378841
30
0
10
32.94985609863101
20
-48.703490407559102
30
0
10
33.407273766157822
20
-48.343014014732617
30
0
10
34.119026622845546
20
-47.159045311842235
30
0
10
35.098258228215407
20
-44.524029679020103
30
0
10
36.244947870144706
20
-40.473696610121451
30
0
10
36.987236570647866
20
-37.393561451587445
30
0
10
37.373077666132353
20
-35.540349097021263
30
0
10
37.540815604575315
20
-34.568171309246658
30
0
10
37.601609044093387
20
-34.155604891830848
30
0
0
SPLINE
5
273
100
AcDbEntity
8
0
100
AcDbSpline
70
0
71
3
72
20
73
16
74
0
42
0.000000001
43
0.0000000001
44
0.0000000001
40
0
40
0
40
0
40
0
40
0.083390273312997559
40
0.083390273312997559
40
0.083390273312997559
40
0.22165524634610287
40
0.22165524634610287
40
0.22165524634610287
40
0.48725796174337233
40
0.48725796174337233
40
0.48725796174337233
40
0.80237402955026615
40
0.80237402955026615
40
0.80237402955026615
40
0.89562595814411949
40
0.89562595814411949
40
0.89562595814411949
40
0.89562595814411949
10
33.497963802351173
20
-51.154055349291248
30
0
10
32.777713346144274
20
-51.388077722171502
30
0
10
32.160715977615865
20
-51.334444579201943
30
0
10
31.660000134991336
20
-51.235888927217879
30
0
10
30.829789851138738
20
-51.07247904711484
30
0
10
30.190733447379507
20
-50.759841902565732
30
0
10
29.50587567883661
20
-50.385017748541514
30
0
10
28.190285193440467
20
-49.664992199616123
30
0
10
26.766691637716487
20
-48.639766444731301
30
0
10
25.303801554692189
20
-47.511876067685776
30
0
10
23.568201186650711
20
-46.173725665118482
30
0
10
21.829439162261561
20
-44.714910255460993
30
0
10
20.451819313033155
20
-43.49024240285295
30
0
10
20.044141885779759
20
-43.127827880682091
30
0
10
19.667128257626295
20
-42.784579017149724
30
0
10
19.325539244087434
20
-42.464194450818781
30
0
0
SPLINE
5
274
100
AcDbEntity
8
0
100
AcDbSpline
70
0
71
3
72
20
73
16
74
0
42
0.000000001
43
0.0000000001
44
0.0000000001
40
0
40
0
40
0
40
0
40
0.08339027331302884
40
0.08339027331302884
40
0.08339027331302884
40
0.2216552463458997
40
0.2216552463458997
40
0.2216552463458997
40
0.48725796174273794
40
0.48725796174273794
40
0.48725796174273794
40
0.80237402955000348
40
0.80237402955000348
40
0.80237402955000348
40
0.89562595814411672
40
0.89562595814411672
40
0.89562595814411672
40
0.89562595814411672
10
33.497970888269123
20
-51.154053046936944
30
0
10
34.218220647032702
20
-50.920028527545576
30
0
10
34.685857233185104
20
-50.51397644949715
30
0
10
35.033015300454984
20
-50.139929864266179
30
0
10
35.608619611392214
20
-49.519743133064793
30
0
10
35.941863599512288
20
-48.891186440540267
30
0
10
36.275609063054318
20
-48.18539803376639
30
0
10
36.916723724444843
20
-46.829600442931998
30
0
10
37.465822525115605
20
-45.163408086850005
30
0
10
37.986368133354318
20
-43.391060387504794
30
0
10
38.603953254566065
20
-41.288313670587897
30
0
10
39.153171097857971
20
-39.086088537333382
30
0
10
39.547847264953006
20
-37.285566801464249
30
0
10
39.664643320475811
20
-36.752740514586002
30
0
10
39.767897132912744
20
-36.25344330014515
30
0
10
39.855931126806276
20
-35.793465756743402
30
0
0
SPLINE
5
275
100
AcDbEntity
8
0
100
AcDbSpline
70
4
71
5
72
16
73
10
74
0
42
0.000000001
43
0.0000000001
44
0.0000000001
40
0
40
0
40
0
40
0
40
0
40
0
40
0.20000000000000001
40
0.40000000000000002
40
0.60000000000000009
40
0.80000000000000004
40
0.98953201023612269
40
0.98953201023612269
40
0.98953201023612269
40
0.98953201023612269
40
0.98953201023612269
40
0.98953201023612269
41
1
41
1
41
1
41
1
41
1
41
1
41
1
41
1
41
1
41
1
10
32.725424859373675
20
-48.776412907378841
30
0
10
32.500993402791508
20
-48.84933473834154
30
0
10
31.919052028731983
20
-48.826566569584244
30
0
10
30.647312529141885
20
-48.287073600575937
30
0
10
28.30627419043563
20
-46.730879069394256
30
0
10
24.99785673806997
20
-44.128098044258969
30
0
10
22.586874543376592
20
-42.0725227071323
30
0
10
21.185431648621183
20
-40.800034123756802
30
0
10
20.478297039559159
20
-40.112119658360029
30
0
10
20.186613658094387
20
-39.8140799025471
30
0
0
SPLINE
5
276
100
AcDbEntity
8
0
100
AcDbSpline
70
4
71
5
72
16
73
10
74
0
42
0.000000001
43
0.0000000001
44
0.0000000001
40
0
40
0
40
0
40
0
40
0
40
0
40
0.20000000000000001
40
0.40000000000000002
40
0.60000000000000009
40
0.80000000000000004
40
0.98953201023612258
40
0.98953201023612258
40
0.98953201023612258
40
0.98953201023612258
40
0.98953201023612258
40
0.98953201023612258
41
1
41
1
41
1
41
1
41
1
41
1
41
1
41
1
41
1
41
1
10
32.725424859373675
20
-48.776412907378841
30
0
10
32.94985609863101
20
-48.703490407559102
30
0
10
33.407273766157822
20
-48.343014014732617
30
0
10
34.119026622845546
20
-47.159045311842235
30
0
10
35.098258228215407
20
-44.524029679020103
30
0
10
36.244947870144706
20
-40.473696610121451
30
0
10
36.987236570647866
20
-37.393561451587445
30
0
10
37.373077666132353
20
-35.540349097021263
30
0
10
37.540815604575315
20
-34.568171309246658
30
0
10
37.601609044093387
20
-34.155604891830848
30
0
0
ENDSEC
0
SECTION
2
OBJECTS
0
DICTIONARY
5
C
100
AcDbDictionary
3
ACAD_GROUP
350
D
3
ACAD_MLINESTYLE
350
17
0
DICTIONARY
5
D
100
AcDbDictionary
0
DICTIONARY
5
1A
330
C
100
AcDbDictionary
0
DICTIONARY
5
17
100
AcDbDictionary
0
ENDSEC
0
EOF
