0
SECTION
2
HEADER
9
$INSUNITS
70
4
9
$ACADVER
1
AC1014
9
$HANDSEED
5
FFFF
0
ENDSEC
0
SECTION
2
TABLES
0
TABLE
2
VPORT
5
8
100
AcDbSymbolTable
0
ENDTAB
0
TABLE
2
LTYPE
5
5
100
AcDbSymbolTable
0
LTYPE
5
14
100
AcDbSymbolTableRecord
100
AcDbLinetypeTableRecord
2
BYBLOCK
70
0
0
LTYPE
5
15
100
AcDbSymbolTableRecord
100
AcDbLinetypeTableRecord
2
BYLAYER
70
0
0
LTYPE
5
16
100
AcDbSymbolTableRecord
100
AcDbLinetypeTableRecord
2
DASHED
70
0
3
Dashed __ __ __ __ __ __ __ __ __ __ __ __ __ _
72
65
73
2
40
0.75
49
0.5
74
0
49
-0.25
74
0
0
ENDTAB
0
TABLE
2
LAYER
5
2
100
AcDbSymbolTable
70
2
0
LAYER
5
50
100
AcDbSymbolTableRecord
100
AcDbLayerTableRecord
2
0
70
0
62
7
6
CONTINUOUS
0
ENDTAB
0
TABLE
2
STYLE
5
3
100
AcDbSymbolTable
70
1
0
STYLE
5
11
100
AcDbSymbolTableRecord
100
AcDbTextStyleTableRecord
2
STANDARD
70
0
0
ENDTAB
0
TABLE
2
VIEW
5
6
100
AcDbSymbolTable
70
0
0
ENDTAB
0
TABLE
2
UCS
5
7
100
AcDbSymbolTable
70
0
0
ENDTAB
0
TABLE
2
APPID
5
9
100
AcDbSymbolTable
70
2
0
APPID
5
12
100
AcDbSymbolTableRecord
100
AcDbRegAppTableRecord
2
ACAD
70
0
0
ENDTAB
0
TABLE
2
DIMSTYLE
5
A
100
AcDbSymbolTable
70
1
0
ENDTAB
0
TABLE
2
BLOCK_RECORD
5
1
100
AcDbSymbolTable
70
1
0
BLOCK_RECORD
5
1F
100
AcDbSymbolTableRecord
100
AcDbBlockTableRecord
2
*MODEL_SPACE
0
BLOCK_RECORD
5
1B
100
AcDbSymbolTableRecord
100
AcDbBlockTableRecord
2
*PAPER_SPACE
0
ENDTAB
0
ENDSEC
0
SECTION
2
BLOCKS
0
BLOCK
5
20
100
AcDbEntity
100
AcDbBlockBegin
2
*MODEL_SPACE
0
ENDBLK
5
21
100
AcDbEntity
100
AcDbBlockEnd
0
BLOCK
5
1C
100
AcDbEntity
100
AcDbBlockBegin
2
*PAPER_SPACE
0
ENDBLK
5
1D
100
AcDbEntity
100
AcDbBlockEnd
0
ENDSEC
0
SECTION
2
ENTITIES
0
LINE
5
100
100
AcDbEntity
8
0
100
AcDbLine
10
51.000000759959221
20
-25.00000037252903
30
0
11
25.00000037252903
21
-25.00000037252903
31
0
6
DASHED
0
SPLINE
5
101
100
AcDbEntity
8
0
100
AcDbSpline
70
4
71
5
72
18
73
12
74
0
42
0.000000001
43
0.0000000001
44
0.0000000001
40
0.34403982917333487
40
0.34403982917333487
40
0.34403982917333487
40
0.34403982917333487
40
0.34403982917333487
40
0.34403982917333487
40
0.40000000000000002
40
0.5
40
0.59999999999999998
40
0.69999999999999996
40
0.79999999999999993
40
0.89999999999999991
40
0.91627529162153021
40
0.91627529162153021
40
0.91627529162153021
40
0.91627529162153021
40
0.91627529162153021
40
0.91627529162153021
41
1
41
1
41
1
41
1
41
1
41
1
41
1
41
1
41
1
41
1
41
1
41
1
10
33.034678119524372
20
-49.727393539485831
30
0
10
33.153674541127451
20
-49.688711367324991
30
0
10
33.48171952082982
20
-49.550612360643086
30
0
10
34.009423510590615
20
-49.156330386791623
30
0
10
34.762046893595915
20
-48.040130777249828
30
0
10
35.77191617866896
20
-45.581256670241494
30
0
10
36.873929544588734
20
-41.998441469668045
30
0
10
37.679045818387905
20
-38.843306868020122
30
0
10
38.150738080472848
20
-36.708721874031653
30
0
10
38.386615779656942
20
-35.475287482271966
30
0
10
38.486099771222321
20
-34.888551019009839
30
0
10
38.499483487664101
20
-34.80794896176495
30
0
0
SPLINE
5
102
100
AcDbEntity
8
0
100
AcDbSpline
70
4
71
5
72
18
73
12
74
0
42
0.000000001
43
0.0000000001
44
0.0000000001
40
0.34399547826521892
40
0.34399547826521892
40
0.34399547826521892
40
0.34399547826521892
40
0.34399547826521892
40
0.34399547826521892
40
0.40000000000000002
40
0.5
40
0.59999999999999998
40
0.69999999999999996
40
0.79999999999999993
40
0.89999999999999991
40
0.91627529162153021
40
0.91627529162153021
40
0.91627529162153021
40
0.91627529162153021
40
0.91627529162153021
40
0.91627529162153021
41
1
41
1
41
1
41
1
41
1
41
1
41
1
41
1
41
1
41
1
41
1
41
1
10
51.000000743104899
20
-24.999752459831583
30
0
10
51.000017768593302
20
-25.12497063985219
30
0
10
50.970125363811917
20
-25.479714104863589
30
0
10
50.758306867479192
20
-26.103490145157838
30
0
10
49.929301917523759
20
-27.164299151056788
30
0
10
47.902643334082484
20
-28.884743131361613
30
0
10
44.835724448993318
20
-31.039970908746056
30
0
10
42.083807737359528
20
-32.780672198767668
30
0
10
40.199457694340367
20
-33.888901237389739
30
0
10
39.099282096276703
20
-34.49438644874774
30
0
10
38.572004803605239
20
-34.770312885560493
30
0
10
38.499483487664094
20
-34.80794896176495
30
0
0
SPLINE
5
103
100
AcDbEntity
8
0
100
AcDbSpline
70
4
71
5
72
18
73
12
74
0
42
0.000000001
43
0.0000000001
44
0.0000000001
40
0.34401765403140661
40
0.34401765403140661
40
0.34401765403140661
40
0.34401765403140661
40
0.34401765403140661
40
0.34401765403140661
40
0.40000000000000002
40
0.5
40
0.59999999999999998
40
0.69999999999999996
40
0.79999999999999993
40
0.89999999999999991
40
0.91627529162152976
40
0.91627529162152976
40
0.91627529162152976
40
0.91627529162152976
40
0.91627529162152976
40
0.91627529162152976
41
1
41
1
41
1
41
1
41
1
41
1
41
1
41
1
41
1
41
1
41
1
41
1
10
51.000000759959214
20
-25.000000372517846
30
0
10
51.000000759958446
20
-24.874828397510722
30
0
10
50.970070310381537
20
-24.520124537838072
30
0
10
50.758203585981114
20
-23.896378441761442
30
0
10
49.929203359933332
20
-22.83561792780581
30
0
10
47.902643334082484
20
-21.115257613696446
30
0
10
44.835724448993318
20
-18.960029836312003
30
0
10
42.083807737359535
20
-17.219328546290395
30
0
10
40.199457694340367
20
-16.111099507668328
30
0
10
39.09928209627671
20
-15.505614296310323
30
0
10
38.572004803605246
20
-15.229687859497572
30
0
10
38.499483487664108
20
-15.192051783293115
30
0
0
SPLINE
5
104
100
AcDbEntity
8
0
100
AcDbSpline
70
4
71
5
72
18
73
12
74
0
42
0.000000001
43
0.0000000001
44
0.0000000001
40
0.34399547778576833
40
0.34399547778576833
40
0.34399547778576833
40
0.34399547778576833
40
0.34399547778576833
40
0.34399547778576833
40
0.40000000000000002
40
0.5
40
0.59999999999999998
40
0.69999999999999996
40
0.79999999999999993
40
0.89999999999999991
40
0.91627529162153021
40
0.91627529162153021
40
0.91627529162153021
40
0.91627529162153021
40
0.91627529162153021
40
0.91627529162153021
41
1
41
1
41
1
41
1
41
1
41
1
41
1
41
1
41
1
41
1
41
1
41
1
10
33.034206556707716
20
-0.27245398552420463
30
0
10
33.153301385004056
20
-0.31113233891209041
30
0
10
33.481445209004654
20
-0.44918346408139387
30
0
10
34.009235962683469
20
-0.84339222163354788
30
0
10
34.761948663296607
20
-1.9596307923594165
30
0
10
35.77191617866896
20
-4.4187440748165718
30
0
10
36.873929544588748
20
-8.0015592753900222
30
0
10
37.679045818387905
20
-11.156693877037949
30
0
10
38.150738080472848
20
-13.291278871026407
30
0
10
38.386615779656942
20
-14.524713262786095
30
0
10
38.486099771222321
20
-15.111449726048223
30
0
10
38.499483487664101
20
-15.192051783293108
30
0
0
SPLINE
5
105
100
AcDbEntity
8
0
100
AcDbSpline
70
4
71
5
72
18
73
12
74
0
42
0.000000001
43
0.0000000001
44
0.0000000001
40
0.34399547829005361
40
0.34399547829005361
40
0.34399547829005361
40
0.34399547829005361
40
0.34399547829005361
40
0.34399547829005361
40
0.40000000000000002
40
0.5
40
0.59999999999999998
40
0.69999999999999996
40
0.79999999999999993
40
0.89999999999999991
40
0.91627529162153032
40
0.91627529162153032
40
0.91627529162153032
40
0.91627529162153032
40
0.91627529162153032
40
0.91627529162153032
41
1
41
1
41
1
41
1
41
1
41
1
41
1
41
1
41
1
41
1
41
1
41
1
10
33.034678119514233
20
-49.727393539490819
30
0
10
32.915593814655594
20
-49.766104277289465
30
0
10
32.568975469592203
20
-49.847296670212131
30
0
10
31.91027368668702
20
-49.838602706076152
30
0
10
30.645207751178344
20
-49.377980156977102
30
0
10
28.382696348832678
20
-47.982159732750063
30
0
10
25.385222871188866
20
-45.73134855209809
30
0
10
22.879328535391174
20
-43.652026511944307
30
0
10
21.243043900018055
20
-42.202364731143902
30
0
10
20.327220287637388
20
-41.343140779688873
30
0
10
19.901861007705016
20
-40.926936232771681
30
0
10
19.843656653102741
20
-40.869594549824335
30
0
0
SPLINE
5
106
100
AcDbEntity
8
0
100
AcDbSpline
70
4
71
5
72
18
73
12
74
0
42
0.000000001
43
0.0000000001
44
0.0000000001
40
0.34399547843612044
40
0.34399547843612044
40
0.34399547843612044
40
0.34399547843612044
40
0.34399547843612044
40
0.34399547843612044
40
0.40000000000000002
40
0.5
40
0.59999999999999998
40
0.69999999999999996
40
0.79999999999999993
40
0.89999999999999991
40
0.91627529162152999
40
0.91627529162152999
40
0.91627529162152999
40
0.91627529162152999
40
0.91627529162152999
40
0.91627529162152999
41
1
41
1
41
1
41
1
41
1
41
1
41
1
41
1
41
1
41
1
41
1
41
1
10
3.9654125006735983
20
-40.282216585912835
30
0
10
4.0390001261960311
20
-40.383530228519973
30
0
10
4.2716965668055611
20
-40.652953405252305
30
0
10
4.8097076874451243
20
-41.033095033821951
30
0
10
6.1039146692973709
20
-41.404030663437993
30
0
10
8.7547675031222738
20
-41.604659054520738
30
0
10
12.502768104406536
20
-41.54558526254101
30
0
10
15.752274038143879
20
-41.336306129663349
30
0
10
17.928145931361868
20
-41.125289090125065
30
0
10
19.174101964709415
20
-40.968469924482527
30
0
10
19.762863745504792
20
-40.881773284560381
30
0
10
19.843656653102741
20
-40.869594549824335
30
0
0
SPLINE
5
107
100
AcDbEntity
8
0
100
AcDbSpline
70
4
71
5
72
18
73
12
74
0
42
0.000000001
43
0.0000000001
44
0.0000000001
40
0.34403982902727581
40
0.34403982902727581
40
0.34403982902727581
40
0.34403982902727581
40
0.34403982902727581
40
0.34403982902727581
40
0.40000000000000002
40
0.5
40
0.59999999999999998
40
0.69999999999999996
40
0.79999999999999993
40
0.89999999999999991
40
0.91627529162152999
40
0.91627529162152999
40
0.91627529162152999
40
0.91627529162152999
40
0.91627529162152999
40
0.91627529162152999
41
1
41
1
41
1
41
1
41
1
41
1
41
1
41
1
41
1
41
1
41
1
41
1
10
3.9654125006683398
20
-40.28221658590283
30
0
10
3.8918791833748978
20
-40.180977709371163
30
0
10
3.7076577790041609
20
-39.876433264837772
30
0
10
3.5124894123900141
20
-39.247275824686007
30
0
10
3.5596899741155221
20
-37.901870446114302
30
0
10
4.1879784979387402
20
-35.319013233179575
30
0
10
5.4023568934676813
20
-31.772707643893938
30
0
10
6.6055457333626544
20
-28.746914659500518
30
0
10
7.4786162564520051
20
-26.7427453681521
30
0
10
8.0127817343647028
20
-25.606230550846899
30
0
10
8.2771725346077787
20
-25.073075557767062
30
0
10
8.3137215811114586
20
-25.000000372529023
30
0
0
SPLINE
5
108
100
AcDbEntity
8
0
100
AcDbSpline
70
4
71
5
72
18
73
12
74
0
42
0.000000001
43
0.0000000001
44
0.0000000001
40
0.3438728209465195
40
0.3438728209465195
40
0.3438728209465195
40
0.3438728209465195
40
0.3438728209465195
40
0.3438728209465195
40
0.40000000000000002
40
0.5
40
0.59999999999999998
40
0.69999999999999996
40
0.79999999999999993
40
0.89999999999999991
40
0.91627529162152976
40
0.91627529162152976
40
0.91627529162152976
40
0.91627529162152976
40
0.91627529162152976
40
0.91627529162152976
41
1
41
1
41
1
41
1
41
1
41
1
41
1
41
1
41
1
41
1
41
1
41
1
10
3.9665104301702323
20
-9.7162741827807881
30
0
10
3.8926687177060071
20
-9.8177191066031799
30
0
10
3.7080401001279628
20
-10.12233638031039
30
0
10
3.5124452191995088
20
-10.751462603402596
30
0
10
3.5594598459876616
20
-12.097184255728877
30
0
10
4.1879784979387447
20
-14.680987511878483
30
0
10
5.4023568934676813
20
-18.227293101164122
30
0
10
6.6055457333626535
20
-21.253086085557538
30
0
10
7.4786162564520042
20
-23.257255376905949
30
0
10
8.012781734364701
20
-24.39377019421115
30
0
10
8.2771725346077769
20
-24.926925187290976
30
0
10
8.3137215811114551
20
-25.000000372529016
30
0
0
SPLINE
5
109
100
AcDbEntity
8
0
100
AcDbSpline
70
4
71
5
72
18
73
12
74
0
42
0.000000001
43
0.0000000001
44
0.0000000001
40
0.34416246159272473
40
0.34416246159272473
40
0.34416246159272473
40
0.34416246159272473
40
0.34416246159272473
40
0.34416246159272473
40
0.40000000000000002
40
0.5
40
0.59999999999999998
40
0.69999999999999996
40
0.79999999999999993
40
0.89999999999999991
40
0.91627529162153021
40
0.91627529162153021
40
0.91627529162153021
40
0.91627529162153021
40
0.91627529162153021
40
0.91627529162153021
41
1
41
1
41
1
41
1
41
1
41
1
41
1
41
1
41
1
41
1
41
1
41
1
10
3.9665104305407821
20
-9.7162741830366848
30
0
10
4.0399970692958913
20
-9.6153172421440836
30
0
10
4.2727498477670141
20
-9.3463036236692396
30
0
10
4.8109219480341538
20
-8.9665577852627436
30
0
10
6.1048853784744805
20
-8.59589661401073
30
0
10
8.7547675031222827
20
-8.3953416905373235
30
0
10
12.502768104406542
20
-8.4544154825170459
30
0
10
15.752274038143884
20
-8.6636946153947143
30
0
10
17.928145931361875
20
-8.8747116549330016
30
0
10
19.174101964709422
20
-9.03153082057554
30
0
10
19.762863745504792
20
-9.1182274604976836
30
0
10
19.843656653102741
20
-9.1304061952337321
30
0
0
SPLINE
5
110
100
AcDbEntity
8
0
100
AcDbSpline
70
4
71
5
72
18
73
12
74
0
42
0.000000001
43
0.0000000001
44
0.0000000001
40
0.34403982967759295
40
0.34403982967759295
40
0.34403982967759295
40
0.34403982967759295
40
0.34403982967759295
40
0.34403982967759295
40
0.40000000000000002
40
0.5
40
0.59999999999999998
40
0.69999999999999996
40
0.79999999999999993
40
0.89999999999999991
40
0.9162752916215311
40
0.9162752916215311
40
0.9162752916215311
40
0.9162752916215311
40
0.9162752916215311
40
0.9162752916215311
41
1
41
1
41
1
41
1
41
1
41
1
41
1
41
1
41
1
41
1
41
1
41
1
10
33.034206556696589
20
-0.27245398552228994
30
0
10
32.915199619906836
20
-0.23380417917843987
30
0
10
32.568633097513612
20
-0.15270862243360733
30
0
10
31.909958472631963
20
-0.1615128183509052
30
0
10
30.644987697395464
20
-0.62215634676232678
30
0
10
28.382696348832681
20
-2.0178410123079971
30
0
10
25.385222871188873
20
-4.2686521929599719
30
0
10
22.879328535391167
20
-6.3479742331137601
30
0
10
21.243043900018044
20
-7.7976360139141656
30
0
10
20.327220287637374
20
-8.6568599653691987
30
0
10
19.901861007705005
20
-9.0730645122863951
30
0
10
19.843656653102727
20
-9.1304061952337481
30
0
0
ENDSEC
0
SECTION
2
OBJECTS
0
DICTIONARY
5
C
100
AcDbDictionary
3
ACAD_GROUP
350
D
3
ACAD_MLINESTYLE
350
17
0
DICTIONARY
5
D
100
AcDbDictionary
0
DICTIONARY
5
1A
330
C
100
AcDbDictionary
0
DICTIONARY
5
17
100
AcDbDictionary
0
ENDSEC
0
EOF
