%TF.GenerationSoftware,KiCad,Pcbnew,10.0.4*%
%TF.CreationDate,2026-07-12T16:00:08-07:00*%
%TF.ProjectId,starclip,73746172-636c-4697-902e-6b696361645f,rev?*%
%TF.SameCoordinates,Original*%
%TF.FileFunction,Copper,L1,Top*%
%TF.FilePolarity,Positive*%
%FSLAX46Y46*%
G04 Gerber Fmt 4.6, Leading zero omitted, Abs format (unit mm)*
G04 Created by KiCad (PCBNEW 10.0.4) date 2026-07-12 16:00:08*
%MOMM*%
%LPD*%
G01*
G04 APERTURE LIST*
G04 Aperture macros list*
%AMRoundRect*
0 Rectangle with rounded corners*
0 $1 Rounding radius*
0 $2 $3 $4 $5 $6 $7 $8 $9 X,Y pos of 4 corners*
0 Add a 4 corners polygon primitive as box body*
4,1,4,$2,$3,$4,$5,$6,$7,$8,$9,$2,$3,0*
0 Add four circle primitives for the rounded corners*
1,1,$1+$1,$2,$3*
1,1,$1+$1,$4,$5*
1,1,$1+$1,$6,$7*
1,1,$1+$1,$8,$9*
0 Add four rect primitives between the rounded corners*
20,1,$1+$1,$2,$3,$4,$5,0*
20,1,$1+$1,$4,$5,$6,$7,0*
20,1,$1+$1,$6,$7,$8,$9,0*
20,1,$1+$1,$8,$9,$2,$3,0*%
G04 Aperture macros list end*
%TA.AperFunction,SMDPad,CuDef*%
%ADD10RoundRect,0.090000X-0.660000X-0.360000X0.660000X-0.360000X0.660000X0.360000X-0.660000X0.360000X0*%
%TD*%
%TA.AperFunction,ComponentPad*%
%ADD11R,2.000000X2.000000*%
%TD*%
%TA.AperFunction,ViaPad*%
%ADD12C,0.600000*%
%TD*%
%TA.AperFunction,Conductor*%
%ADD13C,0.200000*%
%TD*%
G04 APERTURE END LIST*
D10*
%TO.P,D2,1,VDD_1*%
%TO.N,Net-(D1-VDD)*%
X120050000Y-109850000D03*
%TO.P,D2,2,DOUT_2*%
%TO.N,Net-(D2-DOUT)*%
X120050000Y-113150000D03*
%TO.P,D2,3,VSS_3*%
%TO.N,Net-(D1-VSS)*%
X124950000Y-113150000D03*
%TO.P,D2,4,DIN_4*%
%TO.N,Net-(D1-DOUT)*%
X124950000Y-109850000D03*
%TD*%
%TO.P,D6,1,VDD_1*%
%TO.N,Net-(D1-VDD)*%
X126050000Y-88350000D03*
%TO.P,D6,2,DOUT_2*%
%TO.N,unconnected-(D6-DOUT-Pad2)*%
X126050000Y-91650000D03*
%TO.P,D6,3,VSS_3*%
%TO.N,Net-(D1-VSS)*%
X130950000Y-91650000D03*
%TO.P,D6,4,DIN_4*%
%TO.N,Net-(D5-DOUT)*%
X130950000Y-88350000D03*
%TD*%
%TO.P,D1,1,VDD_1*%
%TO.N,Net-(D1-VDD)*%
X109050000Y-94350000D03*
%TO.P,D1,2,DOUT_2*%
%TO.N,Net-(D1-DOUT)*%
X109050000Y-97650000D03*
%TO.P,D1,3,VSS_3*%
%TO.N,Net-(D1-VSS)*%
X113950000Y-97650000D03*
%TO.P,D1,4,DIN_4*%
%TO.N,Net-(D1-DIN)*%
X113950000Y-94350000D03*
%TD*%
D11*
%TO.P,J5,1,Pin_1_1*%
%TO.N,Net-(D1-VSS)*%
X124000000Y-100000000D03*
%TD*%
D10*
%TO.P,D4,1,VDD_1*%
%TO.N,Net-(D1-VDD)*%
X92050000Y-88350000D03*
%TO.P,D4,2,DOUT_2*%
%TO.N,Net-(D4-DOUT)*%
X92050000Y-91650000D03*
%TO.P,D4,3,VSS_3*%
%TO.N,Net-(D1-VSS)*%
X96950000Y-91650000D03*
%TO.P,D4,4,DIN_4*%
%TO.N,Net-(D3-DOUT)*%
X96950000Y-88350000D03*
%TD*%
D11*
%TO.P,J1,1,Pin_1_1*%
%TO.N,Net-(D1-VDD)*%
X124000000Y-103000000D03*
%TD*%
D10*
%TO.P,D3,1,VDD_1*%
%TO.N,Net-(D1-VDD)*%
X98050000Y-109850000D03*
%TO.P,D3,2,DOUT_2*%
%TO.N,Net-(D3-DOUT)*%
X98050000Y-113150000D03*
%TO.P,D3,3,VSS_3*%
%TO.N,Net-(D1-VSS)*%
X102950000Y-113150000D03*
%TO.P,D3,4,DIN_4*%
%TO.N,Net-(D2-DOUT)*%
X102950000Y-109850000D03*
%TD*%
D11*
%TO.P,J6,1,Pin_1_1*%
%TO.N,Net-(D1-DIN)*%
X126000000Y-97000000D03*
%TD*%
D10*
%TO.P,D5,1,VDD_1*%
%TO.N,Net-(D1-VDD)*%
X109050000Y-76850000D03*
%TO.P,D5,2,DOUT_2*%
%TO.N,Net-(D5-DOUT)*%
X109050000Y-80150000D03*
%TO.P,D5,3,VSS_3*%
%TO.N,Net-(D1-VSS)*%
X113950000Y-80150000D03*
%TO.P,D5,4,DIN_4*%
%TO.N,Net-(D4-DOUT)*%
X113950000Y-76850000D03*
%TD*%
D12*
%TO.N,Net-(D1-DOUT)*%
X123500000Y-110000000D03*
X110500000Y-98500000D03*
%TO.N,Net-(D1-DIN)*%
X115500000Y-94500000D03*
%TO.N,Net-(D2-DOUT)*%
X104500000Y-110000000D03*
X118000000Y-112500000D03*
%TO.N,Net-(D3-DOUT)*%
X98500000Y-88500000D03*
X99500000Y-112500000D03*
%TO.N,Net-(D4-DOUT)*%
X112500000Y-77000000D03*
X92500000Y-90000000D03*
%TO.N,Net-(D5-DOUT)*%
X110500000Y-80500000D03*
X129500000Y-87000000D03*
%TD*%
%TO.N,Net-(D1-VDD)*%
D13*
X98050000Y-109850000D02*
X98050000Y-99050000D01*
X109050000Y-76850000D02*
X111350000Y-76850000D01*
X117850000Y-109850000D02*
X117000000Y-109000000D01*
X117500000Y-80500000D02*
X117500000Y-84000000D01*
X124000000Y-103000000D02*
X117700000Y-103000000D01*
X117000000Y-109000000D02*
X98900000Y-109000000D01*
X105500000Y-83000000D02*
X105500000Y-80400000D01*
X113000000Y-78500000D02*
X115500000Y-78500000D01*
X120050000Y-109850000D02*
X117850000Y-109850000D01*
X98050000Y-99050000D02*
X94000000Y-95000000D01*
X94000000Y-90300000D02*
X92050000Y-88350000D01*
X102000000Y-86500000D02*
X105500000Y-83000000D01*
X124000000Y-105900000D02*
X120050000Y-109850000D01*
X94000000Y-95000000D02*
X94000000Y-90300000D01*
X93900000Y-86500000D02*
X102000000Y-86500000D01*
X105500000Y-80400000D02*
X109050000Y-76850000D01*
X124000000Y-103000000D02*
X124000000Y-102500000D01*
X115500000Y-78500000D02*
X117500000Y-80500000D01*
X111350000Y-76850000D02*
X113000000Y-78500000D01*
X124000000Y-103000000D02*
X124000000Y-103500000D01*
X92050000Y-88350000D02*
X93900000Y-86500000D01*
X98900000Y-109000000D02*
X98050000Y-109850000D01*
X117700000Y-103000000D02*
X109050000Y-94350000D01*
X124000000Y-103000000D02*
X124000000Y-105900000D01*
X121850000Y-88350000D02*
X126050000Y-88350000D01*
X117500000Y-84000000D02*
X121850000Y-88350000D01*
%TO.N,Net-(D1-DOUT)*%
X123500000Y-110000000D02*
X124800000Y-110000000D01*
X124800000Y-110000000D02*
X124950000Y-109850000D01*
X109050000Y-97650000D02*
X109650000Y-97650000D01*
X109650000Y-97650000D02*
X110500000Y-98500000D01*
%TO.N,Net-(D1-DIN)*%
X115500000Y-94500000D02*
X114100000Y-94500000D01*
X114100000Y-94500000D02*
X113950000Y-94350000D01*
%TO.N,Net-(D1-VSS)*%
X96950000Y-91650000D02*
X98850000Y-91650000D01*
X110100000Y-84000000D02*
X113950000Y-80150000D01*
X117600000Y-94000000D02*
X113950000Y-97650000D01*
X121000000Y-90000000D02*
X129300000Y-90000000D01*
X116300000Y-100000000D02*
X113950000Y-97650000D01*
X113950000Y-80150000D02*
X116000000Y-82200000D01*
X125300000Y-101300000D02*
X124000000Y-100000000D01*
X116500000Y-110500000D02*
X117500000Y-111500000D01*
X117500000Y-111500000D02*
X121000000Y-111500000D01*
X116000000Y-85000000D02*
X121000000Y-90000000D01*
X130950000Y-91650000D02*
X130950000Y-92050000D01*
X124000000Y-100000000D02*
X124500000Y-100000000D01*
X121000000Y-111500000D02*
X123300000Y-111500000D01*
X130950000Y-92050000D02*
X129000000Y-94000000D01*
X129300000Y-90000000D02*
X130950000Y-91650000D01*
X116000000Y-82200000D02*
X116000000Y-85000000D01*
X125300000Y-107200000D02*
X125300000Y-101300000D01*
X98850000Y-91650000D02*
X106500000Y-84000000D01*
X106500000Y-84000000D02*
X110100000Y-84000000D01*
X102950000Y-113150000D02*
X105600000Y-110500000D01*
X105600000Y-110500000D02*
X116500000Y-110500000D01*
X124000000Y-100000000D02*
X116300000Y-100000000D01*
X123300000Y-111500000D02*
X124950000Y-113150000D01*
X129000000Y-94000000D02*
X117600000Y-94000000D01*
X121000000Y-111500000D02*
X125300000Y-107200000D01*
%TO.N,Net-(D2-DOUT)*%
X120050000Y-113150000D02*
X118650000Y-113150000D01*
X103100000Y-110000000D02*
X102950000Y-109850000D01*
X118650000Y-113150000D02*
X118000000Y-112500000D01*
X104500000Y-110000000D02*
X103100000Y-110000000D01*
%TO.N,Net-(D3-DOUT)*%
X98050000Y-113150000D02*
X98850000Y-113150000D01*
X98850000Y-113150000D02*
X99500000Y-112500000D01*
X98500000Y-88500000D02*
X97100000Y-88500000D01*
X97100000Y-88500000D02*
X96950000Y-88350000D01*
%TO.N,Net-(D4-DOUT)*%
X92050000Y-91650000D02*
X92050000Y-90450000D01*
X112500000Y-77000000D02*
X113800000Y-77000000D01*
X113800000Y-77000000D02*
X113950000Y-76850000D01*
X92050000Y-90450000D02*
X92500000Y-90000000D01*
%TO.N,Net-(D5-DOUT)*%
X109050000Y-80150000D02*
X110150000Y-80150000D01*
X129500000Y-87000000D02*
X129600000Y-87000000D01*
X110150000Y-80150000D02*
X110500000Y-80500000D01*
X129600000Y-87000000D02*
X130950000Y-88350000D01*
%TD*%
M02*
