%TF.GenerationSoftware,KiCad,Pcbnew,10.0.4*%
%TF.CreationDate,2026-07-12T16:00:08-07:00*%
%TF.ProjectId,starclip,73746172-636c-4697-902e-6b696361645f,rev?*%
%TF.SameCoordinates,Original*%
%TF.FileFunction,Profile,NP*%
%FSLAX46Y46*%
G04 Gerber Fmt 4.6, Leading zero omitted, Abs format (unit mm)*
G04 Created by KiCad (PCBNEW 10.0.4) date 2026-07-12 16:00:08*
%MOMM*%
%LPD*%
G01*
G04 APERTURE LIST*
%ADD10C,0.050000*%
G04 APERTURE END LIST*
D10*
X96937694Y-100619016D02*
X96763469Y-100436748D01*
X96561464Y-100225520D01*
X96325852Y-99979229D01*
X96108179Y-99751690D01*
X96000672Y-99639289D01*
X95894048Y-99527781D01*
X95788301Y-99417154D01*
X95683430Y-99307394D01*
X95579429Y-99198490D01*
X95476296Y-99090426D01*
X95374026Y-98983192D01*
X95272615Y-98876772D01*
X95172061Y-98771154D01*
X95072360Y-98666326D01*
X95022828Y-98614203D01*
X94973507Y-98562273D01*
X94924398Y-98510533D01*
X94875499Y-98458982D01*
X94826811Y-98407619D01*
X94778333Y-98356441D01*
X94730064Y-98305448D01*
X94682004Y-98254637D01*
X94634153Y-98204007D01*
X94586510Y-98153555D01*
X94539074Y-98103282D01*
X94491845Y-98053184D01*
X94444823Y-98003261D01*
X94398007Y-97953510D01*
X94351397Y-97903930D01*
X94304992Y-97854519D01*
X94258792Y-97805276D01*
X94212797Y-97756199D01*
X94167005Y-97707286D01*
X94121416Y-97658536D01*
X94076031Y-97609947D01*
X94030848Y-97561518D01*
X93985867Y-97513246D01*
X93941088Y-97465130D01*
X93896510Y-97417169D01*
X93852132Y-97369361D01*
X93807955Y-97321704D01*
X93763977Y-97274197D01*
X93720199Y-97226838D01*
X93676619Y-97179624D01*
X93633238Y-97132556D01*
X93590055Y-97085630D01*
X93547069Y-97038846D01*
X93504280Y-96992202D01*
X93461687Y-96945696D01*
X93419291Y-96899326D01*
X93377090Y-96853091D01*
X93335084Y-96806989D01*
X93293273Y-96761018D01*
X93251656Y-96715178D01*
X93210233Y-96669465D01*
X93169003Y-96623879D01*
X93127966Y-96578419D01*
X93087121Y-96533081D01*
X93046468Y-96487865D01*
X93006007Y-96442769D01*
X92965736Y-96397792D01*
X92925656Y-96352931D01*
X92885766Y-96308185D01*
X92846066Y-96263553D01*
X92806554Y-96219032D01*
X92767232Y-96174622D01*
X92728097Y-96130320D01*
X92689150Y-96086125D01*
X92650391Y-96042035D01*
X92611818Y-95998049D01*
X92573432Y-95954164D01*
X92535232Y-95910380D01*
X92497216Y-95866695D01*
X92459386Y-95823107D01*
X92421741Y-95779614D01*
X92384279Y-95736214D01*
X92347001Y-95692907D01*
X92328431Y-95671287D01*
X92309907Y-95649690D01*
X92291428Y-95628115D01*
X92272994Y-95606562D01*
X92254607Y-95585031D01*
X92236264Y-95563521D01*
X92217967Y-95542033D01*
X92199716Y-95520566D01*
X92181510Y-95499120D01*
X92163349Y-95477694D01*
X92145233Y-95456289D01*
X92127163Y-95434905D01*
X92109137Y-95413541D01*
X92091157Y-95392196D01*
X92073221Y-95370872D01*
X92055331Y-95349566D01*
X92037485Y-95328281D01*
X92019684Y-95307014D01*
X92001928Y-95285766D01*
X91984217Y-95264537D01*
X91966550Y-95243326D01*
X91948928Y-95222134D01*
X91931350Y-95200960D01*
X91913817Y-95179804D01*
X91896328Y-95158665D01*
X91878883Y-95137544D01*
X91861483Y-95116440D01*
X91844127Y-95095353D01*
X91826815Y-95074283D01*
X91809547Y-95053230D01*
X91792323Y-95032193D01*
X91775143Y-95011172D01*
X91758008Y-94990168D01*
X91740916Y-94969179D01*
X91723867Y-94948206D01*
X91706863Y-94927248D01*
X91689902Y-94906305D01*
X91672985Y-94885378D01*
X91656112Y-94864465D01*
X91639282Y-94843567D01*
X91622495Y-94822683D01*
X91605752Y-94801814D01*
X91589053Y-94780958D01*
X91572396Y-94760116D01*
X91555783Y-94739288D01*
X91539213Y-94718473D01*
X91522686Y-94697672D01*
X91506202Y-94676883D01*
X91489762Y-94656107D01*
X91473364Y-94635344D01*
X91457009Y-94614592D01*
X91440697Y-94593853D01*
X91424427Y-94573126D01*
X91408201Y-94552411D01*
X91392017Y-94531707D01*
X91375876Y-94511015D01*
X91359777Y-94490333D01*
X91343721Y-94469663D01*
X91327707Y-94449003D01*
X91311735Y-94428354D01*
X91295806Y-94407715D01*
X91279919Y-94387086D01*
X91264074Y-94366467D01*
X91248272Y-94345858D01*
X91232511Y-94325258D01*
X91216793Y-94304667D01*
X91201116Y-94284085D01*
X91185482Y-94263513D01*
X91169889Y-94242948D01*
X91154338Y-94222393D01*
X91138829Y-94201845D01*
X91123361Y-94181306D01*
X91107936Y-94160774D01*
X91092551Y-94140250D01*
X91077209Y-94119734D01*
X91061907Y-94099224D01*
X91046647Y-94078722D01*
X91031429Y-94058226D01*
X91016251Y-94037737D01*
X91001115Y-94017255D01*
X90986020Y-93996778D01*
X90970966Y-93976308D01*
X90955954Y-93955843D01*
X90940982Y-93935384D01*
X90926051Y-93914930D01*
X90911161Y-93894482D01*
X90896312Y-93874038D01*
X90881503Y-93853599D01*
X90866735Y-93833164D01*
X90852008Y-93812734D01*
X90837322Y-93792308D01*
X90822676Y-93771886D01*
X90808070Y-93751468D01*
X90793505Y-93731053D01*
X90778981Y-93710642D01*
X90764496Y-93690233D01*
X90750052Y-93669828D01*
X90735648Y-93649425D01*
X90721284Y-93629025D01*
X90706960Y-93608626D01*
X90692676Y-93588230D01*
X90678433Y-93567836D01*
X90664229Y-93547444D01*
X90650064Y-93527053D01*
X90635940Y-93506663D01*
X90621855Y-93486274D01*
X90607811Y-93465886D01*
X90593805Y-93445499D01*
X90579839Y-93425112D01*
X90565913Y-93404725D01*
X90552026Y-93384339D01*
X90538179Y-93363952D01*
X90524370Y-93343565D01*
X90510601Y-93323177D01*
X90496872Y-93302788D01*
X90483181Y-93282399D01*
X90469530Y-93262008D01*
X90455917Y-93241616D01*
X90442344Y-93221222D01*
X90428809Y-93200826D01*
X90415313Y-93180428D01*
X90401856Y-93160028D01*
X90388438Y-93139626D01*
X90375059Y-93119221D01*
X90361718Y-93098813D01*
X90348415Y-93078402D01*
X90335151Y-93057988D01*
X90321926Y-93037570D01*
X90308739Y-93017148D01*
X90295590Y-92996723D01*
X90282480Y-92976294D01*
X90269408Y-92955860D01*
X90256374Y-92935422D01*
X90243378Y-92914979D01*
X90230420Y-92894531D01*
X90217500Y-92874078D01*
X90204619Y-92853620D01*
X90191775Y-92833156D01*
X90178968Y-92812686D01*
X90166200Y-92792211D01*
X90153469Y-92771729D01*
X90140776Y-92751241D01*
X90128120Y-92730747D01*
X90115502Y-92710245D01*
X90102922Y-92689737D01*
X90090379Y-92669222D01*
X90077873Y-92648699D01*
X90065405Y-92628168D01*
X90052973Y-92607630D01*
X90040579Y-92587084D01*
X90028222Y-92566530D01*
X90015903Y-92545967D01*
X90003620Y-92525395D01*
X89991374Y-92504815D01*
X89979165Y-92484226D01*
X89966993Y-92463627D01*
X89954857Y-92443020D01*
X89942759Y-92422402D01*
X89930697Y-92401775D01*
X89918671Y-92381137D01*
X89906682Y-92360490D01*
X89894730Y-92339831D01*
X89882814Y-92319163D01*
X89870935Y-92298483D01*
X89859091Y-92277792D01*
X89847284Y-92257090D01*
X89835514Y-92236377D01*
X89823779Y-92215652D01*
X89812081Y-92194914D01*
X89800418Y-92174165D01*
X89788791Y-92153404D01*
X89777201Y-92132630D01*
X89765646Y-92111843D01*
X89754127Y-92091043D01*
X89742644Y-92070231D01*
X89731196Y-92049405D01*
X89719784Y-92028565D01*
X89708408Y-92007712D01*
X89697067Y-91986844D01*
X89685762Y-91965963D01*
X89674492Y-91945067D01*
X89663257Y-91924156D01*
X89652058Y-91903231D01*
X89640894Y-91882291D01*
X89629765Y-91861336D01*
X89618671Y-91840365D01*
X89607612Y-91819379D01*
X89596588Y-91798377D01*
X89585599Y-91777358D01*
X89574645Y-91756324D01*
X89563726Y-91735273D01*
X89552841Y-91714206D01*
X89541992Y-91693122D01*
X89531176Y-91672021D01*
X89520396Y-91650902D01*
X89509650Y-91629766D01*
X89498938Y-91608613D01*
X89488261Y-91587441D01*
X89477618Y-91566252D01*
X89467010Y-91545044D01*
X89456436Y-91523818D01*
X89445896Y-91502573D01*
X89435390Y-91481309D01*
X89424918Y-91460026D01*
X89414480Y-91438724D01*
X89404076Y-91417403D01*
X89393706Y-91396061D01*
X89383370Y-91374700D01*
X89373067Y-91353319D01*
X89362799Y-91331917D01*
X89352564Y-91310495D01*
X89342362Y-91289052D01*
X89332195Y-91267588D01*
X89322060Y-91246103D01*
X89311959Y-91224597D01*
X89301892Y-91203069D01*
X89291857Y-91181520D01*
X89281856Y-91159948D01*
X89271889Y-91138354D01*
X89261954Y-91116738D01*
X89252052Y-91095100D01*
X89242184Y-91073438D01*
X89232348Y-91051754D01*
X89222546Y-91030046D01*
X89212776Y-91008315D01*
X89203039Y-90986561D01*
X89193335Y-90964782D01*
X89183663Y-90942980D01*
X89174024Y-90921153D01*
X89164418Y-90899302D01*
X89154844Y-90877426D01*
X89145303Y-90855526D01*
X89135794Y-90833600D01*
X89126317Y-90811649D01*
X89116872Y-90789673D01*
X89107460Y-90767671D01*
X89098080Y-90745643D01*
X89088732Y-90723589D01*
X89079417Y-90701509D01*
X89070133Y-90679403D01*
X89060881Y-90657269D01*
X89051661Y-90635109D01*
X89042472Y-90612922D01*
X89033316Y-90590707D01*
X89024191Y-90568465D01*
X89015098Y-90546195D01*
X89006036Y-90523898D01*
X88997006Y-90501572D01*
X88988008Y-90479218D01*
X88979041Y-90456835D01*
X88970105Y-90434424D01*
X88961200Y-90411983D01*
X88952327Y-90389514D01*
X88943485Y-90367015D01*
X88934674Y-90344487D01*
X88925894Y-90321928D01*
X88917145Y-90299340D01*
X88908427Y-90276722D01*
X88899740Y-90254073D01*
X88891084Y-90231394D01*
X88882459Y-90208684D01*
X88873864Y-90185943D01*
X88865300Y-90163170D01*
X88856767Y-90140367D01*
X88848264Y-90117531D01*
X88839791Y-90094664D01*
X88831350Y-90071765D01*
X88822938Y-90048834D01*
X88814557Y-90025870D01*
X88806206Y-90002874D01*
X88797885Y-89979844D01*
X88789594Y-89956782D01*
X88781334Y-89933686D01*
X88773103Y-89910557D01*
X88764903Y-89887395D01*
X88756732Y-89864198D01*
X88748591Y-89840967D01*
X88740480Y-89817703D01*
X88732399Y-89794403D01*
X88724347Y-89771069D01*
X88716325Y-89747700D01*
X88708333Y-89724296D01*
X88700370Y-89700856D01*
X88692437Y-89677382D01*
X88684533Y-89653871D01*
X88676658Y-89630324D01*
X88668813Y-89606742D01*
X88660996Y-89583123D01*
X88653209Y-89559467D01*
X88645452Y-89535775D01*
X88637723Y-89512045D01*
X88630023Y-89488279D01*
X88622352Y-89464475D01*
X88614710Y-89440634D01*
X88607096Y-89416755D01*
X88599512Y-89392837D01*
X88591956Y-89368882D01*
X88584429Y-89344888D01*
X88576930Y-89320856D01*
X88569460Y-89296785D01*
X88562019Y-89272675D01*
X88554606Y-89248526D01*
X88547221Y-89224337D01*
X88539864Y-89200109D01*
X88532536Y-89175840D01*
X88525236Y-89151532D01*
X88517964Y-89127184D01*
X88510720Y-89102795D01*
X88503504Y-89078365D01*
X88496316Y-89053895D01*
X88489156Y-89029384D01*
X88482024Y-89004831D01*
X88474920Y-88980237D01*
X88467843Y-88955601D01*
X88460794Y-88930923D01*
X88453773Y-88906203D01*
X88446779Y-88881441D01*
X88439812Y-88856637D01*
X88432874Y-88831789D01*
X88425962Y-88806899D01*
X88419078Y-88781966D01*
X88412221Y-88756989D01*
X88405391Y-88731969D01*
X88398588Y-88706905D01*
X88391813Y-88681797D01*
X88385064Y-88656645D01*
X88378343Y-88631449D01*
X88371648Y-88606208D01*
X88364980Y-88580922D01*
X88358339Y-88555592D01*
X88351725Y-88530216D01*
X88345137Y-88504795D01*
X88338576Y-88479328D01*
X88332042Y-88453816D01*
X88325534Y-88428257D01*
X88319053Y-88402653D01*
X88312598Y-88377002D01*
X88306169Y-88351304D01*
X96937694Y-100619016D02*
X96903878Y-100868879D01*
X96864609Y-101158498D01*
X96818759Y-101496259D01*
X96776402Y-101808287D01*
X96755495Y-101962412D01*
X96734777Y-102115296D01*
X96714251Y-102266951D01*
X96693923Y-102417390D01*
X96673798Y-102566626D01*
X96653879Y-102714671D01*
X96634172Y-102861538D01*
X96614681Y-103007241D01*
X96595412Y-103151791D01*
X96576369Y-103295202D01*
X96566933Y-103366485D01*
X96557556Y-103437487D01*
X96548237Y-103508211D01*
X96538978Y-103578658D01*
X96529779Y-103648830D01*
X96520641Y-103718728D01*
X96511564Y-103788355D01*
X96502549Y-103857710D01*
X96493596Y-103926797D01*
X96484706Y-103995617D01*
X96475880Y-104064171D01*
X96467118Y-104132462D01*
X96458421Y-104200489D01*
X96449789Y-104268256D01*
X96441223Y-104335764D01*
X96432723Y-104403014D01*
X96424291Y-104470008D01*
X96415927Y-104536748D01*
X96407631Y-104603235D01*
X96399403Y-104669470D01*
X96391246Y-104735457D01*
X96383158Y-104801195D01*
X96375141Y-104866686D01*
X96367195Y-104931933D01*
X96359322Y-104996937D01*
X96351520Y-105061699D01*
X96343792Y-105126221D01*
X96336138Y-105190504D01*
X96328557Y-105254551D01*
X96321052Y-105318363D01*
X96313622Y-105381941D01*
X96306268Y-105445287D01*
X96298991Y-105508402D01*
X96291791Y-105571289D01*
X96284668Y-105633949D01*
X96277624Y-105696383D01*
X96270660Y-105758593D01*
X96263774Y-105820580D01*
X96256969Y-105882347D01*
X96250245Y-105943894D01*
X96243602Y-106005224D01*
X96237041Y-106066338D01*
X96230562Y-106127238D01*
X96224167Y-106187925D01*
X96217855Y-106248400D01*
X96211628Y-106308666D01*
X96205486Y-106368724D01*
X96199429Y-106428576D01*
X96193458Y-106488223D01*
X96187574Y-106547666D01*
X96181777Y-106606908D01*
X96176068Y-106665950D01*
X96170448Y-106724794D01*
X96164916Y-106783441D01*
X96159475Y-106841892D01*
X96154123Y-106900150D01*
X96148863Y-106958216D01*
X96143693Y-107016092D01*
X96138616Y-107073779D01*
X96133632Y-107131278D01*
X96128740Y-107188592D01*
X96123943Y-107245722D01*
X96119240Y-107302670D01*
X96116924Y-107331076D01*
X96114632Y-107359437D01*
X96112363Y-107387753D01*
X96110119Y-107416025D01*
X96107899Y-107444252D01*
X96105703Y-107472435D01*
X96103531Y-107500574D01*
X96101383Y-107528669D01*
X96099260Y-107556720D01*
X96097161Y-107584729D01*
X96095086Y-107612694D01*
X96093036Y-107640616D01*
X96091011Y-107668495D01*
X96089011Y-107696331D01*
X96087035Y-107724126D01*
X96085084Y-107751878D01*
X96083158Y-107779588D01*
X96081257Y-107807256D01*
X96079381Y-107834882D01*
X96077530Y-107862468D01*
X96075705Y-107890012D01*
X96073905Y-107917515D01*
X96072130Y-107944977D01*
X96070381Y-107972398D01*
X96068657Y-107999780D01*
X96066959Y-108027121D01*
X96065286Y-108054422D01*
X96063639Y-108081683D01*
X96062018Y-108108905D01*
X96060423Y-108136087D01*
X96058854Y-108163230D01*
X96057311Y-108190334D01*
X96055794Y-108217399D01*
X96054303Y-108244426D01*
X96052838Y-108271414D01*
X96051400Y-108298364D01*
X96049988Y-108325276D01*
X96048603Y-108352151D01*
X96047244Y-108378987D01*
X96045912Y-108405787D01*
X96044607Y-108432549D01*
X96043328Y-108459274D01*
X96042077Y-108485962D01*
X96040852Y-108512614D01*
X96039654Y-108539229D01*
X96038483Y-108565808D01*
X96037340Y-108592351D01*
X96036223Y-108618859D01*
X96035134Y-108645331D01*
X96034073Y-108671767D01*
X96033038Y-108698168D01*
X96032032Y-108724534D01*
X96031053Y-108750866D01*
X96030101Y-108777162D01*
X96029177Y-108803425D01*
X96028282Y-108829653D01*
X96027414Y-108855847D01*
X96026574Y-108882008D01*
X96025762Y-108908134D01*
X96024978Y-108934228D01*
X96024222Y-108960288D01*
X96023495Y-108986315D01*
X96022796Y-109012310D01*
X96022125Y-109038271D01*
X96021483Y-109064201D01*
X96020869Y-109090098D01*
X96020284Y-109115963D01*
X96019728Y-109141797D01*
X96019200Y-109167599D01*
X96018702Y-109193369D01*
X96018232Y-109219108D01*
X96017791Y-109244817D01*
X96017380Y-109270494D01*
X96016997Y-109296141D01*
X96016644Y-109321758D01*
X96016320Y-109347344D01*
X96016026Y-109372900D01*
X96015761Y-109398427D01*
X96015525Y-109423924D01*
X96015319Y-109449391D01*
X96015143Y-109474830D01*
X96014996Y-109500239D01*
X96014879Y-109525620D01*
X96014792Y-109550972D01*
X96014736Y-109576295D01*
X96014709Y-109601591D01*
X96014712Y-109626858D01*
X96014745Y-109652098D01*
X96014809Y-109677310D01*
X96014903Y-109702494D01*
X96015028Y-109727652D01*
X96015182Y-109752782D01*
X96015368Y-109777886D01*
X96015584Y-109802963D01*
X96015831Y-109828014D01*
X96016109Y-109853038D01*
X96016417Y-109878037D01*
X96016756Y-109903009D01*
X96017127Y-109927956D01*
X96017528Y-109952878D01*
X96017961Y-109977775D01*
X96018425Y-110002646D01*
X96018920Y-110027493D01*
X96019447Y-110052315D01*
X96020005Y-110077113D01*
X96020594Y-110101886D01*
X96021215Y-110126636D01*
X96021868Y-110151362D01*
X96022552Y-110176064D01*
X96023269Y-110200743D01*
X96024017Y-110225398D01*
X96024797Y-110250031D01*
X96025609Y-110274641D01*
X96026454Y-110299228D01*
X96027330Y-110323793D01*
X96028239Y-110348336D01*
X96029180Y-110372856D01*
X96030154Y-110397355D01*
X96031160Y-110421832D01*
X96032198Y-110446288D01*
X96033269Y-110470723D01*
X96034373Y-110495137D01*
X96035510Y-110519530D01*
X96036680Y-110543902D01*
X96037882Y-110568254D01*
X96039118Y-110592586D01*
X96040386Y-110616897D01*
X96041688Y-110641189D01*
X96043023Y-110665462D01*
X96044391Y-110689715D01*
X96045793Y-110713949D01*
X96047228Y-110738163D01*
X96048696Y-110762360D01*
X96050198Y-110786537D01*
X96051734Y-110810696D01*
X96053304Y-110834837D01*
X96054907Y-110858960D01*
X96056545Y-110883065D01*
X96058216Y-110907152D01*
X96059921Y-110931222D01*
X96061661Y-110955275D01*
X96063434Y-110979311D01*
X96065242Y-111003330D01*
X96067084Y-111027333D01*
X96068961Y-111051319D01*
X96070872Y-111075289D01*
X96072818Y-111099243D01*
X96074798Y-111123181D01*
X96076813Y-111147104D01*
X96078863Y-111171011D01*
X96080947Y-111194903D01*
X96083067Y-111218780D01*
X96085221Y-111242643D01*
X96087411Y-111266490D01*
X96089636Y-111290324D01*
X96091896Y-111314143D01*
X96094191Y-111337948D01*
X96096522Y-111361739D01*
X96098888Y-111385517D01*
X96101289Y-111409281D01*
X96103726Y-111433032D01*
X96106199Y-111456771D01*
X96108708Y-111480496D01*
X96111252Y-111504209D01*
X96113833Y-111527909D01*
X96116449Y-111551597D01*
X96119101Y-111575274D01*
X96121790Y-111598938D01*
X96124514Y-111622591D01*
X96127275Y-111646232D01*
X96130073Y-111669863D01*
X96132906Y-111693482D01*
X96135776Y-111717090D01*
X96138683Y-111740688D01*
X96141626Y-111764276D01*
X96144606Y-111787853D01*
X96147623Y-111811421D01*
X96150677Y-111834978D01*
X96153767Y-111858526D01*
X96156895Y-111882065D01*
X96160060Y-111905594D01*
X96163261Y-111929115D01*
X96166500Y-111952626D01*
X96169777Y-111976129D01*
X96173090Y-111999624D01*
X96176442Y-112023111D01*
X96179830Y-112046589D01*
X96183256Y-112070060D01*
X96186720Y-112093523D01*
X96190222Y-112116979D01*
X96193762Y-112140427D01*
X96197339Y-112163869D01*
X96200954Y-112187304D01*
X96204608Y-112210732D01*
X96208299Y-112234154D01*
X96212029Y-112257569D01*
X96215797Y-112280979D01*
X96219603Y-112304383D01*
X96223447Y-112327781D01*
X96227331Y-112351174D01*
X96231252Y-112374562D01*
X96235213Y-112397944D01*
X96239212Y-112421322D01*
X96243249Y-112444696D01*
X96247326Y-112468065D01*
X96251442Y-112491429D01*
X96255596Y-112514790D01*
X96259790Y-112538147D01*
X96264023Y-112561501D01*
X96268295Y-112584851D01*
X96272606Y-112608198D01*
X96276957Y-112631541D01*
X96281347Y-112654883D01*
X96285777Y-112678221D01*
X96290246Y-112701557D01*
X96294755Y-112724891D01*
X96299303Y-112748223D01*
X96303892Y-112771553D01*
X96308520Y-112794882D01*
X96313189Y-112818209D01*
X96317897Y-112841535D01*
X96322645Y-112864860D01*
X96327434Y-112888184D01*
X96332263Y-112911508D01*
X96337132Y-112934831D01*
X96342042Y-112958154D01*
X96346992Y-112981477D01*
X96351983Y-113004801D01*
X96357014Y-113028125D01*
X96362086Y-113051449D01*
X96367199Y-113074774D01*
X96372353Y-113098100D01*
X96377547Y-113121428D01*
X96382783Y-113144757D01*
X96388059Y-113168087D01*
X96393377Y-113191419D01*
X96398736Y-113214754D01*
X96404136Y-113238090D01*
X96409578Y-113261429D01*
X96415061Y-113284771D01*
X96420586Y-113308115D01*
X96426152Y-113331462D01*
X96431760Y-113354813D01*
X96437410Y-113378167D01*
X96443101Y-113401524D01*
X96448834Y-113424886D01*
X96454610Y-113448251D01*
X96460427Y-113471621D01*
X96466287Y-113494995D01*
X96472188Y-113518374D01*
X96478132Y-113541757D01*
X96484118Y-113565146D01*
X96490147Y-113588540D01*
X96496218Y-113611939D01*
X96502332Y-113635344D01*
X96508488Y-113658754D01*
X96514687Y-113682171D01*
X96520929Y-113705594D01*
X96527213Y-113729023D01*
X96533541Y-113752459D01*
X96539912Y-113775902D01*
X96546325Y-113799351D01*
X96552782Y-113822808D01*
X96559282Y-113846273D01*
X96565825Y-113869745D01*
X96572412Y-113893224D01*
X96579042Y-113916712D01*
X96585715Y-113940208D01*
X96592433Y-113963713D01*
X96599194Y-113987226D01*
X96605998Y-114010748D01*
X96612847Y-114034279D01*
X96619739Y-114057819D01*
X96626675Y-114081368D01*
X96633655Y-114104928D01*
X96640680Y-114128497D01*
X96647748Y-114152076D01*
X96654861Y-114175665D01*
X96662018Y-114199264D01*
X96669220Y-114222875D01*
X96676466Y-114246496D01*
X96683757Y-114270128D01*
X96691092Y-114293771D01*
X96698472Y-114317426D01*
X96705897Y-114341092D01*
X96713366Y-114364771D01*
X96720881Y-114388461D01*
X96728440Y-114412163D01*
X96736045Y-114435878D01*
X96743694Y-114459606D01*
X96751389Y-114483346D01*
X96759130Y-114507099D01*
X96766915Y-114530866D01*
X96774746Y-114554646D01*
X96782623Y-114578439D01*
X96790545Y-114602247D01*
X96798513Y-114626068D01*
X96806526Y-114649904D01*
X96814586Y-114673754D01*
X96822691Y-114697618D01*
X96830842Y-114721498D01*
X96839039Y-114745393D01*
X96847283Y-114769302D01*
X96855572Y-114793227D01*
X96863908Y-114817168D01*
X96872290Y-114841125D01*
X96880718Y-114865097D01*
X96889193Y-114889086D01*
X96897715Y-114913092D01*
X96906283Y-114937113D01*
X96914898Y-114961152D01*
X96923560Y-114985208D01*
X96932268Y-115009281D01*
X96941024Y-115033371D01*
X96949826Y-115057479D01*
X96958676Y-115081605D01*
X96967572Y-115105749D01*
X96976516Y-115129911D01*
X96985507Y-115154091D01*
X96994546Y-115178291D01*
X97003632Y-115202508D01*
X97012765Y-115226745D01*
X97021946Y-115251002D01*
X97031175Y-115275277D01*
X97040451Y-115299572D01*
X97049776Y-115323887D01*
X97059148Y-115348223D01*
X97068568Y-115372578D01*
X97078036Y-115396954D01*
X97087552Y-115421350D01*
X97097117Y-115445767D01*
X97106729Y-115470205D01*
X97116390Y-115494665D01*
X97126100Y-115519145D01*
X97135858Y-115543648D01*
X97145664Y-115568172D01*
X97155519Y-115592718D01*
X97165423Y-115617287D01*
X102500000Y-83500000D02*
X102251917Y-83545051D01*
X101964337Y-83597201D01*
X101628941Y-83657969D01*
X101319096Y-83714106D01*
X101166053Y-83741851D01*
X101014250Y-83769390D01*
X100863674Y-83796733D01*
X100714317Y-83823888D01*
X100566166Y-83850864D01*
X100419212Y-83877668D01*
X100273443Y-83904311D01*
X100128848Y-83930798D01*
X99985418Y-83957141D01*
X99843141Y-83983346D01*
X99772432Y-83996400D01*
X99702007Y-84009422D01*
X99631865Y-84022415D01*
X99562005Y-84035378D01*
X99492424Y-84048314D01*
X99423123Y-84061223D01*
X99354100Y-84074106D01*
X99285353Y-84086964D01*
X99216881Y-84099798D01*
X99148682Y-84112610D01*
X99080756Y-84125400D01*
X99013100Y-84138170D01*
X98945714Y-84150920D01*
X98878597Y-84163651D01*
X98811746Y-84176366D01*
X98745161Y-84189064D01*
X98678840Y-84201747D01*
X98612782Y-84214415D01*
X98546985Y-84227071D01*
X98481449Y-84239714D01*
X98416172Y-84252346D01*
X98351152Y-84264969D01*
X98286388Y-84277582D01*
X98221880Y-84290188D01*
X98157624Y-84302787D01*
X98093621Y-84315380D01*
X98029869Y-84327968D01*
X97966366Y-84340553D01*
X97903112Y-84353136D01*
X97840104Y-84365716D01*
X97777342Y-84378297D01*
X97714824Y-84390878D01*
X97652548Y-84403460D01*
X97590515Y-84416046D01*
X97528721Y-84428635D01*
X97467166Y-84441229D01*
X97405848Y-84453829D01*
X97344767Y-84466436D01*
X97283921Y-84479051D01*
X97223307Y-84491675D01*
X97162926Y-84504309D01*
X97102776Y-84516954D01*
X97042855Y-84529612D01*
X96983162Y-84542282D01*
X96923696Y-84554968D01*
X96864455Y-84567668D01*
X96805439Y-84580386D01*
X96746645Y-84593120D01*
X96688072Y-84605874D01*
X96629720Y-84618647D01*
X96571586Y-84631440D01*
X96513670Y-84644256D01*
X96455969Y-84657094D01*
X96398484Y-84669956D01*
X96341211Y-84682844D01*
X96284151Y-84695757D01*
X96227301Y-84708697D01*
X96170661Y-84721665D01*
X96114228Y-84734663D01*
X96058003Y-84747691D01*
X96001982Y-84760750D01*
X95946166Y-84773841D01*
X95890552Y-84786966D01*
X95862821Y-84793541D01*
X95835139Y-84800125D01*
X95807508Y-84806718D01*
X95779927Y-84813320D01*
X95752395Y-84819931D01*
X95724913Y-84826552D01*
X95697480Y-84833182D01*
X95670096Y-84839821D01*
X95642761Y-84846470D01*
X95615476Y-84853129D01*
X95588238Y-84859797D01*
X95561049Y-84866476D01*
X95533909Y-84873165D01*
X95506817Y-84879865D01*
X95479772Y-84886574D01*
X95452776Y-84893295D01*
X95425827Y-84900026D01*
X95398925Y-84906768D01*
X95372071Y-84913521D01*
X95345264Y-84920285D01*
X95318504Y-84927061D01*
X95291791Y-84933847D01*
X95265124Y-84940646D01*
X95238504Y-84947456D01*
X95211930Y-84954278D01*
X95185403Y-84961111D01*
X95158921Y-84967957D01*
X95132485Y-84974815D01*
X95106095Y-84981685D01*
X95079750Y-84988568D01*
X95053451Y-84995463D01*
X95027196Y-85002371D01*
X95000987Y-85009292D01*
X94974822Y-85016226D01*
X94948702Y-85023173D01*
X94922627Y-85030133D01*
X94896596Y-85037107D01*
X94870609Y-85044094D01*
X94844666Y-85051095D01*
X94818766Y-85058109D01*
X94792911Y-85065138D01*
X94767098Y-85072180D01*
X94741330Y-85079237D01*
X94715604Y-85086308D01*
X94689921Y-85093393D01*
X94664281Y-85100493D01*
X94638683Y-85107608D01*
X94613129Y-85114737D01*
X94587616Y-85121882D01*
X94562145Y-85129042D01*
X94536717Y-85136216D01*
X94511330Y-85143406D01*
X94485985Y-85150612D01*
X94460681Y-85157833D01*
X94435419Y-85165070D01*
X94410197Y-85172323D01*
X94385017Y-85179592D01*
X94359877Y-85186877D01*
X94334778Y-85194179D01*
X94309720Y-85201497D01*
X94284701Y-85208831D01*
X94259723Y-85216182D01*
X94234785Y-85223550D01*
X94209887Y-85230935D01*
X94185028Y-85238337D01*
X94160209Y-85245756D01*
X94135428Y-85253192D01*
X94110687Y-85260646D01*
X94085985Y-85268118D01*
X94061322Y-85275607D01*
X94036697Y-85283114D01*
X94012111Y-85290639D01*
X93987563Y-85298183D01*
X93963053Y-85305744D01*
X93938582Y-85313324D01*
X93914147Y-85320923D01*
X93889751Y-85328540D01*
X93865392Y-85336176D01*
X93841070Y-85343831D01*
X93816785Y-85351505D01*
X93792537Y-85359198D01*
X93768326Y-85366911D01*
X93744152Y-85374643D01*
X93720014Y-85382394D01*
X93695912Y-85390166D01*
X93671846Y-85397957D01*
X93647817Y-85405768D01*
X93623823Y-85413599D01*
X93599864Y-85421451D01*
X93575941Y-85429323D01*
X93552054Y-85437215D01*
X93528201Y-85445128D01*
X93504384Y-85453062D01*
X93480601Y-85461017D01*
X93456852Y-85468993D01*
X93433138Y-85476990D01*
X93409459Y-85485008D01*
X93385813Y-85493048D01*
X93362201Y-85501109D01*
X93338624Y-85509192D01*
X93315079Y-85517297D01*
X93291568Y-85525424D01*
X93268091Y-85533573D01*
X93244646Y-85541744D01*
X93221235Y-85549938D01*
X93197856Y-85558154D01*
X93174509Y-85566393D01*
X93151195Y-85574654D01*
X93127914Y-85582939D01*
X93104664Y-85591246D01*
X93081446Y-85599577D01*
X93058261Y-85607931D01*
X93035106Y-85616308D01*
X93011983Y-85624709D01*
X92988892Y-85633133D01*
X92965831Y-85641582D01*
X92942801Y-85650054D01*
X92919802Y-85658551D01*
X92896834Y-85667071D01*
X92873896Y-85675616D01*
X92850988Y-85684186D01*
X92828110Y-85692780D01*
X92805263Y-85701399D01*
X92782444Y-85710043D01*
X92759656Y-85718711D01*
X92736897Y-85727405D01*
X92714167Y-85736125D01*
X92691466Y-85744869D01*
X92668794Y-85753639D01*
X92646151Y-85762435D01*
X92623537Y-85771257D01*
X92600950Y-85780105D01*
X92578392Y-85788978D01*
X92555862Y-85797878D01*
X92533360Y-85806804D01*
X92510886Y-85815757D01*
X92488439Y-85824736D01*
X92466020Y-85833742D01*
X92443628Y-85842775D01*
X92421263Y-85851835D01*
X92398925Y-85860922D01*
X92376613Y-85870037D01*
X92354328Y-85879178D01*
X92332070Y-85888347D01*
X92309837Y-85897544D01*
X92287631Y-85906769D01*
X92265451Y-85916022D01*
X92243296Y-85925302D01*
X92221167Y-85934611D01*
X92199063Y-85943948D01*
X92176985Y-85953314D01*
X92154931Y-85962708D01*
X92132903Y-85972131D01*
X92110899Y-85981583D01*
X92088920Y-85991064D01*
X92066965Y-86000574D01*
X92045034Y-86010113D01*
X92023127Y-86019681D01*
X92001244Y-86029279D01*
X91979385Y-86038907D01*
X91957550Y-86048564D01*
X91935738Y-86058252D01*
X91913949Y-86067969D01*
X91892183Y-86077717D01*
X91870440Y-86087495D01*
X91848719Y-86097303D01*
X91827021Y-86107142D01*
X91805346Y-86117011D01*
X91783693Y-86126912D01*
X91762061Y-86136843D01*
X91740452Y-86146806D01*
X91718864Y-86156799D01*
X91697298Y-86166824D01*
X91675754Y-86176881D01*
X91654230Y-86186969D01*
X91632728Y-86197089D01*
X91611246Y-86207241D01*
X91589785Y-86217425D01*
X91568344Y-86227641D01*
X91546924Y-86237889D01*
X91525524Y-86248170D01*
X91504145Y-86258483D01*
X91482785Y-86268829D01*
X91461444Y-86279208D01*
X91440124Y-86289620D01*
X91418822Y-86300065D01*
X91397540Y-86310543D01*
X91376277Y-86321054D01*
X91355032Y-86331599D01*
X91333807Y-86342178D01*
X91312599Y-86352790D01*
X91291411Y-86363436D01*
X91270240Y-86374116D01*
X91249087Y-86384830D01*
X91227953Y-86395579D01*
X91206836Y-86406362D01*
X91185736Y-86417179D01*
X91164654Y-86428032D01*
X91143589Y-86438918D01*
X91122541Y-86449840D01*
X91101510Y-86460797D01*
X91080495Y-86471789D01*
X91059497Y-86482817D01*
X91038516Y-86493880D01*
X91017550Y-86504978D01*
X90996601Y-86516113D01*
X90975667Y-86527283D01*
X90954749Y-86538489D01*
X90933847Y-86549731D01*
X90912960Y-86561010D01*
X90892088Y-86572325D01*
X90871231Y-86583676D01*
X90850389Y-86595064D01*
X90829561Y-86606489D01*
X90808748Y-86617951D01*
X90787950Y-86629450D01*
X90767166Y-86640986D01*
X90746395Y-86652559D01*
X90725639Y-86664170D01*
X90704896Y-86675818D01*
X90684166Y-86687504D01*
X90663450Y-86699228D01*
X90642747Y-86710990D01*
X90622057Y-86722790D01*
X90601380Y-86734628D01*
X90580716Y-86746505D01*
X90560064Y-86758420D01*
X90539424Y-86770373D01*
X90518797Y-86782366D01*
X90498181Y-86794397D01*
X90477578Y-86806468D01*
X90456986Y-86818577D01*
X90436405Y-86830726D01*
X90415836Y-86842915D01*
X90395278Y-86855143D01*
X90374731Y-86867410D01*
X90354195Y-86879718D01*
X90333669Y-86892065D01*
X90313154Y-86904452D01*
X90292650Y-86916880D01*
X90272155Y-86929348D01*
X90251670Y-86941857D01*
X90231196Y-86954406D01*
X90210730Y-86966996D01*
X90190275Y-86979627D01*
X90169828Y-86992298D01*
X90149391Y-87005011D01*
X90128963Y-87017766D01*
X90108544Y-87030561D01*
X90088133Y-87043398D01*
X90067731Y-87056277D01*
X90047337Y-87069198D01*
X90026951Y-87082161D01*
X90006573Y-87095165D01*
X89986203Y-87108212D01*
X89965840Y-87121302D01*
X89945485Y-87134433D01*
X89925138Y-87147608D01*
X89904797Y-87160825D01*
X89884464Y-87174085D01*
X89864137Y-87187388D01*
X89843817Y-87200734D01*
X89823503Y-87214123D01*
X89803196Y-87227556D01*
X89782895Y-87241032D01*
X89762599Y-87254552D01*
X89742310Y-87268116D01*
X89722026Y-87281723D01*
X89701748Y-87295375D01*
X89681475Y-87309071D01*
X89661207Y-87322811D01*
X89640944Y-87336596D01*
X89620686Y-87350425D01*
X89600432Y-87364299D01*
X89580183Y-87378218D01*
X89559938Y-87392182D01*
X89539698Y-87406191D01*
X89519461Y-87420245D01*
X89499228Y-87434345D01*
X89478999Y-87448490D01*
X89458773Y-87462680D01*
X89438550Y-87476917D01*
X89418331Y-87491199D01*
X89398114Y-87505528D01*
X89377901Y-87519902D01*
X89357690Y-87534323D01*
X89337481Y-87548791D01*
X89317275Y-87563305D01*
X89297070Y-87577865D01*
X89276868Y-87592473D01*
X89256668Y-87607127D01*
X89236469Y-87621829D01*
X89216271Y-87636578D01*
X89196075Y-87651374D01*
X89175880Y-87666218D01*
X89155686Y-87681109D01*
X89135493Y-87696048D01*
X89115300Y-87711035D01*
X89095108Y-87726070D01*
X89074916Y-87741153D01*
X89054724Y-87756284D01*
X89034532Y-87771464D01*
X89014340Y-87786693D01*
X88994147Y-87801970D01*
X88973954Y-87817296D01*
X88953760Y-87832671D01*
X88933565Y-87848094D01*
X88913369Y-87863568D01*
X88893172Y-87879090D01*
X88872974Y-87894662D01*
X88852774Y-87910284D01*
X88832572Y-87925955D01*
X88812368Y-87941676D01*
X88792163Y-87957448D01*
X88771955Y-87973269D01*
X88751744Y-87989141D01*
X88731531Y-88005063D01*
X88711316Y-88021035D01*
X88691097Y-88037058D01*
X88670875Y-88053133D01*
X88650651Y-88069258D01*
X88630422Y-88085434D01*
X88610190Y-88101661D01*
X88589955Y-88117940D01*
X88569715Y-88134270D01*
X88549472Y-88150651D01*
X88529224Y-88167085D01*
X88508971Y-88183570D01*
X88488714Y-88200107D01*
X88468453Y-88216697D01*
X88448186Y-88233338D01*
X88427915Y-88250032D01*
X88407638Y-88266779D01*
X88387356Y-88283578D01*
X88367068Y-88300430D01*
X88346774Y-88317335D01*
X88326475Y-88334293D01*
X88306169Y-88351304D01*
X102500000Y-83500000D02*
X102619509Y-83277979D01*
X102757975Y-83020588D01*
X102919405Y-82720397D01*
X103068542Y-82443063D01*
X103142222Y-82306084D01*
X103215323Y-82170221D01*
X103287858Y-82035465D01*
X103359839Y-81901808D01*
X103431275Y-81769244D01*
X103502179Y-81637765D01*
X103572563Y-81507363D01*
X103642436Y-81378031D01*
X103711812Y-81249761D01*
X103780700Y-81122545D01*
X103814965Y-81059331D01*
X103849113Y-80996377D01*
X103883145Y-80933683D01*
X103917062Y-80871247D01*
X103950866Y-80809070D01*
X103984558Y-80747150D01*
X104018140Y-80685486D01*
X104051613Y-80624076D01*
X104084978Y-80562921D01*
X104118237Y-80502020D01*
X104151392Y-80441370D01*
X104184443Y-80380972D01*
X104217393Y-80320824D01*
X104250242Y-80260926D01*
X104282992Y-80201276D01*
X104315645Y-80141874D01*
X104348201Y-80082718D01*
X104380662Y-80023808D01*
X104413031Y-79965142D01*
X104445307Y-79906721D01*
X104477493Y-79848542D01*
X104509590Y-79790605D01*
X104541599Y-79732909D01*
X104573522Y-79675452D01*
X104605360Y-79618235D01*
X104637115Y-79561256D01*
X104668788Y-79504514D01*
X104700380Y-79448008D01*
X104731894Y-79391738D01*
X104763329Y-79335702D01*
X104794688Y-79279899D01*
X104825973Y-79224328D01*
X104857184Y-79168989D01*
X104888323Y-79113880D01*
X104919391Y-79059001D01*
X104950390Y-79004351D01*
X104981322Y-78949928D01*
X105012187Y-78895732D01*
X105042987Y-78841761D01*
X105073723Y-78788016D01*
X105104398Y-78734494D01*
X105135012Y-78681195D01*
X105165567Y-78628119D01*
X105196063Y-78575263D01*
X105226504Y-78522627D01*
X105256889Y-78470211D01*
X105287221Y-78418012D01*
X105317501Y-78366031D01*
X105347730Y-78314266D01*
X105377910Y-78262717D01*
X105408042Y-78211382D01*
X105438127Y-78160260D01*
X105468168Y-78109351D01*
X105498164Y-78058653D01*
X105528119Y-78008166D01*
X105558033Y-77957889D01*
X105587907Y-77907821D01*
X105617744Y-77857960D01*
X105647544Y-77808306D01*
X105677309Y-77758858D01*
X105707040Y-77709615D01*
X105736739Y-77660575D01*
X105766407Y-77611739D01*
X105781230Y-77587397D01*
X105796046Y-77563105D01*
X105810854Y-77538864D01*
X105825656Y-77514672D01*
X105840452Y-77490531D01*
X105855240Y-77466440D01*
X105870023Y-77442398D01*
X105884799Y-77418406D01*
X105899570Y-77394464D01*
X105914335Y-77370571D01*
X105929094Y-77346728D01*
X105943847Y-77322934D01*
X105958596Y-77299188D01*
X105973339Y-77275492D01*
X105988078Y-77251845D01*
X106002812Y-77228246D01*
X106017541Y-77204696D01*
X106032266Y-77181195D01*
X106046987Y-77157742D01*
X106061704Y-77134337D01*
X106076417Y-77110981D01*
X106091127Y-77087672D01*
X106105833Y-77064411D01*
X106120536Y-77041199D01*
X106135235Y-77018033D01*
X106149932Y-76994916D01*
X106164626Y-76971846D01*
X106179318Y-76948823D01*
X106194007Y-76925847D01*
X106208694Y-76902919D01*
X106223378Y-76880037D01*
X106238061Y-76857203D01*
X106252743Y-76834415D01*
X106267422Y-76811673D01*
X106282101Y-76788979D01*
X106296778Y-76766330D01*
X106311455Y-76743728D01*
X106326130Y-76721172D01*
X106340805Y-76698662D01*
X106355480Y-76676198D01*
X106370154Y-76653780D01*
X106384828Y-76631407D01*
X106399503Y-76609080D01*
X106414177Y-76586798D01*
X106428852Y-76564562D01*
X106443528Y-76542371D01*
X106458204Y-76520225D01*
X106472882Y-76498124D01*
X106487561Y-76476067D01*
X106502241Y-76454056D01*
X106516922Y-76432089D01*
X106531605Y-76410167D01*
X106546290Y-76388288D01*
X106560978Y-76366455D01*
X106575667Y-76344665D01*
X106590359Y-76322919D01*
X106605053Y-76301218D01*
X106619750Y-76279560D01*
X106634450Y-76257945D01*
X106649153Y-76236375D01*
X106663860Y-76214847D01*
X106678570Y-76193363D01*
X106693283Y-76171922D01*
X106708001Y-76150525D01*
X106722722Y-76129170D01*
X106737448Y-76107858D01*
X106752178Y-76086588D01*
X106766912Y-76065362D01*
X106781652Y-76044178D01*
X106796396Y-76023036D01*
X106811145Y-76001936D01*
X106825899Y-75980879D01*
X106840659Y-75959863D01*
X106855425Y-75938889D01*
X106870196Y-75917958D01*
X106884973Y-75897067D01*
X106899756Y-75876219D01*
X106914546Y-75855412D01*
X106929342Y-75834646D01*
X106944145Y-75813921D01*
X106958955Y-75793237D01*
X106973771Y-75772594D01*
X106988595Y-75751992D01*
X107003427Y-75731431D01*
X107018265Y-75710910D01*
X107033112Y-75690430D01*
X107047966Y-75669990D01*
X107062829Y-75649591D01*
X107077700Y-75629231D01*
X107092579Y-75608912D01*
X107107467Y-75588632D01*
X107122363Y-75568392D01*
X107137269Y-75548192D01*
X107152184Y-75528031D01*
X107167108Y-75507910D01*
X107182042Y-75487828D01*
X107196985Y-75467785D01*
X107211938Y-75447781D01*
X107226901Y-75427816D01*
X107241875Y-75407890D01*
X107256859Y-75388002D01*
X107271853Y-75368154D01*
X107286858Y-75348343D01*
X107301874Y-75328571D01*
X107316901Y-75308837D01*
X107331940Y-75289142D01*
X107346990Y-75269484D01*
X107362051Y-75249864D01*
X107377125Y-75230282D01*
X107392210Y-75210737D01*
X107407308Y-75191230D01*
X107422417Y-75171760D01*
X107437540Y-75152328D01*
X107452675Y-75132933D01*
X107467823Y-75113575D01*
X107482984Y-75094253D01*
X107498158Y-75074969D01*
X107513346Y-75055721D01*
X107528547Y-75036510D01*
X107543762Y-75017335D01*
X107558991Y-74998197D01*
X107574235Y-74979094D01*
X107589492Y-74960028D01*
X107604764Y-74940998D01*
X107620050Y-74922004D01*
X107635352Y-74903045D01*
X107650668Y-74884122D01*
X107666000Y-74865235D01*
X107681347Y-74846382D01*
X107696709Y-74827566D01*
X107712087Y-74808784D01*
X107727482Y-74790037D01*
X107742892Y-74771325D01*
X107758318Y-74752648D01*
X107773761Y-74734006D01*
X107789221Y-74715398D01*
X107804697Y-74696825D01*
X107820190Y-74678286D01*
X107835700Y-74659781D01*
X107851228Y-74641310D01*
X107866773Y-74622873D01*
X107882336Y-74604470D01*
X107897917Y-74586101D01*
X107913515Y-74567765D01*
X107929132Y-74549463D01*
X107944768Y-74531194D01*
X107960422Y-74512959D01*
X107976094Y-74494756D01*
X107991786Y-74476587D01*
X108007496Y-74458450D01*
X108023226Y-74440346D01*
X108038976Y-74422275D01*
X108054744Y-74404237D01*
X108070533Y-74386230D01*
X108086342Y-74368257D01*
X108102171Y-74350315D01*
X108118020Y-74332405D01*
X108133890Y-74314528D01*
X108149780Y-74296682D01*
X108165692Y-74278868D01*
X108181624Y-74261085D01*
X108197578Y-74243334D01*
X108213552Y-74225614D01*
X108229549Y-74207926D01*
X108245567Y-74190268D01*
X108261608Y-74172642D01*
X108277670Y-74155047D01*
X108293755Y-74137482D01*
X108309862Y-74119948D01*
X108325991Y-74102444D01*
X108342144Y-74084971D01*
X108358319Y-74067528D01*
X108374518Y-74050116D01*
X108390740Y-74032733D01*
X108406986Y-74015380D01*
X108423255Y-73998057D01*
X108439548Y-73980764D01*
X108455866Y-73963501D01*
X108472207Y-73946266D01*
X108488573Y-73929062D01*
X108504964Y-73911886D01*
X108521379Y-73894740D01*
X108537819Y-73877622D01*
X108554284Y-73860533D01*
X108570775Y-73843474D01*
X108587291Y-73826442D01*
X108603833Y-73809440D01*
X108620401Y-73792465D01*
X108636994Y-73775519D01*
X108653614Y-73758601D01*
X108670260Y-73741712D01*
X108686933Y-73724850D01*
X108703633Y-73708016D01*
X108720359Y-73691209D01*
X108737113Y-73674430D01*
X108753893Y-73657679D01*
X108770701Y-73640955D01*
X108787537Y-73624258D01*
X108804401Y-73607588D01*
X108821292Y-73590945D01*
X108838212Y-73574329D01*
X108855160Y-73557740D01*
X108872137Y-73541177D01*
X108889142Y-73524641D01*
X108906176Y-73508132D01*
X108923239Y-73491648D01*
X108940331Y-73475191D01*
X108957453Y-73458760D01*
X108974604Y-73442354D01*
X108991785Y-73425975D01*
X109008996Y-73409621D01*
X109026237Y-73393293D01*
X109043508Y-73376990D01*
X109060810Y-73360712D01*
X109078142Y-73344460D01*
X109095505Y-73328232D01*
X109112899Y-73312030D01*
X109130325Y-73295853D01*
X109147781Y-73279700D01*
X109165269Y-73263572D01*
X109182789Y-73247468D01*
X109200341Y-73231389D01*
X109217925Y-73215334D01*
X109235541Y-73199303D01*
X109253189Y-73183296D01*
X109270870Y-73167313D01*
X109288584Y-73151354D01*
X109306331Y-73135418D01*
X109324110Y-73119506D01*
X109341923Y-73103618D01*
X109359770Y-73087753D01*
X109377650Y-73071911D01*
X109395564Y-73056092D01*
X109413512Y-73040296D01*
X109431494Y-73024522D01*
X109449511Y-73008772D01*
X109467562Y-72993044D01*
X109485648Y-72977339D01*
X109503769Y-72961655D01*
X109521924Y-72945995D01*
X109540115Y-72930356D01*
X109558342Y-72914739D01*
X109576604Y-72899145D01*
X109594902Y-72883571D01*
X109613235Y-72868020D01*
X109631605Y-72852490D01*
X109650012Y-72836982D01*
X109668454Y-72821495D01*
X109686934Y-72806029D01*
X109705450Y-72790584D01*
X109724003Y-72775160D01*
X109742593Y-72759757D01*
X109761221Y-72744374D01*
X109779887Y-72729013D01*
X109798590Y-72713671D01*
X109817331Y-72698350D01*
X109836110Y-72683049D01*
X109854927Y-72667769D01*
X109873783Y-72652508D01*
X109892677Y-72637267D01*
X109911610Y-72622046D01*
X109930582Y-72606845D01*
X109949594Y-72591663D01*
X109968644Y-72576500D01*
X109987734Y-72561357D01*
X110006864Y-72546233D01*
X110026034Y-72531128D01*
X110045244Y-72516042D01*
X110064494Y-72500975D01*
X110083784Y-72485926D01*
X110103115Y-72470896D01*
X110122486Y-72455885D01*
X110141899Y-72440892D01*
X110161353Y-72425917D01*
X110180847Y-72410960D01*
X110200384Y-72396021D01*
X110219962Y-72381100D01*
X110239582Y-72366197D01*
X110259244Y-72351311D01*
X110278948Y-72336443D01*
X110298694Y-72321592D01*
X110318483Y-72306759D01*
X110338314Y-72291942D01*
X110358189Y-72277143D01*
X110378106Y-72262361D01*
X110398067Y-72247595D01*
X110418071Y-72232846D01*
X110438119Y-72218114D01*
X110458210Y-72203398D01*
X110478346Y-72188698D01*
X110498525Y-72174015D01*
X110518749Y-72159348D01*
X110539017Y-72144697D01*
X110559330Y-72130061D01*
X110579688Y-72115441D01*
X110600091Y-72100837D01*
X110620539Y-72086249D01*
X110641032Y-72071676D01*
X110661571Y-72057118D01*
X110682156Y-72042575D01*
X110702786Y-72028047D01*
X110723463Y-72013534D01*
X110744185Y-71999036D01*
X110764955Y-71984553D01*
X110785771Y-71970084D01*
X110806633Y-71955629D01*
X110827543Y-71941189D01*
X110848499Y-71926763D01*
X110869504Y-71912351D01*
X110890555Y-71897954D01*
X110911654Y-71883570D01*
X110932801Y-71869199D01*
X110953996Y-71854843D01*
X110975240Y-71840499D01*
X110996531Y-71826169D01*
X111017871Y-71811853D01*
X111039260Y-71797549D01*
X111060698Y-71783259D01*
X111082185Y-71768981D01*
X111103721Y-71754717D01*
X111125307Y-71740464D01*
X111146942Y-71726225D01*
X111168627Y-71711998D01*
X111190362Y-71697783D01*
X111212148Y-71683580D01*
X111233983Y-71669389D01*
X111255869Y-71655211D01*
X111277806Y-71641044D01*
X111299794Y-71626889D01*
X111321832Y-71612745D01*
X111343922Y-71598613D01*
X111366063Y-71584492D01*
X111388256Y-71570383D01*
X111410501Y-71556285D01*
X111432797Y-71542197D01*
X111455146Y-71528121D01*
X111477547Y-71514055D01*
X111500000Y-71500000D01*
X111499998Y-111199150D02*
X111272813Y-111308523D01*
X111009501Y-111435369D01*
X110702451Y-111583343D01*
X110418784Y-111720049D01*
X110278663Y-111787560D01*
X110139663Y-111854508D01*
X110001774Y-111920893D01*
X109864979Y-111986714D01*
X109729267Y-112051971D01*
X109594623Y-112116664D01*
X109461033Y-112180791D01*
X109328485Y-112244352D01*
X109196963Y-112307347D01*
X109066456Y-112369775D01*
X109001578Y-112400776D01*
X108936949Y-112431635D01*
X108872566Y-112462353D01*
X108808428Y-112492928D01*
X108744533Y-112523361D01*
X108680879Y-112553652D01*
X108617466Y-112583800D01*
X108554290Y-112613806D01*
X108491351Y-112643670D01*
X108428647Y-112673391D01*
X108366175Y-112702970D01*
X108303935Y-112732406D01*
X108241924Y-112761699D01*
X108180141Y-112790850D01*
X108118585Y-112819858D01*
X108057253Y-112848723D01*
X107996143Y-112877444D01*
X107935255Y-112906023D01*
X107874585Y-112934459D01*
X107814134Y-112962752D01*
X107753898Y-112990901D01*
X107693877Y-113018907D01*
X107634068Y-113046769D01*
X107574470Y-113074489D01*
X107515081Y-113102064D01*
X107455899Y-113129496D01*
X107396923Y-113156785D01*
X107338151Y-113183929D01*
X107279581Y-113210930D01*
X107221212Y-113237787D01*
X107163042Y-113264500D01*
X107105069Y-113291069D01*
X107047291Y-113317494D01*
X106989707Y-113343775D01*
X106932315Y-113369911D01*
X106875113Y-113395904D01*
X106818100Y-113421752D01*
X106761274Y-113447455D01*
X106704634Y-113473014D01*
X106648176Y-113498429D01*
X106591901Y-113523699D01*
X106535805Y-113548824D01*
X106479888Y-113573804D01*
X106424148Y-113598640D01*
X106368583Y-113623331D01*
X106313191Y-113647876D01*
X106257970Y-113672277D01*
X106202920Y-113696533D01*
X106148037Y-113720643D01*
X106093321Y-113744608D01*
X106038770Y-113768428D01*
X105984382Y-113792103D01*
X105930155Y-113815632D01*
X105876088Y-113839015D01*
X105822179Y-113862253D01*
X105768426Y-113885345D01*
X105714827Y-113908292D01*
X105661382Y-113931093D01*
X105608087Y-113953748D01*
X105554942Y-113976257D01*
X105501944Y-113998620D01*
X105449093Y-114020837D01*
X105396386Y-114042907D01*
X105370086Y-114053888D01*
X105343821Y-114064832D01*
X105317592Y-114075739D01*
X105291398Y-114086610D01*
X105265238Y-114097444D01*
X105239113Y-114108242D01*
X105213022Y-114119003D01*
X105186966Y-114129728D01*
X105160944Y-114140415D01*
X105134955Y-114151067D01*
X105109000Y-114161681D01*
X105083078Y-114172259D01*
X105057189Y-114182800D01*
X105031333Y-114193305D01*
X105005509Y-114203773D01*
X104979719Y-114214204D01*
X104953960Y-114224599D01*
X104928233Y-114234957D01*
X104902539Y-114245278D01*
X104876875Y-114255562D01*
X104851244Y-114265810D01*
X104825643Y-114276021D01*
X104800073Y-114286195D01*
X104774534Y-114296333D01*
X104749026Y-114306433D01*
X104723548Y-114316497D01*
X104698100Y-114326525D01*
X104672682Y-114336515D01*
X104647293Y-114346469D01*
X104621934Y-114356386D01*
X104596605Y-114366266D01*
X104571304Y-114376109D01*
X104546032Y-114385915D01*
X104520789Y-114395685D01*
X104495574Y-114405417D01*
X104470387Y-114415113D01*
X104445229Y-114424772D01*
X104420098Y-114434394D01*
X104394994Y-114443980D01*
X104369918Y-114453528D01*
X104344870Y-114463039D01*
X104319848Y-114472514D01*
X104294852Y-114481952D01*
X104269883Y-114491352D01*
X104244941Y-114500716D01*
X104220024Y-114510043D01*
X104195134Y-114519333D01*
X104170269Y-114528586D01*
X104145429Y-114537802D01*
X104120615Y-114546981D01*
X104095825Y-114556123D01*
X104071061Y-114565228D01*
X104046321Y-114574296D01*
X104021605Y-114583327D01*
X103996913Y-114592321D01*
X103972246Y-114601278D01*
X103947602Y-114610198D01*
X103922981Y-114619081D01*
X103898384Y-114627927D01*
X103873810Y-114636735D01*
X103849259Y-114645507D01*
X103824730Y-114654242D01*
X103800224Y-114662939D01*
X103775740Y-114671600D01*
X103751278Y-114680223D01*
X103726838Y-114688809D01*
X103702419Y-114697359D01*
X103678022Y-114705871D01*
X103653646Y-114714346D01*
X103629291Y-114722783D01*
X103604957Y-114731184D01*
X103580643Y-114739547D01*
X103556349Y-114747874D01*
X103532076Y-114756163D01*
X103507822Y-114764415D01*
X103483588Y-114772629D01*
X103459374Y-114780807D01*
X103435178Y-114788947D01*
X103411002Y-114797050D01*
X103386845Y-114805116D01*
X103362706Y-114813144D01*
X103338585Y-114821136D01*
X103314483Y-114829090D01*
X103290399Y-114837007D01*
X103266332Y-114844886D01*
X103242283Y-114852728D01*
X103218251Y-114860533D01*
X103194237Y-114868301D01*
X103170239Y-114876031D01*
X103146258Y-114883725D01*
X103122293Y-114891380D01*
X103098345Y-114898999D01*
X103074413Y-114906580D01*
X103050496Y-114914123D01*
X103026595Y-114921630D01*
X103002710Y-114929099D01*
X102978839Y-114936530D01*
X102954984Y-114943924D01*
X102931143Y-114951281D01*
X102907317Y-114958601D01*
X102883506Y-114965883D01*
X102859708Y-114973127D01*
X102835924Y-114980334D01*
X102812154Y-114987504D01*
X102788398Y-114994636D01*
X102764655Y-115001731D01*
X102740924Y-115008788D01*
X102717207Y-115015808D01*
X102693502Y-115022791D01*
X102669810Y-115029736D01*
X102646130Y-115036643D01*
X102622462Y-115043513D01*
X102598806Y-115050345D01*
X102575161Y-115057140D01*
X102551527Y-115063898D01*
X102527905Y-115070617D01*
X102504294Y-115077300D01*
X102480693Y-115083944D01*
X102457103Y-115090551D01*
X102433523Y-115097121D01*
X102409953Y-115103653D01*
X102386393Y-115110147D01*
X102362843Y-115116604D01*
X102339302Y-115123023D01*
X102315770Y-115129405D01*
X102292248Y-115135749D01*
X102268734Y-115142055D01*
X102245228Y-115148324D01*
X102221731Y-115154555D01*
X102198243Y-115160748D01*
X102174762Y-115166904D01*
X102151289Y-115173022D01*
X102127823Y-115179102D01*
X102104365Y-115185144D01*
X102080913Y-115191149D01*
X102057469Y-115197116D01*
X102034031Y-115203046D01*
X102010600Y-115208938D01*
X101987175Y-115214792D01*
X101963756Y-115220608D01*
X101940343Y-115226386D01*
X101916935Y-115232127D01*
X101893533Y-115237830D01*
X101870136Y-115243495D01*
X101846744Y-115249123D01*
X101823356Y-115254712D01*
X101799974Y-115260264D01*
X101776595Y-115265778D01*
X101753221Y-115271254D01*
X101729850Y-115276692D01*
X101706483Y-115282093D01*
X101683120Y-115287456D01*
X101659760Y-115292780D01*
X101636402Y-115298067D01*
X101613048Y-115303316D01*
X101589696Y-115308527D01*
X101566347Y-115313701D01*
X101543000Y-115318836D01*
X101519655Y-115323933D01*
X101496311Y-115328993D01*
X101472970Y-115334014D01*
X101449629Y-115338998D01*
X101426290Y-115343944D01*
X101402951Y-115348852D01*
X101379613Y-115353721D01*
X101356276Y-115358553D01*
X101332939Y-115363347D01*
X101309602Y-115368103D01*
X101286265Y-115372821D01*
X101262927Y-115377501D01*
X101239589Y-115382142D01*
X101216250Y-115386746D01*
X101192910Y-115391312D01*
X101169569Y-115395840D01*
X101146226Y-115400329D01*
X101122882Y-115404781D01*
X101099536Y-115409195D01*
X101076188Y-115413570D01*
X101052837Y-115417908D01*
X101029484Y-115422207D01*
X101006128Y-115426468D01*
X100982770Y-115430691D01*
X100959408Y-115434876D01*
X100936043Y-115439023D01*
X100912674Y-115443132D01*
X100889301Y-115447203D01*
X100865925Y-115451235D01*
X100842544Y-115455229D01*
X100819159Y-115459185D01*
X100795769Y-115463103D01*
X100772374Y-115466983D01*
X100748975Y-115470825D01*
X100725570Y-115474628D01*
X100702159Y-115478393D01*
X100678743Y-115482120D01*
X100655321Y-115485809D01*
X100631893Y-115489459D01*
X100608458Y-115493072D01*
X100585017Y-115496646D01*
X100561569Y-115500181D01*
X100538114Y-115503679D01*
X100514652Y-115507138D01*
X100491182Y-115510559D01*
X100467705Y-115513941D01*
X100444220Y-115517286D01*
X100420727Y-115520592D01*
X100397226Y-115523859D01*
X100373716Y-115527089D01*
X100350198Y-115530280D01*
X100326670Y-115533432D01*
X100303134Y-115536546D01*
X100279588Y-115539622D01*
X100256033Y-115542660D01*
X100232468Y-115545659D01*
X100208893Y-115548620D01*
X100185307Y-115551542D01*
X100161712Y-115554426D01*
X100138105Y-115557272D01*
X100114488Y-115560079D01*
X100090860Y-115562847D01*
X100067221Y-115565578D01*
X100043570Y-115568269D01*
X100019908Y-115570923D01*
X99996233Y-115573538D01*
X99972547Y-115576114D01*
X99948848Y-115578652D01*
X99925137Y-115581151D01*
X99901413Y-115583612D01*
X99877676Y-115586034D01*
X99853926Y-115588418D01*
X99830162Y-115590764D01*
X99806385Y-115593070D01*
X99782594Y-115595339D01*
X99758789Y-115597568D01*
X99734970Y-115599759D01*
X99711137Y-115601912D01*
X99687288Y-115604026D01*
X99663425Y-115606101D01*
X99639547Y-115608138D01*
X99615653Y-115610136D01*
X99591744Y-115612096D01*
X99567820Y-115614017D01*
X99543879Y-115615899D01*
X99519922Y-115617743D01*
X99495949Y-115619548D01*
X99471959Y-115621314D01*
X99447953Y-115623042D01*
X99423929Y-115624731D01*
X99399888Y-115626381D01*
X99375830Y-115627993D01*
X99351754Y-115629566D01*
X99327661Y-115631100D01*
X99303549Y-115632595D01*
X99279419Y-115634052D01*
X99255270Y-115635470D01*
X99231103Y-115636849D01*
X99206917Y-115638190D01*
X99182712Y-115639492D01*
X99158487Y-115640755D01*
X99134243Y-115641979D01*
X99109979Y-115643164D01*
X99085695Y-115644311D01*
X99061391Y-115645419D01*
X99037066Y-115646488D01*
X99012721Y-115647518D01*
X98988355Y-115648510D01*
X98963968Y-115649462D01*
X98939560Y-115650376D01*
X98915130Y-115651251D01*
X98890678Y-115652087D01*
X98866205Y-115652884D01*
X98841709Y-115653642D01*
X98817192Y-115654361D01*
X98792651Y-115655042D01*
X98768088Y-115655683D01*
X98743502Y-115656286D01*
X98718893Y-115656850D01*
X98694260Y-115657374D01*
X98669604Y-115657860D01*
X98644924Y-115658307D01*
X98620219Y-115658715D01*
X98595491Y-115659084D01*
X98570738Y-115659414D01*
X98545961Y-115659705D01*
X98521158Y-115659957D01*
X98496331Y-115660170D01*
X98471478Y-115660344D01*
X98446599Y-115660479D01*
X98421695Y-115660575D01*
X98396765Y-115660632D01*
X98371809Y-115660649D01*
X98346826Y-115660628D01*
X98321817Y-115660568D01*
X98296781Y-115660469D01*
X98271718Y-115660330D01*
X98246628Y-115660153D01*
X98221510Y-115659936D01*
X98196365Y-115659680D01*
X98171191Y-115659385D01*
X98145990Y-115659052D01*
X98120761Y-115658678D01*
X98095502Y-115658266D01*
X98070216Y-115657815D01*
X98044900Y-115657324D01*
X98019555Y-115656795D01*
X97994181Y-115656226D01*
X97968777Y-115655618D01*
X97943343Y-115654971D01*
X97917879Y-115654284D01*
X97892385Y-115653558D01*
X97866861Y-115652794D01*
X97841306Y-115651990D01*
X97815720Y-115651146D01*
X97790103Y-115650264D01*
X97764455Y-115649342D01*
X97738775Y-115648381D01*
X97713064Y-115647380D01*
X97687321Y-115646341D01*
X97661545Y-115645262D01*
X97635738Y-115644144D01*
X97609897Y-115642986D01*
X97584024Y-115641789D01*
X97558118Y-115640553D01*
X97532179Y-115639278D01*
X97506206Y-115637963D01*
X97480200Y-115636609D01*
X97454159Y-115635215D01*
X97428085Y-115633782D01*
X97401977Y-115632310D01*
X97375834Y-115630799D01*
X97349656Y-115629248D01*
X97323443Y-115627657D01*
X97297196Y-115626027D01*
X97270913Y-115624358D01*
X97244594Y-115622650D01*
X97218240Y-115620901D01*
X97191849Y-115619114D01*
X97165423Y-115617287D01*
X111500002Y-111199150D02*
X111727187Y-111308523D01*
X111990499Y-111435369D01*
X112297549Y-111583343D01*
X112581216Y-111720049D01*
X112721337Y-111787560D01*
X112860337Y-111854508D01*
X112998226Y-111920893D01*
X113135021Y-111986714D01*
X113270733Y-112051971D01*
X113405377Y-112116664D01*
X113538967Y-112180791D01*
X113671515Y-112244352D01*
X113803037Y-112307347D01*
X113933544Y-112369775D01*
X113998422Y-112400776D01*
X114063051Y-112431635D01*
X114127434Y-112462353D01*
X114191572Y-112492928D01*
X114255467Y-112523361D01*
X114319121Y-112553652D01*
X114382534Y-112583800D01*
X114445710Y-112613806D01*
X114508649Y-112643670D01*
X114571353Y-112673391D01*
X114633825Y-112702970D01*
X114696065Y-112732406D01*
X114758076Y-112761699D01*
X114819859Y-112790850D01*
X114881415Y-112819858D01*
X114942747Y-112848723D01*
X115003857Y-112877444D01*
X115064745Y-112906023D01*
X115125415Y-112934459D01*
X115185866Y-112962752D01*
X115246102Y-112990901D01*
X115306123Y-113018907D01*
X115365932Y-113046769D01*
X115425530Y-113074489D01*
X115484919Y-113102064D01*
X115544101Y-113129496D01*
X115603077Y-113156785D01*
X115661849Y-113183929D01*
X115720419Y-113210930D01*
X115778788Y-113237787D01*
X115836958Y-113264500D01*
X115894931Y-113291069D01*
X115952709Y-113317494D01*
X116010293Y-113343775D01*
X116067685Y-113369911D01*
X116124887Y-113395904D01*
X116181900Y-113421752D01*
X116238726Y-113447455D01*
X116295366Y-113473014D01*
X116351824Y-113498429D01*
X116408099Y-113523699D01*
X116464195Y-113548824D01*
X116520112Y-113573804D01*
X116575852Y-113598640D01*
X116631417Y-113623331D01*
X116686809Y-113647876D01*
X116742030Y-113672277D01*
X116797080Y-113696533D01*
X116851963Y-113720643D01*
X116906679Y-113744608D01*
X116961230Y-113768428D01*
X117015618Y-113792103D01*
X117069845Y-113815632D01*
X117123912Y-113839015D01*
X117177821Y-113862253D01*
X117231574Y-113885345D01*
X117285173Y-113908292D01*
X117338618Y-113931093D01*
X117391913Y-113953748D01*
X117445058Y-113976257D01*
X117498056Y-113998620D01*
X117550907Y-114020837D01*
X117603614Y-114042907D01*
X117629914Y-114053888D01*
X117656179Y-114064832D01*
X117682408Y-114075739D01*
X117708602Y-114086610D01*
X117734762Y-114097444D01*
X117760887Y-114108242D01*
X117786978Y-114119003D01*
X117813034Y-114129728D01*
X117839056Y-114140415D01*
X117865045Y-114151067D01*
X117891000Y-114161681D01*
X117916922Y-114172259D01*
X117942811Y-114182800D01*
X117968667Y-114193305D01*
X117994491Y-114203773D01*
X118020281Y-114214204D01*
X118046040Y-114224599D01*
X118071767Y-114234957D01*
X118097461Y-114245278D01*
X118123125Y-114255562D01*
X118148756Y-114265810D01*
X118174357Y-114276021D01*
X118199927Y-114286195D01*
X118225466Y-114296333D01*
X118250974Y-114306433D01*
X118276452Y-114316497D01*
X118301900Y-114326525D01*
X118327318Y-114336515D01*
X118352707Y-114346469D01*
X118378066Y-114356386D01*
X118403395Y-114366266D01*
X118428696Y-114376109D01*
X118453968Y-114385915D01*
X118479211Y-114395685D01*
X118504426Y-114405417D01*
X118529613Y-114415113D01*
X118554771Y-114424772D01*
X118579902Y-114434394D01*
X118605006Y-114443980D01*
X118630082Y-114453528D01*
X118655130Y-114463039D01*
X118680152Y-114472514D01*
X118705148Y-114481952D01*
X118730117Y-114491352D01*
X118755059Y-114500716D01*
X118779976Y-114510043D01*
X118804866Y-114519333D01*
X118829731Y-114528586D01*
X118854571Y-114537802D01*
X118879385Y-114546981D01*
X118904175Y-114556123D01*
X118928939Y-114565228D01*
X118953679Y-114574296D01*
X118978395Y-114583327D01*
X119003087Y-114592321D01*
X119027754Y-114601278D01*
X119052398Y-114610198D01*
X119077019Y-114619081D01*
X119101616Y-114627927D01*
X119126190Y-114636735D01*
X119150741Y-114645507D01*
X119175270Y-114654242D01*
X119199776Y-114662939D01*
X119224260Y-114671600D01*
X119248722Y-114680223D01*
X119273162Y-114688809D01*
X119297581Y-114697359D01*
X119321978Y-114705871D01*
X119346354Y-114714346D01*
X119370709Y-114722783D01*
X119395043Y-114731184D01*
X119419357Y-114739547D01*
X119443651Y-114747874D01*
X119467924Y-114756163D01*
X119492178Y-114764415D01*
X119516412Y-114772629D01*
X119540626Y-114780807D01*
X119564822Y-114788947D01*
X119588998Y-114797050D01*
X119613155Y-114805116D01*
X119637294Y-114813144D01*
X119661415Y-114821136D01*
X119685517Y-114829090D01*
X119709601Y-114837007D01*
X119733668Y-114844886D01*
X119757717Y-114852728D01*
X119781749Y-114860533D01*
X119805763Y-114868301D01*
X119829761Y-114876031D01*
X119853742Y-114883725D01*
X119877707Y-114891380D01*
X119901655Y-114898999D01*
X119925587Y-114906580D01*
X119949504Y-114914123D01*
X119973405Y-114921630D01*
X119997290Y-114929099D01*
X120021161Y-114936530D01*
X120045016Y-114943924D01*
X120068857Y-114951281D01*
X120092683Y-114958601D01*
X120116494Y-114965883D01*
X120140292Y-114973127D01*
X120164076Y-114980334D01*
X120187846Y-114987504D01*
X120211602Y-114994636D01*
X120235345Y-115001731D01*
X120259076Y-115008788D01*
X120282793Y-115015808D01*
X120306498Y-115022791D01*
X120330190Y-115029736D01*
X120353870Y-115036643D01*
X120377538Y-115043513D01*
X120401194Y-115050345D01*
X120424839Y-115057140D01*
X120448473Y-115063898D01*
X120472095Y-115070617D01*
X120495706Y-115077300D01*
X120519307Y-115083944D01*
X120542897Y-115090551D01*
X120566477Y-115097121D01*
X120590047Y-115103653D01*
X120613607Y-115110147D01*
X120637157Y-115116604D01*
X120660698Y-115123023D01*
X120684230Y-115129405D01*
X120707752Y-115135749D01*
X120731266Y-115142055D01*
X120754772Y-115148324D01*
X120778269Y-115154555D01*
X120801757Y-115160748D01*
X120825238Y-115166904D01*
X120848711Y-115173022D01*
X120872177Y-115179102D01*
X120895635Y-115185144D01*
X120919087Y-115191149D01*
X120942531Y-115197116D01*
X120965969Y-115203046D01*
X120989400Y-115208938D01*
X121012825Y-115214792D01*
X121036244Y-115220608D01*
X121059657Y-115226386D01*
X121083065Y-115232127D01*
X121106467Y-115237830D01*
X121129864Y-115243495D01*
X121153256Y-115249123D01*
X121176644Y-115254712D01*
X121200026Y-115260264D01*
X121223405Y-115265778D01*
X121246779Y-115271254D01*
X121270150Y-115276692D01*
X121293517Y-115282093D01*
X121316880Y-115287456D01*
X121340240Y-115292780D01*
X121363598Y-115298067D01*
X121386952Y-115303316D01*
X121410304Y-115308527D01*
X121433653Y-115313701D01*
X121457000Y-115318836D01*
X121480345Y-115323933D01*
X121503689Y-115328993D01*
X121527030Y-115334014D01*
X121550371Y-115338998D01*
X121573710Y-115343944D01*
X121597049Y-115348852D01*
X121620387Y-115353721D01*
X121643724Y-115358553D01*
X121667061Y-115363347D01*
X121690398Y-115368103D01*
X121713735Y-115372821D01*
X121737073Y-115377501D01*
X121760411Y-115382142D01*
X121783750Y-115386746D01*
X121807090Y-115391312D01*
X121830431Y-115395840D01*
X121853774Y-115400329D01*
X121877118Y-115404781D01*
X121900464Y-115409195D01*
X121923812Y-115413570D01*
X121947163Y-115417908D01*
X121970516Y-115422207D01*
X121993872Y-115426468D01*
X122017230Y-115430691D01*
X122040592Y-115434876D01*
X122063957Y-115439023D01*
X122087326Y-115443132D01*
X122110699Y-115447203D01*
X122134075Y-115451235D01*
X122157456Y-115455229D01*
X122180841Y-115459185D01*
X122204231Y-115463103D01*
X122227626Y-115466983D01*
X122251025Y-115470825D01*
X122274430Y-115474628D01*
X122297841Y-115478393D01*
X122321257Y-115482120D01*
X122344679Y-115485809D01*
X122368107Y-115489459D01*
X122391542Y-115493072D01*
X122414983Y-115496646D01*
X122438431Y-115500181D01*
X122461886Y-115503679D01*
X122485348Y-115507138D01*
X122508818Y-115510559D01*
X122532295Y-115513941D01*
X122555780Y-115517286D01*
X122579273Y-115520592D01*
X122602774Y-115523859D01*
X122626284Y-115527089D01*
X122649802Y-115530280D01*
X122673330Y-115533432D01*
X122696866Y-115536546D01*
X122720412Y-115539622D01*
X122743967Y-115542660D01*
X122767532Y-115545659D01*
X122791107Y-115548620D01*
X122814693Y-115551542D01*
X122838288Y-115554426D01*
X122861895Y-115557272D01*
X122885512Y-115560079D01*
X122909140Y-115562847D01*
X122932779Y-115565578D01*
X122956430Y-115568269D01*
X122980092Y-115570923D01*
X123003767Y-115573538D01*
X123027453Y-115576114D01*
X123051152Y-115578652D01*
X123074863Y-115581151D01*
X123098587Y-115583612D01*
X123122324Y-115586034D01*
X123146074Y-115588418D01*
X123169838Y-115590764D01*
X123193615Y-115593070D01*
X123217406Y-115595339D01*
X123241211Y-115597568D01*
X123265030Y-115599759D01*
X123288863Y-115601912D01*
X123312712Y-115604026D01*
X123336575Y-115606101D01*
X123360453Y-115608138D01*
X123384347Y-115610136D01*
X123408256Y-115612096D01*
X123432180Y-115614017D01*
X123456121Y-115615899D01*
X123480078Y-115617743D01*
X123504051Y-115619548D01*
X123528041Y-115621314D01*
X123552047Y-115623042D01*
X123576071Y-115624731D01*
X123600112Y-115626381D01*
X123624170Y-115627993D01*
X123648246Y-115629566D01*
X123672339Y-115631100D01*
X123696451Y-115632595D01*
X123720581Y-115634052D01*
X123744730Y-115635470D01*
X123768897Y-115636849D01*
X123793083Y-115638190D01*
X123817288Y-115639492D01*
X123841513Y-115640755D01*
X123865757Y-115641979D01*
X123890021Y-115643164D01*
X123914305Y-115644311D01*
X123938609Y-115645419D01*
X123962934Y-115646488D01*
X123987279Y-115647518D01*
X124011645Y-115648510D01*
X124036032Y-115649462D01*
X124060440Y-115650376D01*
X124084870Y-115651251D01*
X124109322Y-115652087D01*
X124133795Y-115652884D01*
X124158291Y-115653642D01*
X124182808Y-115654361D01*
X124207349Y-115655042D01*
X124231912Y-115655683D01*
X124256498Y-115656286D01*
X124281107Y-115656850D01*
X124305740Y-115657374D01*
X124330396Y-115657860D01*
X124355076Y-115658307D01*
X124379781Y-115658715D01*
X124404509Y-115659084D01*
X124429262Y-115659414D01*
X124454039Y-115659705D01*
X124478842Y-115659957D01*
X124503669Y-115660170D01*
X124528522Y-115660344D01*
X124553401Y-115660479D01*
X124578305Y-115660575D01*
X124603235Y-115660632D01*
X124628191Y-115660649D01*
X124653174Y-115660628D01*
X124678183Y-115660568D01*
X124703219Y-115660469D01*
X124728282Y-115660330D01*
X124753372Y-115660153D01*
X124778490Y-115659936D01*
X124803635Y-115659680D01*
X124828809Y-115659385D01*
X124854010Y-115659052D01*
X124879239Y-115658678D01*
X124904498Y-115658266D01*
X124929784Y-115657815D01*
X124955100Y-115657324D01*
X124980445Y-115656795D01*
X125005819Y-115656226D01*
X125031223Y-115655618D01*
X125056657Y-115654971D01*
X125082121Y-115654284D01*
X125107615Y-115653558D01*
X125133139Y-115652794D01*
X125158694Y-115651990D01*
X125184280Y-115651146D01*
X125209897Y-115650264D01*
X125235545Y-115649342D01*
X125261225Y-115648381D01*
X125286936Y-115647380D01*
X125312679Y-115646341D01*
X125338455Y-115645262D01*
X125364262Y-115644144D01*
X125390103Y-115642986D01*
X125415976Y-115641789D01*
X125441882Y-115640553D01*
X125467821Y-115639278D01*
X125493794Y-115637963D01*
X125519800Y-115636609D01*
X125545841Y-115635215D01*
X125571915Y-115633782D01*
X125598023Y-115632310D01*
X125624166Y-115630799D01*
X125650344Y-115629248D01*
X125676557Y-115627657D01*
X125702804Y-115626027D01*
X125729087Y-115624358D01*
X125755406Y-115622650D01*
X125781760Y-115620901D01*
X125808151Y-115619114D01*
X125834577Y-115617287D01*
X120500000Y-83500000D02*
X120380491Y-83277979D01*
X120242025Y-83020588D01*
X120080595Y-82720397D01*
X119931458Y-82443063D01*
X119857778Y-82306084D01*
X119784677Y-82170221D01*
X119712142Y-82035465D01*
X119640161Y-81901808D01*
X119568725Y-81769244D01*
X119497821Y-81637765D01*
X119427437Y-81507363D01*
X119357564Y-81378031D01*
X119288188Y-81249761D01*
X119219300Y-81122545D01*
X119185035Y-81059331D01*
X119150887Y-80996377D01*
X119116855Y-80933683D01*
X119082938Y-80871247D01*
X119049134Y-80809070D01*
X119015442Y-80747150D01*
X118981860Y-80685486D01*
X118948387Y-80624076D01*
X118915022Y-80562921D01*
X118881763Y-80502020D01*
X118848608Y-80441370D01*
X118815557Y-80380972D01*
X118782607Y-80320824D01*
X118749758Y-80260926D01*
X118717008Y-80201276D01*
X118684355Y-80141874D01*
X118651799Y-80082718D01*
X118619338Y-80023808D01*
X118586969Y-79965142D01*
X118554693Y-79906721D01*
X118522507Y-79848542D01*
X118490410Y-79790605D01*
X118458401Y-79732909D01*
X118426478Y-79675452D01*
X118394640Y-79618235D01*
X118362885Y-79561256D01*
X118331212Y-79504514D01*
X118299620Y-79448008D01*
X118268106Y-79391738D01*
X118236671Y-79335702D01*
X118205312Y-79279899D01*
X118174027Y-79224328D01*
X118142816Y-79168989D01*
X118111677Y-79113880D01*
X118080609Y-79059001D01*
X118049610Y-79004351D01*
X118018678Y-78949928D01*
X117987813Y-78895732D01*
X117957013Y-78841761D01*
X117926277Y-78788016D01*
X117895602Y-78734494D01*
X117864988Y-78681195D01*
X117834433Y-78628119D01*
X117803937Y-78575263D01*
X117773496Y-78522627D01*
X117743111Y-78470211D01*
X117712779Y-78418012D01*
X117682499Y-78366031D01*
X117652270Y-78314266D01*
X117622090Y-78262717D01*
X117591958Y-78211382D01*
X117561873Y-78160260D01*
X117531832Y-78109351D01*
X117501836Y-78058653D01*
X117471881Y-78008166D01*
X117441967Y-77957889D01*
X117412093Y-77907821D01*
X117382256Y-77857960D01*
X117352456Y-77808306D01*
X117322691Y-77758858D01*
X117292960Y-77709615D01*
X117263261Y-77660575D01*
X117233593Y-77611739D01*
X117218770Y-77587397D01*
X117203954Y-77563105D01*
X117189146Y-77538864D01*
X117174344Y-77514672D01*
X117159548Y-77490531D01*
X117144760Y-77466440D01*
X117129977Y-77442398D01*
X117115201Y-77418406D01*
X117100430Y-77394464D01*
X117085665Y-77370571D01*
X117070906Y-77346728D01*
X117056153Y-77322934D01*
X117041404Y-77299188D01*
X117026661Y-77275492D01*
X117011922Y-77251845D01*
X116997188Y-77228246D01*
X116982459Y-77204696D01*
X116967734Y-77181195D01*
X116953013Y-77157742D01*
X116938296Y-77134337D01*
X116923583Y-77110981D01*
X116908873Y-77087672D01*
X116894167Y-77064411D01*
X116879464Y-77041199D01*
X116864765Y-77018033D01*
X116850068Y-76994916D01*
X116835374Y-76971846D01*
X116820682Y-76948823D01*
X116805993Y-76925847D01*
X116791306Y-76902919D01*
X116776622Y-76880037D01*
X116761939Y-76857203D01*
X116747257Y-76834415D01*
X116732578Y-76811673D01*
X116717899Y-76788979D01*
X116703222Y-76766330D01*
X116688545Y-76743728D01*
X116673870Y-76721172D01*
X116659195Y-76698662D01*
X116644520Y-76676198D01*
X116629846Y-76653780D01*
X116615172Y-76631407D01*
X116600497Y-76609080D01*
X116585823Y-76586798D01*
X116571148Y-76564562D01*
X116556472Y-76542371D01*
X116541796Y-76520225D01*
X116527118Y-76498124D01*
X116512439Y-76476067D01*
X116497759Y-76454056D01*
X116483078Y-76432089D01*
X116468395Y-76410167D01*
X116453710Y-76388288D01*
X116439022Y-76366455D01*
X116424333Y-76344665D01*
X116409641Y-76322919D01*
X116394947Y-76301218D01*
X116380250Y-76279560D01*
X116365550Y-76257945D01*
X116350847Y-76236375D01*
X116336140Y-76214847D01*
X116321430Y-76193363D01*
X116306717Y-76171922D01*
X116291999Y-76150525D01*
X116277278Y-76129170D01*
X116262552Y-76107858D01*
X116247822Y-76086588D01*
X116233088Y-76065362D01*
X116218348Y-76044178D01*
X116203604Y-76023036D01*
X116188855Y-76001936D01*
X116174101Y-75980879D01*
X116159341Y-75959863D01*
X116144575Y-75938889D01*
X116129804Y-75917958D01*
X116115027Y-75897067D01*
X116100244Y-75876219D01*
X116085454Y-75855412D01*
X116070658Y-75834646D01*
X116055855Y-75813921D01*
X116041045Y-75793237D01*
X116026229Y-75772594D01*
X116011405Y-75751992D01*
X115996573Y-75731431D01*
X115981735Y-75710910D01*
X115966888Y-75690430D01*
X115952034Y-75669990D01*
X115937171Y-75649591D01*
X115922300Y-75629231D01*
X115907421Y-75608912D01*
X115892533Y-75588632D01*
X115877637Y-75568392D01*
X115862731Y-75548192D01*
X115847816Y-75528031D01*
X115832892Y-75507910D01*
X115817958Y-75487828D01*
X115803015Y-75467785D01*
X115788062Y-75447781D01*
X115773099Y-75427816D01*
X115758125Y-75407890D01*
X115743141Y-75388002D01*
X115728147Y-75368154D01*
X115713142Y-75348343D01*
X115698126Y-75328571D01*
X115683099Y-75308837D01*
X115668060Y-75289142D01*
X115653010Y-75269484D01*
X115637949Y-75249864D01*
X115622875Y-75230282D01*
X115607790Y-75210737D01*
X115592692Y-75191230D01*
X115577583Y-75171760D01*
X115562460Y-75152328D01*
X115547325Y-75132933D01*
X115532177Y-75113575D01*
X115517016Y-75094253D01*
X115501842Y-75074969D01*
X115486654Y-75055721D01*
X115471453Y-75036510D01*
X115456238Y-75017335D01*
X115441009Y-74998197D01*
X115425765Y-74979094D01*
X115410508Y-74960028D01*
X115395236Y-74940998D01*
X115379950Y-74922004D01*
X115364648Y-74903045D01*
X115349332Y-74884122D01*
X115334000Y-74865235D01*
X115318653Y-74846382D01*
X115303291Y-74827566D01*
X115287913Y-74808784D01*
X115272518Y-74790037D01*
X115257108Y-74771325D01*
X115241682Y-74752648D01*
X115226239Y-74734006D01*
X115210779Y-74715398D01*
X115195303Y-74696825D01*
X115179810Y-74678286D01*
X115164300Y-74659781D01*
X115148772Y-74641310D01*
X115133227Y-74622873D01*
X115117664Y-74604470D01*
X115102083Y-74586101D01*
X115086485Y-74567765D01*
X115070868Y-74549463D01*
X115055232Y-74531194D01*
X115039578Y-74512959D01*
X115023906Y-74494756D01*
X115008214Y-74476587D01*
X114992504Y-74458450D01*
X114976774Y-74440346D01*
X114961024Y-74422275D01*
X114945256Y-74404237D01*
X114929467Y-74386230D01*
X114913658Y-74368257D01*
X114897829Y-74350315D01*
X114881980Y-74332405D01*
X114866110Y-74314528D01*
X114850220Y-74296682D01*
X114834308Y-74278868D01*
X114818376Y-74261085D01*
X114802422Y-74243334D01*
X114786448Y-74225614D01*
X114770451Y-74207926D01*
X114754433Y-74190268D01*
X114738392Y-74172642D01*
X114722330Y-74155047D01*
X114706245Y-74137482D01*
X114690138Y-74119948D01*
X114674009Y-74102444D01*
X114657856Y-74084971D01*
X114641681Y-74067528D01*
X114625482Y-74050116D01*
X114609260Y-74032733D01*
X114593014Y-74015380D01*
X114576745Y-73998057D01*
X114560452Y-73980764D01*
X114544134Y-73963501D01*
X114527793Y-73946266D01*
X114511427Y-73929062D01*
X114495036Y-73911886D01*
X114478621Y-73894740D01*
X114462181Y-73877622D01*
X114445716Y-73860533D01*
X114429225Y-73843474D01*
X114412709Y-73826442D01*
X114396167Y-73809440D01*
X114379599Y-73792465D01*
X114363006Y-73775519D01*
X114346386Y-73758601D01*
X114329740Y-73741712D01*
X114313067Y-73724850D01*
X114296367Y-73708016D01*
X114279641Y-73691209D01*
X114262887Y-73674430D01*
X114246107Y-73657679D01*
X114229299Y-73640955D01*
X114212463Y-73624258D01*
X114195599Y-73607588D01*
X114178708Y-73590945D01*
X114161788Y-73574329D01*
X114144840Y-73557740D01*
X114127863Y-73541177D01*
X114110858Y-73524641D01*
X114093824Y-73508132D01*
X114076761Y-73491648D01*
X114059669Y-73475191D01*
X114042547Y-73458760D01*
X114025396Y-73442354D01*
X114008215Y-73425975D01*
X113991004Y-73409621D01*
X113973763Y-73393293D01*
X113956492Y-73376990D01*
X113939190Y-73360712D01*
X113921858Y-73344460D01*
X113904495Y-73328232D01*
X113887101Y-73312030D01*
X113869675Y-73295853D01*
X113852219Y-73279700D01*
X113834731Y-73263572D01*
X113817211Y-73247468D01*
X113799659Y-73231389D01*
X113782075Y-73215334D01*
X113764459Y-73199303D01*
X113746811Y-73183296D01*
X113729130Y-73167313D01*
X113711416Y-73151354D01*
X113693669Y-73135418D01*
X113675890Y-73119506D01*
X113658077Y-73103618D01*
X113640230Y-73087753D01*
X113622350Y-73071911D01*
X113604436Y-73056092D01*
X113586488Y-73040296D01*
X113568506Y-73024522D01*
X113550489Y-73008772D01*
X113532438Y-72993044D01*
X113514352Y-72977339D01*
X113496231Y-72961655D01*
X113478076Y-72945995D01*
X113459885Y-72930356D01*
X113441658Y-72914739D01*
X113423396Y-72899145D01*
X113405098Y-72883571D01*
X113386765Y-72868020D01*
X113368395Y-72852490D01*
X113349988Y-72836982D01*
X113331546Y-72821495D01*
X113313066Y-72806029D01*
X113294550Y-72790584D01*
X113275997Y-72775160D01*
X113257407Y-72759757D01*
X113238779Y-72744374D01*
X113220113Y-72729013D01*
X113201410Y-72713671D01*
X113182669Y-72698350D01*
X113163890Y-72683049D01*
X113145073Y-72667769D01*
X113126217Y-72652508D01*
X113107323Y-72637267D01*
X113088390Y-72622046D01*
X113069418Y-72606845D01*
X113050406Y-72591663D01*
X113031356Y-72576500D01*
X113012266Y-72561357D01*
X112993136Y-72546233D01*
X112973966Y-72531128D01*
X112954756Y-72516042D01*
X112935506Y-72500975D01*
X112916216Y-72485926D01*
X112896885Y-72470896D01*
X112877514Y-72455885D01*
X112858101Y-72440892D01*
X112838647Y-72425917D01*
X112819153Y-72410960D01*
X112799616Y-72396021D01*
X112780038Y-72381100D01*
X112760418Y-72366197D01*
X112740756Y-72351311D01*
X112721052Y-72336443D01*
X112701306Y-72321592D01*
X112681517Y-72306759D01*
X112661686Y-72291942D01*
X112641811Y-72277143D01*
X112621894Y-72262361D01*
X112601933Y-72247595D01*
X112581929Y-72232846D01*
X112561881Y-72218114D01*
X112541790Y-72203398D01*
X112521654Y-72188698D01*
X112501475Y-72174015D01*
X112481251Y-72159348D01*
X112460983Y-72144697D01*
X112440670Y-72130061D01*
X112420312Y-72115441D01*
X112399909Y-72100837D01*
X112379461Y-72086249D01*
X112358968Y-72071676D01*
X112338429Y-72057118D01*
X112317844Y-72042575D01*
X112297214Y-72028047D01*
X112276537Y-72013534D01*
X112255815Y-71999036D01*
X112235045Y-71984553D01*
X112214229Y-71970084D01*
X112193367Y-71955629D01*
X112172457Y-71941189D01*
X112151501Y-71926763D01*
X112130496Y-71912351D01*
X112109445Y-71897954D01*
X112088346Y-71883570D01*
X112067199Y-71869199D01*
X112046004Y-71854843D01*
X112024760Y-71840499D01*
X112003469Y-71826169D01*
X111982129Y-71811853D01*
X111960740Y-71797549D01*
X111939302Y-71783259D01*
X111917815Y-71768981D01*
X111896279Y-71754717D01*
X111874693Y-71740464D01*
X111853058Y-71726225D01*
X111831373Y-71711998D01*
X111809638Y-71697783D01*
X111787852Y-71683580D01*
X111766017Y-71669389D01*
X111744131Y-71655211D01*
X111722194Y-71641044D01*
X111700206Y-71626889D01*
X111678168Y-71612745D01*
X111656078Y-71598613D01*
X111633937Y-71584492D01*
X111611744Y-71570383D01*
X111589499Y-71556285D01*
X111567203Y-71542197D01*
X111544854Y-71528121D01*
X111522453Y-71514055D01*
X111500000Y-71500000D01*
X120500000Y-83500000D02*
X120748083Y-83545051D01*
X121035663Y-83597201D01*
X121371059Y-83657969D01*
X121680904Y-83714106D01*
X121833947Y-83741851D01*
X121985750Y-83769390D01*
X122136326Y-83796733D01*
X122285683Y-83823888D01*
X122433834Y-83850864D01*
X122580788Y-83877668D01*
X122726557Y-83904311D01*
X122871152Y-83930798D01*
X123014582Y-83957141D01*
X123156859Y-83983346D01*
X123227568Y-83996400D01*
X123297993Y-84009422D01*
X123368135Y-84022415D01*
X123437995Y-84035378D01*
X123507576Y-84048314D01*
X123576877Y-84061223D01*
X123645900Y-84074106D01*
X123714647Y-84086964D01*
X123783119Y-84099798D01*
X123851318Y-84112610D01*
X123919244Y-84125400D01*
X123986900Y-84138170D01*
X124054286Y-84150920D01*
X124121403Y-84163651D01*
X124188254Y-84176366D01*
X124254839Y-84189064D01*
X124321160Y-84201747D01*
X124387218Y-84214415D01*
X124453015Y-84227071D01*
X124518551Y-84239714D01*
X124583828Y-84252346D01*
X124648848Y-84264969D01*
X124713612Y-84277582D01*
X124778120Y-84290188D01*
X124842376Y-84302787D01*
X124906379Y-84315380D01*
X124970131Y-84327968D01*
X125033634Y-84340553D01*
X125096888Y-84353136D01*
X125159896Y-84365716D01*
X125222658Y-84378297D01*
X125285176Y-84390878D01*
X125347452Y-84403460D01*
X125409485Y-84416046D01*
X125471279Y-84428635D01*
X125532834Y-84441229D01*
X125594152Y-84453829D01*
X125655233Y-84466436D01*
X125716079Y-84479051D01*
X125776693Y-84491675D01*
X125837074Y-84504309D01*
X125897224Y-84516954D01*
X125957145Y-84529612D01*
X126016838Y-84542282D01*
X126076304Y-84554968D01*
X126135545Y-84567668D01*
X126194561Y-84580386D01*
X126253355Y-84593120D01*
X126311928Y-84605874D01*
X126370280Y-84618647D01*
X126428414Y-84631440D01*
X126486330Y-84644256D01*
X126544031Y-84657094D01*
X126601516Y-84669956D01*
X126658789Y-84682844D01*
X126715849Y-84695757D01*
X126772699Y-84708697D01*
X126829339Y-84721665D01*
X126885772Y-84734663D01*
X126941997Y-84747691D01*
X126998018Y-84760750D01*
X127053834Y-84773841D01*
X127109448Y-84786966D01*
X127137179Y-84793541D01*
X127164861Y-84800125D01*
X127192492Y-84806718D01*
X127220073Y-84813320D01*
X127247605Y-84819931D01*
X127275087Y-84826552D01*
X127302520Y-84833182D01*
X127329904Y-84839821D01*
X127357239Y-84846470D01*
X127384524Y-84853129D01*
X127411762Y-84859797D01*
X127438951Y-84866476D01*
X127466091Y-84873165D01*
X127493183Y-84879865D01*
X127520228Y-84886574D01*
X127547224Y-84893295D01*
X127574173Y-84900026D01*
X127601075Y-84906768D01*
X127627929Y-84913521D01*
X127654736Y-84920285D01*
X127681496Y-84927061D01*
X127708209Y-84933847D01*
X127734876Y-84940646D01*
X127761496Y-84947456D01*
X127788070Y-84954278D01*
X127814597Y-84961111D01*
X127841079Y-84967957D01*
X127867515Y-84974815D01*
X127893905Y-84981685D01*
X127920250Y-84988568D01*
X127946549Y-84995463D01*
X127972804Y-85002371D01*
X127999013Y-85009292D01*
X128025178Y-85016226D01*
X128051298Y-85023173D01*
X128077373Y-85030133D01*
X128103404Y-85037107D01*
X128129391Y-85044094D01*
X128155334Y-85051095D01*
X128181234Y-85058109D01*
X128207089Y-85065138D01*
X128232902Y-85072180D01*
X128258670Y-85079237D01*
X128284396Y-85086308D01*
X128310079Y-85093393D01*
X128335719Y-85100493D01*
X128361317Y-85107608D01*
X128386871Y-85114737D01*
X128412384Y-85121882D01*
X128437855Y-85129042D01*
X128463283Y-85136216D01*
X128488670Y-85143406D01*
X128514015Y-85150612D01*
X128539319Y-85157833D01*
X128564581Y-85165070D01*
X128589803Y-85172323D01*
X128614983Y-85179592D01*
X128640123Y-85186877D01*
X128665222Y-85194179D01*
X128690280Y-85201497D01*
X128715299Y-85208831D01*
X128740277Y-85216182D01*
X128765215Y-85223550D01*
X128790113Y-85230935D01*
X128814972Y-85238337D01*
X128839791Y-85245756D01*
X128864572Y-85253192D01*
X128889313Y-85260646D01*
X128914015Y-85268118D01*
X128938678Y-85275607D01*
X128963303Y-85283114D01*
X128987889Y-85290639D01*
X129012437Y-85298183D01*
X129036947Y-85305744D01*
X129061418Y-85313324D01*
X129085853Y-85320923D01*
X129110249Y-85328540D01*
X129134608Y-85336176D01*
X129158930Y-85343831D01*
X129183215Y-85351505D01*
X129207463Y-85359198D01*
X129231674Y-85366911D01*
X129255848Y-85374643D01*
X129279986Y-85382394D01*
X129304088Y-85390166D01*
X129328154Y-85397957D01*
X129352183Y-85405768D01*
X129376177Y-85413599D01*
X129400136Y-85421451D01*
X129424059Y-85429323D01*
X129447946Y-85437215D01*
X129471799Y-85445128D01*
X129495616Y-85453062D01*
X129519399Y-85461017D01*
X129543148Y-85468993D01*
X129566862Y-85476990D01*
X129590541Y-85485008D01*
X129614187Y-85493048D01*
X129637799Y-85501109D01*
X129661376Y-85509192D01*
X129684921Y-85517297D01*
X129708432Y-85525424D01*
X129731909Y-85533573D01*
X129755354Y-85541744D01*
X129778765Y-85549938D01*
X129802144Y-85558154D01*
X129825491Y-85566393D01*
X129848805Y-85574654D01*
X129872086Y-85582939D01*
X129895336Y-85591246D01*
X129918554Y-85599577D01*
X129941739Y-85607931D01*
X129964894Y-85616308D01*
X129988017Y-85624709D01*
X130011108Y-85633133D01*
X130034169Y-85641582D01*
X130057199Y-85650054D01*
X130080198Y-85658551D01*
X130103166Y-85667071D01*
X130126104Y-85675616D01*
X130149012Y-85684186D01*
X130171890Y-85692780D01*
X130194737Y-85701399D01*
X130217556Y-85710043D01*
X130240344Y-85718711D01*
X130263103Y-85727405D01*
X130285833Y-85736125D01*
X130308534Y-85744869D01*
X130331206Y-85753639D01*
X130353849Y-85762435D01*
X130376463Y-85771257D01*
X130399050Y-85780105D01*
X130421608Y-85788978D01*
X130444138Y-85797878D01*
X130466640Y-85806804D01*
X130489114Y-85815757D01*
X130511561Y-85824736D01*
X130533980Y-85833742D01*
X130556372Y-85842775D01*
X130578737Y-85851835D01*
X130601075Y-85860922D01*
X130623387Y-85870037D01*
X130645672Y-85879178D01*
X130667930Y-85888347D01*
X130690163Y-85897544D01*
X130712369Y-85906769D01*
X130734549Y-85916022D01*
X130756704Y-85925302D01*
X130778833Y-85934611D01*
X130800937Y-85943948D01*
X130823015Y-85953314D01*
X130845069Y-85962708D01*
X130867097Y-85972131D01*
X130889101Y-85981583D01*
X130911080Y-85991064D01*
X130933035Y-86000574D01*
X130954966Y-86010113D01*
X130976873Y-86019681D01*
X130998756Y-86029279D01*
X131020615Y-86038907D01*
X131042450Y-86048564D01*
X131064262Y-86058252D01*
X131086051Y-86067969D01*
X131107817Y-86077717D01*
X131129560Y-86087495D01*
X131151281Y-86097303D01*
X131172979Y-86107142D01*
X131194654Y-86117011D01*
X131216307Y-86126912D01*
X131237939Y-86136843D01*
X131259548Y-86146806D01*
X131281136Y-86156799D01*
X131302702Y-86166824D01*
X131324246Y-86176881D01*
X131345770Y-86186969D01*
X131367272Y-86197089D01*
X131388754Y-86207241D01*
X131410215Y-86217425D01*
X131431656Y-86227641D01*
X131453076Y-86237889D01*
X131474476Y-86248170D01*
X131495855Y-86258483D01*
X131517215Y-86268829D01*
X131538556Y-86279208D01*
X131559876Y-86289620D01*
X131581178Y-86300065D01*
X131602460Y-86310543D01*
X131623723Y-86321054D01*
X131644968Y-86331599D01*
X131666193Y-86342178D01*
X131687401Y-86352790D01*
X131708589Y-86363436D01*
X131729760Y-86374116D01*
X131750913Y-86384830D01*
X131772047Y-86395579D01*
X131793164Y-86406362D01*
X131814264Y-86417179D01*
X131835346Y-86428032D01*
X131856411Y-86438918D01*
X131877459Y-86449840D01*
X131898490Y-86460797D01*
X131919505Y-86471789D01*
X131940503Y-86482817D01*
X131961484Y-86493880D01*
X131982450Y-86504978D01*
X132003399Y-86516113D01*
X132024333Y-86527283D01*
X132045251Y-86538489D01*
X132066153Y-86549731D01*
X132087040Y-86561010D01*
X132107912Y-86572325D01*
X132128769Y-86583676D01*
X132149611Y-86595064D01*
X132170439Y-86606489D01*
X132191252Y-86617951D01*
X132212050Y-86629450D01*
X132232834Y-86640986D01*
X132253605Y-86652559D01*
X132274361Y-86664170D01*
X132295104Y-86675818D01*
X132315834Y-86687504D01*
X132336550Y-86699228D01*
X132357253Y-86710990D01*
X132377943Y-86722790D01*
X132398620Y-86734628D01*
X132419284Y-86746505D01*
X132439936Y-86758420D01*
X132460576Y-86770373D01*
X132481203Y-86782366D01*
X132501819Y-86794397D01*
X132522422Y-86806468D01*
X132543014Y-86818577D01*
X132563595Y-86830726D01*
X132584164Y-86842915D01*
X132604722Y-86855143D01*
X132625269Y-86867410D01*
X132645805Y-86879718D01*
X132666331Y-86892065D01*
X132686846Y-86904452D01*
X132707350Y-86916880D01*
X132727845Y-86929348D01*
X132748330Y-86941857D01*
X132768804Y-86954406D01*
X132789270Y-86966996D01*
X132809725Y-86979627D01*
X132830172Y-86992298D01*
X132850609Y-87005011D01*
X132871037Y-87017766D01*
X132891456Y-87030561D01*
X132911867Y-87043398D01*
X132932269Y-87056277D01*
X132952663Y-87069198D01*
X132973049Y-87082161D01*
X132993427Y-87095165D01*
X133013797Y-87108212D01*
X133034160Y-87121302D01*
X133054515Y-87134433D01*
X133074862Y-87147608D01*
X133095203Y-87160825D01*
X133115536Y-87174085D01*
X133135863Y-87187388D01*
X133156183Y-87200734D01*
X133176497Y-87214123D01*
X133196804Y-87227556D01*
X133217105Y-87241032D01*
X133237401Y-87254552D01*
X133257690Y-87268116D01*
X133277974Y-87281723D01*
X133298252Y-87295375D01*
X133318525Y-87309071D01*
X133338793Y-87322811D01*
X133359056Y-87336596D01*
X133379314Y-87350425D01*
X133399568Y-87364299D01*
X133419817Y-87378218D01*
X133440062Y-87392182D01*
X133460302Y-87406191D01*
X133480539Y-87420245D01*
X133500772Y-87434345D01*
X133521001Y-87448490D01*
X133541227Y-87462680D01*
X133561450Y-87476917D01*
X133581669Y-87491199D01*
X133601886Y-87505528D01*
X133622099Y-87519902D01*
X133642310Y-87534323D01*
X133662519Y-87548791D01*
X133682725Y-87563305D01*
X133702930Y-87577865D01*
X133723132Y-87592473D01*
X133743332Y-87607127D01*
X133763531Y-87621829D01*
X133783729Y-87636578D01*
X133803925Y-87651374D01*
X133824120Y-87666218D01*
X133844314Y-87681109D01*
X133864507Y-87696048D01*
X133884700Y-87711035D01*
X133904892Y-87726070D01*
X133925084Y-87741153D01*
X133945276Y-87756284D01*
X133965468Y-87771464D01*
X133985660Y-87786693D01*
X134005853Y-87801970D01*
X134026046Y-87817296D01*
X134046240Y-87832671D01*
X134066435Y-87848094D01*
X134086631Y-87863568D01*
X134106828Y-87879090D01*
X134127026Y-87894662D01*
X134147226Y-87910284D01*
X134167428Y-87925955D01*
X134187632Y-87941676D01*
X134207837Y-87957448D01*
X134228045Y-87973269D01*
X134248256Y-87989141D01*
X134268469Y-88005063D01*
X134288684Y-88021035D01*
X134308903Y-88037058D01*
X134329125Y-88053133D01*
X134349349Y-88069258D01*
X134369578Y-88085434D01*
X134389810Y-88101661D01*
X134410045Y-88117940D01*
X134430285Y-88134270D01*
X134450528Y-88150651D01*
X134470776Y-88167085D01*
X134491029Y-88183570D01*
X134511286Y-88200107D01*
X134531547Y-88216697D01*
X134551814Y-88233338D01*
X134572085Y-88250032D01*
X134592362Y-88266779D01*
X134612644Y-88283578D01*
X134632932Y-88300430D01*
X134653226Y-88317335D01*
X134673525Y-88334293D01*
X134693831Y-88351304D01*
X126062306Y-100619016D02*
X126096122Y-100868879D01*
X126135391Y-101158498D01*
X126181241Y-101496259D01*
X126223598Y-101808287D01*
X126244505Y-101962412D01*
X126265223Y-102115296D01*
X126285749Y-102266951D01*
X126306077Y-102417390D01*
X126326202Y-102566626D01*
X126346121Y-102714671D01*
X126365828Y-102861538D01*
X126385319Y-103007241D01*
X126404588Y-103151791D01*
X126423631Y-103295202D01*
X126433067Y-103366485D01*
X126442444Y-103437487D01*
X126451763Y-103508211D01*
X126461022Y-103578658D01*
X126470221Y-103648830D01*
X126479359Y-103718728D01*
X126488436Y-103788355D01*
X126497451Y-103857710D01*
X126506404Y-103926797D01*
X126515294Y-103995617D01*
X126524120Y-104064171D01*
X126532882Y-104132462D01*
X126541579Y-104200489D01*
X126550211Y-104268256D01*
X126558777Y-104335764D01*
X126567277Y-104403014D01*
X126575709Y-104470008D01*
X126584073Y-104536748D01*
X126592369Y-104603235D01*
X126600597Y-104669470D01*
X126608754Y-104735457D01*
X126616842Y-104801195D01*
X126624859Y-104866686D01*
X126632805Y-104931933D01*
X126640678Y-104996937D01*
X126648480Y-105061699D01*
X126656208Y-105126221D01*
X126663862Y-105190504D01*
X126671443Y-105254551D01*
X126678948Y-105318363D01*
X126686378Y-105381941D01*
X126693732Y-105445287D01*
X126701009Y-105508402D01*
X126708209Y-105571289D01*
X126715332Y-105633949D01*
X126722376Y-105696383D01*
X126729340Y-105758593D01*
X126736226Y-105820580D01*
X126743031Y-105882347D01*
X126749755Y-105943894D01*
X126756398Y-106005224D01*
X126762959Y-106066338D01*
X126769438Y-106127238D01*
X126775833Y-106187925D01*
X126782145Y-106248400D01*
X126788372Y-106308666D01*
X126794514Y-106368724D01*
X126800571Y-106428576D01*
X126806542Y-106488223D01*
X126812426Y-106547666D01*
X126818223Y-106606908D01*
X126823932Y-106665950D01*
X126829552Y-106724794D01*
X126835084Y-106783441D01*
X126840525Y-106841892D01*
X126845877Y-106900150D01*
X126851137Y-106958216D01*
X126856307Y-107016092D01*
X126861384Y-107073779D01*
X126866368Y-107131278D01*
X126871260Y-107188592D01*
X126876057Y-107245722D01*
X126880760Y-107302670D01*
X126883076Y-107331076D01*
X126885368Y-107359437D01*
X126887637Y-107387753D01*
X126889881Y-107416025D01*
X126892101Y-107444252D01*
X126894297Y-107472435D01*
X126896469Y-107500574D01*
X126898617Y-107528669D01*
X126900740Y-107556720D01*
X126902839Y-107584729D01*
X126904914Y-107612694D01*
X126906964Y-107640616D01*
X126908989Y-107668495D01*
X126910989Y-107696331D01*
X126912965Y-107724126D01*
X126914916Y-107751878D01*
X126916842Y-107779588D01*
X126918743Y-107807256D01*
X126920619Y-107834882D01*
X126922470Y-107862468D01*
X126924295Y-107890012D01*
X126926095Y-107917515D01*
X126927870Y-107944977D01*
X126929619Y-107972398D01*
X126931343Y-107999780D01*
X126933041Y-108027121D01*
X126934714Y-108054422D01*
X126936361Y-108081683D01*
X126937982Y-108108905D01*
X126939577Y-108136087D01*
X126941146Y-108163230D01*
X126942689Y-108190334D01*
X126944206Y-108217399D01*
X126945697Y-108244426D01*
X126947162Y-108271414D01*
X126948600Y-108298364D01*
X126950012Y-108325276D01*
X126951397Y-108352151D01*
X126952756Y-108378987D01*
X126954088Y-108405787D01*
X126955393Y-108432549D01*
X126956672Y-108459274D01*
X126957923Y-108485962D01*
X126959148Y-108512614D01*
X126960346Y-108539229D01*
X126961517Y-108565808D01*
X126962660Y-108592351D01*
X126963777Y-108618859D01*
X126964866Y-108645331D01*
X126965927Y-108671767D01*
X126966962Y-108698168D01*
X126967968Y-108724534D01*
X126968947Y-108750866D01*
X126969899Y-108777162D01*
X126970823Y-108803425D01*
X126971718Y-108829653D01*
X126972586Y-108855847D01*
X126973426Y-108882008D01*
X126974238Y-108908134D01*
X126975022Y-108934228D01*
X126975778Y-108960288D01*
X126976505Y-108986315D01*
X126977204Y-109012310D01*
X126977875Y-109038271D01*
X126978517Y-109064201D01*
X126979131Y-109090098D01*
X126979716Y-109115963D01*
X126980272Y-109141797D01*
X126980800Y-109167599D01*
X126981298Y-109193369D01*
X126981768Y-109219108D01*
X126982209Y-109244817D01*
X126982620Y-109270494D01*
X126983003Y-109296141D01*
X126983356Y-109321758D01*
X126983680Y-109347344D01*
X126983974Y-109372900D01*
X126984239Y-109398427D01*
X126984475Y-109423924D01*
X126984681Y-109449391D01*
X126984857Y-109474830D01*
X126985004Y-109500239D01*
X126985121Y-109525620D01*
X126985208Y-109550972D01*
X126985264Y-109576295D01*
X126985291Y-109601591D01*
X126985288Y-109626858D01*
X126985255Y-109652098D01*
X126985191Y-109677310D01*
X126985097Y-109702494D01*
X126984972Y-109727652D01*
X126984818Y-109752782D01*
X126984632Y-109777886D01*
X126984416Y-109802963D01*
X126984169Y-109828014D01*
X126983891Y-109853038D01*
X126983583Y-109878037D01*
X126983244Y-109903009D01*
X126982873Y-109927956D01*
X126982472Y-109952878D01*
X126982039Y-109977775D01*
X126981575Y-110002646D01*
X126981080Y-110027493D01*
X126980553Y-110052315D01*
X126979995Y-110077113D01*
X126979406Y-110101886D01*
X126978785Y-110126636D01*
X126978132Y-110151362D01*
X126977448Y-110176064D01*
X126976731Y-110200743D01*
X126975983Y-110225398D01*
X126975203Y-110250031D01*
X126974391Y-110274641D01*
X126973546Y-110299228D01*
X126972670Y-110323793D01*
X126971761Y-110348336D01*
X126970820Y-110372856D01*
X126969846Y-110397355D01*
X126968840Y-110421832D01*
X126967802Y-110446288D01*
X126966731Y-110470723D01*
X126965627Y-110495137D01*
X126964490Y-110519530D01*
X126963320Y-110543902D01*
X126962118Y-110568254D01*
X126960882Y-110592586D01*
X126959614Y-110616897D01*
X126958312Y-110641189D01*
X126956977Y-110665462D01*
X126955609Y-110689715D01*
X126954207Y-110713949D01*
X126952772Y-110738163D01*
X126951304Y-110762360D01*
X126949802Y-110786537D01*
X126948266Y-110810696D01*
X126946696Y-110834837D01*
X126945093Y-110858960D01*
X126943455Y-110883065D01*
X126941784Y-110907152D01*
X126940079Y-110931222D01*
X126938339Y-110955275D01*
X126936566Y-110979311D01*
X126934758Y-111003330D01*
X126932916Y-111027333D01*
X126931039Y-111051319D01*
X126929128Y-111075289D01*
X126927182Y-111099243D01*
X126925202Y-111123181D01*
X126923187Y-111147104D01*
X126921137Y-111171011D01*
X126919053Y-111194903D01*
X126916933Y-111218780D01*
X126914779Y-111242643D01*
X126912589Y-111266490D01*
X126910364Y-111290324D01*
X126908104Y-111314143D01*
X126905809Y-111337948D01*
X126903478Y-111361739D01*
X126901112Y-111385517D01*
X126898711Y-111409281D01*
X126896274Y-111433032D01*
X126893801Y-111456771D01*
X126891292Y-111480496D01*
X126888748Y-111504209D01*
X126886167Y-111527909D01*
X126883551Y-111551597D01*
X126880899Y-111575274D01*
X126878210Y-111598938D01*
X126875486Y-111622591D01*
X126872725Y-111646232D01*
X126869927Y-111669863D01*
X126867094Y-111693482D01*
X126864224Y-111717090D01*
X126861317Y-111740688D01*
X126858374Y-111764276D01*
X126855394Y-111787853D01*
X126852377Y-111811421D01*
X126849323Y-111834978D01*
X126846233Y-111858526D01*
X126843105Y-111882065D01*
X126839940Y-111905594D01*
X126836739Y-111929115D01*
X126833500Y-111952626D01*
X126830223Y-111976129D01*
X126826910Y-111999624D01*
X126823558Y-112023111D01*
X126820170Y-112046589D01*
X126816744Y-112070060D01*
X126813280Y-112093523D01*
X126809778Y-112116979D01*
X126806238Y-112140427D01*
X126802661Y-112163869D01*
X126799046Y-112187304D01*
X126795392Y-112210732D01*
X126791701Y-112234154D01*
X126787971Y-112257569D01*
X126784203Y-112280979D01*
X126780397Y-112304383D01*
X126776553Y-112327781D01*
X126772669Y-112351174D01*
X126768748Y-112374562D01*
X126764787Y-112397944D01*
X126760788Y-112421322D01*
X126756751Y-112444696D01*
X126752674Y-112468065D01*
X126748558Y-112491429D01*
X126744404Y-112514790D01*
X126740210Y-112538147D01*
X126735977Y-112561501D01*
X126731705Y-112584851D01*
X126727394Y-112608198D01*
X126723043Y-112631541D01*
X126718653Y-112654883D01*
X126714223Y-112678221D01*
X126709754Y-112701557D01*
X126705245Y-112724891D01*
X126700697Y-112748223D01*
X126696108Y-112771553D01*
X126691480Y-112794882D01*
X126686811Y-112818209D01*
X126682103Y-112841535D01*
X126677355Y-112864860D01*
X126672566Y-112888184D01*
X126667737Y-112911508D01*
X126662868Y-112934831D01*
X126657958Y-112958154D01*
X126653008Y-112981477D01*
X126648017Y-113004801D01*
X126642986Y-113028125D01*
X126637914Y-113051449D01*
X126632801Y-113074774D01*
X126627647Y-113098100D01*
X126622453Y-113121428D01*
X126617217Y-113144757D01*
X126611941Y-113168087D01*
X126606623Y-113191419D01*
X126601264Y-113214754D01*
X126595864Y-113238090D01*
X126590422Y-113261429D01*
X126584939Y-113284771D01*
X126579414Y-113308115D01*
X126573848Y-113331462D01*
X126568240Y-113354813D01*
X126562590Y-113378167D01*
X126556899Y-113401524D01*
X126551166Y-113424886D01*
X126545390Y-113448251D01*
X126539573Y-113471621D01*
X126533713Y-113494995D01*
X126527812Y-113518374D01*
X126521868Y-113541757D01*
X126515882Y-113565146D01*
X126509853Y-113588540D01*
X126503782Y-113611939D01*
X126497668Y-113635344D01*
X126491512Y-113658754D01*
X126485313Y-113682171D01*
X126479071Y-113705594D01*
X126472787Y-113729023D01*
X126466459Y-113752459D01*
X126460088Y-113775902D01*
X126453675Y-113799351D01*
X126447218Y-113822808D01*
X126440718Y-113846273D01*
X126434175Y-113869745D01*
X126427588Y-113893224D01*
X126420958Y-113916712D01*
X126414285Y-113940208D01*
X126407567Y-113963713D01*
X126400806Y-113987226D01*
X126394002Y-114010748D01*
X126387153Y-114034279D01*
X126380261Y-114057819D01*
X126373325Y-114081368D01*
X126366345Y-114104928D01*
X126359320Y-114128497D01*
X126352252Y-114152076D01*
X126345139Y-114175665D01*
X126337982Y-114199264D01*
X126330780Y-114222875D01*
X126323534Y-114246496D01*
X126316243Y-114270128D01*
X126308908Y-114293771D01*
X126301528Y-114317426D01*
X126294103Y-114341092D01*
X126286634Y-114364771D01*
X126279119Y-114388461D01*
X126271560Y-114412163D01*
X126263955Y-114435878D01*
X126256306Y-114459606D01*
X126248611Y-114483346D01*
X126240870Y-114507099D01*
X126233085Y-114530866D01*
X126225254Y-114554646D01*
X126217377Y-114578439D01*
X126209455Y-114602247D01*
X126201487Y-114626068D01*
X126193474Y-114649904D01*
X126185414Y-114673754D01*
X126177309Y-114697618D01*
X126169158Y-114721498D01*
X126160961Y-114745393D01*
X126152717Y-114769302D01*
X126144428Y-114793227D01*
X126136092Y-114817168D01*
X126127710Y-114841125D01*
X126119282Y-114865097D01*
X126110807Y-114889086D01*
X126102285Y-114913092D01*
X126093717Y-114937113D01*
X126085102Y-114961152D01*
X126076440Y-114985208D01*
X126067732Y-115009281D01*
X126058976Y-115033371D01*
X126050174Y-115057479D01*
X126041324Y-115081605D01*
X126032428Y-115105749D01*
X126023484Y-115129911D01*
X126014493Y-115154091D01*
X126005454Y-115178291D01*
X125996368Y-115202508D01*
X125987235Y-115226745D01*
X125978054Y-115251002D01*
X125968825Y-115275277D01*
X125959549Y-115299572D01*
X125950224Y-115323887D01*
X125940852Y-115348223D01*
X125931432Y-115372578D01*
X125921964Y-115396954D01*
X125912448Y-115421350D01*
X125902883Y-115445767D01*
X125893271Y-115470205D01*
X125883610Y-115494665D01*
X125873900Y-115519145D01*
X125864142Y-115543648D01*
X125854336Y-115568172D01*
X125844481Y-115592718D01*
X125834577Y-115617287D01*
X126062306Y-100619016D02*
X126236531Y-100436748D01*
X126438536Y-100225520D01*
X126674148Y-99979229D01*
X126891821Y-99751690D01*
X126999328Y-99639289D01*
X127105952Y-99527781D01*
X127211699Y-99417154D01*
X127316570Y-99307394D01*
X127420571Y-99198490D01*
X127523704Y-99090426D01*
X127625974Y-98983192D01*
X127727385Y-98876772D01*
X127827939Y-98771154D01*
X127927640Y-98666326D01*
X127977172Y-98614203D01*
X128026493Y-98562273D01*
X128075602Y-98510533D01*
X128124501Y-98458982D01*
X128173189Y-98407619D01*
X128221667Y-98356441D01*
X128269936Y-98305448D01*
X128317996Y-98254637D01*
X128365847Y-98204007D01*
X128413490Y-98153555D01*
X128460926Y-98103282D01*
X128508155Y-98053184D01*
X128555177Y-98003261D01*
X128601993Y-97953510D01*
X128648603Y-97903930D01*
X128695008Y-97854519D01*
X128741208Y-97805276D01*
X128787203Y-97756199D01*
X128832995Y-97707286D01*
X128878584Y-97658536D01*
X128923969Y-97609947D01*
X128969152Y-97561518D01*
X129014133Y-97513246D01*
X129058912Y-97465130D01*
X129103490Y-97417169D01*
X129147868Y-97369361D01*
X129192045Y-97321704D01*
X129236023Y-97274197D01*
X129279801Y-97226838D01*
X129323381Y-97179624D01*
X129366762Y-97132556D01*
X129409945Y-97085630D01*
X129452931Y-97038846D01*
X129495720Y-96992202D01*
X129538313Y-96945696D01*
X129580709Y-96899326D01*
X129622910Y-96853091D01*
X129664916Y-96806989D01*
X129706727Y-96761018D01*
X129748344Y-96715178D01*
X129789767Y-96669465D01*
X129830997Y-96623879D01*
X129872034Y-96578419D01*
X129912879Y-96533081D01*
X129953532Y-96487865D01*
X129993993Y-96442769D01*
X130034264Y-96397792D01*
X130074344Y-96352931D01*
X130114234Y-96308185D01*
X130153934Y-96263553D01*
X130193446Y-96219032D01*
X130232768Y-96174622D01*
X130271903Y-96130320D01*
X130310850Y-96086125D01*
X130349609Y-96042035D01*
X130388182Y-95998049D01*
X130426568Y-95954164D01*
X130464768Y-95910380D01*
X130502784Y-95866695D01*
X130540614Y-95823107D01*
X130578259Y-95779614D01*
X130615721Y-95736214D01*
X130652999Y-95692907D01*
X130671569Y-95671287D01*
X130690093Y-95649690D01*
X130708572Y-95628115D01*
X130727006Y-95606562D01*
X130745393Y-95585031D01*
X130763736Y-95563521D01*
X130782033Y-95542033D01*
X130800284Y-95520566D01*
X130818490Y-95499120D01*
X130836651Y-95477694D01*
X130854767Y-95456289D01*
X130872837Y-95434905D01*
X130890863Y-95413541D01*
X130908843Y-95392196D01*
X130926779Y-95370872D01*
X130944669Y-95349566D01*
X130962515Y-95328281D01*
X130980316Y-95307014D01*
X130998072Y-95285766D01*
X131015783Y-95264537D01*
X131033450Y-95243326D01*
X131051072Y-95222134D01*
X131068650Y-95200960D01*
X131086183Y-95179804D01*
X131103672Y-95158665D01*
X131121117Y-95137544D01*
X131138517Y-95116440D01*
X131155873Y-95095353D01*
X131173185Y-95074283D01*
X131190453Y-95053230D01*
X131207677Y-95032193D01*
X131224857Y-95011172D01*
X131241992Y-94990168D01*
X131259084Y-94969179D01*
X131276133Y-94948206D01*
X131293137Y-94927248D01*
X131310098Y-94906305D01*
X131327015Y-94885378D01*
X131343888Y-94864465D01*
X131360718Y-94843567D01*
X131377505Y-94822683D01*
X131394248Y-94801814D01*
X131410947Y-94780958D01*
X131427604Y-94760116D01*
X131444217Y-94739288D01*
X131460787Y-94718473D01*
X131477314Y-94697672D01*
X131493798Y-94676883D01*
X131510238Y-94656107D01*
X131526636Y-94635344D01*
X131542991Y-94614592D01*
X131559303Y-94593853D01*
X131575573Y-94573126D01*
X131591799Y-94552411D01*
X131607983Y-94531707D01*
X131624124Y-94511015D01*
X131640223Y-94490333D01*
X131656279Y-94469663D01*
X131672293Y-94449003D01*
X131688265Y-94428354D01*
X131704194Y-94407715D01*
X131720081Y-94387086D01*
X131735926Y-94366467D01*
X131751728Y-94345858D01*
X131767489Y-94325258D01*
X131783207Y-94304667D01*
X131798884Y-94284085D01*
X131814518Y-94263513D01*
X131830111Y-94242948D01*
X131845662Y-94222393D01*
X131861171Y-94201845D01*
X131876639Y-94181306D01*
X131892064Y-94160774D01*
X131907449Y-94140250D01*
X131922791Y-94119734D01*
X131938093Y-94099224D01*
X131953353Y-94078722D01*
X131968571Y-94058226D01*
X131983749Y-94037737D01*
X131998885Y-94017255D01*
X132013980Y-93996778D01*
X132029034Y-93976308D01*
X132044046Y-93955843D01*
X132059018Y-93935384D01*
X132073949Y-93914930D01*
X132088839Y-93894482D01*
X132103688Y-93874038D01*
X132118497Y-93853599D01*
X132133265Y-93833164D01*
X132147992Y-93812734D01*
X132162678Y-93792308D01*
X132177324Y-93771886D01*
X132191930Y-93751468D01*
X132206495Y-93731053D01*
X132221019Y-93710642D01*
X132235504Y-93690233D01*
X132249948Y-93669828D01*
X132264352Y-93649425D01*
X132278716Y-93629025D01*
X132293040Y-93608626D01*
X132307324Y-93588230D01*
X132321567Y-93567836D01*
X132335771Y-93547444D01*
X132349936Y-93527053D01*
X132364060Y-93506663D01*
X132378145Y-93486274D01*
X132392189Y-93465886D01*
X132406195Y-93445499D01*
X132420161Y-93425112D01*
X132434087Y-93404725D01*
X132447974Y-93384339D01*
X132461821Y-93363952D01*
X132475630Y-93343565D01*
X132489399Y-93323177D01*
X132503128Y-93302788D01*
X132516819Y-93282399D01*
X132530470Y-93262008D01*
X132544083Y-93241616D01*
X132557656Y-93221222D01*
X132571191Y-93200826D01*
X132584687Y-93180428D01*
X132598144Y-93160028D01*
X132611562Y-93139626D01*
X132624941Y-93119221D01*
X132638282Y-93098813D01*
X132651585Y-93078402D01*
X132664849Y-93057988D01*
X132678074Y-93037570D01*
X132691261Y-93017148D01*
X132704410Y-92996723D01*
X132717520Y-92976294D01*
X132730592Y-92955860D01*
X132743626Y-92935422D01*
X132756622Y-92914979D01*
X132769580Y-92894531D01*
X132782500Y-92874078D01*
X132795381Y-92853620D01*
X132808225Y-92833156D01*
X132821032Y-92812686D01*
X132833800Y-92792211D01*
X132846531Y-92771729D01*
X132859224Y-92751241D01*
X132871880Y-92730747D01*
X132884498Y-92710245D01*
X132897078Y-92689737D01*
X132909621Y-92669222D01*
X132922127Y-92648699D01*
X132934595Y-92628168D01*
X132947027Y-92607630D01*
X132959421Y-92587084D01*
X132971778Y-92566530D01*
X132984097Y-92545967D01*
X132996380Y-92525395D01*
X133008626Y-92504815D01*
X133020835Y-92484226D01*
X133033007Y-92463627D01*
X133045143Y-92443020D01*
X133057241Y-92422402D01*
X133069303Y-92401775D01*
X133081329Y-92381137D01*
X133093318Y-92360490D01*
X133105270Y-92339831D01*
X133117186Y-92319163D01*
X133129065Y-92298483D01*
X133140909Y-92277792D01*
X133152716Y-92257090D01*
X133164486Y-92236377D01*
X133176221Y-92215652D01*
X133187919Y-92194914D01*
X133199582Y-92174165D01*
X133211209Y-92153404D01*
X133222799Y-92132630D01*
X133234354Y-92111843D01*
X133245873Y-92091043D01*
X133257356Y-92070231D01*
X133268804Y-92049405D01*
X133280216Y-92028565D01*
X133291592Y-92007712D01*
X133302933Y-91986844D01*
X133314238Y-91965963D01*
X133325508Y-91945067D01*
X133336743Y-91924156D01*
X133347942Y-91903231D01*
X133359106Y-91882291D01*
X133370235Y-91861336D01*
X133381329Y-91840365D01*
X133392388Y-91819379D01*
X133403412Y-91798377D01*
X133414401Y-91777358D01*
X133425355Y-91756324D01*
X133436274Y-91735273D01*
X133447159Y-91714206D01*
X133458008Y-91693122D01*
X133468824Y-91672021D01*
X133479604Y-91650902D01*
X133490350Y-91629766D01*
X133501062Y-91608613D01*
X133511739Y-91587441D01*
X133522382Y-91566252D01*
X133532990Y-91545044D01*
X133543564Y-91523818D01*
X133554104Y-91502573D01*
X133564610Y-91481309D01*
X133575082Y-91460026D01*
X133585520Y-91438724D01*
X133595924Y-91417403D01*
X133606294Y-91396061D01*
X133616630Y-91374700D01*
X133626933Y-91353319D01*
X133637201Y-91331917D01*
X133647436Y-91310495D01*
X133657638Y-91289052D01*
X133667805Y-91267588D01*
X133677940Y-91246103D01*
X133688041Y-91224597D01*
X133698108Y-91203069D01*
X133708143Y-91181520D01*
X133718144Y-91159948D01*
X133728111Y-91138354D01*
X133738046Y-91116738D01*
X133747948Y-91095100D01*
X133757816Y-91073438D01*
X133767652Y-91051754D01*
X133777454Y-91030046D01*
X133787224Y-91008315D01*
X133796961Y-90986561D01*
X133806665Y-90964782D01*
X133816337Y-90942980D01*
X133825976Y-90921153D01*
X133835582Y-90899302D01*
X133845156Y-90877426D01*
X133854697Y-90855526D01*
X133864206Y-90833600D01*
X133873683Y-90811649D01*
X133883128Y-90789673D01*
X133892540Y-90767671D01*
X133901920Y-90745643D01*
X133911268Y-90723589D01*
X133920583Y-90701509D01*
X133929867Y-90679403D01*
X133939119Y-90657269D01*
X133948339Y-90635109D01*
X133957528Y-90612922D01*
X133966684Y-90590707D01*
X133975809Y-90568465D01*
X133984902Y-90546195D01*
X133993964Y-90523898D01*
X134002994Y-90501572D01*
X134011992Y-90479218D01*
X134020959Y-90456835D01*
X134029895Y-90434424D01*
X134038800Y-90411983D01*
X134047673Y-90389514D01*
X134056515Y-90367015D01*
X134065326Y-90344487D01*
X134074106Y-90321928D01*
X134082855Y-90299340D01*
X134091573Y-90276722D01*
X134100260Y-90254073D01*
X134108916Y-90231394D01*
X134117541Y-90208684D01*
X134126136Y-90185943D01*
X134134700Y-90163170D01*
X134143233Y-90140367D01*
X134151736Y-90117531D01*
X134160209Y-90094664D01*
X134168650Y-90071765D01*
X134177062Y-90048834D01*
X134185443Y-90025870D01*
X134193794Y-90002874D01*
X134202115Y-89979844D01*
X134210406Y-89956782D01*
X134218666Y-89933686D01*
X134226897Y-89910557D01*
X134235097Y-89887395D01*
X134243268Y-89864198D01*
X134251409Y-89840967D01*
X134259520Y-89817703D01*
X134267601Y-89794403D01*
X134275653Y-89771069D01*
X134283675Y-89747700D01*
X134291667Y-89724296D01*
X134299630Y-89700856D01*
X134307563Y-89677382D01*
X134315467Y-89653871D01*
X134323342Y-89630324D01*
X134331187Y-89606742D01*
X134339004Y-89583123D01*
X134346791Y-89559467D01*
X134354548Y-89535775D01*
X134362277Y-89512045D01*
X134369977Y-89488279D01*
X134377648Y-89464475D01*
X134385290Y-89440634D01*
X134392904Y-89416755D01*
X134400488Y-89392837D01*
X134408044Y-89368882D01*
X134415571Y-89344888D01*
X134423070Y-89320856D01*
X134430540Y-89296785D01*
X134437981Y-89272675D01*
X134445394Y-89248526D01*
X134452779Y-89224337D01*
X134460136Y-89200109D01*
X134467464Y-89175840D01*
X134474764Y-89151532D01*
X134482036Y-89127184D01*
X134489280Y-89102795D01*
X134496496Y-89078365D01*
X134503684Y-89053895D01*
X134510844Y-89029384D01*
X134517976Y-89004831D01*
X134525080Y-88980237D01*
X134532157Y-88955601D01*
X134539206Y-88930923D01*
X134546227Y-88906203D01*
X134553221Y-88881441D01*
X134560188Y-88856637D01*
X134567126Y-88831789D01*
X134574038Y-88806899D01*
X134580922Y-88781966D01*
X134587779Y-88756989D01*
X134594609Y-88731969D01*
X134601412Y-88706905D01*
X134608187Y-88681797D01*
X134614936Y-88656645D01*
X134621657Y-88631449D01*
X134628352Y-88606208D01*
X134635020Y-88580922D01*
X134641661Y-88555592D01*
X134648275Y-88530216D01*
X134654863Y-88504795D01*
X134661424Y-88479328D01*
X134667958Y-88453816D01*
X134674466Y-88428257D01*
X134680947Y-88402653D01*
X134687402Y-88377002D01*
X134693831Y-88351304D01*
M02*
