%TF.GenerationSoftware,KiCad,Pcbnew,10.0.4*%
%TF.CreationDate,2026-07-12T16:00:08-07:00*%
%TF.ProjectId,starclip,73746172-636c-4697-902e-6b696361645f,rev?*%
%TF.SameCoordinates,Original*%
%TF.FileFunction,Legend,Top*%
%TF.FilePolarity,Positive*%
%FSLAX46Y46*%
G04 Gerber Fmt 4.6, Leading zero omitted, Abs format (unit mm)*
G04 Created by KiCad (PCBNEW 10.0.4) date 2026-07-12 16:00:08*
%MOMM*%
%LPD*%
G01*
G04 APERTURE LIST*
G04 Aperture macros list*
%AMRoundRect*
0 Rectangle with rounded corners*
0 $1 Rounding radius*
0 $2 $3 $4 $5 $6 $7 $8 $9 X,Y pos of 4 corners*
0 Add a 4 corners polygon primitive as box body*
4,1,4,$2,$3,$4,$5,$6,$7,$8,$9,$2,$3,0*
0 Add four circle primitives for the rounded corners*
1,1,$1+$1,$2,$3*
1,1,$1+$1,$4,$5*
1,1,$1+$1,$6,$7*
1,1,$1+$1,$8,$9*
0 Add four rect primitives between the rounded corners*
20,1,$1+$1,$2,$3,$4,$5,0*
20,1,$1+$1,$4,$5,$6,$7,0*
20,1,$1+$1,$6,$7,$8,$9,0*
20,1,$1+$1,$8,$9,$2,$3,0*%
G04 Aperture macros list end*
%ADD10C,0.150000*%
%ADD11C,0.120000*%
%ADD12RoundRect,0.090000X-0.660000X-0.360000X0.660000X-0.360000X0.660000X0.360000X-0.660000X0.360000X0*%
%ADD13R,2.000000X2.000000*%
G04 APERTURE END LIST*
D10*
X121761905Y-108454819D02*
X121761905Y-107454819D01*
X121761905Y-107454819D02*
X122000000Y-107454819D01*
X122000000Y-107454819D02*
X122142857Y-107502438D01*
X122142857Y-107502438D02*
X122238095Y-107597676D01*
X122238095Y-107597676D02*
X122285714Y-107692914D01*
X122285714Y-107692914D02*
X122333333Y-107883390D01*
X122333333Y-107883390D02*
X122333333Y-108026247D01*
X122333333Y-108026247D02*
X122285714Y-108216723D01*
X122285714Y-108216723D02*
X122238095Y-108311961D01*
X122238095Y-108311961D02*
X122142857Y-108407200D01*
X122142857Y-108407200D02*
X122000000Y-108454819D01*
X122000000Y-108454819D02*
X121761905Y-108454819D01*
X122714286Y-107550057D02*
X122761905Y-107502438D01*
X122761905Y-107502438D02*
X122857143Y-107454819D01*
X122857143Y-107454819D02*
X123095238Y-107454819D01*
X123095238Y-107454819D02*
X123190476Y-107502438D01*
X123190476Y-107502438D02*
X123238095Y-107550057D01*
X123238095Y-107550057D02*
X123285714Y-107645295D01*
X123285714Y-107645295D02*
X123285714Y-107740533D01*
X123285714Y-107740533D02*
X123238095Y-107883390D01*
X123238095Y-107883390D02*
X122666667Y-108454819D01*
X122666667Y-108454819D02*
X123285714Y-108454819D01*
X118728571Y-110262295D02*
X118271428Y-110262295D01*
X118500000Y-110262295D02*
X118500000Y-109462295D01*
X118500000Y-109462295D02*
X118423809Y-109576580D01*
X118423809Y-109576580D02*
X118347619Y-109652771D01*
X118347619Y-109652771D02*
X118271428Y-109690866D01*
X127761905Y-86954819D02*
X127761905Y-85954819D01*
X127761905Y-85954819D02*
X128000000Y-85954819D01*
X128000000Y-85954819D02*
X128142857Y-86002438D01*
X128142857Y-86002438D02*
X128238095Y-86097676D01*
X128238095Y-86097676D02*
X128285714Y-86192914D01*
X128285714Y-86192914D02*
X128333333Y-86383390D01*
X128333333Y-86383390D02*
X128333333Y-86526247D01*
X128333333Y-86526247D02*
X128285714Y-86716723D01*
X128285714Y-86716723D02*
X128238095Y-86811961D01*
X128238095Y-86811961D02*
X128142857Y-86907200D01*
X128142857Y-86907200D02*
X128000000Y-86954819D01*
X128000000Y-86954819D02*
X127761905Y-86954819D01*
X129190476Y-85954819D02*
X129000000Y-85954819D01*
X129000000Y-85954819D02*
X128904762Y-86002438D01*
X128904762Y-86002438D02*
X128857143Y-86050057D01*
X128857143Y-86050057D02*
X128761905Y-86192914D01*
X128761905Y-86192914D02*
X128714286Y-86383390D01*
X128714286Y-86383390D02*
X128714286Y-86764342D01*
X128714286Y-86764342D02*
X128761905Y-86859580D01*
X128761905Y-86859580D02*
X128809524Y-86907200D01*
X128809524Y-86907200D02*
X128904762Y-86954819D01*
X128904762Y-86954819D02*
X129095238Y-86954819D01*
X129095238Y-86954819D02*
X129190476Y-86907200D01*
X129190476Y-86907200D02*
X129238095Y-86859580D01*
X129238095Y-86859580D02*
X129285714Y-86764342D01*
X129285714Y-86764342D02*
X129285714Y-86526247D01*
X129285714Y-86526247D02*
X129238095Y-86431009D01*
X129238095Y-86431009D02*
X129190476Y-86383390D01*
X129190476Y-86383390D02*
X129095238Y-86335771D01*
X129095238Y-86335771D02*
X128904762Y-86335771D01*
X128904762Y-86335771D02*
X128809524Y-86383390D01*
X128809524Y-86383390D02*
X128761905Y-86431009D01*
X128761905Y-86431009D02*
X128714286Y-86526247D01*
X124728571Y-88762295D02*
X124271428Y-88762295D01*
X124500000Y-88762295D02*
X124500000Y-87962295D01*
X124500000Y-87962295D02*
X124423809Y-88076580D01*
X124423809Y-88076580D02*
X124347619Y-88152771D01*
X124347619Y-88152771D02*
X124271428Y-88190866D01*
X110761905Y-92954819D02*
X110761905Y-91954819D01*
X110761905Y-91954819D02*
X111000000Y-91954819D01*
X111000000Y-91954819D02*
X111142857Y-92002438D01*
X111142857Y-92002438D02*
X111238095Y-92097676D01*
X111238095Y-92097676D02*
X111285714Y-92192914D01*
X111285714Y-92192914D02*
X111333333Y-92383390D01*
X111333333Y-92383390D02*
X111333333Y-92526247D01*
X111333333Y-92526247D02*
X111285714Y-92716723D01*
X111285714Y-92716723D02*
X111238095Y-92811961D01*
X111238095Y-92811961D02*
X111142857Y-92907200D01*
X111142857Y-92907200D02*
X111000000Y-92954819D01*
X111000000Y-92954819D02*
X110761905Y-92954819D01*
X112285714Y-92954819D02*
X111714286Y-92954819D01*
X112000000Y-92954819D02*
X112000000Y-91954819D01*
X112000000Y-91954819D02*
X111904762Y-92097676D01*
X111904762Y-92097676D02*
X111809524Y-92192914D01*
X111809524Y-92192914D02*
X111714286Y-92240533D01*
X107728571Y-94762295D02*
X107271428Y-94762295D01*
X107500000Y-94762295D02*
X107500000Y-93962295D01*
X107500000Y-93962295D02*
X107423809Y-94076580D01*
X107423809Y-94076580D02*
X107347619Y-94152771D01*
X107347619Y-94152771D02*
X107271428Y-94190866D01*
X121166666Y-98204819D02*
X121166666Y-98919104D01*
X121166666Y-98919104D02*
X121119047Y-99061961D01*
X121119047Y-99061961D02*
X121023809Y-99157200D01*
X121023809Y-99157200D02*
X120880952Y-99204819D01*
X120880952Y-99204819D02*
X120785714Y-99204819D01*
X122119047Y-98204819D02*
X121642857Y-98204819D01*
X121642857Y-98204819D02*
X121595238Y-98681009D01*
X121595238Y-98681009D02*
X121642857Y-98633390D01*
X121642857Y-98633390D02*
X121738095Y-98585771D01*
X121738095Y-98585771D02*
X121976190Y-98585771D01*
X121976190Y-98585771D02*
X122071428Y-98633390D01*
X122071428Y-98633390D02*
X122119047Y-98681009D01*
X122119047Y-98681009D02*
X122166666Y-98776247D01*
X122166666Y-98776247D02*
X122166666Y-99014342D01*
X122166666Y-99014342D02*
X122119047Y-99109580D01*
X122119047Y-99109580D02*
X122071428Y-99157200D01*
X122071428Y-99157200D02*
X121976190Y-99204819D01*
X121976190Y-99204819D02*
X121738095Y-99204819D01*
X121738095Y-99204819D02*
X121642857Y-99157200D01*
X121642857Y-99157200D02*
X121595238Y-99109580D01*
X93761905Y-86954819D02*
X93761905Y-85954819D01*
X93761905Y-85954819D02*
X94000000Y-85954819D01*
X94000000Y-85954819D02*
X94142857Y-86002438D01*
X94142857Y-86002438D02*
X94238095Y-86097676D01*
X94238095Y-86097676D02*
X94285714Y-86192914D01*
X94285714Y-86192914D02*
X94333333Y-86383390D01*
X94333333Y-86383390D02*
X94333333Y-86526247D01*
X94333333Y-86526247D02*
X94285714Y-86716723D01*
X94285714Y-86716723D02*
X94238095Y-86811961D01*
X94238095Y-86811961D02*
X94142857Y-86907200D01*
X94142857Y-86907200D02*
X94000000Y-86954819D01*
X94000000Y-86954819D02*
X93761905Y-86954819D01*
X95190476Y-86288152D02*
X95190476Y-86954819D01*
X94952381Y-85907200D02*
X94714286Y-86621485D01*
X94714286Y-86621485D02*
X95333333Y-86621485D01*
X90728571Y-88762295D02*
X90271428Y-88762295D01*
X90500000Y-88762295D02*
X90500000Y-87962295D01*
X90500000Y-87962295D02*
X90423809Y-88076580D01*
X90423809Y-88076580D02*
X90347619Y-88152771D01*
X90347619Y-88152771D02*
X90271428Y-88190866D01*
X120916666Y-101454819D02*
X120916666Y-102169104D01*
X120916666Y-102169104D02*
X120869047Y-102311961D01*
X120869047Y-102311961D02*
X120773809Y-102407200D01*
X120773809Y-102407200D02*
X120630952Y-102454819D01*
X120630952Y-102454819D02*
X120535714Y-102454819D01*
X121916666Y-102454819D02*
X121345238Y-102454819D01*
X121630952Y-102454819D02*
X121630952Y-101454819D01*
X121630952Y-101454819D02*
X121535714Y-101597676D01*
X121535714Y-101597676D02*
X121440476Y-101692914D01*
X121440476Y-101692914D02*
X121345238Y-101740533D01*
X99761905Y-108454819D02*
X99761905Y-107454819D01*
X99761905Y-107454819D02*
X100000000Y-107454819D01*
X100000000Y-107454819D02*
X100142857Y-107502438D01*
X100142857Y-107502438D02*
X100238095Y-107597676D01*
X100238095Y-107597676D02*
X100285714Y-107692914D01*
X100285714Y-107692914D02*
X100333333Y-107883390D01*
X100333333Y-107883390D02*
X100333333Y-108026247D01*
X100333333Y-108026247D02*
X100285714Y-108216723D01*
X100285714Y-108216723D02*
X100238095Y-108311961D01*
X100238095Y-108311961D02*
X100142857Y-108407200D01*
X100142857Y-108407200D02*
X100000000Y-108454819D01*
X100000000Y-108454819D02*
X99761905Y-108454819D01*
X100666667Y-107454819D02*
X101285714Y-107454819D01*
X101285714Y-107454819D02*
X100952381Y-107835771D01*
X100952381Y-107835771D02*
X101095238Y-107835771D01*
X101095238Y-107835771D02*
X101190476Y-107883390D01*
X101190476Y-107883390D02*
X101238095Y-107931009D01*
X101238095Y-107931009D02*
X101285714Y-108026247D01*
X101285714Y-108026247D02*
X101285714Y-108264342D01*
X101285714Y-108264342D02*
X101238095Y-108359580D01*
X101238095Y-108359580D02*
X101190476Y-108407200D01*
X101190476Y-108407200D02*
X101095238Y-108454819D01*
X101095238Y-108454819D02*
X100809524Y-108454819D01*
X100809524Y-108454819D02*
X100714286Y-108407200D01*
X100714286Y-108407200D02*
X100666667Y-108359580D01*
X96728571Y-110262295D02*
X96271428Y-110262295D01*
X96500000Y-110262295D02*
X96500000Y-109462295D01*
X96500000Y-109462295D02*
X96423809Y-109576580D01*
X96423809Y-109576580D02*
X96347619Y-109652771D01*
X96347619Y-109652771D02*
X96271428Y-109690866D01*
X123166666Y-94456819D02*
X123166666Y-95171104D01*
X123166666Y-95171104D02*
X123119047Y-95313961D01*
X123119047Y-95313961D02*
X123023809Y-95409200D01*
X123023809Y-95409200D02*
X122880952Y-95456819D01*
X122880952Y-95456819D02*
X122785714Y-95456819D01*
X124071428Y-94456819D02*
X123880952Y-94456819D01*
X123880952Y-94456819D02*
X123785714Y-94504438D01*
X123785714Y-94504438D02*
X123738095Y-94552057D01*
X123738095Y-94552057D02*
X123642857Y-94694914D01*
X123642857Y-94694914D02*
X123595238Y-94885390D01*
X123595238Y-94885390D02*
X123595238Y-95266342D01*
X123595238Y-95266342D02*
X123642857Y-95361580D01*
X123642857Y-95361580D02*
X123690476Y-95409200D01*
X123690476Y-95409200D02*
X123785714Y-95456819D01*
X123785714Y-95456819D02*
X123976190Y-95456819D01*
X123976190Y-95456819D02*
X124071428Y-95409200D01*
X124071428Y-95409200D02*
X124119047Y-95361580D01*
X124119047Y-95361580D02*
X124166666Y-95266342D01*
X124166666Y-95266342D02*
X124166666Y-95028247D01*
X124166666Y-95028247D02*
X124119047Y-94933009D01*
X124119047Y-94933009D02*
X124071428Y-94885390D01*
X124071428Y-94885390D02*
X123976190Y-94837771D01*
X123976190Y-94837771D02*
X123785714Y-94837771D01*
X123785714Y-94837771D02*
X123690476Y-94885390D01*
X123690476Y-94885390D02*
X123642857Y-94933009D01*
X123642857Y-94933009D02*
X123595238Y-95028247D01*
X110761905Y-75454819D02*
X110761905Y-74454819D01*
X110761905Y-74454819D02*
X111000000Y-74454819D01*
X111000000Y-74454819D02*
X111142857Y-74502438D01*
X111142857Y-74502438D02*
X111238095Y-74597676D01*
X111238095Y-74597676D02*
X111285714Y-74692914D01*
X111285714Y-74692914D02*
X111333333Y-74883390D01*
X111333333Y-74883390D02*
X111333333Y-75026247D01*
X111333333Y-75026247D02*
X111285714Y-75216723D01*
X111285714Y-75216723D02*
X111238095Y-75311961D01*
X111238095Y-75311961D02*
X111142857Y-75407200D01*
X111142857Y-75407200D02*
X111000000Y-75454819D01*
X111000000Y-75454819D02*
X110761905Y-75454819D01*
X112238095Y-74454819D02*
X111761905Y-74454819D01*
X111761905Y-74454819D02*
X111714286Y-74931009D01*
X111714286Y-74931009D02*
X111761905Y-74883390D01*
X111761905Y-74883390D02*
X111857143Y-74835771D01*
X111857143Y-74835771D02*
X112095238Y-74835771D01*
X112095238Y-74835771D02*
X112190476Y-74883390D01*
X112190476Y-74883390D02*
X112238095Y-74931009D01*
X112238095Y-74931009D02*
X112285714Y-75026247D01*
X112285714Y-75026247D02*
X112285714Y-75264342D01*
X112285714Y-75264342D02*
X112238095Y-75359580D01*
X112238095Y-75359580D02*
X112190476Y-75407200D01*
X112190476Y-75407200D02*
X112095238Y-75454819D01*
X112095238Y-75454819D02*
X111857143Y-75454819D01*
X111857143Y-75454819D02*
X111761905Y-75407200D01*
X111761905Y-75407200D02*
X111714286Y-75359580D01*
X107728571Y-77262295D02*
X107271428Y-77262295D01*
X107500000Y-77262295D02*
X107500000Y-76462295D01*
X107500000Y-76462295D02*
X107423809Y-76576580D01*
X107423809Y-76576580D02*
X107347619Y-76652771D01*
X107347619Y-76652771D02*
X107271428Y-76690866D01*
%TO.C,D2*%
D11*
X119000000Y-108750000D02*
X119000000Y-114250000D01*
X119000000Y-108750000D02*
X126000000Y-108750000D01*
X119000000Y-114250000D02*
X125550000Y-114250000D01*
X119800000Y-112400000D02*
X119800000Y-110600000D01*
X125200000Y-112400000D02*
X125200000Y-110600000D01*
X125550000Y-114250000D02*
X126000000Y-113800000D01*
X126000000Y-113800000D02*
X126000000Y-108750000D01*
%TO.C,D6*%
X125000000Y-87250000D02*
X125000000Y-92750000D01*
X125000000Y-87250000D02*
X132000000Y-87250000D01*
X125000000Y-92750000D02*
X131550000Y-92750000D01*
X125800000Y-90900000D02*
X125800000Y-89100000D01*
X131200000Y-90900000D02*
X131200000Y-89100000D01*
X131550000Y-92750000D02*
X132000000Y-92300000D01*
X132000000Y-92300000D02*
X132000000Y-87250000D01*
%TO.C,D1*%
X108000000Y-93250000D02*
X108000000Y-98750000D01*
X108000000Y-93250000D02*
X115000000Y-93250000D01*
X108000000Y-98750000D02*
X114550000Y-98750000D01*
X108800000Y-96900000D02*
X108800000Y-95100000D01*
X114200000Y-96900000D02*
X114200000Y-95100000D01*
X114550000Y-98750000D02*
X115000000Y-98300000D01*
X115000000Y-98300000D02*
X115000000Y-93250000D01*
%TO.C,J5*%
X122800000Y-98800000D02*
X125200000Y-98800000D01*
X122800000Y-101200000D02*
X122800000Y-98800000D01*
X125200000Y-98800000D02*
X125200000Y-101200000D01*
X125200000Y-101200000D02*
X122800000Y-101200000D01*
%TO.C,D4*%
X91000000Y-87250000D02*
X91000000Y-92750000D01*
X91000000Y-87250000D02*
X98000000Y-87250000D01*
X91000000Y-92750000D02*
X97550000Y-92750000D01*
X91800000Y-90900000D02*
X91800000Y-89100000D01*
X97200000Y-90900000D02*
X97200000Y-89100000D01*
X97550000Y-92750000D02*
X98000000Y-92300000D01*
X98000000Y-92300000D02*
X98000000Y-87250000D01*
%TO.C,J1*%
X122800000Y-101800000D02*
X125200000Y-101800000D01*
X122800000Y-104200000D02*
X122800000Y-101800000D01*
X125200000Y-101800000D02*
X125200000Y-104200000D01*
X125200000Y-104200000D02*
X122800000Y-104200000D01*
%TO.C,D3*%
X97000000Y-108750000D02*
X97000000Y-114250000D01*
X97000000Y-108750000D02*
X104000000Y-108750000D01*
X97000000Y-114250000D02*
X103550000Y-114250000D01*
X97800000Y-112400000D02*
X97800000Y-110600000D01*
X103200000Y-112400000D02*
X103200000Y-110600000D01*
X103550000Y-114250000D02*
X104000000Y-113800000D01*
X104000000Y-113800000D02*
X104000000Y-108750000D01*
%TO.C,J6*%
X124800000Y-95800000D02*
X127200000Y-95800000D01*
X124800000Y-98200000D02*
X124800000Y-95800000D01*
X127200000Y-95800000D02*
X127200000Y-98200000D01*
X127200000Y-98200000D02*
X124800000Y-98200000D01*
%TO.C,D5*%
X108000000Y-75750000D02*
X108000000Y-81250000D01*
X108000000Y-75750000D02*
X115000000Y-75750000D01*
X108000000Y-81250000D02*
X114550000Y-81250000D01*
X108800000Y-79400000D02*
X108800000Y-77600000D01*
X114200000Y-79400000D02*
X114200000Y-77600000D01*
X114550000Y-81250000D02*
X115000000Y-80800000D01*
X115000000Y-80800000D02*
X115000000Y-75750000D01*
%TD*%
%LPC*%
D12*
%TO.C,D2*%
X120050000Y-109850000D03*
X120050000Y-113150000D03*
X124950000Y-113150000D03*
X124950000Y-109850000D03*
%TD*%
%TO.C,D6*%
X126050000Y-88350000D03*
X126050000Y-91650000D03*
X130950000Y-91650000D03*
X130950000Y-88350000D03*
%TD*%
%TO.C,D1*%
X109050000Y-94350000D03*
X109050000Y-97650000D03*
X113950000Y-97650000D03*
X113950000Y-94350000D03*
%TD*%
D13*
%TO.C,J5*%
X124000000Y-100000000D03*
%TD*%
D12*
%TO.C,D4*%
X92050000Y-88350000D03*
X92050000Y-91650000D03*
X96950000Y-91650000D03*
X96950000Y-88350000D03*
%TD*%
D13*
%TO.C,J1*%
X124000000Y-103000000D03*
%TD*%
D12*
%TO.C,D3*%
X98050000Y-109850000D03*
X98050000Y-113150000D03*
X102950000Y-113150000D03*
X102950000Y-109850000D03*
%TD*%
D13*
%TO.C,J6*%
X126000000Y-97000000D03*
%TD*%
D12*
%TO.C,D5*%
X109050000Y-76850000D03*
X109050000Y-80150000D03*
X113950000Y-80150000D03*
X113950000Y-76850000D03*
%TD*%
%LPD*%
M02*
